<svg xmlns="http://www.w3.org/2000/svg" width="512" height="512" fill="none" viewBox="0 0 512 512" id="academic-success"><path fill="#fff" d="M439.289 348.138C425.509 372.288 431.969 397.198 468.549 416.218 465.519 430.258 460.599 443.898 453.939 456.628 440.009 449.248 426.279 441.268 414.659 430.638 402.129 419.178 392.119 404.248 389.419 387.488 386.529 369.528 392.209 351.198 400.379 334.948 408.559 318.698 419.249 303.818 427.469 287.588 435.679 271.368 441.439 253.068 438.679 235.098 435.909 217.118 418.189 209.298 402.409 194.618L394.909 192.788 396.029 189.498C393.229 189.628 390.509 188.478 387.999 187.198 383.619 184.968 379.329 182.138 376.449 178.228 375.839 177.398 375.289 176.528 374.819 175.598 372.139 170.288 372.749 162.948 377.519 159.388L380.089 158.518C379.879 157.658 379.769 156.778 379.769 155.888 379.769 152.678 381.549 149.308 384.579 148.248L387.219 147.268C386.999 146.568 386.839 145.858 386.749 145.118 386.389 142.068 387.569 138.668 390.259 137.178L393.179 136.468C392.909 136.128 392.669 135.778 392.429 135.418 391.039 133.298 390.239 130.128 392.179 128.498 393.299 127.548 394.899 127.538 396.379 127.608L398.379 125.328C403.159 121.328 409.999 119.948 415.959 121.788L419.649 122.508 418.899 125.688 417.629 130.088C419.139 130.468 420.629 130.918 422.099 131.438 426.809 133.118 431.319 135.748 434.869 139.228L437.199 133.158 439.289 135.878C448.259 148.028 443.819 165.958 451.429 178.998 467.519 206.588 483.519 222.588 478.719 255.368 473.919 288.158 453.439 323.348 439.289 348.138zM286.58 147.721L286.02 141.261C287.92 134.861 285.88 127.461 280.96 122.941 276.05 118.421 268.51 117.001 262.29 119.421 259.46 113.991 253.14 110.601 247.05 111.261 240.97 111.911 235.51 116.571 233.91 122.481L227.07 124.541C222.17 124.511 217.39 127.661 215.49 132.171 213.59 136.691 214.67 142.311 218.12 145.791 211.34 146.781 206.26 154.241 207.83 160.921 209.4 167.591 217.27 172.001 223.78 169.871 221.32 173.971 220.95 179.261 222.84 183.651L226.21 187.581 227.03 188.531C233.51 193.061 243.28 191.911 248.63 186.151 248.85 185.911 249.07 185.671 249.27 185.421 251.53 187.611 254.43 189.091 257.51 189.771 260.77 190.491 264.23 190.301 267.34 189.101 270.29 187.961 272.86 185.941 274.76 183.411 276.77 180.751 278.03 177.541 278.24 174.221 284.49 174.461 290.65 170.131 292.53 164.161 294.41 158.191 291.85 151.111 286.58 147.721zM257.73 175.901C246.41 178.171 233.99 170.751 230.61 159.721 227.23 148.681 233.37 135.581 244.01 131.121L253.2 129.281C264.73 129.321 275.43 139.061 276.55 150.541 277.67 162.031 269.05 173.641 257.73 175.901z"></path><path fill="#fff" d="M257.73 175.901C246.41 178.171 233.99 170.751 230.61 159.721 227.23 148.681 233.37 135.581 244.01 131.121L253.2 129.281C264.73 129.321 275.43 139.061 276.55 150.541 277.67 162.031 269.05 173.641 257.73 175.901zM248.63 186.148V193.788C248.13 210.028 245.86 226.218 241.89 241.978 239.54 251.308 236.59 260.488 233.06 269.438 227.72 262.518 223.74 254.548 221.41 246.118 212.99 248.888 204.57 251.648 196.15 254.418 202.97 245.488 208.84 235.848 213.65 225.698 218.34 215.838 222.03 205.518 224.62 194.908L226.21 187.578 227.03 188.528C233.51 193.058 243.28 191.908 248.63 186.148zM320.51 230.506C313.36 234.536 304.96 236.326 296.79 235.546 295.6 241.896 295.54 248.456 296.6 254.826 289.7 250.066 283.5 244.326 278.18 237.866 268.54 226.206 261.76 212.196 258.81 197.356L257.51 189.766C260.77 190.486 264.23 190.296 267.34 189.096 270.29 187.956 272.86 185.936 274.76 183.406L277.65 187.536C285.26 200.366 295.24 211.776 306.91 221.076 311.22 224.526 315.77 227.676 320.51 230.506z"></path><path fill="#fff" d="M281.65 305.242C266.66 304.672 251.65 304.772 236.68 305.562C236.68 304.492 236.68 303.692 236.68 303.692C237.47 297.492 244.9 294.412 247.49 288.722C248.84 285.742 248.72 282.332 248.53 279.072C247.93 269.232 246.78 259.432 245.09 249.722L241.89 241.982C245.86 226.222 248.13 210.032 248.63 193.792V186.152C248.85 185.912 249.07 185.672 249.27 185.422C251.53 187.612 254.43 189.092 257.51 189.772L258.81 197.362C261.76 212.202 268.54 226.212 278.18 237.872L273.32 244.392C264.61 257.612 264.69 276.062 273.53 289.192C276.52 293.632 280.53 297.792 281.23 303.102L281.65 305.242Z"></path><path fill="#fff" d="M301.879 323.857C273.299 323.207 244.689 323.297 216.119 324.107L217.539 319.937C219.409 315.717 221.279 311.487 223.149 307.267L225.379 306.277C229.139 305.987 232.909 305.747 236.679 305.557 251.649 304.767 266.659 304.667 281.649 305.237 287.219 305.447 292.789 305.757 298.359 306.157 299.229 310.507 300.099 314.847 300.959 319.197L301.879 323.857zM342.309 97.7418C342.069 107.652 341.229 117.552 339.829 127.362 336.899 147.942 331.489 168.162 323.729 187.432 320.629 195.142 317.159 202.702 313.309 210.072 311.769 213.032 310.169 215.962 308.509 218.852L306.909 221.082C295.239 211.782 285.259 200.372 277.649 187.542L274.759 183.412C276.769 180.752 278.029 177.542 278.239 174.222 284.489 174.462 290.649 170.132 292.529 164.162 294.409 158.192 291.849 151.112 286.579 147.722L286.019 141.262C287.919 134.862 285.879 127.462 280.959 122.942 276.049 118.422 268.509 117.002 262.289 119.422 259.459 113.992 253.139 110.602 247.049 111.262 240.969 111.912 235.509 116.572 233.909 122.482L227.069 124.542C222.169 124.512 217.389 127.662 215.489 132.172 213.589 136.692 214.669 142.312 218.119 145.792 211.339 146.782 206.259 154.242 207.829 160.922 209.399 167.592 217.269 172.002 223.779 169.872 221.319 173.972 220.949 179.262 222.839 183.652L226.209 187.582 224.619 194.912C222.029 205.522 218.339 215.842 213.649 225.702L208.239 220.922C204.519 217.552 201.099 213.892 197.979 210.002 192.629 203.352 188.129 196.032 184.399 188.292 179.009 177.132 175.219 165.112 172.769 152.972 171.059 144.502 169.949 135.952 169.249 127.352 168.429 117.402 168.159 107.382 168.109 97.3518 168.069 90.0018 168.159 82.6418 168.249 75.3018L175.799 70.3918C229.579 54.1018 286.309 54.8418 340.419 72.5218L341.959 76.4918C342.379 83.5718 342.499 90.6618 342.309 97.7418z"></path><path fill="#fff" d="M396.031 189.497L394.911 192.787C373.031 208.207 345.241 214.987 318.711 211.387L313.311 210.067C317.161 202.697 320.631 195.137 323.731 187.427L328.961 188.377C344.161 188.847 359.451 185.957 373.431 179.987L376.451 178.227C379.331 182.137 383.621 184.967 388.001 187.197 390.511 188.477 393.231 189.627 396.031 189.497zM437.21 133.142L437.2 133.162 434.87 139.232C431.32 135.752 426.81 133.122 422.1 131.442 420.63 130.922 419.14 130.472 417.63 130.092L418.9 125.692 419.65 122.512C421.84 112.952 423.52 103.052 421.07 93.6222 418.34 83.1422 408.85 73.5922 398.07 74.6022 389.22 75.4322 382.36 82.8522 378.24 90.7222 374.12 98.6022 371.8 107.392 367.03 114.892 362.27 122.392 353.91 128.692 345.13 127.282L339.83 127.362C341.23 117.552 342.07 107.652 342.31 97.7422L348.14 95.8822C366.19 88.8322 372.54 64.9622 389.99 56.5422 401.53 50.9722 416.09 53.7822 426.01 61.8922 435.93 70.0122 441.47 82.6622 442.76 95.4122 444.04 108.162 441.41 121.032 437.21 133.142zM137.18 175.598C136.61 176.728 135.92 177.778 135.14 178.758 132.28 182.398 128.18 185.068 124.01 187.198 121.42 188.518 118.63 189.698 115.74 189.488 115.66 189.478 115.59 189.478 115.51 189.458L116.4 191.338C109.74 191.868 109.59 194.618 109.59 194.618 93.8199 209.298 76.0899 217.118 73.3299 235.098 70.5699 253.068 76.3199 271.368 84.5399 287.588 92.7599 303.818 103.44 318.698 111.62 334.948 119.8 351.198 125.47 369.528 122.58 387.488 119.88 404.248 109.87 419.178 97.3499 430.638 86.0499 440.978 72.7599 448.808 59.2199 456.018 55.6399 451.358 52.7599 446.098 50.6799 440.638 47.5799 432.518 46.0099 423.958 45.1999 415.288 80.2299 396.398 86.2799 371.898 72.7199 348.138 58.5599 323.348 38.0899 288.158 33.2899 255.368 28.4899 222.588 44.4799 206.588 60.5799 178.998 68.1799 165.958 63.7499 148.028 72.7199 135.878L75.0099 133.618 77.3199 139.038C80.8399 135.648 85.2799 133.088 89.8999 131.438 91.3699 130.908 92.8699 130.468 94.3799 130.088L93.1099 125.688 92.3599 122.508 96.0499 121.788C102 119.948 108.85 121.328 113.62 125.328L118.21 127.738 118.23 127.748C118.81 127.878 119.37 128.098 119.83 128.498 121.76 130.128 120.97 133.298 119.58 135.418 119.56 135.448 119.54 135.478 119.52 135.508L121.74 137.178C124.43 138.668 125.62 142.068 125.25 145.118 125.17 145.778 125.03 146.428 124.84 147.058L127.42 148.248C130.45 149.308 132.23 152.678 132.23 155.888 132.23 156.778 132.12 157.658 131.91 158.518L134.48 159.388C139.26 162.948 139.87 170.288 137.18 175.598z"></path><path fill="#fff" d="M197.98 209.998L193.29 211.388C166.77 214.988 138.97 208.208 117.09 192.788L116.4 191.338 115.51 189.458C115.59 189.478 115.66 189.478 115.74 189.488 118.63 189.698 121.42 188.518 124.01 187.198 128.18 185.068 132.28 182.398 135.14 178.758L138.57 179.988C152.56 185.958 167.85 188.848 183.04 188.378L184.4 188.288C188.13 196.028 192.63 203.348 197.98 209.998zM169.251 127.352L166.881 127.282C158.101 128.692 149.741 122.392 144.971 114.892 140.201 107.392 137.891 98.6022 133.771 90.7222 129.651 82.8522 122.791 75.4322 113.941 74.6022 103.161 73.5922 93.6608 83.1422 90.9408 93.6222 88.4908 103.052 90.1708 112.952 92.3608 122.512L93.1108 125.692 94.3808 130.092C92.8708 130.472 91.3708 130.912 89.9008 131.442 85.2808 133.092 80.8408 135.652 77.3208 139.042L75.0108 133.622 74.8008 133.142C70.6008 121.032 67.9608 108.162 69.2508 95.4122 70.5408 82.6622 76.0808 70.0122 86.0008 61.8922 95.9208 53.7822 110.471 50.9722 122.011 56.5422 139.471 64.9622 145.821 88.8322 163.871 95.8822L168.111 97.3522C168.161 107.382 168.431 117.402 169.251 127.352zM342.949 325.29C329.269 324.65 315.569 324.17 301.879 323.86 273.299 323.21 244.689 323.3 216.119 324.11 206.539 324.38 196.959 324.74 187.389 325.18L179.609 326.87C180.529 347.35 181.449 367.84 182.369 388.32L182.519 388.67C236.119 386.96 289.789 387.37 343.359 389.89L343.859 386.11C345.419 365.87 345.109 345.48 342.949 325.29zM314.269 369.64L314.109 371.17C279.629 369.6 245.109 368.9 210.649 369.08 209.869 360.75 210.029 352.27 209.249 343.94L214.179 343.33C247.099 342.89 280.109 343.42 313.079 344.93 314.659 353.15 315.059 361.43 314.269 369.64z"></path><path fill="#fff" d="M359.71 412.148C293.79 410.578 227.84 410.398 161.91 411.608 166.22 404.598 170.54 397.598 174.86 390.598L180.85 388.718C181.41 388.698 181.96 388.678 182.52 388.668 236.12 386.958 289.79 387.368 343.36 389.888 343.42 389.888 343.49 389.898 343.55 389.898L347.06 391.508C350.6 397.618 354.4 403.568 358.45 409.348L359.71 412.148zM314.27 369.639L314.11 371.169C279.63 369.599 245.11 368.899 210.65 369.079 209.87 360.749 210.03 352.269 209.25 343.939L214.18 343.329C247.1 342.889 280.11 343.419 313.08 344.929 314.66 353.149 315.06 361.429 314.27 369.639z"></path><path fill="#231F20" d="M442.98 147.586C439.62 138.756 431.9 132.706 423.23 129.466C418.1 127.546 412.64 126.646 407.21 126.096C404.44 125.816 401.65 125.636 398.87 125.486C396.38 125.346 393.57 124.936 391.34 126.326C386.74 129.196 389.23 135.156 391.85 138.406C394.81 142.086 399.04 144.556 403.61 145.626C405.81 146.136 408.18 146.376 410.24 147.346C412.09 148.216 413.35 149.716 414.07 151.606C415.81 156.196 415.07 161.576 414.72 166.336C414.28 172.266 413.86 178.296 415.44 184.106C416.8 189.126 419.57 193.716 424 196.566C426.44 198.136 428.7 194.246 426.27 192.676C418.79 187.856 418.49 177.656 418.98 169.756C419.49 161.576 421.84 149.296 413.52 144.016C409.82 141.666 405.22 141.956 401.32 140.156C398.1 138.676 394.34 135.766 393.41 132.166C392.97 130.476 393.72 129.836 395.4 129.826C397.86 129.806 400.36 130.056 402.82 130.226C407.78 130.566 412.73 131.126 417.54 132.386C426.29 134.686 435.27 139.926 438.65 148.776C439.08 149.906 440.17 150.696 441.42 150.346C442.49 150.056 443.41 148.726 442.98 147.586Z"></path><path fill="#231F20" d="M399.231 146.987C403.011 152.137 407.901 156.387 413.641 159.247C414.691 159.767 416.121 159.567 416.721 158.437C417.261 157.417 417.041 155.917 415.911 155.357C414.601 154.707 413.331 153.987 412.111 153.197C411.511 152.807 410.931 152.407 410.361 151.987C410.211 151.877 410.061 151.767 409.911 151.647C409.741 151.517 410.031 151.747 409.741 151.517C409.451 151.287 409.161 151.047 408.871 150.807C407.781 149.887 406.751 148.917 405.771 147.887C405.261 147.347 404.761 146.787 404.281 146.207C404.061 145.947 403.851 145.687 403.641 145.427C403.501 145.257 403.731 145.557 403.511 145.257C403.381 145.077 403.241 144.897 403.111 144.717C402.421 143.767 401.131 143.207 400.031 143.907C399.101 144.507 398.481 145.967 399.231 146.987Z"></path><path fill="#231F20" d="M389.12 135.244C386.25 136.944 384.74 139.984 384.47 143.234C384.17 146.774 385.75 150.274 387.67 153.144C391.64 159.074 397.2 164.734 403.48 168.214C407.04 170.184 411.41 171.434 415.34 169.784C416.46 169.314 417.26 168.294 416.91 167.014C416.62 165.954 415.27 164.964 414.14 165.444C410.71 166.884 407.24 165.344 404.3 163.464C401.07 161.384 398.15 158.754 395.56 155.924C393.14 153.284 390.52 150.224 389.41 146.764C388.56 144.124 388.74 140.694 391.38 139.134C393.89 137.664 391.62 133.764 389.12 135.244Z"></path><path fill="#231F20" d="M383.979 146.081C380.229 147.521 377.999 150.931 377.579 154.861C377.119 159.151 379.229 163.381 381.659 166.771C384.069 170.151 386.969 173.071 390.299 175.561C393.659 178.061 397.679 180.301 401.779 181.261C406.539 182.371 411.749 180.951 413.659 176.081C414.099 174.951 413.169 173.611 412.089 173.311C410.809 172.961 409.769 173.751 409.319 174.881C408.759 176.301 407.019 177.021 405.609 177.151C403.439 177.341 401.229 176.511 399.289 175.631C395.619 173.981 392.249 171.711 389.369 168.901C386.559 166.171 383.759 162.761 382.559 158.971C381.649 156.111 381.839 151.691 385.189 150.411C386.319 149.981 387.109 148.891 386.759 147.641C386.449 146.561 385.119 145.641 383.979 146.081Z"></path><path fill="#231F20" d="M376.381 157.454C370.151 162.264 369.581 171.234 373.431 177.764 375.541 181.334 378.691 184.154 382.111 186.424 385.661 188.774 389.831 191.144 394.111 191.664 398.531 192.204 403.861 189.814 404.571 184.964 404.751 183.764 404.271 182.544 403.001 182.194 401.941 181.904 400.411 182.554 400.231 183.764 399.821 186.594 396.811 187.584 394.281 187.164 390.991 186.624 387.811 184.704 385.041 182.944 380.081 179.794 375.481 175.084 375.481 168.854 375.481 166.104 376.391 163.074 378.651 161.324 379.611 160.584 380.131 159.394 379.461 158.244 378.911 157.314 377.351 156.704 376.381 157.454zM399.97 126.931C404.22 123.431 410.17 122.411 415.36 123.971 418.14 124.811 419.33 120.461 416.56 119.631 409.73 117.571 402.26 119.241 396.79 123.751 395.85 124.521 395.99 126.131 396.79 126.931 397.71 127.851 399.03 127.701 399.97 126.931zM437.34 137.02C443.7 145.8 443.17 157.29 445.09 167.5 446.13 173.01 448.1 177.85 450.96 182.65 453.92 187.61 457.04 192.48 460.12 197.37 465.45 205.83 470.81 214.45 474.03 223.98 477.49 234.23 478.06 245.02 476.41 255.69 472.72 279.49 462.13 301.86 450.84 322.9 448.18 327.86 445.44 332.78 442.66 337.68 440.24 341.96 437.6 346.17 435.45 350.59 432.01 357.67 429.9 365.51 430.42 373.43 431.66 392.45 446.7 406.27 462.2 415.3 464.87 416.86 467.6 418.3 470.38 419.66 472.97 420.93 475.25 417.05 472.65 415.77 456.47 407.81 438.41 395.52 435.24 376.34 434.05 369.15 435.48 361.61 438.37 354.94 440.18 350.75 442.61 346.86 444.86 342.9 447.6 338.1 450.31 333.28 452.95 328.43 464.35 307.51 475.15 285.41 479.85 261.89 482.06 250.82 482.66 239.5 480 228.45 477.66 218.7 472.96 209.74 467.8 201.22 465.02 196.63 462.11 192.12 459.26 187.58 456.28 182.83 452.81 178.02 451.03 172.66 447.68 162.61 448.69 151.6 444.88 141.66 443.94 139.2 442.76 136.88 441.22 134.74 440.51 133.76 439.26 133.28 438.14 133.93 437.18 134.51 436.63 136.03 437.34 137.02z"></path><path fill="#231F20" d="M400.821 196.208C407.951 202.808 415.981 208.298 423.261 214.708 429.431 220.138 434.801 226.468 436.341 234.768 438.301 245.338 436.651 256.498 433.581 266.688 430.331 277.468 425.251 287.528 419.641 297.248 408.421 316.728 395.041 335.418 389.211 357.438 386.391 368.098 385.471 379.298 387.621 390.168 389.541 399.838 393.881 408.968 399.561 416.988 412.021 434.558 430.331 446.448 449.001 456.538 451.351 457.808 453.721 459.058 456.091 460.298 458.651 461.638 460.931 457.758 458.361 456.408 439.561 446.568 420.521 435.798 406.851 419.158 400.701 411.668 395.761 403.028 393.101 393.678 390.191 383.438 390.371 372.658 392.651 362.318 397.551 340.138 410.731 321.328 422.051 302.058 433.141 283.158 443.241 261.818 441.421 239.308 441.041 234.628 440.171 230.148 438.141 225.878 436.351 222.108 433.751 218.738 430.871 215.728 424.491 209.048 416.721 203.838 409.641 197.948 407.721 196.348 405.831 194.708 404.001 193.008 401.881 191.058 398.691 194.238 400.821 196.208zM242.87 129.174C233.98 132.994 228.18 142.224 227.49 151.724 226.77 161.654 232.59 170.844 241.26 175.414 245.54 177.674 250.49 178.884 255.34 178.484 260.42 178.064 265.09 176.044 269.03 172.834 276.73 166.574 280.78 155.824 277.99 146.144 274.88 135.344 264.47 127.154 253.19 127.024 250.29 126.994 250.29 131.494 253.19 131.524 261.59 131.624 269.31 137.184 272.72 144.764 276.19 152.484 273.88 161.514 268.16 167.504 265.3 170.494 261.69 172.694 257.64 173.614 253.7 174.504 249.57 173.994 245.82 172.564 238.34 169.724 232.39 162.704 231.96 154.564 231.48 145.514 236.79 136.634 245.14 133.044 246.26 132.564 246.51 130.924 245.95 129.964 245.27 128.834 243.99 128.694 242.87 129.174z"></path><path fill="#231F20" d="M236.07 123.078C237.49 118.098 242.01 114.048 247.22 113.498 252.55 112.928 257.82 115.878 260.33 120.568 260.76 121.378 261.98 121.938 262.87 121.598 268.45 119.498 275.09 120.518 279.49 124.668 283.78 128.708 285.44 135.038 283.83 140.678 283.04 143.468 287.38 144.658 288.17 141.878 290.2 134.758 288.1 126.598 282.67 121.498 277.17 116.318 268.74 114.608 261.67 117.268 262.52 117.608 263.36 117.958 264.21 118.298 260.93 112.188 253.8 108.248 246.86 109.038 239.77 109.848 233.68 115.028 231.72 121.888 230.94 124.668 235.28 125.858 236.07 123.078zM285.44 149.671C289.8 152.561 291.91 158.391 290.41 163.391 288.85 168.581 283.57 172.101 278.23 171.971 276.95 171.941 276.07 173.031 275.98 174.221 275.58 179.671 271.88 184.831 266.8 186.911 261.46 189.101 255.01 187.771 250.85 183.831 250.03 183.051 248.46 182.871 247.67 183.831 242.95 189.511 234.26 190.761 228.15 186.591 225.75 184.951 223.5 188.851 225.88 190.481 233.52 195.701 244.93 194.141 250.85 187.021 249.79 187.021 248.73 187.021 247.67 187.021 253.14 192.211 261.52 193.961 268.53 191.041 275.34 188.201 279.93 181.541 280.47 174.241 279.72 174.991 278.97 175.741 278.22 176.491 285.56 176.681 292.62 171.671 294.73 164.611 296.83 157.621 293.71 149.781 287.7 145.801 285.29 144.181 283.03 148.071 285.44 149.671zM225.001 183.059C223.371 179.099 223.551 174.729 225.721 171.009 226.681 169.359 225.081 167.109 223.181 167.699 217.821 169.359 211.431 165.999 210.041 160.479 208.601 154.779 213.121 148.869 218.721 147.959 220.471 147.679 220.781 145.309 219.711 144.199 216.941 141.309 215.981 136.779 217.551 133.039 219.131 129.289 223.051 126.829 227.071 126.789 229.961 126.759 229.971 122.259 227.071 122.289 221.241 122.349 215.711 125.909 213.431 131.309 211.151 136.729 212.491 143.169 216.531 147.389 216.861 146.139 217.191 144.879 217.521 143.629 211.381 144.629 206.431 150.119 205.491 156.189 204.511 162.559 208.161 168.629 214.001 171.239 217.271 172.699 220.921 173.119 224.381 172.049 223.531 170.949 222.691 169.849 221.841 168.739 219.121 173.399 218.601 179.239 220.671 184.259 221.131 185.379 222.161 186.179 223.441 185.829 224.491 185.529 225.471 184.189 225.001 183.059z"></path><path fill="#231F20" d="M222.44 194.316C218.34 210.946 211.61 226.836 202.49 241.336 199.91 245.436 197.14 249.426 194.2 253.286 193 254.866 194.99 257.166 196.74 256.596 205.16 253.826 213.58 251.066 222 248.296 221.08 247.776 220.15 247.246 219.23 246.726 221.64 255.346 225.66 263.476 231.1 270.586 232.32 272.176 234.47 271.946 235.21 270.046 242.64 251.126 247.48 231.256 249.67 211.056 250.29 205.326 250.68 199.566 250.87 193.796 250.96 190.896 246.46 190.906 246.37 193.796 245.74 213.786 242.42 233.636 236.53 252.746 234.85 258.186 232.96 263.556 230.88 268.846 232.25 268.666 233.62 268.486 234.99 268.306 229.77 261.486 225.88 253.796 223.57 245.526 223.25 244.396 221.96 243.576 220.8 243.956 212.38 246.726 203.96 249.486 195.54 252.256 196.39 253.356 197.23 254.456 198.08 255.566 208.64 241.696 216.92 226.156 222.61 209.676 224.22 205.026 225.6 200.296 226.78 195.516 227.47 192.696 223.14 191.496 222.44 194.316zM256.639 197.963C260.329 216.353 269.769 233.523 283.159 246.643 286.959 250.363 291.089 253.743 295.459 256.773 297.249 258.013 299.049 255.973 298.769 254.233 297.799 248.263 297.869 242.103 298.949 236.153 298.229 236.703 297.499 237.253 296.779 237.803 305.389 238.573 314.089 236.643 321.629 232.443 323.129 231.613 323.049 229.413 321.629 228.553 308.289 220.563 296.449 210.013 287.089 197.593 284.379 194.003 281.879 190.263 279.579 186.393 278.099 183.903 274.209 186.163 275.689 188.663 284.029 202.663 295.049 214.923 308.019 224.773 311.649 227.533 315.439 230.093 319.359 232.433 319.359 231.133 319.359 229.843 319.359 228.543 312.469 232.383 304.619 233.983 296.779 233.283 295.879 233.203 294.769 234.033 294.609 234.933 293.369 241.733 293.319 248.583 294.429 255.403 295.529 254.553 296.629 253.713 297.739 252.863 283.079 242.713 271.569 227.963 265.199 211.313 263.389 206.583 261.979 201.713 260.989 196.743 260.409 193.933 256.069 195.133 256.639 197.963zM242.921 250.324C244.431 259.034 245.501 267.803 246.121 276.623 246.381 280.323 247.071 284.733 245.271 288.163 243.951 290.693 241.701 292.564 239.711 294.544 237.321 296.924 235.021 299.653 234.521 303.104 234.341 304.304 234.821 305.523 236.091 305.873 237.151 306.163 238.681 305.513 238.861 304.303 239.281 301.453 241.151 299.453 243.131 297.503 245.291 295.373 247.621 293.274 249.091 290.574 251.131 286.804 251.011 282.503 250.751 278.343 250.461 273.753 250.051 269.174 249.521 264.604 248.921 259.424 248.171 254.264 247.281 249.134 247.071 247.934 245.601 247.263 244.511 247.563 243.221 247.903 242.711 249.124 242.921 250.324zM271.37 243.257C262.08 257.517 262.38 277.217 272.16 291.157 274.91 295.067 278.339 298.807 279.049 303.697 279.229 304.897 280.75 305.567 281.82 305.267 283.11 304.917 283.57 303.707 283.39 302.497 282.77 298.267 280.31 294.717 277.84 291.347 275.43 288.067 273.19 284.727 271.73 280.907 268.93 273.597 268.32 265.487 270.05 257.857 271.049 253.447 272.79 249.307 275.25 245.527 276.84 243.087 272.95 240.837 271.37 243.257z"></path><path fill="#231F20" d="M166.001 75.2988C165.721 97.7688 165.501 120.319 168.711 142.609 171.491 161.889 177.081 180.959 186.931 197.859 192.251 206.979 198.831 215.389 206.641 222.509 208.781 224.459 211.971 221.279 209.821 219.329 196.201 206.919 186.701 190.699 180.661 173.409 173.831 153.889 171.381 133.219 170.641 112.639 170.191 100.199 170.341 87.7487 170.501 75.3087 170.531 72.3987 166.031 72.3988 166.001 75.2988zM176.39 72.5565C197.02 66.3265 218.34 62.5065 239.86 61.3365 261.32 60.1765 282.91 61.5765 304.03 65.5265 316.14 67.7865 328.1 70.8665 339.81 74.6865 342.57 75.5865 343.75 71.2465 341.01 70.3465 320.05 63.5165 298.32 59.0965 276.35 57.3265 254.65 55.5765 232.77 56.4665 211.27 59.9065 199.07 61.8565 187.02 64.6465 175.19 68.2165 172.43 69.0465 173.61 73.3965 176.39 72.5565z"></path><path fill="#231F20" d="M339.701 76.4878C340.821 95.5978 339.781 114.838 336.571 133.708 333.361 152.558 328.061 171.058 320.781 188.748 316.681 198.698 311.901 208.378 306.561 217.718 305.121 220.238 309.011 222.508 310.451 219.988 320.121 203.098 327.851 185.088 333.491 166.458 339.131 147.818 342.661 128.538 344.021 109.118 344.781 98.2578 344.841 87.3478 344.211 76.4878 344.041 73.6078 339.531 73.5878 339.701 76.4878zM344.531 129.451C354.021 130.861 362.391 125.161 367.791 117.771 373.791 109.561 375.931 99.3209 380.891 90.5509 384.821 83.6109 391.411 76.5909 400.011 76.7809 408.091 76.9609 414.691 83.6509 417.711 90.6809 422.351 101.511 419.351 114.151 416.741 125.091 416.071 127.901 420.411 129.111 421.081 126.291 423.681 115.401 426.201 103.761 423.151 92.6809 420.821 84.2209 414.571 76.4309 406.191 73.4209 397.341 70.2409 388.281 74.2609 382.281 80.9309 375.421 88.5509 372.731 98.4309 368.471 107.521 366.161 112.451 363.331 117.051 359.111 120.581 355.461 123.641 350.581 125.831 345.731 125.111 344.531 124.931 343.311 125.411 342.961 126.681 342.661 127.741 343.321 129.271 344.531 129.451z"></path><path fill="#231F20" d="M328.96 190.629C344.61 191.069 360.16 188.039 374.57 181.929 375.69 181.459 375.93 179.799 375.38 178.849 374.7 177.689 373.42 177.569 372.3 178.039 358.65 183.829 343.77 186.539 328.96 186.119 326.06 186.049 326.06 190.549 328.96 190.629zM318.711 213.643C339.761 216.463 361.491 212.843 380.641 203.723 386.021 201.163 391.171 198.153 396.051 194.733 397.041 194.033 397.511 192.763 396.861 191.653 396.291 190.673 394.781 190.143 393.781 190.843 376.981 202.633 356.831 209.353 336.321 210.023 330.441 210.213 324.551 209.913 318.711 209.133 317.501 208.973 316.461 210.283 316.461 211.383 316.461 212.743 317.501 213.483 318.711 213.643zM348.731 98.052C357.971 94.382 364.321 86.862 370.221 79.172 375.851 71.842 381.411 63.762 389.691 59.212 399.391 53.882 411.541 55.332 420.781 60.942 430.621 66.922 436.741 77.552 439.341 88.552 442.801 103.222 439.871 118.532 435.041 132.542 434.091 135.282 438.441 136.462 439.381 133.742 443.981 120.402 446.691 106.142 444.581 92.052 442.791 80.102 437.181 68.222 427.751 60.432 418.601 52.872 405.821 49.372 394.211 52.562 384.041 55.362 376.851 63.262 370.611 71.312 364.151 79.652 357.751 89.652 347.531 93.712 346.401 94.162 345.611 95.212 345.961 96.482 346.261 97.562 347.601 98.502 348.731 98.052zM73.359 148.793C76.209 141.303 83.369 136.123 90.719 133.543 95.479 131.873 100.479 131.013 105.489 130.533 108.029 130.293 110.579 130.133 113.139 129.993 114.229 129.933 115.329 129.843 116.419 129.843 117.059 129.843 118.059 129.783 118.509 130.353 119.369 131.433 118.129 133.543 117.529 134.453 116.439 136.083 114.979 137.543 113.359 138.653 111.699 139.793 109.909 140.603 107.969 141.113 105.869 141.663 103.709 141.933 101.639 142.603 97.289 144.033 94.409 147.243 93.209 151.633 91.979 156.153 92.399 160.993 92.729 165.613 93.379 174.573 94.559 187.003 85.739 192.683 83.309 194.243 85.569 198.143 88.009 196.573 96.639 191.023 98.099 180.163 97.579 170.743 97.289 165.513 96.359 160.053 97.119 154.823 97.399 152.873 97.979 150.773 99.269 149.233 100.709 147.523 102.789 146.863 104.899 146.383 107.199 145.853 109.519 145.493 111.709 144.593 113.929 143.683 115.929 142.463 117.739 140.893 120.839 138.223 124.439 133.523 122.879 129.163 121.969 126.603 119.569 125.463 116.989 125.353 114.339 125.233 111.589 125.573 108.949 125.753 103.449 126.143 97.919 126.763 92.599 128.243 82.429 131.063 72.889 137.433 69.019 147.593 68.589 148.733 69.499 150.063 70.589 150.363 71.859 150.703 72.919 149.933 73.359 148.793z"></path><path fill="#231F20" d="M108.889 144.717C108.399 145.377 108.299 145.517 107.719 146.207C107.259 146.747 106.789 147.287 106.309 147.797C105.309 148.857 104.249 149.867 103.129 150.807C102.869 151.027 102.609 151.237 102.349 151.447C102.259 151.517 101.949 151.757 102.189 151.577C102.039 151.687 101.889 151.807 101.739 151.917C101.169 152.337 100.589 152.747 99.9894 153.137C98.7394 153.957 97.4394 154.697 96.0994 155.367C95.0394 155.897 94.6694 157.467 95.2894 158.447C95.9894 159.527 97.2394 159.817 98.3694 159.257C104.099 156.407 108.999 152.157 112.779 146.997C113.479 146.047 112.969 144.447 111.969 143.917C110.789 143.287 109.629 143.697 108.889 144.717Z"></path><path fill="#231F20" d="M120.6 139.133C123.16 140.643 123.43 143.973 122.64 146.563C121.56 150.103 118.88 153.243 116.43 155.923C113.88 158.703 111.03 161.283 107.87 163.353C104.9 165.293 101.36 166.923 97.8604 165.453C96.7404 164.983 95.3804 165.963 95.0904 167.023C94.7304 168.323 95.5404 169.313 96.6604 169.793C103.7 172.753 111.18 167.023 116.12 162.573C118.86 160.103 121.31 157.343 123.48 154.363C125.6 151.453 127.39 148.123 127.55 144.453C127.71 140.823 126.05 137.123 122.87 135.253C120.38 133.773 118.11 137.653 120.6 139.133Z"></path><path fill="#231F20" d="M126.82 150.423C130.17 151.703 130.36 156.113 129.45 158.983C128.24 162.773 125.44 166.173 122.64 168.913C119.76 171.723 116.39 173.993 112.72 175.643C110.78 176.513 108.56 177.353 106.4 177.163C104.99 177.043 103.25 176.323 102.69 174.893C102.25 173.763 101.18 172.973 99.9196 173.323C98.8396 173.623 97.8996 174.953 98.3496 176.093C99.9296 180.123 104.05 182.073 108.25 181.593C112.58 181.103 116.84 178.913 120.4 176.493C123.8 174.183 126.81 171.383 129.33 168.133C131.98 164.713 134.29 160.753 134.47 156.323C134.64 151.903 132.19 147.683 128.02 146.093C126.88 145.663 125.55 146.573 125.25 147.663C124.9 148.923 125.68 149.983 126.82 150.423Z"></path><path fill="#231F20" d="M133.34 161.333C137.57 164.603 137.12 171.333 134.67 175.483 133.06 178.213 130.68 180.423 128.09 182.203 125.38 184.063 122.33 185.873 119.17 186.813 116.36 187.643 112.27 187.333 111.75 183.763 111.57 182.563 110.051 181.903 108.981 182.193 107.691 182.543 107.231 183.753 107.411 184.963 108.011 189.093 112.251 191.653 116.161 191.763 120.561 191.883 124.901 189.473 128.551 187.253 135.281 183.153 141.271 176.723 141 168.353 140.861 164.013 139.061 160.113 135.611 157.443 134.651 156.703 133.09 157.293 132.53 158.253 131.86 159.423 132.38 160.593 133.34 161.333zM115.209 123.739C109.739 119.229 102.279 117.569 95.4391 119.619 92.6691 120.449 93.8491 124.799 96.6391 123.959 101.829 122.399 107.779 123.419 112.029 126.919 112.969 127.689 114.289 127.839 115.209 126.919 116.009 126.129 116.149 124.519 115.209 123.739zM70.7705 134.747C64.3505 143.607 64.5405 154.917 62.7505 165.257 62.2905 167.897 61.7005 170.527 60.8305 173.057 59.9505 175.597 58.6405 177.877 57.2705 180.177 54.3405 185.087 51.2705 189.897 48.2205 194.737 42.8005 203.327 37.4405 212.067 34.0105 221.677 30.4105 231.767 29.4605 242.527 30.7305 253.137 33.6005 277.027 43.9005 299.687 54.9505 320.797 60.0405 330.527 65.5505 340.007 70.9305 349.577 74.6805 356.237 77.2105 363.667 77.1405 371.367 76.9905 389.597 62.1605 402.887 47.5105 411.417 44.8405 412.977 42.1105 414.417 39.3305 415.777 36.7305 417.057 39.0105 420.937 41.6005 419.667 58.3805 411.407 76.7405 398.557 80.8005 378.997 82.3806 371.377 81.5606 363.477 78.9105 356.197 77.4006 352.047 75.3305 348.227 73.1505 344.407 70.4805 339.737 67.8205 335.067 65.2105 330.367 53.6105 309.447 42.5505 287.597 37.1905 264.137 34.6905 253.207 33.6005 241.877 36.0305 230.827 38.1705 221.127 42.7305 212.307 47.8305 203.857 50.6405 199.207 53.5805 194.647 56.4605 190.047 59.4805 185.227 62.8505 180.397 64.8505 175.047 68.6205 164.947 67.5305 153.777 71.1305 143.637 71.9705 141.267 73.1505 139.057 74.6205 137.017 75.3305 136.037 74.7905 134.507 73.8105 133.937 72.7105 133.277 71.4805 133.757 70.7705 134.747z"></path><path fill="#231F20" d="M108 193.026C100.87 199.626 92.8397 205.116 85.5597 211.526 79.2897 217.046 73.6997 223.656 71.6697 231.946 69.1297 242.316 70.3697 253.756 72.9897 263.986 75.7597 274.806 80.4497 285.056 85.8097 294.816 96.6397 314.506 110.48 332.856 117.25 354.526 120.47 364.846 122.13 375.896 120.44 386.656 118.92 396.356 114.9 405.416 109.4 413.496 97.4297 431.046 79.0897 442.726 60.7297 452.656 58.3797 453.926 56.0097 455.176 53.6397 456.416 51.0697 457.756 53.3497 461.646 55.9097 460.306 74.8397 450.406 94.0497 439.486 107.92 422.846 114.28 415.216 119.48 406.586 122.56 397.106 125.91 386.816 126.27 375.936 124.5 365.316 120.75 342.896 108.09 323.566 96.5997 304.446 85.3097 285.656 74.1897 264.976 74.9097 242.376 75.0597 237.826 75.5697 233.176 77.3797 228.956 78.9797 225.246 81.4097 221.966 84.1797 219.056 90.5797 212.306 98.4097 207.066 105.54 201.146 107.46 199.546 109.35 197.906 111.18 196.206 113.31 194.236 110.12 191.056 108 193.026zM166.27 125.107C157.03 126.477 149.35 118.417 145.33 111.077 140.42 102.107 138.15 91.7771 131.88 83.5571 126.35 76.2971 118.09 70.8871 108.63 72.6471 99.8904 74.2671 93.1104 81.6571 89.8904 89.6071 85.1704 101.267 88.1104 114.537 90.9204 126.277 91.5904 129.097 95.9304 127.897 95.2604 125.077 92.8104 114.837 90.2504 103.737 93.3304 93.3471 95.5404 85.8971 101.47 78.7771 109.31 77.0771 117.69 75.2671 125.03 81.2871 129.41 87.8171 135.01 96.1671 137.18 106.257 142.3 114.877 147.5 123.627 156.75 131.027 167.44 129.437 168.64 129.257 169.31 127.737 169.01 126.667 168.69 125.387 167.48 124.927 166.27 125.107zM183.04 186.132C168.23 186.552 153.35 183.842 139.7 178.052 138.58 177.582 137.29 177.712 136.62 178.862 136.07 179.802 136.3 181.462 137.43 181.942 151.83 188.052 167.38 191.082 183.04 190.642 185.93 190.552 185.94 186.052 183.04 186.132zM193.29 209.143C172.97 211.863 151.94 208.593 133.44 199.753 128.13 197.213 123.04 194.233 118.22 190.853 117.22 190.153 115.72 190.673 115.14 191.663 114.48 192.783 114.95 194.043 115.95 194.743 133.32 206.933 154.28 213.793 175.47 214.533 181.42 214.743 187.38 214.443 193.29 213.653 194.49 213.493 195.54 212.733 195.54 211.403 195.54 210.303 194.5 208.983 193.29 209.143z"></path><path fill="#231F20" d="M164.461 93.712C155.511 90.162 149.491 81.932 143.851 74.532 137.791 66.582 131.381 58.102 121.921 54.042 110.871 49.292 97.7307 51.242 87.8007 57.792 77.5707 64.542 71.0107 75.782 68.2707 87.562 64.6907 102.962 67.5407 119.022 72.6207 133.742 73.5607 136.462 77.9107 135.292 76.9607 132.542 72.6007 119.922 69.7307 106.222 71.8207 92.852 73.5907 81.542 78.7907 70.462 87.8807 63.242 96.4307 56.462 108.591 53.822 118.941 57.652 127.851 60.942 134.001 68.982 139.561 76.272 146.141 84.902 152.841 93.902 163.261 98.042 164.391 98.492 165.731 97.552 166.031 96.472 166.381 95.202 165.591 94.162 164.461 93.712zM221.199 306.13C219.329 310.35 217.459 314.58 215.599 318.8 215.129 319.87 215.249 321.27 216.409 321.88 217.389 322.4 218.979 322.22 219.489 321.07 221.359 316.85 223.229 312.62 225.089 308.4 225.559 307.33 225.439 305.93 224.279 305.32 223.299 304.81 221.709 304.98 221.199 306.13z"></path><path fill="#231F20" d="M225.381 308.534C244.291 307.114 263.281 306.764 282.241 307.514 287.621 307.724 292.991 308.034 298.361 308.414 297.641 307.864 296.911 307.314 296.191 306.764 297.061 311.114 297.921 315.454 298.791 319.804 299.361 322.644 303.691 321.444 303.131 318.604 302.261 314.254 301.401 309.914 300.531 305.564 300.331 304.554 299.301 303.984 298.361 303.914 279.441 302.554 260.451 302.264 241.501 303.074 236.121 303.304 230.751 303.624 225.381 304.024 224.171 304.114 223.131 304.994 223.131 306.274 223.131 307.434 224.161 308.624 225.381 308.534zM177.35 326.867C178.27 347.347 179.19 367.837 180.11 388.317 180.24 391.197 184.74 391.217 184.61 388.317 183.69 367.837 182.77 347.347 181.85 326.867 181.72 323.977 177.22 323.967 177.35 326.867z"></path><path fill="#231F20" d="M187.389 327.434C207.649 326.514 227.929 325.954 248.209 325.764 268.409 325.574 288.609 325.754 308.799 326.294 320.179 326.594 331.569 327.024 342.939 327.554 342.189 326.804 341.439 326.054 340.689 325.304 342.839 345.504 343.149 365.864 341.599 386.124 341.509 387.334 342.699 388.374 343.849 388.374 345.139 388.374 346.009 387.344 346.099 386.124 347.639 365.874 347.339 345.504 345.189 325.304 345.059 324.044 344.269 323.114 342.939 323.054 322.679 322.104 302.399 321.514 282.119 321.294 261.919 321.074 241.719 321.224 221.519 321.734 210.139 322.024 198.749 322.424 187.379 322.944 184.499 323.064 184.489 327.564 187.389 327.434zM172.91 389.467C168.59 396.467 164.28 403.467 159.96 410.467 159.07 411.907 160.22 413.887 161.9 413.857 187.71 413.387 213.51 413.127 239.32 413.077 264.96 413.027 290.61 413.197 316.25 413.567 330.74 413.777 345.22 414.057 359.7 414.407 362.6 414.477 362.6 409.977 359.7 409.907 333.9 409.297 308.09 408.887 282.28 408.697 256.64 408.507 230.99 408.527 205.35 408.767 190.86 408.897 176.38 409.097 161.89 409.367 162.54 410.497 163.19 411.627 163.83 412.757 168.15 405.757 172.46 398.757 176.78 391.757 178.32 389.267 174.43 387.007 172.91 389.467z"></path><path fill="#231F20" d="M180.85 390.983C201.99 390.293 223.14 389.933 244.29 389.893 265.44 389.863 286.59 390.153 307.74 390.783 319.68 391.133 331.62 391.593 343.55 392.153 346.44 392.293 346.44 387.793 343.55 387.653 322.42 386.663 301.28 385.993 280.13 385.653 258.98 385.313 237.83 385.303 216.68 385.623 204.74 385.803 192.8 386.093 180.86 386.483 177.96 386.573 177.95 391.073 180.85 390.983zM206.989 343.938C207.779 352.267 208.569 360.597 209.359 368.927 209.469 370.137 210.309 371.177 211.609 371.177 212.739 371.177 213.979 370.147 213.859 368.927 213.069 360.597 212.279 352.267 211.489 343.938 211.379 342.727 210.539 341.688 209.239 341.688 208.109 341.688 206.879 342.727 206.989 343.938z"></path><path fill="#231F20" d="M214.169 345.578C239.849 345.238 265.529 345.478 291.199 346.318C298.489 346.558 305.779 346.838 313.069 347.178C312.349 346.628 311.619 346.078 310.899 345.528C312.399 353.478 312.759 361.588 312.009 369.648C311.899 370.858 313.119 371.898 314.259 371.898C315.569 371.898 316.399 370.868 316.509 369.648C317.299 361.188 316.819 352.688 315.239 344.338C315.049 343.348 313.999 342.728 313.069 342.688C287.399 341.518 261.709 340.928 236.019 340.938C228.739 340.938 221.449 340.998 214.169 341.088C211.279 341.118 211.269 345.618 214.169 345.578Z"></path><path fill="#231F20" d="M210.65 371.334C237.51 371.194 264.38 371.584 291.22 372.514 298.85 372.774 306.47 373.084 314.1 373.434 317 373.564 316.99 369.064 314.1 368.934 287.26 367.714 260.39 367.014 233.52 366.844 225.9 366.794 218.28 366.794 210.65 366.834 207.76 366.854 207.75 371.354 210.65 371.334zM345.109 392.651C348.649 398.761 352.449 404.711 356.499 410.491 357.199 411.481 358.469 411.951 359.579 411.301 360.559 410.721 361.089 409.221 360.389 408.221 356.339 402.441 352.539 396.491 348.999 390.381 347.549 387.871 343.659 390.141 345.109 392.651z"></path></svg>