<svg xmlns="http://www.w3.org/2000/svg" width="48" height="48" id="brain"><path fill-rule="evenodd" d="M24 0C10.751 0 0 10.751 0 24s10.751 24 24 24 24-10.751 24-24S37.249 0 24 0zm0 1c12.708 0 23 10.292 23 23 0 12.709-10.292 23-23 23S1 36.709 1 24C1 11.292 11.292 1 24 1zm-3.285 12.31c-1.626 0-3.005 1.038-3.54 2.481a3.781 3.781 0 0 0-3.241 2.305c-.271.647-.34 1.34-.243 2.006a4.595 4.595 0 0 0-1.605 4.441 4.6 4.6 0 0 0 1.601 2.67 3.776 3.776 0 0 0 1.118 3.271 3.788 3.788 0 0 0 2.373 1.037 3.781 3.781 0 0 0 4.031 2.446A3.782 3.782 0 0 0 24 32.078a3.782 3.782 0 0 0 2.791 1.889 3.781 3.781 0 0 0 4.031-2.446 3.79 3.79 0 0 0 2.373-1.037 3.776 3.776 0 0 0 1.117-3.271 4.6 4.6 0 0 0 1.602-2.67 4.595 4.595 0 0 0-1.605-4.441 3.762 3.762 0 0 0-.243-2.006 3.78 3.78 0 0 0-3.24-2.305c-.534-1.443-1.915-2.48-3.54-2.48-1.415 0-2.636.789-3.286 1.941-.65-1.152-1.871-1.941-3.285-1.941zm0 1a2.775 2.775 0 0 1 2.785 2.782.5.5 0 0 0 0 .033v13.092c0 1.4-1.032 2.575-2.422 2.758a2.779 2.779 0 0 1-2.86-1.528c.064-.013.127-.02.19-.037a.5.5 0 0 0-.258-.967 2.778 2.778 0 0 1-3.504-2.634c.247.116.5.219.768.29a.5.5 0 0 0 .258-.966 3.6 3.6 0 0 1-2.606-2.783 3.593 3.593 0 0 1 .944-3.194c.183.39.425.756.74 1.07a.5.5 0 1 0 .707-.706 2.777 2.777 0 0 1 1.502-4.706c-.007.093-.03.183-.03.278a.5.5 0 1 0 1 0 2.775 2.775 0 0 1 2.786-2.781zm6.57 0a2.777 2.777 0 0 1 2.787 2.782.5.5 0 1 0 1 0c0-.095-.022-.184-.029-.278a2.777 2.777 0 0 1 1.5 4.705.5.5 0 1 0 .707.708 3.76 3.76 0 0 0 .74-1.07 3.593 3.593 0 0 1 .944 3.193 3.6 3.6 0 0 1-2.606 2.783.5.5 0 0 0 .258.967c.268-.072.521-.175.768-.291a2.776 2.776 0 0 1-3.504 2.634.5.5 0 1 0-.258.967c.063.017.126.024.19.037a2.779 2.779 0 0 1-2.86 1.528 2.777 2.777 0 0 1-2.422-2.758V17.092a2.775 2.775 0 0 1 2.785-2.781zm-6.62.641a.5.5 0 1 0 .05 1c.637 0 1.142.505 1.142 1.14a.5.5 0 1 0 1 0c0-1.176-.965-2.14-2.142-2.14a.5.5 0 0 0-.05 0zm6.62 0a2.149 2.149 0 0 0-2.142 2.14.5.5 0 1 0 1 0c0-.635.505-1.14 1.142-1.14a.5.5 0 1 0 0-1zm-9.615 3.156a.5.5 0 0 0-.479.66c.069.206.155.402.256.59a4.621 4.621 0 0 0-1.27.04.5.5 0 1 0 .182.982c.844-.155 1.715 0 2.457.424a.5.5 0 0 0 .02.011.5.5 0 0 0 .012.01.5.5 0 0 0 .033.016.5.5 0 0 0 .039.014.5.5 0 0 0 .014.01.5.5 0 0 0 .023.009.5.5 0 0 0 .033.01.5.5 0 0 0 .05.012.5.5 0 0 0 .048 0 .5.5 0 0 0 .037 0 .5.5 0 0 0 .098-.022.5.5 0 0 0 .013 0 .5.5 0 0 0 .078-.035.5.5 0 0 0 .012-.01.5.5 0 0 0 .031-.021.5.5 0 0 0 .01-.01.5.5 0 0 0 .03-.022.5.5 0 0 0 .01-.011.5.5 0 0 0 .027-.026.5.5 0 0 0 .007-.01.5.5 0 0 0 .079-.113.5.5 0 0 1 .001 0 .5.5 0 0 0 .004-.011.5.5 0 0 0 .03-.083.5.5 0 0 0 .004-.011.5.5 0 0 0 .007-.037.5.5 0 0 0 .002-.012.5.5 0 0 0 .004-.088.5.5 0 0 0 0-.012.5.5 0 0 0-.004-.039.5.5 0 0 0-.002-.011.5.5 0 0 0-.007-.038.5.5 0 0 0-.004-.011.5.5 0 0 0-.01-.035.5.5 0 0 0-.004-.012.5.5 0 0 0-.016-.035.5.5 0 0 0-.005-.012.5.5 0 0 0-.018-.033.5.5 0 0 0-.006-.01.5.5 0 0 0-.021-.031.5.5 0 0 0-.041-.047.5.5 0 0 0-.026-.027.5.5 0 0 0-.01-.01.5.5 0 0 0-.029-.024.5.5 0 0 0-.01-.01.5.5 0 0 0-.03-.019 2.78 2.78 0 0 1-1.188-1.492.5.5 0 0 0-.471-.344v-.014zm12.66 0a.5.5 0 0 0-.47.344 2.78 2.78 0 0 1-1.188 1.492.5.5 0 0 0-.014.012.5.5 0 0 0-.017.01.5.5 0 0 0-.01.01.5.5 0 0 0-.03.023.5.5 0 0 0-.01.01.5.5 0 0 0-.025.027.5.5 0 0 0-.052.063.5.5 0 0 0-.014.02.5.5 0 0 0-.014.025.5.5 0 0 0-.007.015.5.5 0 0 0-.01.02.5.5 0 0 0-.012.031.5.5 0 0 0-.002 0 .5.5 0 0 0-.01.035.5.5 0 0 0-.01.04.5.5 0 0 0-.001.013.5.5 0 0 0-.004.023.5.5 0 0 0-.002.024.5.5 0 0 0 0 .011.5.5 0 0 0 .006.098.5.5 0 0 0 .002.014.5.5 0 0 0 .005.027.5.5 0 0 0 .004.012.5.5 0 0 0 .034.092.5.5 0 0 0 .001 0 .5.5 0 0 0 .002 0 .5.5 0 0 0 .077.109.5.5 0 0 0 .007.01.5.5 0 0 0 .028.027.5.5 0 0 0 .01.01.5.5 0 0 0 .029.023.5.5 0 0 0 .01.01.5.5 0 0 0 .03.02.5.5 0 0 0 .013.011.5.5 0 0 0 .093.04.5.5 0 0 0 .133.02.5.5 0 0 0 .012 0 .5.5 0 0 0 .037 0 .5.5 0 0 0 .014 0 .5.5 0 0 0 .035-.009.5.5 0 0 0 .013 0 .5.5 0 0 0 .036-.01.5.5 0 0 0 .013 0 .5.5 0 0 0 .112-.048h.007a.5.5 0 0 0 .004 0 3.614 3.614 0 0 1 2.446-.418.5.5 0 1 0 .181-.983 4.621 4.621 0 0 0-1.27-.039c.102-.188.188-.385.257-.59a.5.5 0 0 0-.479-.66v-.014zm-9.203 1.555a.5.5 0 0 0-.41.756c.538.932.385 2.1-.377 2.861a.5.5 0 1 0 .707.71 3.373 3.373 0 0 0 .537-4.071.5.5 0 0 0-.457-.256zm5.695 0a.5.5 0 0 0-.406.256 3.373 3.373 0 0 0 .537 4.07.5.5 0 1 0 .707-.709 2.363 2.363 0 0 1-.377-2.861.5.5 0 0 0-.41-.756.5.5 0 0 0-.05 0zM14.197 23.48a.5.5 0 0 0-.441.637c.153.572.456 1.094.875 1.512a.5.5 0 1 0 .705-.707 2.373 2.373 0 0 1-.613-1.065.5.5 0 0 0-.475-.377.5.5 0 0 0-.05 0zm19.553 0a.5.5 0 0 0-.473.377c-.108.402-.318.77-.613 1.065a.5.5 0 1 0 .705.707c.42-.418.722-.94.875-1.512a.5.5 0 0 0-.492-.637.5.5 0 0 1-.002 0zm-13.854 3.768v.006a.5.5 0 0 0-.085.012.5.5 0 0 0-.002 0 .5.5 0 0 0-.137.045.5.5 0 0 0-.008 0 .5.5 0 0 0-.008 0 .5.5 0 0 0-.017.01.5.5 0 0 0-.012.01 3.614 3.614 0 0 1-2.445.417.5.5 0 1 0-.182.982c.422.078.849.08 1.27.04a3.774 3.774 0 0 0-.256.59.5.5 0 1 0 .947.316 2.78 2.78 0 0 1 1.176-1.485.5.5 0 0 0 .006 0h.005a.5.5 0 0 0 .116-.093.5.5 0 0 0 .023-.028.5.5 0 0 0-.033-.654.5.5 0 0 0-.024-.023.5.5 0 0 0-.013-.014.5.5 0 0 0-.002 0 .5.5 0 0 0-.125-.076.5.5 0 0 0-.03-.014.5.5 0 0 0-.017-.01.5.5 0 0 0-.004 0 .5.5 0 0 0-.045-.011.5.5 0 0 0-.031-.01.5.5 0 0 0-.053-.01.5.5 0 0 0-.014 0zm8.19.006a.5.5 0 0 0-.129.023.5.5 0 0 0-.004 0 .5.5 0 0 0-.17.094.5.5 0 0 1-.002 0 .5.5 0 0 0 .076.815c.557.342.975.869 1.182 1.488a.5.5 0 1 0 .947-.317 3.774 3.774 0 0 0-.256-.59c.421.04.846.039 1.268-.038a.5.5 0 1 0-.18-.983c-.839.154-1.705 0-2.445-.418a.5.5 0 0 0-.006 0 .006.006 0 0 0-.006 0 .5.5 0 0 0-.017-.01.5.5 0 0 0-.012-.01.5.5 0 0 0-.004 0 .5.5 0 0 0-.139-.044.5.5 0 0 0-.085-.01.5.5 0 0 0-.014 0 .5.5 0 0 0-.004 0zM22.35 29.71a.5.5 0 0 0-.493.506c0 .635-.505 1.142-1.142 1.142a.5.5 0 1 0 0 1 2.15 2.15 0 0 0 2.142-2.142.5.5 0 0 0-.507-.506zm3.252 0a.5.5 0 0 0-.46.506 2.15 2.15 0 0 0 2.143 2.142.5.5 0 1 0 0-1 1.136 1.136 0 0 1-1.142-1.142.5.5 0 0 0-.493-.506.5.5 0 0 0-.048 0z" color="#000" font-family="sans-serif" font-weight="400" overflow="visible" style="line-height:normal;text-indent:0;text-align:start;text-decoration-line:none;text-decoration-style:solid;text-decoration-color:#000;text-transform:none;block-progression:tb;isolation:auto;mix-blend-mode:normal"></path></svg>