<svg xmlns="http://www.w3.org/2000/svg" width="512" height="512" fill="none" viewBox="0 0 512 512" id="certificate-of-achievement"><path fill="#fff" d="M226.33 223.651C226.36 237.571 214.49 250.501 200.61 251.651C186.73 252.791 172.9 241.981 170.65 228.251C168.4 214.501 178.07 199.861 191.59 196.511L200.48 195.781C214.36 196.861 226.29 209.721 226.33 223.651Z"></path><path fill="#fff" d="M242.569 222.813C250.559 219.443 254.849 209.203 251.599 201.153C248.369 193.103 223.219 188.053 223.219 188.053C222.759 179.653 215.879 172.063 207.569 170.773C199.259 169.493 190.399 174.653 187.429 182.513C183.049 175.183 172.909 171.943 165.089 175.383C157.269 178.813 152.799 188.473 155.239 196.663L149.479 205.863C143.969 209.723 140.959 216.853 142.049 223.503C143.139 230.133 148.279 235.943 154.729 237.833C148.259 244.433 147.759 255.983 153.609 263.133C153.839 263.423 154.109 263.683 154.419 263.933C161.759 269.933 188.689 265.883 188.689 265.883C189.349 267.163 190.149 268.373 191.059 269.463C194.319 273.363 199.029 276.043 204.029 276.943C206.649 277.423 209.349 277.413 211.959 276.833C220.959 274.843 228.069 266.303 228.399 257.083C232.539 258.683 237.179 258.503 241.319 256.973C246.119 255.193 250.279 251.613 252.229 246.873C255.889 238.023 251.329 226.673 242.569 222.813ZM200.609 251.653C186.729 252.793 172.899 241.983 170.649 228.253C168.399 214.503 178.069 199.863 191.589 196.513L200.479 195.783C214.359 196.873 226.299 209.723 226.329 223.663C226.359 237.573 214.489 250.503 200.609 251.653Z"></path><path fill="#fff" d="M191.06 269.46L185.11 277.68C182.48 283.56 180.12 289.56 178.05 295.67C172.06 313.37 168.49 331.91 167.5 350.58C158.99 344.31 151.71 336.37 146.21 327.34C135.65 330.06 124.59 330.84 113.76 329.61C122.96 317.17 131.18 303.99 138.3 290.27C140.87 285.37 143.28 280.38 145.56 275.34L145.64 275.25L154.42 263.93C161.76 269.93 188.69 265.88 188.69 265.88C189.35 267.16 190.15 268.37 191.06 269.46Z"></path><path fill="#fff" d="M209.031 295.939L205.181 296.539C197.941 296.379 190.711 296.209 183.471 296.039C183.351 296.039 183.221 296.029 183.101 296.029L178.051 295.679C180.121 289.569 182.481 283.569 185.111 277.689L191.061 269.469C194.321 273.369 199.031 276.049 204.031 276.949V284.969C205.741 288.599 207.411 292.249 209.031 295.939Z"></path><path fill="#fff" d="M483.43 365.619C475.85 402.789 446.79 433.619 411.8 448.299C376.82 462.979 336.77 462.739 300.13 452.879C267.66 444.139 236.75 427.699 214.16 402.789C191.58 377.889 177.96 344.099 180.81 310.599L183.46 296.029C190.7 296.209 197.93 296.369 205.17 296.529L209.02 295.929C216.7 313.409 223.31 331.369 228.78 349.679C232.61 342.889 236.44 336.119 240.27 329.329L242.79 340.699C247.23 359.309 259.77 375.429 275.48 386.359C291.19 397.299 309.88 403.369 328.8 406.279C344.16 408.639 360.07 408.949 375.03 404.719C403.49 396.639 426.17 371.029 430.75 341.799C435.33 312.569 421.56 281.259 396.93 264.869L393.65 262.949C394.14 259.009 394.63 255.079 395.12 251.139V247.829C389.9 241.659 386.49 234.179 383.29 226.759C381.2 221.879 379.14 216.949 376.65 212.269C375.29 209.719 373.8 207.249 372.1 204.899C369.1 200.759 365.47 197.059 362.71 192.739C359.96 188.419 358.09 183.189 359.19 178.179C359.73 175.669 361.13 173.199 363.44 172.069C366.17 170.729 369.57 171.589 372.03 173.369C374.51 175.149 376.27 177.719 378.08 180.169C378.4 180.599 378.72 181.019 379.04 181.449C384.37 188.509 390.43 195.019 397.12 200.829L397.78 197.219C398.14 183.129 398.5 169.059 398.87 154.969L407.72 166.869C426.5 194.109 443.4 222.629 458.3 252.169C476.09 287.449 491.33 326.939 483.43 365.619Z"></path><path fill="#fff" d="M400.861 77.9962C400.201 103.656 399.541 129.336 398.891 154.996C398.531 169.086 398.171 183.156 397.801 197.246L397.141 200.856C390.451 195.046 384.391 188.536 379.061 181.476L380.191 174.766C382.501 144.826 383.311 122.606 382.351 95.3962C279.041 77.2062 58.9507 74.3662 58.9507 74.3662C48.5007 136.236 42.5207 198.866 41.0407 261.586C72.8207 266.116 104.601 270.626 136.381 275.156L145.651 275.246L145.571 275.336C143.291 280.376 140.881 285.366 138.311 290.266L133.971 289.696C97.7807 288.456 61.7407 283.386 26.6307 274.576C24.9207 200.356 34.5207 126.376 44.1007 52.7462C163.461 49.6762 283.121 58.1362 400.861 77.9962Z"></path><path fill="#fff" d="M380.189 174.758L379.059 181.468C378.729 181.038 378.409 180.618 378.099 180.188C376.289 177.748 374.529 175.168 372.049 173.388C369.579 171.598 366.189 170.748 363.459 172.088C361.149 173.218 359.739 175.688 359.209 178.198C358.109 183.208 359.979 188.438 362.729 192.758C365.489 197.078 369.119 200.768 372.119 204.918C373.819 207.268 375.309 209.728 376.669 212.288V227.178C376.619 245.088 375.579 263.858 372.239 280.498C334.279 280.258 296.319 280.018 258.349 279.788L248.759 278.268C246.949 273.478 245.159 268.678 243.419 263.868L241.329 256.998C246.129 255.218 250.289 251.638 252.239 246.898C255.899 238.048 251.339 226.698 242.579 222.838C250.569 219.468 254.859 209.228 251.609 201.178C248.379 193.128 223.229 188.078 223.229 188.078C222.769 179.678 215.889 172.088 207.579 170.798C199.269 169.518 190.409 174.678 187.439 182.538C183.059 175.208 172.919 171.968 165.099 175.408C157.279 178.838 152.809 188.498 155.249 196.688L149.489 205.888C143.979 209.748 140.969 216.878 142.059 223.528C143.149 230.158 148.289 235.968 154.739 237.858C148.269 244.458 147.769 256.008 153.619 263.158C153.849 263.448 154.119 263.708 154.429 263.958L145.649 275.278L136.379 275.188C104.599 270.658 72.8191 266.148 41.0391 261.618C42.5191 198.888 48.5091 136.268 58.9491 74.3984C58.9491 74.3984 279.049 77.2384 382.359 95.4284C383.319 122.598 382.499 144.818 380.189 174.758Z"></path><path fill="#fff" d="M269.339 329.117C261.299 326.257 253.279 323.407 245.249 320.547C243.589 323.477 241.939 326.407 240.279 329.337C236.449 336.127 232.619 342.897 228.789 349.687C223.319 331.377 216.709 313.427 209.029 295.937C207.409 292.257 205.739 288.607 204.029 284.967V276.947C206.649 277.427 209.349 277.417 211.959 276.837C220.959 274.847 228.069 266.307 228.399 257.087C232.539 258.687 237.179 258.507 241.319 256.977L243.409 263.847C245.149 268.657 246.939 273.457 248.749 278.247C250.929 284.027 253.159 289.787 255.439 295.537C259.899 306.797 264.539 317.987 269.339 329.117Z"></path><path fill="#fff" d="M395.13 247.828V251.138C394.64 255.078 394.15 259.008 393.66 262.948C392.82 269.748 391.96 276.538 391.12 283.338C390.74 286.478 390.28 289.788 388.3 292.248C385.07 296.318 379.11 296.628 373.91 296.608C336.83 296.448 299.75 296.278 262.67 296.118L255.45 295.528C253.17 289.788 250.94 284.018 248.76 278.238L258.35 279.758C296.31 279.988 334.27 280.228 372.24 280.468C375.58 263.828 376.61 245.058 376.67 227.148V212.258C379.16 216.938 381.22 221.868 383.31 226.748C386.51 234.188 389.92 241.658 395.13 247.828Z"></path><path fill="#231F20" d="M190.989 194.341C179.779 197.191 170.929 207.101 168.679 218.371C167.499 224.291 168.159 230.261 170.649 235.751C173.029 241.021 177.079 245.491 181.849 248.711C186.719 252.001 192.599 253.951 198.499 253.971C204.289 253.991 210.039 252.071 214.789 248.771C224.569 241.991 230.399 230.031 228.009 218.151C225.389 205.121 213.699 194.641 200.489 193.521C199.279 193.421 198.239 194.631 198.239 195.771C198.239 197.071 199.269 197.921 200.489 198.021C210.419 198.861 219.329 206.351 222.639 215.631C226.139 225.451 222.689 235.951 215.099 242.831C211.399 246.181 206.729 248.531 201.769 249.261C196.909 249.971 191.829 248.971 187.469 246.781C178.459 242.251 172.039 233.001 172.619 222.721C173.249 211.691 181.459 201.411 192.189 198.681C194.989 197.971 193.799 193.631 190.989 194.341Z"></path><path fill="#231F20" d="M157.401 196.073C155.771 190.373 157.761 184.093 162.041 180.073 166.391 175.983 172.791 175.313 178.221 177.543 181.211 178.773 183.801 180.903 185.491 183.663 186.571 185.433 188.921 184.883 189.601 183.123 191.691 177.773 196.891 174.033 202.441 173.033 208.171 172.003 213.881 174.693 217.431 179.143 219.451 181.673 220.751 184.813 220.961 188.053 221.151 190.923 225.651 190.953 225.461 188.053 224.971 180.643 220.401 173.743 213.721 170.443 207.021 167.123 198.971 167.913 192.881 172.223 189.401 174.683 186.801 177.953 185.251 181.923 186.621 181.743 187.991 181.563 189.361 181.383 185.491 175.063 177.971 171.293 170.581 171.803 162.761 172.343 156.461 177.543 153.661 184.743 152.121 188.703 151.881 193.173 153.051 197.263 153.861 200.053 158.201 198.863 157.401 196.073zM230.689 193.954C236.379 191.844 242.909 193.614 247.009 198.034 251.059 202.394 251.379 208.924 248.669 214.084 247.059 217.134 244.619 219.494 241.449 220.864 239.959 221.514 239.989 224.094 241.449 224.754 247.509 227.504 251.329 233.874 251.259 240.494 251.189 247.254 246.449 252.894 240.149 255.014 236.479 256.244 232.639 256.274 229.009 254.914 227.569 254.374 226.219 255.744 226.159 257.084 225.869 263.524 221.949 269.524 216.389 272.724 210.759 275.954 203.859 275.664 198.249 272.524 194.999 270.704 192.379 268.064 190.649 264.754 189.309 262.184 185.419 264.454 186.759 267.024 190.499 274.174 198.029 278.784 205.989 279.474 214.079 280.174 221.689 276.034 226.349 269.554 228.959 265.924 230.449 261.554 230.649 257.094 229.699 257.814 228.749 258.544 227.799 259.264 235.619 262.194 245.029 259.544 250.619 253.454 256.449 247.104 257.109 237.914 253.319 230.344 251.279 226.264 247.879 222.764 243.699 220.874 243.699 222.174 243.699 223.464 243.699 224.764 250.619 221.764 255.019 214.174 254.939 206.734 254.849 198.774 249.389 192.224 242.029 189.644 238.029 188.234 233.479 188.154 229.489 189.634 228.349 190.054 227.579 191.154 227.919 192.404 228.219 193.484 229.539 194.384 230.689 193.954zM148.35 203.918C141.98 208.478 138.58 216.328 139.88 224.088 141.13 231.548 146.98 237.808 154.14 239.988 153.81 238.738 153.48 237.478 153.15 236.228 147.57 242.038 145.78 251.098 148.58 258.648 151.48 266.478 158.73 271.398 166.97 272.038 171.43 272.388 176.02 271.308 179.8 268.898 182.23 267.348 179.98 263.448 177.53 265.008 172.15 268.448 165.04 268.388 159.55 265.198 153.82 261.868 151.15 255.338 151.93 248.878 152.35 245.348 153.89 241.968 156.35 239.408 157.54 238.168 156.99 236.148 155.36 235.648 149.74 233.938 145.35 229.028 144.31 223.248 143.27 217.508 145.92 211.178 150.65 207.798 151.64 207.088 152.11 205.838 151.46 204.718 150.86 203.748 149.34 203.208 148.35 203.918zM143.62 274.207C136.88 289.117 128.93 303.477 119.83 317.077 117.25 320.937 114.58 324.737 111.82 328.467 110.69 329.997 112.27 331.687 113.76 331.857 124.81 333.077 136.03 332.257 146.8 329.517 145.95 329.177 145.11 328.827 144.26 328.487 150.01 337.867 157.52 345.987 166.36 352.527 167.83 353.617 169.66 352.117 169.75 350.587 170.79 331.297 174.6 312.197 181.02 293.967 182.82 288.837 184.83 283.787 187.05 278.827 187.55 277.717 187.37 276.407 186.24 275.747 185.28 275.187 183.66 275.437 183.16 276.557 175.04 294.737 169.51 313.977 166.84 333.717 166.08 339.317 165.55 344.947 165.24 350.597 166.37 349.947 167.5 349.297 168.63 348.657 160.44 342.587 153.47 334.917 148.15 326.227 147.62 325.367 146.59 324.947 145.61 325.197 135.21 327.847 124.44 328.557 113.77 327.377 114.42 328.507 115.07 329.637 115.71 330.767 125.42 317.597 134.06 303.637 141.48 289.057 143.59 284.917 145.59 280.727 147.5 276.497 148 275.387 147.82 274.077 146.69 273.417 145.74 272.837 144.13 273.097 143.62 274.207z"></path><path fill="#231F20" d="M202.08 286.099C209.69 302.259 216.35 318.859 222.03 335.789C223.64 340.599 225.17 345.429 226.62 350.279C227.16 352.099 229.76 352.539 230.73 350.819C236.22 341.109 241.7 331.399 247.19 321.679C246.34 322.019 245.5 322.369 244.65 322.709C252.68 325.569 260.71 328.419 268.74 331.279C270.81 332.019 271.98 329.579 271.28 327.969C264.11 311.349 257.32 294.569 250.92 277.639C249.11 272.849 247.33 268.049 245.58 263.229C245.17 262.089 244.05 261.319 242.81 261.659C241.71 261.959 240.82 263.279 241.24 264.429C247.51 281.699 254.18 298.819 261.25 315.779C263.26 320.609 265.31 325.429 267.38 330.239C268.23 329.139 269.07 328.039 269.92 326.929C261.89 324.069 253.86 321.219 245.83 318.359C244.91 318.029 243.75 318.569 243.29 319.389C237.8 329.099 232.32 338.809 226.83 348.529C228.2 348.709 229.57 348.889 230.94 349.069C225.73 331.659 219.49 314.569 212.3 297.879C210.26 293.149 208.14 288.459 205.95 283.809C205.43 282.709 203.85 282.429 202.87 282.999C201.76 283.679 201.56 284.989 202.08 286.099Z"></path><path fill="#231F20" d="M183.099 298.266C190.459 298.436 197.819 298.616 205.179 298.786 208.079 298.856 208.079 294.356 205.179 294.286 197.819 294.116 190.459 293.936 183.099 293.766 180.209 293.706 180.209 298.206 183.099 298.266zM408.619 207.017C398.949 200.187 390.269 191.967 382.869 182.727 379.429 178.437 376.489 172.717 371.279 170.337 368.559 169.097 365.469 168.727 362.679 169.977 360.199 171.087 358.519 173.337 357.569 175.817 355.409 181.417 357.229 187.797 360.119 192.777 363.219 198.117 367.769 202.407 371.209 207.497 377.959 217.497 381.239 229.297 387.039 239.817 393.129 250.877 403.079 261.057 416.429 261.667 419.329 261.797 419.319 257.297 416.429 257.167 406.069 256.697 397.879 248.957 392.689 240.577 386.749 230.987 383.529 220.037 378.109 210.177 375.309 205.097 371.699 200.727 368.069 196.237 364.779 192.157 361.439 187.377 361.159 181.957 361.049 179.727 361.409 177.287 362.809 175.467 364.239 173.597 366.499 173.347 368.619 174.077 370.979 174.887 372.769 176.847 374.269 178.767 375.939 180.887 377.479 183.107 379.149 185.227 386.919 195.057 396.129 203.667 406.349 210.897 407.339 211.597 408.849 211.077 409.429 210.087 410.079 208.967 409.609 207.727 408.619 207.017z"></path><path fill="#231F20" d="M262.661 298.371C286.111 298.471 309.561 298.581 333.001 298.681 344.811 298.731 356.611 298.781 368.421 298.841 373.161 298.861 378.131 299.231 382.781 298.051 387.421 296.881 390.881 293.821 392.301 289.211 393.131 286.521 393.321 283.641 393.671 280.861 394.081 277.561 394.491 274.261 394.901 270.951 395.721 264.351 396.541 257.741 397.361 251.141 397.511 249.931 396.221 248.891 395.111 248.891 393.771 248.891 393.011 249.931 392.861 251.141 391.481 262.261 390.321 273.431 388.701 284.511 388.391 286.611 387.981 288.881 386.691 290.641 385.651 292.071 384.081 292.961 382.421 293.471 378.191 294.781 373.521 294.361 369.161 294.341 346.461 294.241 323.761 294.141 301.061 294.041 288.261 293.981 275.451 293.931 262.651 293.871 259.771 293.861 259.761 298.361 262.661 298.371zM400.05 197.239C400.84 166.309 401.63 135.379 402.43 104.449 402.66 95.6293 402.88 86.8093 403.11 77.9893 403.13 77.0893 402.4 75.9793 401.46 75.8193 355.33 68.0493 308.9 61.9993 262.32 57.7093 215.93 53.4393 169.39 50.9093 122.81 50.1393 96.58 49.6993 70.34 49.8293 44.1201 50.4993 42.7901 50.5293 42.0301 51.5093 41.8701 52.7493 38.1301 81.5093 34.3801 110.279 31.3101 139.129 28.2401 167.939 25.8401 196.829 24.7801 225.789 24.1901 242.049 24.0301 258.319 24.3901 274.579 24.4101 275.549 25.0701 276.509 26.0401 276.749 53.5101 283.619 81.5401 288.239 109.76 290.539 117.82 291.199 125.89 291.659 133.97 291.939 136.87 292.039 136.86 287.539 133.97 287.439 105.94 286.459 78.0201 283.219 50.5301 277.679 42.7201 276.109 34.9601 274.339 27.2301 272.409 27.7801 273.129 28.3301 273.859 28.8801 274.579 28.2301 245.619 29.2701 216.649 31.3701 187.769 33.4801 158.849 36.6301 130.009 40.1601 101.229 42.1401 85.0593 44.2401 68.8993 46.3501 52.7493 45.6001 53.4993 44.8501 54.2493 44.1001 54.9993 90.6701 53.8093 137.28 54.3593 183.8 56.6593 230.08 58.9493 276.28 62.9793 322.26 68.7193 348.34 71.9793 374.34 75.7993 400.25 80.1593 399.7 79.4393 399.15 78.7093 398.6 77.9893 397.81 108.919 397.02 139.849 396.22 170.779 395.99 179.599 395.77 188.419 395.54 197.239 395.47 200.139 399.97 200.139 400.05 197.239z"></path><path fill="#231F20" d="M405.79 168.041C418.94 187.151 431.19 206.871 442.48 227.141C453.53 246.991 464.18 267.331 472.09 288.671C479.77 309.401 484.84 331.511 482.91 353.731C481.28 372.481 474.17 390.221 463.12 405.391C452.46 420.021 438.28 432.061 422.42 440.721C404.07 450.731 383.3 455.971 362.5 457.281C340.81 458.641 318.99 455.891 298.11 449.991C278.75 444.521 260.12 436.301 243.42 425.041C226.75 413.801 212.16 399.421 201.51 382.321C190.84 365.191 183.96 345.491 182.87 325.271C182.61 320.381 182.69 315.481 183.09 310.601C183.33 307.711 178.83 307.731 178.59 310.601C176.88 331.341 181.36 352.201 190.2 370.961C199.06 389.761 212.36 406.231 228.38 419.401C244.32 432.501 262.64 442.431 281.99 449.501C302.5 456.991 324.28 461.381 346.12 462.031C368.32 462.691 390.82 459.331 411.43 450.881C428.76 443.771 444.59 433.011 457.39 419.311C470.06 405.741 479.77 389.261 484.45 371.231C490.09 349.491 488.08 326.621 482.17 305.161C476.04 282.871 465.99 261.851 455.31 241.431C444.34 220.461 432.34 200.021 419.38 180.211C416.21 175.361 412.97 170.541 409.68 165.771C408.04 163.391 404.14 165.641 405.79 168.041Z"></path><path fill="#231F20" d="M240.631 341.297C246.071 363.807 262.571 382.187 282.441 393.377 293.221 399.447 305.031 403.637 317.081 406.347 329.951 409.247 343.351 410.857 356.541 410.037 368.531 409.287 380.261 406.377 390.871 400.687 399.951 395.827 408.101 389.137 414.741 381.277 428.441 365.027 435.661 343.947 433.471 322.677 431.301 301.567 420.901 281.217 404.451 267.667 402.401 265.977 400.271 264.387 398.071 262.917 395.661 261.297 393.401 265.197 395.801 266.807 412.681 278.107 424.181 296.507 428.021 316.357 429.911 326.117 429.861 336.297 427.661 346.007 425.471 355.647 421.301 364.737 415.621 372.827 409.961 380.887 402.731 387.917 394.491 393.307 385.481 399.207 375.431 402.977 364.801 404.657 352.181 406.657 339.151 405.797 326.611 403.657 314.881 401.657 303.251 398.437 292.431 393.437 272.541 384.247 254.891 368.517 247.211 347.557 246.321 345.117 245.571 342.627 244.961 340.107 244.291 337.287 239.951 338.477 240.631 341.297zM156.4 91.9719C173.32 92.7919 190.24 93.6119 207.15 94.4319 223.98 95.2519 240.82 96.0619 257.65 96.8819 267.19 97.3419 276.72 97.8019 286.26 98.2719 289.15 98.4119 289.15 93.9119 286.26 93.7719 269.34 92.9519 252.42 92.1319 235.51 91.3119 218.68 90.4919 201.84 89.6819 185.01 88.8619 175.47 88.4019 165.94 87.9419 156.4 87.4719 153.51 87.3319 153.51 91.8319 156.4 91.9719zM100.381 131.858C131.701 135.738 163.101 138.878 194.571 141.278 225.871 143.668 257.231 145.318 288.601 146.228 306.271 146.738 323.951 147.018 341.631 147.068 344.531 147.078 344.531 142.578 341.631 142.568 310.071 142.478 278.521 141.658 247.001 140.078 215.651 138.508 184.331 136.208 153.091 133.178 135.491 131.468 117.921 129.528 100.381 127.348 99.1709 127.198 98.1309 128.488 98.1309 129.598 98.1309 130.948 99.1709 131.708 100.381 131.858zM111.07 164.781C139.57 165.731 168.07 166.961 196.55 168.481 225.03 170.001 253.49 171.801 281.93 173.891 297.97 175.071 314 176.341 330.03 177.701 331.24 177.801 332.28 176.591 332.28 175.451 332.28 174.151 331.25 173.301 330.03 173.201 301.61 170.791 273.17 168.661 244.71 166.821 216.25 164.981 187.77 163.431 159.28 162.161 143.21 161.441 127.14 160.821 111.07 160.291 108.18 160.181 108.18 164.681 111.07 164.781zM280.98 240.802C299.63 239.482 318.39 239.792 336.98 241.782 342.22 242.342 347.44 243.042 352.65 243.872 353.85 244.062 355.07 243.562 355.42 242.302 355.71 241.232 355.06 239.722 353.85 239.532 335.1 236.552 316.11 235.182 297.13 235.562 291.74 235.672 286.36 235.922 280.98 236.302 278.11 236.502 278.08 241.002 280.98 240.802zM70.3509 228.266C88.7909 228.646 107.231 229.026 125.671 229.406 128.571 229.466 128.571 224.966 125.671 224.906 107.231 224.526 88.7909 224.146 70.3509 223.766 67.4509 223.706 67.4609 228.206 70.3509 228.266z"></path><path fill="#231F20" d="M56.7797 73.767C52.6897 98.017 49.2697 122.387 46.5397 146.827 43.8097 171.237 41.7697 195.717 40.4097 220.237 39.6497 234.017 39.1097 247.807 38.7797 261.597 38.7597 262.477 39.4897 263.637 40.4297 263.767 65.2097 267.297 89.9997 270.817 114.78 274.347 121.78 275.347 128.78 276.337 135.78 277.337 136.98 277.507 138.2 277.047 138.55 275.767 138.84 274.717 138.19 273.167 136.98 272.997 112.2 269.467 87.4097 265.947 62.6297 262.417 55.6297 261.417 48.6297 260.427 41.6297 259.427 42.1797 260.147 42.7297 260.877 43.2797 261.597 43.8597 237.127 45.1197 212.677 47.0697 188.277 48.9997 164.077 51.5897 139.937 54.8797 115.887 56.7497 102.217 58.8297 88.577 61.1297 74.967 61.3297 73.767 60.8097 72.547 59.5597 72.197 58.4697 71.897 56.9797 72.557 56.7797 73.767zM69.0807 73.4769C109.921 72.6569 150.801 73.3769 191.591 75.6369 232.381 77.9069 273.081 81.7169 313.581 87.0569 336.381 90.0669 359.111 93.5769 381.761 97.5569 381.211 96.8369 380.661 96.1069 380.111 95.3869 380.811 115.537 380.471 135.677 379.261 155.807 378.881 162.127 378.431 168.447 377.941 174.767 377.721 177.657 382.221 177.637 382.441 174.767 384.021 154.187 385.131 133.577 384.981 112.937 384.941 107.087 384.801 101.247 384.601 95.3969 384.571 94.4869 383.931 93.3969 382.951 93.2269 342.521 86.1169 301.821 80.5369 260.961 76.4969 220.101 72.4569 179.091 69.9769 138.041 69.0569 115.051 68.5369 92.0607 68.5169 69.0707 68.9769 66.1907 69.0369 66.1807 73.5369 69.0807 73.4769zM258.351 282.012C287.991 282.202 317.631 282.392 347.261 282.572 355.591 282.622 363.911 282.682 372.241 282.732 373.171 282.742 374.221 282.032 374.411 281.082 377.941 263.362 378.851 245.192 378.921 227.152 378.931 224.252 374.431 224.252 374.421 227.152 374.351 244.782 373.531 262.562 370.071 279.882 370.791 279.332 371.521 278.782 372.241 278.232 342.601 278.042 312.961 277.852 283.331 277.672 275.001 277.622 266.681 277.562 258.351 277.512 255.451 277.492 255.451 281.992 258.351 282.012z"></path></svg>