<svg xmlns="http://www.w3.org/2000/svg" data-name="Layer 1" viewBox="0 0 512 512" id="client-experience"><g data-name="<Group>"><path fill="#fdc75b" d="M416.62,183.13a11.5,11.5,0,0,1-3.37,8.14l-.06.16a22.825,22.825,0,0,0-16.3-.09l-.08-.23a11.512,11.512,0,1,1,19.81-7.98Z"></path><path fill="#ed664c" d="M427.73,219.49v-6.8a22.811,22.811,0,0,0-14.54-21.26l.06-.16a11.508,11.508,0,1,0-16.44-.16l.08.23a22.835,22.835,0,0,0-14.66,19.07c-.03.29-.07,6.01-.09,11.18-.02,4.37-.03,8.35-.03,8.35a22.81,22.81,0,0,0,45.62,0V219.49Zm-22.01-63.92A90.005,90.005,0,0,1,456.33,320l-.33-.48v-30.7a23.7,23.7,0,0,0-23.58-26.08h-5.76l-4.25,9.17a18.112,18.112,0,0,1-33.15-.68l-3.75-8.49h-6.49a23.7,23.7,0,0,0-23.58,26.08v30.71l-.33.47a90.005,90.005,0,0,1,50.61-164.43Z"></path><path fill="#fdc75b" d="M456 319.52l.33.48a89.553 89.553 0 0 1-50.61 15.57 90.945 90.945 0 0 1-10.88-.65l-31.52 19.77V324.98a91.011 91.011 0 0 1-8.21-4.98l.33-.47V288.82a23.7 23.7 0 0 1 23.58-26.08h6.49l3.75 8.49a18.113 18.113 0 0 0 33.15.68l4.25-9.17h5.76A23.7 23.7 0 0 1 456 288.82v30.7zM427.73 219.49v10.45a22.81 22.81 0 1 1-45.62 0s.01-3.98.03-8.35c7.07-.42 13.49-5.56 14.81-11.68C403.54 214.42 413.49 218.78 427.73 219.49z"></path><path fill="#fdc75b" d="M396.95,209.91a38.974,38.974,0,0,1-10.63-10.41,22.751,22.751,0,0,1,10.57-8.16,22.805,22.805,0,0,1,24.16,5.22,22.733,22.733,0,0,1,6.68,16.13v6.8C413.49,218.78,403.54,214.42,396.95,209.91Z"></path><polygon fill="#ed664c" points="373.89 386.43 323.89 496.43 158.52 496.43 153.89 496.43 203.89 386.43 235.9 386.43 373.89 386.43"></polygon><path fill="#fdc75b" d="M219.16,75.95l.11,10.99a24.84,24.84,0,0,0,24.83,24.58h.26a24.831,24.831,0,0,0,24.58-25.09l-.21-21.5-.02-1.7a18.378,18.378,0,0,0-18.56-18.18l-26.54.27a3.591,3.591,0,0,0-.81.09,4.737,4.737,0,0,0-3.9,4.72l.21,20.41Zm26.56-60.38a90,90,0,0,1,54.99,161.24l-.34-26.58a25.8,25.8,0,0,0-25.95-28.14l-6.27.06-9.58,35.11-10.49-18.28-5.91.06-9.35,18.48-9.49-35.49-7.06.65a25.8,25.8,0,0,0-25.39,28.66l.34,25.86a90.005,90.005,0,0,1,54.5-161.63Z"></path><path fill="#fdc75b" d="M232.82 157.52l9.35-18.48 5.91-.06 10.49 18.28 9.58-35.11 6.27-.06a25.8 25.8 0 0 1 25.95 28.14l.34 26.58a89.521 89.521 0 0 1-54.99 18.76 90.945 90.945 0 0 1-10.88-.65l-31.52 19.77V184.98a89.975 89.975 0 0 1-12.1-7.78l-.34-25.86a25.8 25.8 0 0 1 25.39-28.66l7.06-.65zM268.94 86.43a24.831 24.831 0 0 1-24.58 25.09h-.26a24.84 24.84 0 0 1-24.83-24.58l-.11-10.99c1.07-2.32 6.17-12.01 17.61-13.89 7.32 5.1 17.33 8.32 29.36 2.9l2.6-.03z"></path><path fill="#fdc75b" d="M236.77 62.06a50.589 50.589 0 0 1-13.66-14.81l-.31-1.84a3.591 3.591 0 0 1 .81-.09l26.54-.27a18.378 18.378 0 0 1 18.56 18.18l.02 1.7-2.6.03C254.1 70.38 244.09 67.16 236.77 62.06zM100.48 411.21l19.1-36.86 11.86.01 20.64 36.86L172 341.04h12.56a51.745 51.745 0 0 1 51.34 45.35v.04H203.89l-50 110H16.55V397.97a51.72 51.72 0 0 1 51.46-56.93l14.17-1.16z"></path><path fill="#fdc75b" d="M236.77 62.06c-11.44 1.88-16.54 11.57-17.61 13.89l-.05-5.41-.21-20.41a4.737 4.737 0 0 1 3.9-4.72l.31 1.84A50.589 50.589 0 0 0 236.77 62.06zM174.32 249.55v19.91a49.78 49.78 0 1 1-99.56 0V249.55a49.78 49.78 0 0 1 99.56 0z"></path><polygon fill="#fdc75b" points="141.41 342.57 131.45 374.35 119.58 374.35 109.63 342.57 141.41 342.57"></polygon><path d="M373.89 379.43H241.758a58.772 58.772 0 0 0-57.2-45.39H172a7 7 0 0 0-6.734 5.088l-15.316 53.96L139.027 373.58l9.063-28.918a7 7 0 0 0-6.68-9.093H109.63a7 7 0 0 0-6.68 9.091l9.088 29.028L102.7 391.7 88.96 338.14a7 7 0 0 0-7.352-5.237l-13.894 1.138A58.719 58.719 0 0 0 9.55 398.313V496.43a7 7 0 0 0 7 7H323.89a7 7 0 0 0 6.372-4.1l50-110a7 7 0 0 0-6.372-9.9zM131.881 349.57l-5.573 17.78h-1.584l-5.567-17.78zM23.514 397.264a44.721 44.721 0 0 1 44.5-49.224c.19 0 .381-.008.571-.023l8.286-.678L93.7 412.95c.007.029.019.055.026.084.048.18.1.356.165.53.016.045.033.091.05.135q.1.258.215.5c.022.047.045.095.068.141.077.155.161.306.25.454l.093.154c.089.14.183.275.28.408.038.051.075.1.113.151.1.129.207.254.316.376.041.045.081.09.122.134.116.122.237.239.361.353.039.036.078.072.118.107q.2.174.413.333l.1.079c.149.108.3.208.461.3l.1.058c.161.094.325.18.494.261l.1.05c.164.076.331.144.5.207l.136.05c.159.055.321.1.485.147.062.017.125.033.188.048.148.035.3.065.451.09.082.014.165.027.248.038.139.018.278.032.419.042.095.007.19.012.285.014.072 0 .142.011.214.011.05 0 .1-.01.149-.011.222 0 .445-.022.669-.048.145-.017.288-.039.43-.065.164-.03.328-.058.492-.1.029-.007.056-.018.084-.026.136-.037.269-.08.4-.125.152-.051.3-.107.446-.167.112-.046.225-.09.334-.142a6.865 6.865 0 0 0 .7-.382c.062-.039.12-.083.181-.124.184-.123.361-.253.531-.392.066-.055.132-.109.2-.166a7.085 7.085 0 0 0 .548-.534c.021-.022.043-.042.064-.065a7.009 7.009 0 0 0 .51-.655c.052-.075.1-.151.15-.228q.172-.268.319-.552c.026-.051.061-.1.086-.149l17.062-32.927 3.5 0 18.637 33.284a7 7 0 0 0 6.106 3.58 7.081 7.081 0 0 0 .819-.048 7 7 0 0 0 5.917-5.041l18.476-65.091h7.271a44.772 44.772 0 0 1 42.708 31.39H203.89a7 7 0 0 0-6.373 4.1L149.383 489.43H23.55V397.97A6.94 6.94 0 0 0 23.514 397.264zM319.382 489.43H164.761l43.636-96H363.018zM124.54 326.24a56.844 56.844 0 0 0 56.78-56.78V249.55a56.78 56.78 0 0 0-113.56 0v19.91A56.844 56.844 0 0 0 124.54 326.24zM81.76 249.55a42.78 42.78 0 0 1 85.56 0v19.91a42.78 42.78 0 1 1-85.56 0zM422.73 188.785a18.509 18.509 0 1 0-35.311-.211 29.771 29.771 0 0 0-12.151 21.109c-.038.361-.085.811-.129 11.878-.02 4.376-.029 8.361-.029 8.378a29.81 29.81 0 1 0 59.62 0v-17.25A29.618 29.618 0 0 0 426 191.61 30.256 30.256 0 0 0 422.73 188.785zM400.9 204.132a37.448 37.448 0 0 1-5.2-4.272 15.743 15.743 0 0 1 14.973-1.9 15.768 15.768 0 0 1 10.013 13.757A48.4 48.4 0 0 1 400.9 204.132zm4.209-25.512a4.516 4.516 0 0 1 4.51 4.51c0 .042-.011.083-.012.125a29.679 29.679 0 0 0-9-.062c0-.021-.006-.042-.006-.063A4.515 4.515 0 0 1 405.11 178.62zm-.19 67.13a15.808 15.808 0 0 1-15.81-15.793s0-1.1.008-2.761a24.3 24.3 0 0 0 10.644-7.547 66 66 0 0 0 20.968 6.228v4.064A15.827 15.827 0 0 1 404.92 245.75z"></path><path d="M405.72,148.57a97.005,97.005,0,0,0-54.553,177.214c1.668,1.138,3.393,2.234,5.153,3.28V354.69a7,7,0,0,0,10.72,5.93l29.466-18.482c3.051.287,6.14.432,9.214.432a97,97,0,0,0,0-194Zm-10.043,179.4a7,7,0,0,0-4.557,1.02l-20.8,13.046V324.98a7,7,0,0,0-3.688-6.167c-1.423-.764-2.82-1.577-4.192-2.418V288.82q0-.353-.035-.7a16.7,16.7,0,0,1,16.615-18.375h1.93l1.879,4.253a25.113,25.113,0,0,0,45.933.861l2.37-5.113h1.289a16.7,16.7,0,0,1,16.616,18.375q-.034.351-.035.7v27.573a82.51,82.51,0,0,1-43.28,12.177A84.462,84.462,0,0,1,395.677,327.97ZM463,305.625V289.149a30.7,30.7,0,0,0-30.58-33.409h-5.76a7,7,0,0,0-6.351,4.057l-4.241,9.15a11.2,11.2,0,0,1-4.117,4.7,11.11,11.11,0,0,1-16.228-5.108c-.02-.047-.04-.1-.061-.141l-3.75-8.49a7,7,0,0,0-6.4-4.172h-6.49a30.7,30.7,0,0,0-30.579,33.409V305.63a83,83,0,1,1,114.56,0Z"></path><path d="M186.978,182.769h0a97.942,97.942,0,0,0,9.339,6.3V214.69a7,7,0,0,0,10.719,5.93l29.467-18.482c3.05.287,6.14.432,9.214.432a97.012,97.012,0,0,0,97-97,97,97,0,1,0-155.74,77.2Zm48.7,5.2a7.008,7.008,0,0,0-4.557,1.02l-20.8,13.047V184.98a7,7,0,0,0-3.7-6.174,82.665,82.665,0,0,1-8.411-5.171l-.324-22.143,0-.244h0v-.01c0-.226-.018-.452-.042-.676a18.8,18.8,0,0,1,18.507-20.881c.19,0,.38-.012.569-.029l1.181-.109,7.965,29.786,6.744-1.8h.028l6.236,3.155,6.277-12.406,7.156,12.47a7,7,0,0,0,12.824-1.642l8.187-30,.983-.01a18.8,18.8,0,0,1,18.906,20.5,6.767,6.767,0,0,0-.028.726l.294,23a82.08,82.08,0,0,1-47.945,15.248A84.457,84.457,0,0,1,235.677,187.97ZM245.72,22.57A83.01,83.01,0,0,1,307.51,161l-.136-10.517a32.8,32.8,0,0,0-32.681-35.394c-.113,0-.227,0-.341,0l-6.27.06a7,7,0,0,0-6.686,5.157l-5.144,18.852-2.1-3.663a7,7,0,0,0-6.071-3.516h-.072l-5.91.06a7,7,0,0,0-6.175,3.839l-1.076,2.127-4.755-17.785a7.01,7.01,0,0,0-7.4-5.163l-6.793.626a32.8,32.8,0,0,0-32.01,36.067l.123,9.353A83.023,83.023,0,0,1,245.72,22.57Z"></path><path d="M244.1,118.52h.331A31.872,31.872,0,0,0,275.94,86.362l-.23-23.208a25.453,25.453,0,0,0-25.631-25.1l-26.469.27a10.644,10.644,0,0,0-2.2.229A11.688,11.688,0,0,0,211.9,50.2l.37,36.81A31.938,31.938,0,0,0,244.1,118.52Zm.26-14h-.26a17.892,17.892,0,0,1-17.831-17.65l-.093-9.252a17.751,17.751,0,0,1,9.356-8.046,35.415,35.415,0,0,0,18.2,5.209,34.82,34.82,0,0,0,8.081-.975l.125,12.7A17.84,17.84,0,0,1,244.36,104.52Zm5.859-52.471h.113a11.393,11.393,0,0,1,10.654,7.425c-7.016,2.449-13.652,1.415-20.22-3.161a37,37,0,0,1-4.9-4.117Z"></path></g></svg>