<svg xmlns="http://www.w3.org/2000/svg" width="32" height="32" id="company"><path d="M47 929.36c-2.791 0-5 2.488-5 5.5a.5.5 0 0 0 .5.5h9a.5.5 0 0 0 .5-.5c0-3.012-2.209-5.5-5-5.5zm0 1c2.04 0 3.68 1.73 3.91 4h-7.82c.23-2.27 1.87-4 3.91-4zM67 929.36c-2.791 0-5 2.488-5 5.5a.5.5 0 0 0 .5.5h9a.5.5 0 0 0 .5-.5c0-3.012-2.209-5.5-5-5.5zm0 1c2.04 0 3.68 1.73 3.91 4h-7.82c.23-2.27 1.87-4 3.91-4zM57 911.36c-2.791 0-5 2.488-5 5.5a.5.5 0 0 0 .5.5h9a.5.5 0 0 0 .5-.5c0-3.012-2.209-5.5-5-5.5zm0 1c2.04 0 3.68 1.73 3.91 4h-7.82c.23-2.27 1.87-4 3.91-4z" style="line-height:normal;text-indent:0;text-align:start;text-decoration-line:none;text-decoration-style:solid;text-decoration-color:#000;text-transform:none;block-progression:tb;white-space:normal;isolation:auto;mix-blend-mode:normal;solid-color:#000;solid-opacity:1" color="#000" enable-background="accumulate" font-family="sans-serif" font-weight="400" overflow="visible" transform="translate(-41 -904.36)"></path><path fill="#2b79c2" fill-rule="evenodd" d="M56.5-102.002v5.697l-4.934 2.85.5.865L57-95.44l4.934 2.85.5-.867-4.934-2.848v-5.697h-1z" color="#000" enable-background="accumulate" font-family="sans-serif" font-weight="400" transform="translate(-41 116.003)" style="line-height:normal;text-indent:0;text-align:start;text-decoration-line:none;text-decoration-style:solid;text-decoration-color:#000;text-transform:none;block-progression:tb;white-space:normal;isolation:auto;mix-blend-mode:normal;solid-color:#000;solid-opacity:1" overflow="visible"></path><path d="M47 923.36c-1.653 0-3 1.346-3 3v1c0 1.653 1.347 3 3 3s3-1.347 3-3v-1c0-1.654-1.347-3-3-3zm0 1c1.117 0 2 .883 2 2v1c0 1.116-.883 2-2 2s-2-.884-2-2v-1c0-1.117.883-2 2-2zM67 923.36c-1.653 0-3 1.346-3 3v1c0 1.653 1.347 3 3 3s3-1.347 3-3v-1c0-1.654-1.347-3-3-3zm0 1c1.117 0 2 .883 2 2v1c0 1.116-.883 2-2 2s-2-.884-2-2v-1c0-1.117.883-2 2-2zM57 905.36c-1.653 0-3 1.346-3 3v1c0 1.653 1.347 3 3 3s3-1.347 3-3v-1c0-1.654-1.347-3-3-3zm0 1c1.117 0 2 .883 2 2v1c0 1.116-.883 2-2 2s-2-.884-2-2v-1c0-1.117.883-2 2-2z" style="line-height:normal;text-indent:0;text-align:start;text-decoration-line:none;text-decoration-style:solid;text-decoration-color:#000;text-transform:none;block-progression:tb;white-space:normal;isolation:auto;mix-blend-mode:normal;solid-color:#000;solid-opacity:1" fill="#2b79c2" color="#000" enable-background="accumulate" font-family="sans-serif" font-weight="400" overflow="visible" transform="translate(-41 -904.36)"></path></svg>