<svg xmlns="http://www.w3.org/2000/svg" fill-rule="evenodd" stroke-linejoin="round" stroke-miterlimit="2" clip-rule="evenodd" viewBox="0 0 48 48" id="diagnosing"><path d="M10.335 28.164c-5.191-1.18-9.25-5.355-10.283-10.612A3 3 0 0 1 3.001 14c.12 0 .239.008.358.031a2.97 2.97 0 0 1 2.783 2.403 7.339 7.339 0 0 0 7.193 5.899 7.275 7.275 0 0 0 7.115-5.697A3.38 3.38 0 0 1 23.746 14c.125 0 .249.004.371.046A2.904 2.904 0 0 1 26.6 17.46c-.994 5.18-5.061 9.506-10.265 10.703V30a3 3 0 1 1-6 0v-1.836ZM2.992 16a.999.999 0 0 0-.976 1.175c.926 4.713 4.714 8.411 9.478 9.178a1 1 0 0 1 .841.988V30a.997.997 0 0 0 1 1 1 1 0 0 0 1-1v-2.659a1 1 0 0 1 .841-.988c4.775-.769 8.567-4.62 9.459-9.263a.901.901 0 0 0-.889-1.068c-.054 0-.107-.004-.159-.012a1.376 1.376 0 0 0-1.185 1.061 9.275 9.275 0 0 1-9.067 7.262c-4.527 0-8.306-3.23-9.156-7.516a.973.973 0 0 0-.955-.789c-.078 0-.156-.01-.232-.028Z"></path><path d="M3.835 15V5a.997.997 0 0 1 1-1H7V2H4.835c-.796 0-1.559.316-2.121.879A2.996 2.996 0 0 0 1.835 5v10a1 1 0 0 0 2 0ZM24.835 15V5c0-.796-.316-1.559-.879-2.121A2.996 2.996 0 0 0 21.835 2H20v2h1.835a.997.997 0 0 1 1 1v10a1 1 0 0 0 2 0Z"></path><path d="M12.335 3a3 3 0 0 1-3 3h-.5a3 3 0 1 1 0-6h.5a3 3 0 0 1 3 3Zm-2 0a1 1 0 0 0-1-1h-.5a1 1 0 1 0 0 2h.5a1 1 0 0 0 1-1ZM20.835 3a3 3 0 0 1-3 3h-.5a3 3 0 1 1 0-6h.5a3 3 0 0 1 3 3Zm-2 0a.999.999 0 0 0-1-1h-.5a1 1 0 0 0 0 2h.5a1 1 0 0 0 1-1ZM36.335 12c-4.416 0-8 3.584-8 8s3.584 8 8 8 8-3.584 8-8-3.584-8-8-8Zm0 2c3.311 0 6 2.689 6 6s-2.689 6-6 6-6-2.689-6-6 2.689-6 6-6Z"></path><path d="M36.334 16c-2.207 0-4 1.793-4 4s1.793 4 4 4 4-1.793 4-4-1.793-4-4-4Zm0 2a2 2 0 1 1-.001 4.001 2 2 0 0 1 .001-4ZM12.335 32v3.5a12.501 12.501 0 0 0 12.5 12.5c6.904 0 12.5-5.596 12.5-12.5v-8a1 1 0 0 0-2 0v8a10.502 10.502 0 0 1-21 0V32a1 1 0 0 0-2 0ZM31.5 8.586l2.671-2.67a1.123 1.123 0 1 0-1.59-1.587l-.374.375a1 1 0 1 1-1.414-1.414l.376-.375A3.121 3.121 0 0 1 36.5 5.123c0 .828-.329 1.622-.915 2.208l-3.378 3.377c-.39.39-1.023.39-1.414 0l-3.002-3.002 1.413-1.414L31.5 8.586Z"></path><path d="m29.204 6.292-.375-.376a1.123 1.123 0 1 1 1.59-1.587l.374.375a1 1 0 1 0 1.414-1.414l-.376-.375A3.121 3.121 0 0 0 26.5 5.123c0 .828.329 1.622.915 2.208l.376.375a1 1 0 1 0 1.413-1.414ZM40.785 4.666l-.891 1.781a1 1 0 1 1-1.788-.894l2-4a.999.999 0 0 1 1.848.149l1.761 5.632.891-1.781A.998.998 0 0 1 45.5 5H47a1 1 0 0 1 0 2h-.882l-1.724 3.447a.999.999 0 0 1-1.848-.149l-1.761-5.632Z"></path></svg>