<svg xmlns="http://www.w3.org/2000/svg" viewBox="0 0 48 48" id="excellence"><path fill-rule="evenodd" d="M28.87 34c-.45 1.73-2.02 3-3.89 3H18c-.55 0-1-.45-1-1s.45-1 1-1h6.98c.95 0 1.89-1 1.96-1.52.06-.48-.65-1.47-1.35-1.89l-3.36-2.01c-.63-.38-1.34-.57-2.07-.57H14c-.55 0-1 .45-1 1 0 .45.07 10.35.02 10.8-.02.2.24 1.07.78 1.18 0 0 4.29 1.51 6.07 1.9.35.08.71.12 1.08.12H24c.43 0 .85-.05 1.26-.16 2.28-.6 12.32-3.11 16.73-4.28a2.664 2.664 0 0 0 1.54-4.05l-.21-.32a2.672 2.672 0 0 0-2.22-1.19H28.86ZM11 30c0-1.66-1.34-3-3-3H7c-1.66 0-3 1.34-3 3v11c0 1.66 1.34 3 3 3h1c1.66 0 3-1.34 3-3V30Zm31.24-5.31a3.093 3.093 0 0 1-1.94-1.94c-.17-.52-.31-1.87-.31-1.87a.996.996 0 0 0-1.98 0s-.14 1.34-.31 1.87c-.31.91-1.02 1.63-1.94 1.94-.58.19-1.07.36-1.07.36-.41.14-.68.52-.68.95s.28.81.68.95c0 0 .49.16 1.07.36.91.31 1.63 1.02 1.94 1.94.17.52.31 1.87.31 1.87a.996.996 0 0 0 1.98 0s.14-1.34.31-1.87c.31-.91 1.02-1.63 1.94-1.94.58-.19 1.07-.36 1.07-.36.41-.14.68-.52.68-.95s-.28-.81-.68-.95l-1.07-.36ZM29.75 13.07 25 20.87V27h4c2.21 0 4-1.79 4-4v-6c0-1.95-1.4-3.58-3.25-3.93Zm-11.5 0A4.004 4.004 0 0 0 15 17v6c0 2.21 1.79 4 4 4h4v-6.13l-4.75-7.8Zm-6.01-1.38a3.093 3.093 0 0 1-1.94-1.94c-.17-.52-.31-1.87-.31-1.87a.996.996 0 0 0-1.98 0s-.14 1.34-.31 1.87c-.31.91-1.02 1.63-1.94 1.94-.58.19-1.07.36-1.07.36-.41.14-.68.52-.68.95s.28.81.68.95c0 0 .49.16 1.07.36.91.31 1.63 1.02 1.94 1.94.17.52.31 1.87.31 1.87a.996.996 0 0 0 1.98 0s.14-1.34.31-1.87c.31-.91 1.02-1.63 1.94-1.94.58-.19 1.07-.36 1.07-.36.41-.14.68-.52.68-.95s-.28-.81-.68-.95l-1.07-.36ZM24 19l1.91-3.26c-.61.17-1.25.26-1.91.26s-1.3-.09-1.91-.26L24 19Zm16.24-9.31a3.093 3.093 0 0 1-1.94-1.94c-.17-.52-.31-1.87-.31-1.87a.996.996 0 0 0-1.98 0s-.14 1.34-.31 1.87c-.31.91-1.02 1.63-1.94 1.94-.58.19-1.07.36-1.07.36-.41.14-.68.52-.68.95s.28.81.68.95c0 0 .49.16 1.07.36.91.31 1.63 1.02 1.94 1.94.17.52.31 1.87.31 1.87a.996.996 0 0 0 1.98 0s.14-1.34.31-1.87c.31-.91 1.02-1.63 1.94-1.94.58-.19 1.07-.36 1.07-.36.41-.14.68-.52.68-.95s-.28-.81-.68-.95l-1.07-.36ZM24 4c-2.76 0-5 2.24-5 5s2.24 5 5 5 5-2.24 5-5-2.24-5-5-5Z"></path></svg>