<svg xmlns="http://www.w3.org/2000/svg" enable-background="new 0 0 50 50" viewBox="0 0 50 50" id="global-network"><path d="M18.01955 25.00366c0 1.60535.12769 3.15808.35522 4.62256h5.62524V20.3811h-5.62524C18.14723 21.84558 18.01955 23.39832 18.01955 25.00366zM24.00002 39.87524v-8.24902h-5.23364C19.77956 35.94409 21.72902 39.1355 24.00002 39.87524zM16.01955 25.00366c0-1.61072.12061-3.15527.33081-4.62256h-5.6687c-.47192 1.45801-.7334 3.00952-.7334 4.62256s.26147 3.16455.7334 4.62256h5.6687C16.14015 28.15894 16.01955 26.61438 16.01955 25.00366zM11.50392 31.62622c1.71704 3.4845 4.73559 6.20532 8.42456 7.53162-1.43433-1.83435-2.5603-4.44141-3.22827-7.53162H11.50392zM18.46217 13.22534c.00317-.00781.00757-.01489.01074-.02271.4397-.87769.92383-1.67273 1.45557-2.35278-3.68896 1.32617-6.70727 4.04688-8.42456 7.53125h5.19629C17.11867 16.44629 17.72121 14.71021 18.46217 13.22534zM33.65065 20.3811c.21021 1.46729.33081 3.01184.33081 4.62256s-.12061 3.15527-.33081 4.62256h5.6687c.47192-1.45801.7334-3.00952.7334-4.62256s-.26147-3.16455-.7334-4.62256H33.65065zM38.49684 18.3811c-1.71729-3.48438-4.73608-6.20483-8.42505-7.53113 1.43457 1.83435 2.56055 4.44116 3.22876 7.53113H38.49684zM31.98146 25.00366c0-1.60535-.12769-3.15808-.35547-4.62256h-5.62598v9.24512h5.62598C31.85378 28.16174 31.98146 26.60901 31.98146 25.00366zM26.00002 31.62622v8.24902c2.271-.73975 4.22119-3.93115 5.23438-8.24902H26.00002zM20.3279 13.95251c-.00317.00769-.00806.01453-.01147.02209-.63257 1.25415-1.16016 2.74548-1.55005 4.40649h5.23364v-8.24854C22.60793 10.58618 21.33791 11.95874 20.3279 13.95251zM26.00002 10.13257v8.24854h5.23438C30.22096 14.06372 28.27101 10.87231 26.00002 10.13257zM30.07179 39.15771c3.68921-1.32629 6.70801-4.04712 8.42505-7.53149H33.3008C32.63258 34.71631 31.50636 37.32336 30.07179 39.15771z"></path><path d="M46.00197,4.01001c-3.79004-3.78992-11.81982-2.27002-21.01001,3.95007C23.47194,6.93005,21.97194,6.02002,20.50197,5.25
		c0.04004-0.18994,0.06006-0.37988,0.06006-0.57996C20.56203,2.65015,18.92189,1,16.90187,1
		c-1.25,0-2.34985,0.63013-3.00976,1.59009C9.52199,1.44006,6.10207,1.91016,4.00197,4.01001
		C0.21193,7.80005,1.74196,15.83008,7.97194,25c-6.22998,9.18005-7.76001,17.21008-3.96997,21
		c1.38013,1.38013,3.33008,2.05005,5.68018,2.05005c4.11987,0,9.48975-2.06006,15.31982-6.01001
		c1.46997,1,2.93994,1.89001,4.38013,2.65002c-0.04004,0.21008-0.07007,0.43005-0.07007,0.65002
		c0,2.02002,1.6499,3.65991,3.66992,3.65991c1.26001,0,2.36011-0.62988,3.03003-1.59985
		c1.57007,0.42993,3.03003,0.6499,4.34009,0.6499c2.36987,0,4.28003-0.68994,5.6499-2.05005
		c3.78003-3.77991,2.26001-11.80994-3.95996-21C48.26198,15.82007,49.782,7.80005,46.00197,4.01001z M44.59206,44.59009
		C43.032,46.13013,40.22194,46.44006,36.6321,45.5c0-0.05994,0.01978-0.10986,0.01978-0.15991
		c0-2.02002-1.6499-3.67004-3.66992-3.67004c-1.08008,0-2.04004,0.4801-2.71997,1.2301
		c-1.41992-0.76001-2.86987-1.64014-4.32983-2.65015c-0.21141-0.15791-0.6498-0.41992-0.93018-0.41992
		c-0.29855,0-0.598,0.17808-0.71997,0.30005c-0.06006,0.03003-0.11011,0.05994-0.16992,0.08997
		c-8.17017,5.60999-15.69018,7.37-18.69995,4.37c-3-3.01001-1.25-10.52002,4.36987-18.69995
		C9.96193,25.62012,9.98195,25.29004,9.8821,25c0.09985-0.28992,0.07983-0.60986-0.1001-0.88989
		C4.17189,15.94006,2.41213,8.43005,5.41213,5.43005c1.52979-1.53992,4.2998-1.84998,7.83984-0.94995
		c0,0.06995-0.02002,0.13-0.02002,0.18994c0,2.02002,1.64014,3.67004,3.66992,3.67004c1.1001,0,2.08008-0.5,2.75-1.28003
		c1.46021,0.78003,2.96021,1.67993,4.48022,2.72998c0.16992,0.11011,0.37988,0.17004,0.58984,0.17004
		c0.62667,0,0.83174,0.02951,1.14014-0.17004c8.18994-5.62,15.71997-7.37,18.72998-4.35999c3,3,1.23999,10.52002-4.38013,18.70007
		C40.032,24.40015,40.01198,24.72009,40.10207,25c-0.09009,0.29004-0.07007,0.6001,0.10986,0.87012
		C45.83205,34.06006,47.59206,41.59009,44.59206,44.59009z"></path></svg>