<svg xmlns="http://www.w3.org/2000/svg" viewBox="0 0 24 24" id="hospital"><path fill="#303C42" d="M22 6h-4V3c0-1.103-.897-2-2-2H8c-1.103 0-2 .897-2 2v3H2C.897 6 0 6.897 0 8v14.5a.5.5 0 0 0 .5.5h23a.5.5 0 0 0 .5-.5V8c0-1.103-.897-2-2-2z"></path><path fill="#F2F2F2" d="M1 8c0-.551.449-1 1-1h4v15H1V8z"></path><path fill="#BBDEFB" d="M10 15h4v7h-4z"></path><path fill="#F2F2F2" d="M17 22h-2v-7.5a.5.5 0 0 0-.5-.5h-5a.5.5 0 0 0-.5.5V22H7V3c0-.551.449-1 1-1h8c.551 0 1 .449 1 1v19z"></path><path d="M16 2h-.8c.441 0 .8.449.8 1v19h1V3c0-.551-.449-1-1-1z" opacity=".1"></path><path fill="#FFF" d="M8.8 2H8c-.551 0-1 .449-1 1v19h1V3c0-.551.359-1 .8-1z" opacity=".2"></path><path fill="#F2F2F2" d="M23 22h-5V7h4c.551 0 1 .449 1 1v14z"></path><linearGradient id="a" x1="15.353" x2="25.353" y1="9.647" y2="19.647" gradientUnits="userSpaceOnUse"><stop offset="0" stop-opacity=".1"></stop><stop offset="1" stop-opacity="0"></stop></linearGradient><path fill="url(#a)" d="M23 22h-5V7h4c.551 0 1 .449 1 1v14z"></path><path fill="#303C42" d="M21.5 9h-2a.5.5 0 0 0-.5.5v4a.5.5 0 0 0 .5.5h2a.5.5 0 0 0 .5-.5v-4a.5.5 0 0 0-.5-.5z"></path><path fill="#BBDEFB" d="M20 10h1v3h-1z"></path><path fill="#303C42" d="M21.5 15h-2a.5.5 0 0 0-.5.5v4a.5.5 0 0 0 .5.5h2a.5.5 0 0 0 .5-.5v-4a.5.5 0 0 0-.5-.5z"></path><path fill="#BBDEFB" d="M20 16h1v3h-1z"></path><path fill="#303C42" d="M4.5 9h-2a.5.5 0 0 0-.5.5v4a.5.5 0 0 0 .5.5h2a.5.5 0 0 0 .5-.5v-4a.5.5 0 0 0-.5-.5z"></path><path fill="#BBDEFB" d="M3 10h1v3H3z"></path><path fill="#303C42" d="M4.5 15h-2a.5.5 0 0 0-.5.5v4a.5.5 0 0 0 .5.5h2a.5.5 0 0 0 .5-.5v-4a.5.5 0 0 0-.5-.5z"></path><path fill="#BBDEFB" d="M3 16h1v3H3z"></path><path fill="#303C42" d="M14.5 5.5h-1v-1A.5.5 0 0 0 13 4h-2a.5.5 0 0 0-.5.5v1h-1A.5.5 0 0 0 9 6v2a.5.5 0 0 0 .5.5h1v1a.5.5 0 0 0 .5.5h2a.5.5 0 0 0 .5-.5v-1h1A.5.5 0 0 0 15 8V6a.5.5 0 0 0-.5-.5z"></path><path fill="#E53935" d="M14 7.5h-1a.5.5 0 0 0-.5.5v1h-1V8a.5.5 0 0 0-.5-.5h-1v-1h1a.5.5 0 0 0 .5-.5V5h1v1a.5.5 0 0 0 .5.5h1v1z"></path><path d="M14 7.5h-1a.5.5 0 0 0-.5.5v1H12V5h.5v1a.5.5 0 0 0 .5.5h1v1z" opacity=".1"></path><path fill="#FFF" d="M10 18v-1l2-2h1zM10 19.5l4-4v2l-4 4z" opacity=".5"></path><linearGradient id="b" x1="11.25" x2="19.103" y1="6.25" y2="14.104" gradientUnits="userSpaceOnUse"><stop offset="0" stop-opacity=".1"></stop><stop offset="1" stop-opacity="0"></stop></linearGradient><path fill="url(#b)" d="M13.5 5.5h1c.136 0 .259.055.35.143l-1.493-1.492c.088.09.143.213.143.349v1zm-3 3h-1a.498.498 0 0 1-.354-.146l1.5 1.5A.498.498 0 0 1 10.5 9.5v-1zm4.357-2.85c.088.091.143.214.143.35v2a.5.5 0 0 1-.5.5h-1v1a.5.5 0 0 1-.5.5h-2a.498.498 0 0 1-.354-.146L17 16.207V7.794l-2.143-2.143z"></path><linearGradient id="c" x1="-.199" x2="25.281" y1="7.983" y2="19.864" gradientUnits="userSpaceOnUse"><stop offset="0" stop-color="#FFF" stop-opacity=".2"></stop><stop offset="1" stop-color="#FFF" stop-opacity="0"></stop></linearGradient><path fill="url(#c)" d="M22 6h-4V3c0-1.103-.897-2-2-2H8c-1.103 0-2 .897-2 2v3H2C.897 6 0 6.897 0 8v14.5a.5.5 0 0 0 .5.5h23a.5.5 0 0 0 .5-.5V8c0-1.103-.897-2-2-2z"></path></svg>