<svg xmlns="http://www.w3.org/2000/svg" id="hospital" width="32" height="32" version="1.1" viewBox="0 0 32 32"><g id="layer1" transform="translate(0 -1020.362)"><g id="g15754"><path id="path15706" fill="#e8e7e9" fill-opacity="1" stroke="none" stroke-dasharray="none" stroke-dashoffset="0" stroke-linecap="round" stroke-linejoin="round" stroke-miterlimit="4" stroke-opacity="1" stroke-width="1" d="M 32.000017,1036.3622 A 16.000017,16.000017 0 0 1 16,1052.3622 16.000017,16.000017 0 0 1 -1.7166138e-5,1036.3622 16.000017,16.000017 0 0 1 16,1020.3622 a 16.000017,16.000017 0 0 1 16.000017,16 z" opacity="1" paint-order="fill markers stroke"></path><g id="g15752" stroke-width="1.111" transform="matrix(.9 0 0 .9 -48.169 12.582)"><path id="path15708" fill="#a8afb8" fill-opacity="1" stroke="none" stroke-dasharray="none" stroke-dashoffset="0" stroke-linecap="round" stroke-linejoin="round" stroke-miterlimit="4" stroke-opacity="1" stroke-width="1.111" d="m 60.806679,1129.0872 4,0 0,24 -4,0 z" opacity="1" paint-order="fill markers stroke"></path><path id="path15710" fill="#fff" fill-opacity="1" stroke="none" stroke-dasharray="none" stroke-dashoffset="0" stroke-linecap="round" stroke-linejoin="round" stroke-miterlimit="4" stroke-opacity="1" stroke-width="1.111" d="m 81.80668,1150.6097 0,2.4775 -17,0 0,-24 17,0 0,16.5 m 0,2 0,0.9454" opacity="1" paint-order="fill markers stroke"></path><path id="path15712" fill="#fff" fill-opacity="1" stroke="none" stroke-dasharray="none" stroke-dashoffset="0" stroke-linecap="round" stroke-linejoin="round" stroke-miterlimit="4" stroke-opacity="1" stroke-width="1.111" d="m 64.806679,-1130.0872 18,0 0,3 -18,0 z" opacity="1" paint-order="fill markers stroke" transform="scale(1 -1)"></path><path id="path15714" fill="#a8afb8" fill-opacity="1" stroke="none" stroke-dasharray="none" stroke-dashoffset="0" stroke-linecap="round" stroke-linejoin="round" stroke-miterlimit="4" stroke-opacity="1" stroke-width="1.111" d="m 59.806679,-1130.0872 5,0 0,3 -5,0 z" opacity="1" paint-order="fill markers stroke" transform="scale(1 -1)"></path><path id="path15716" fill="#7b8693" fill-opacity="1" stroke="none" stroke-dasharray="none" stroke-dashoffset="0" stroke-linecap="round" stroke-linejoin="round" stroke-miterlimit="4" stroke-opacity="1" stroke-width="1.111" d="m 61.306679,1130.5872 3.382353,0 0,2 -3.382353,0 z" opacity="1" paint-order="fill markers stroke"></path><path id="path15718" fill="#a8afb8" fill-opacity="1" stroke="none" stroke-dasharray="none" stroke-dashoffset="0" stroke-linecap="round" stroke-linejoin="round" stroke-miterlimit="4" stroke-opacity="1" stroke-width="1.111" d="m 68.737343,1146.0872 9.276612,0 0,6.9999 -9.276612,0 z" opacity="1" paint-order="fill markers stroke"></path><path id="path15720" fill="#7b8693" fill-opacity="1" stroke="none" stroke-dasharray="none" stroke-dashoffset="0" stroke-linecap="round" stroke-linejoin="round" stroke-miterlimit="4" stroke-opacity="1" stroke-width="1.111" d="m 71.582071,1146.0872 -2.845703,2.8457 0,0.7227 3.568359,-3.5684 z m 4.832031,0 -7,7 0.720703,0 6.998047,-7 z m 1.208984,0.01 -6.99414,6.9941 0.410156,0 6.789062,-6.7891 z m 0.390625,0.9004 -6.09375,6.0937 1.515625,0 4.578125,-4.5781 z" opacity="1" paint-order="fill markers stroke"></path><path id="path15722" fill="#a8afb8" fill-opacity="1" stroke="none" stroke-dasharray="none" stroke-dashoffset="0" stroke-linecap="round" stroke-linejoin="round" stroke-miterlimit="4" stroke-opacity="1" stroke-width="1.111" d="m 66.806679,1140.0872 3.000003,0 0,3 -3.000003,0 z" opacity="1" paint-order="fill markers stroke"></path><path id="path15724" fill="#7b8693" fill-opacity="1" stroke="none" stroke-dasharray="none" stroke-dashoffset="0" stroke-linecap="round" stroke-linejoin="round" stroke-miterlimit="4" stroke-opacity="1" stroke-width="1.111" d="m 69.271524,1140.0872 -2.464844,2.4668 0,0.5332 0.05273,0 2.94727,-2.9492 0,-0.051 z m 0.535156,0.4219 -2.580078,2.5781 0.925781,0 1.654297,-1.6523 z" opacity="1" paint-order="fill markers stroke"></path><path id="path15726" fill="#7b8693" fill-opacity="1" stroke="none" stroke-dasharray="none" stroke-dashoffset="0" stroke-linecap="round" stroke-linejoin="round" stroke-miterlimit="4" stroke-opacity="1" stroke-width="1.111" d="m 65.306679,1130.5872 16,0 0,2 -16,0 z" opacity="1" paint-order="fill markers stroke"></path><path id="path15728" fill="#ee98a1" fill-opacity="1" stroke="none" stroke-dasharray="none" stroke-dashoffset="0" stroke-linecap="round" stroke-linejoin="round" stroke-miterlimit="4" stroke-opacity="1" stroke-width="1.111" d="m 74.795134,1130.6551 -1.6e-5,-0.5642 1.023356,0 0.987612,0 1.00052,10e-5 1.48e-4,-3.0037 -2.982748,-2e-4 -0.02912,-2.9998 -2.988206,-10e-5 0,3.0001 -3.000036,0 7.3e-5,3.0037 2.999963,-2e-4 0,2.9965 2.98872,-10e-5 -1.08e-4,-0.8001" opacity="1"></path><path id="path15730" fill="#a8afb8" fill-opacity="1" stroke="none" stroke-dasharray="none" stroke-dashoffset="0" stroke-linecap="round" stroke-linejoin="round" stroke-miterlimit="4" stroke-opacity="1" stroke-width="1.111" d="m 66.806679,1135.0872 3.000003,0 0,3 -3.000003,0 z" opacity="1" paint-order="fill markers stroke"></path><path id="path15732" fill="#7b8693" fill-opacity="1" stroke="none" stroke-dasharray="none" stroke-dashoffset="0" stroke-linecap="round" stroke-linejoin="round" stroke-miterlimit="4" stroke-opacity="1" stroke-width="1.111" d="m 69.271524,1135.0872 -2.464844,2.4668 0,0.5332 0.05273,0 2.94727,-2.9492 0,-0.051 z m 0.535156,0.4219 -2.580078,2.5781 0.925781,0 1.654297,-1.6523 z" opacity="1" paint-order="fill markers stroke"></path><path id="path15734" fill="#a8afb8" fill-opacity="1" stroke="none" stroke-dasharray="none" stroke-dashoffset="0" stroke-linecap="round" stroke-linejoin="round" stroke-miterlimit="4" stroke-opacity="1" stroke-width="1.111" d="m 71.806679,1140.0872 3.000003,0 0,3 -3.000003,0 z" opacity="1" paint-order="fill markers stroke"></path><path id="path15736" fill="#7b8693" fill-opacity="1" stroke="none" stroke-dasharray="none" stroke-dashoffset="0" stroke-linecap="round" stroke-linejoin="round" stroke-miterlimit="4" stroke-opacity="1" stroke-width="1.111" d="m 74.271524,1140.0872 -2.464844,2.4668 0,0.5332 0.05273,0 2.94727,-2.9492 0,-0.051 z m 0.535156,0.4219 -2.580078,2.5781 0.925781,0 1.654297,-1.6523 z" opacity="1" paint-order="fill markers stroke"></path><path id="path15738" fill="#a8afb8" fill-opacity="1" stroke="none" stroke-dasharray="none" stroke-dashoffset="0" stroke-linecap="round" stroke-linejoin="round" stroke-miterlimit="4" stroke-opacity="1" stroke-width="1.111" d="m 71.806679,1135.0872 3.000003,0 0,3 -3.000003,0 z" opacity="1" paint-order="fill markers stroke"></path><path id="path15740" fill="#7b8693" fill-opacity="1" stroke="none" stroke-dasharray="none" stroke-dashoffset="0" stroke-linecap="round" stroke-linejoin="round" stroke-miterlimit="4" stroke-opacity="1" stroke-width="1.111" d="m 74.271524,1135.0872 -2.464844,2.4668 0,0.5332 0.05273,0 2.94727,-2.9492 0,-0.051 z m 0.535156,0.4219 -2.580078,2.5781 0.925781,0 1.654297,-1.6523 z" opacity="1" paint-order="fill markers stroke"></path><path id="path15742" fill="#a8afb8" fill-opacity="1" stroke="none" stroke-dasharray="none" stroke-dashoffset="0" stroke-linecap="round" stroke-linejoin="round" stroke-miterlimit="4" stroke-opacity="1" stroke-width="1.111" d="m 76.806679,1140.0872 3.000003,0 0,3 -3.000003,0 z" opacity="1" paint-order="fill markers stroke"></path><path id="path15744" fill="#7b8693" fill-opacity="1" stroke="none" stroke-dasharray="none" stroke-dashoffset="0" stroke-linecap="round" stroke-linejoin="round" stroke-miterlimit="4" stroke-opacity="1" stroke-width="1.111" d="m 79.271524,1140.0872 -2.464844,2.4668 0,0.5332 0.05273,0 2.94727,-2.9492 0,-0.051 z m 0.535156,0.4219 -2.580078,2.5781 0.925781,0 1.654297,-1.6523 z" opacity="1" paint-order="fill markers stroke"></path><path id="path15746" fill="#a8afb8" fill-opacity="1" stroke="none" stroke-dasharray="none" stroke-dashoffset="0" stroke-linecap="round" stroke-linejoin="round" stroke-miterlimit="4" stroke-opacity="1" stroke-width="1.111" d="m 76.806679,1135.0872 3.000003,0 0,3 -3.000003,0 z" opacity="1" paint-order="fill markers stroke"></path><path id="path15748" fill="#7b8693" fill-opacity="1" stroke="none" stroke-dasharray="none" stroke-dashoffset="0" stroke-linecap="round" stroke-linejoin="round" stroke-miterlimit="4" stroke-opacity="1" stroke-width="1.111" d="m 79.271524,1135.0872 -2.464844,2.4668 0,0.5332 0.05273,0 2.94727,-2.9492 0,-0.051 z m 0.535156,0.4219 -2.580078,2.5781 0.925781,0 1.654297,-1.6523 z" opacity="1" paint-order="fill markers stroke"></path><path style="line-height:normal;text-indent:0;text-align:start;text-decoration-line:none;text-decoration-style:solid;text-decoration-color:#000;text-transform:none;white-space:normal;isolation:auto;mix-blend-mode:normal;solid-color:#000;solid-opacity:1" id="path15750" fill="#454b54" fill-opacity="1" fill-rule="nonzero" stroke="none" stroke-dasharray="none" stroke-dashoffset="0" stroke-linecap="round" stroke-linejoin="round" stroke-miterlimit="4" stroke-opacity="1" stroke-width="1.111" d="m 71.806641,109.23047 -1.154297,0 c -0.02461,-0.003 -0.04942,-0.004 -0.07422,-0.004 l -1.271484,0 0,-2 1.382812,0 1.117188,0 c 0.276131,-3e-5 0.499972,-0.22387 0.5,-0.5 l 0,-2.5 1.992187,0 0.02539,2.50391 c 0.0022,0.2746 0.225389,0.49607 0.5,0.49609 l 2.482422,0 0,2 -0.806639,0 c -0.02285,-2.6e-4 -0.04569,10e-4 -0.06836,0.004 l -0.613282,0 -1.023437,0 c -0.303346,0 -0.500003,0.22964 -0.500003,0.57422 l 0,0.48828 c -0.0096,0.67616 1.009563,0.67616 1,0 l 0,-0.0625 0.523437,0 0.988282,0 1,0 c 0.02089,0 0.04177,-10e-4 0.0625,-0.004 l 3.4375,0 0,15 c -0.0096,0.6762 1.00956,0.6762 1,0 l 0,-15 0.5,0 c 0.276131,-3e-5 0.499972,-0.22387 0.5,-0.5 l 0,-3 c -2.8e-5,-0.27613 -0.223869,-0.49997 -0.5,-0.5 l -5,0 -2.488282,0 -0.02344,-2.50586 c -0.0032,-0.27384 -0.226141,-0.49413 -0.5,-0.49414 l -2.988281,0 c -0.276131,3e-5 -0.499972,0.22387 -0.5,0.5 l 0,2.5 -0.617188,0 -5.882812,0 -5,0 c -0.276131,3e-5 -0.499972,0.22387 -0.5,0.5 l 0,3 c 2.8e-5,0.27613 0.223869,0.49997 0.5,0.5 l 0.5,0 0,22 -3.507813,0 c -0.676161,-0.01 -0.676161,1.00956 0,1 l 4.007813,0 4,0 4,0 13,0 3.992187,0 c 0.676161,0.01 0.676161,-1.00956 0,-1 l -3.492187,0 0,-1.97851 c 0.0096,-0.6762 -1.00956,-0.6762 -1,0 l 0,1.97851 -3,0 0,-6 0.490234,0 c 0.676167,0.01 0.676167,-1.00957 0,-1 l -0.990234,0 -5,0 -4.990235,0 c -0.676167,-0.01 -0.676167,1.00957 0,1 l 0.490235,0 0,6 -3,0 0,-22 3.449218,0 c 0.01685,0.002 0.0338,0.003 0.05078,0.004 l 2.5,0 0,2.49805 c 2.8e-5,0.27613 0.223869,0.49997 0.5,0.5 l 2.988281,0 c 0.276131,-3e-5 0.499972,-0.22387 0.5,-0.5 l 0,-0.80079 c 0.0096,-0.67616 -1.009563,-0.67616 -1,0 l 0,0.30079 -1.988281,0 0,-2.42383 c 0,-0.38409 -0.12323,-0.57422 -0.499991,-0.57422 z m -11.5,-2.00391 4,0 0,2 -4,0 z m 5,0 3,0 0,2 -3,0 z m 13,0 4,0 0,2 -4,0 z m -17,3 3,0 0,22 -3,0 z m 5.5,4 c -0.276131,3e-5 -0.499972,0.22387 -0.5,0.5 l 0,3 c 2.8e-5,0.27613 0.223869,0.49997 0.5,0.5 l 3,0 c 0.276131,-3e-5 0.499972,-0.22387 0.5,-0.5 l 0,-3 c -2.8e-5,-0.27613 -0.223869,-0.49997 -0.5,-0.5 z m 5,0 c -0.276131,3e-5 -0.499972,0.22387 -0.5,0.5 l 0,3 c 2.8e-5,0.27613 0.223869,0.49997 0.5,0.5 l 3,0 c 0.276131,-3e-5 0.499972,-0.22387 0.5,-0.5 l 0,-3 c -2.8e-5,-0.27613 -0.223869,-0.49997 -0.5,-0.5 z m 5,0 c -0.276131,3e-5 -0.499972,0.22387 -0.5,0.5 l 0,3 c 2.8e-5,0.27613 0.223869,0.49997 0.5,0.5 l 3,0 c 0.276131,-3e-5 0.499972,-0.22387 0.5,-0.5 l 0,-3 c -2.8e-5,-0.27613 -0.223869,-0.49997 -0.5,-0.5 z m -9.5,1 2,0 0,2 -2,0 z m 5,0 2,0 0,2 -2,0 z m 5,0 2,0 0,2 -2,0 z m -10.5,4 c -0.276131,3e-5 -0.499972,0.22387 -0.5,0.5 l 0,3 c 2.8e-5,0.27613 0.223869,0.49997 0.5,0.5 l 3,0 c 0.276131,-3e-5 0.499972,-0.22387 0.5,-0.5 l 0,-3 c -2.8e-5,-0.27613 -0.223869,-0.49997 -0.5,-0.5 z m 5,0 c -0.276131,3e-5 -0.499972,0.22387 -0.5,0.5 l 0,3 c 2.8e-5,0.27613 0.223869,0.49997 0.5,0.5 l 3,0 c 0.276131,-3e-5 0.499972,-0.22387 0.5,-0.5 l 0,-3 c -2.8e-5,-0.27613 -0.223869,-0.49997 -0.5,-0.5 z m 5,0 c -0.276131,3e-5 -0.499972,0.22387 -0.5,0.5 l 0,3 c 2.8e-5,0.27613 0.223869,0.49997 0.5,0.5 l 3,0 c 0.276131,-3e-5 0.499972,-0.22387 0.5,-0.5 l 0,-3 c -2.8e-5,-0.27613 -0.223869,-0.49997 -0.5,-0.5 z m -9.5,1 2,0 0,2 -2,0 z m 5,0 2,0 0,2 -2,0 z m 5,0 2,0 0,2 -2,0 z m -8,6 3.5,0 0,6 -3.5,0 z m 4.5,0 3.5,0 0,6 -3.5,0 z m 7.992187,0.49219 c -0.27614,0 -0.496501,0.23171 -0.492187,0.50781 l 0,0.94532 c -0.0096,0.6762 1.00956,0.6762 1,0 l 0,-0.94532 c 0.0044,-0.2823 -0.225551,-0.51221 -0.507813,-0.50781 z" baseline-shift="baseline" clip-rule="nonzero" color="#000" color-interpolation="sRGB" color-interpolation-filters="linearRGB" color-rendering="auto" direction="ltr" display="inline" enable-background="accumulate" font-family="sans-serif" font-size="medium" font-stretch="normal" font-style="normal" font-variant="normal" font-weight="400" image-rendering="auto" letter-spacing="normal" opacity="1" overflow="visible" paint-order="fill markers stroke" shape-rendering="auto" text-anchor="start" text-decoration="none" text-rendering="auto" transform="translate(0 1020.362)" visibility="visible" word-spacing="normal" writing-mode="lr-tb"></path></g></g></g></svg>