<svg xmlns="http://www.w3.org/2000/svg" viewBox="0 0 24 24" id="medical-report"><path fill="#4E4E4E" d="M19 2H5c-1.103 0-2 .897-2 2v18c0 1.103.897 2 2 2h14c1.103 0 2-.897 2-2V4c0-1.103-.897-2-2-2z"></path><path fill="#010101" d="M19 23.75H5c-1.103 0-2-.897-2-2V22c0 1.103.897 2 2 2h14c1.103 0 2-.897 2-2v-.25c0 1.103-.897 2-2 2z" opacity=".1"></path><path fill="#F3F3F3" d="M5 4h14v18H5z"></path><path fill="#CCC" d="M15.5 1h-1.51C13.52.377 12.78 0 12 0s-1.52.377-1.99 1H8.5A1.5 1.5 0 0 0 7 2.5V4h10V2.5A1.5 1.5 0 0 0 15.5 1z"></path><path fill="#FFF" d="M8.325 1.3h1.586C10.404.646 11.18.25 12 .25s1.596.396 2.089 1.05h1.586c.45 0 .854.192 1.141.496A1.495 1.495 0 0 0 15.5 1h-1.51C13.52.377 12.78 0 12 0s-1.52.377-1.99 1H8.5c-.571 0-1.063.325-1.316.796A1.567 1.567 0 0 1 8.325 1.3z" opacity=".2"></path><circle cx="12" cy="2" r="1" fill="#4E4E4E"></circle><path fill="#010101" d="M12 2.75a.989.989 0 0 1-.975-.875C11.02 1.918 11 1.955 11 2a1 1 0 1 0 2 0c0-.044-.02-.082-.025-.125A.989.989 0 0 1 12 2.75z" opacity=".1"></path><path fill="#2D98D5" d="M7 19h10v1H7zM7 16h10v1H7zM12.5 15l-1.314-6.135L9.809 12H7v-1h2.19l2.31-5 1.191 5.642L14 8l1.618 3H17v1h-2l-.87-1.64z"></path><linearGradient id="a" x1="9.5" x2="23.5" y1="1.5" y2="15.5" gradientUnits="userSpaceOnUse"><stop offset="0" stop-color="#010101" stop-opacity=".05"></stop><stop offset="1" stop-color="#010101" stop-opacity="0"></stop></linearGradient><path fill="url(#a)" d="M7 4l14 14V8l-4-4"></path><linearGradient id="b" x1=".991" x2="23.009" y1="7.866" y2="18.134" gradientUnits="userSpaceOnUse"><stop offset="0" stop-color="#FFF" stop-opacity=".2"></stop><stop offset="1" stop-color="#FFF" stop-opacity="0"></stop></linearGradient><path fill="url(#b)" d="M19 2h-2.092c-.206-.581-.756-1-1.408-1h-1.51C13.52.377 12.78 0 12 0s-1.52.377-1.99 1H8.5c-.652 0-1.202.419-1.408 1H5c-1.103 0-2 .897-2 2v18c0 1.103.897 2 2 2h14c1.103 0 2-.897 2-2V4c0-1.103-.897-2-2-2z"></path></svg>