<svg xmlns="http://www.w3.org/2000/svg" enable-background="new 0 0 2000 2000" viewBox="0 0 2000 2000" id="notebook-pen"><circle cx="1297.32" cy="872.71" r="321.51" fill="#FFE563"></circle><circle cx="612.35" cy="1144.69" r="157.89" fill="#79B1FE"></circle><path d="M1456.95,832.63c-2.06-1.37-4.58-1.87-7.01-1.39c-2.43,0.49-4.56,1.92-5.94,3.98l-5.65,8.49l-13.06-8.71l13.3-19.97
	c2.86-4.29,1.7-10.09-2.59-12.94l-15.77-10.5l17.57-26.37c4.12-6.2,5.59-13.62,4.13-20.91c-1.39-6.94-5.28-12.97-10.98-17.09
	l6.54-9.82c14.07-21.13,8.33-49.78-12.8-63.85c-21.14-14.07-49.78-8.33-63.85,12.8l-6.54,9.83c-12.69-7.75-29.39-4.15-37.7,8.32
	l-17.56,26.37l-15.76-10.49c-2.06-1.37-4.58-1.87-7.01-1.39c-2.43,0.49-4.56,1.92-5.93,3.98l-31.36,47.09v-169.5
	c0-24.34-19.8-44.15-44.15-44.15H592.41c-24.34,0-44.14,19.81-44.14,44.15v42.97h-15.56c-5.15,0-9.33,4.18-9.33,9.33
	c0,5.16,4.18,9.34,9.33,9.34h15.56v128.19h-15.56c-5.15,0-9.33,4.17-9.33,9.33c0,5.15,4.18,9.33,9.33,9.33h15.56v128.19h-15.56
	c-5.15,0-9.33,4.18-9.33,9.33c0,5.16,4.18,9.34,9.33,9.34h15.56v128.18h-15.56c-5.15,0-9.33,4.18-9.33,9.34
	c0,5.15,4.18,9.33,9.33,9.33h15.56v128.19h-15.56c-5.15,0-9.33,4.18-9.33,9.33c0,5.16,4.18,9.33,9.33,9.33h15.56v128.19h-15.56
	c-5.15,0-9.33,4.18-9.33,9.34c0,5.15,4.18,9.33,9.33,9.33h15.56v42.97c0,24.34,19.8,44.15,44.15,44.15h602.41
	c24.35,0,44.15-19.81,44.15-44.15v-304.7l156.64-235.2l13.07,8.71l-97.13,145.85c-1.38,2.06-1.87,4.59-1.39,7.01
	c0.49,2.43,1.92,4.56,3.98,5.94c7.51,5,16.01,7.39,24.42,7.39c14.3,0,28.34-6.91,36.84-19.68l93.82-140.87
	C1482.73,873.62,1477.22,846.13,1456.95,832.63z M1376.38,676.7c8.36-12.56,25.4-15.98,37.96-7.61c12.57,8.37,15.98,25.4,7.61,37.96
	l-5.52,8.29l-45.57-30.35L1376.38,676.7z M1332.14,694.85c2.81-4.21,8.52-5.36,12.74-2.55l74.83,49.84
	c2.04,1.36,3.43,3.43,3.91,5.83c0.49,2.41,0,4.86-1.36,6.9l-15.61,23.43l-90.12-60.02L1332.14,694.85z M657.77,1444.92h-65.35
	c-14.05,0-25.48-11.43-25.48-25.48v-42.97h15.55c5.16,0,9.34-4.18,9.34-9.33c0-5.16-4.18-9.34-9.34-9.34h-15.55v-128.19h15.55
	c5.16,0,9.34-4.17,9.34-9.33c0-5.15-4.18-9.33-9.34-9.33h-15.55v-128.19h15.55c5.16,0,9.34-4.18,9.34-9.33
	c0-5.16-4.18-9.34-9.34-9.34h-15.55V935.91h15.55c5.16,0,9.34-4.18,9.34-9.34c0-5.15-4.18-9.33-9.34-9.33h-15.55V789.05h15.55
	c5.16,0,9.34-4.18,9.34-9.33c0-5.16-4.18-9.33-9.34-9.33h-15.55V642.2h15.55c5.16,0,9.34-4.18,9.34-9.34c0-5.15-4.18-9.33-9.34-9.33
	h-15.55v-42.97c0-14.05,11.42-25.48,25.47-25.48h65.36V1444.92z M1238.98,1081.07l-18.67,28.03l-119.07,178.79l-68.59-45.68
	l-68.59-45.67l77.13-115.81c2.86-4.29,1.69-10.09-2.6-12.94c-4.29-2.86-10.08-1.7-12.94,2.59l-82.3,123.58c0,0-0.01,0.01-0.01,0.02
	c-0.16,0.23-0.3,0.47-0.43,0.71c-0.03,0.06-0.06,0.12-0.09,0.18c-0.1,0.19-0.19,0.39-0.27,0.59c-0.03,0.06-0.06,0.13-0.09,0.2
	c-0.1,0.26-0.2,0.51-0.28,0.77c0,0.02,0,0.03-0.01,0.04c-0.07,0.25-0.13,0.5-0.18,0.76c-0.02,0.07-0.03,0.15-0.05,0.22
	c-0.04,0.21-0.07,0.43-0.09,0.64c-0.01,0.07-0.02,0.13-0.02,0.19c-0.03,0.27-0.04,0.55-0.04,0.82v0.15c0,0.23,0.02,0.45,0.04,0.68
	c0,0.08,0.01,0.17,0.02,0.26c0.01,0.07,0.01,0.15,0.02,0.22l11.52,83.08c0.34,2.52,1.71,4.76,3.75,6.25v53.02
	c0,3.22,1.66,6.21,4.39,7.92c1.51,0.94,3.22,1.41,4.95,1.41c1.39,0,2.79-0.31,4.09-0.94l46.75-22.79c1.51,0.95,3.23,1.44,4.98,1.44
	c0.73,0,1.46-0.09,2.19-0.26l81.53-19.63c0.01,0,0.02-0.01,0.03-0.01c0.02-0.01,0.04-0.01,0.07-0.02c0.31-0.08,0.61-0.17,0.9-0.28
	c0.06-0.02,0.13-0.04,0.19-0.07c0.3-0.11,0.59-0.25,0.87-0.39c0.07-0.04,0.14-0.07,0.21-0.11c0.28-0.16,0.56-0.32,0.83-0.5
	c0.04-0.03,0.08-0.06,0.12-0.09c0.24-0.17,0.47-0.36,0.7-0.55c0.05-0.05,0.11-0.1,0.17-0.15c0.24-0.22,0.47-0.45,0.69-0.7
	c0.04-0.05,0.09-0.1,0.14-0.16c0.22-0.26,0.43-0.53,0.62-0.82c0.02-0.02,0.03-0.03,0.04-0.05l108.71-163.23v276.66
	c0,14.05-11.43,25.48-25.48,25.48H676.44V555.08h518.39c14.05,0,25.48,11.43,25.48,25.48v197.53l-173.28,260.19
	c-2.86,4.3-1.7,10.09,2.59,12.95s10.09,1.69,12.94-2.6l157.75-236.86l18.67-28.04l41.72-62.64l137.18,91.36L1238.98,1081.07z
	 M971.78,1276.99l-0.49-0.32l-8.08-58.27l117.67,78.36l-56.08,13.5c-0.36-0.31-0.75-0.6-1.17-0.86L971.78,1276.99z M998.92,1316.56
	l-23.11,11.27v-26.08L998.92,1316.56z M1408.21,865.5l8.97-13.47l10.83,7.21l-8.97,13.47L1408.21,865.5z M1453.69,883.54
	l-93.82,140.88c-5.97,8.96-16.67,12.93-26.62,10.79l94.22-141.48c0.98-0.67,1.83-1.52,2.5-2.53l19.31-29
	c0.69-1.03,1.13-2.14,1.37-3.28l2.74-4.11C1459.19,863.17,1459.66,874.58,1453.69,883.54z"></path></svg>