<svg xmlns="http://www.w3.org/2000/svg" width="1500" height="1500" id="online-advisor"><path fill="#264653" d="M329.814 328.857L339 329.092C341.292 329.074 344.793 328.572 346.76 329.893L347.922 330.716C354.556 336.12 349.63 341.822 342.021 342.476L333.549 342.475C330.677 342.519 325.687 343.296 323.316 341.424 316.752 336.241 321.28 329.385 329.814 328.857zM408.552 361.797L436.272 361.867C446.371 361.903 449.693 371.447 440.552 375.336 437.101 375.839 433.039 375.341 429.528 375.325L416.459 375.336C414.043 375.339 410.706 375.74 408.419 374.943 401.418 372.502 402.219 364.212 408.552 361.797zM371.532 329.094L409.77 329.174C411.241 329.176 413.083 328.993 414.444 329.557L414.75 329.697C421.411 332.694 419.287 341.659 411.672 342.414L384.722 342.413C379.858 342.409 374.575 342.836 369.768 342.303 362.853 341.536 362.652 329.803 371.532 329.094zM358.527 393.81L385.905 393.746C392.305 393.744 398.875 393.429 405.259 393.766 412.831 394.166 412.837 405.918 404.73 407.47 401.38 407.826 397.431 407.43 394.026 407.427L366.051 407.401C364.333 407.399 358.431 407.801 357.187 407.138 350.122 403.373 350.627 395.305 358.527 393.81zM375.143 361.836L382.1 361.735C394.248 361.585 393.239 373.666 385.448 374.869L384.987 374.934C379.662 375.787 373.57 375.264 368.152 375.268L336.083 375.279 328.283 375.275C327.088 375.267 325.709 375.359 324.658 374.701L323.204 373.699C321.912 372.667 320.674 370.823 320.563 369.125 320.148 362.793 326.875 361.842 331.437 361.85L375.143 361.836zM383.537 139.353C388.172 139.245 392.768 139.116 397.375 139.752 433.283 144.708 463.575 177.359 465.437 213.666 467.651 256.821 435.181 295.495 391.749 297.569 344.275 301.218 304.142 254.81 309.689 208.75 314.313 170.36 345.256 142.403 383.537 139.353z" transform="scale(2.92969)"></path><path fill="#F4A261" d="M384.551 151.855L384.666 151.719C415.033 150.184 441.715 171.794 450.941 200.019C464.092 240.25 433.096 281.537 391.812 285.229C333.662 287.995 299.84 218.058 337.565 174.789C349.535 161.06 366.496 153.136 384.551 151.855Z" transform="scale(2.92969)"></path><path fill="#264653" d="M386.329 163.791C394.504 163.07 395.483 168.074 393.999 174.784L401.153 177.921C408.105 181.811 421.952 199.445 408.712 202.326C399.304 204.373 398.745 182.517 383.177 187.107L382.75 187.239C373.272 190.047 371.994 201.092 379.681 206.627C385.621 210.904 396.703 211.207 405.415 218.389C413.626 225.158 417.494 238.564 411.889 248.155C407.938 254.914 401.363 257.537 394.21 259.376L394.454 262.808C394.513 265.716 394.216 267.924 392.13 270.095C388.777 272.189 384.499 271.894 381.734 268.863C380.483 267.491 381.189 262.244 381.268 260.401L378.514 259.475C362.174 254.946 357.922 232.76 369.375 234.027C373.947 234.533 374.621 239.184 376.79 242.333C383.105 251.5 398.303 249.337 400.951 238.965L401.033 238.625C401.423 237.044 401.447 235.154 400.912 233.606L400.782 233.25C397.8 224.896 385.076 223.956 377.93 221.169C355.282 212.338 357.182 180.27 381.796 174.43L382.142 174.35C380.747 169.648 381.543 165.656 386.329 163.791Z" transform="scale(2.92969)"></path><path fill="#264653" d="M45.9112 14.4031C54.0904 13.9171 62.4779 14.2822 70.6742 14.284L447.325 14.2852C454.595 14.2854 462.116 13.886 469.362 14.3391C486.489 15.4098 501.476 31.1521 502.31 48.1144L502.404 413.885C502.412 419.743 502.817 425.908 502.378 431.732C501.753 440.048 489.279 437.992 488.76 430.625C488.549 427.635 488.736 424.519 488.737 421.516L488.735 181.761L488.687 109.02C486.505 108.479 483.012 108.956 480.7 108.969L23.3028 108.998C23.0347 110.425 23.2209 112.207 23.2206 113.674L23.2682 335.273C22.8833 343.97 10.0209 343.435 9.76746 335.125L9.75562 58.5611C9.7533 53.7471 9.5682 48.8236 10.3006 44.053C13.2289 24.9787 28.1112 15.8629 45.9112 14.4031Z" transform="scale(2.92969)"></path><path fill="#2A9D8F" d="M46.9108 27.8592L57.1942 28.0268C59.6863 28.1715 62.0135 28.5829 64.5468 28.5978L454.894 28.6043C460.127 28.5979 465.549 28.2833 470.752 28.7497C490.003 30.475 488.789 50.6466 488.787 64.649L488.966 95.5842C486.768 95.9602 484.118 95.6952 481.871 95.6965L466.375 95.6953L23.2101 95.6573L23.1416 64.1682C23.1207 50.0384 22.4696 32.0175 40.6687 28.5061L41.125 28.4209C43.0466 28.0446 44.9608 27.9625 46.9108 27.8592Z" transform="scale(2.92969)"></path><path fill="#E9C46A" d="M109.883 50.8034C114.031 50.4156 120.633 52.1897 122.216 56.5779L122.542 57.5326C124.098 63.0758 120.298 69.4197 114.738 70.7055C100.666 72.7753 94.5567 53.5787 109.883 50.8034Z" transform="scale(2.92969)"></path><path fill="#F4A261" d="M73.7034 50.5787C78.0783 50.0228 83.625 54.4416 84.4277 58.6352 85.5658 64.5807 80.4905 71.6952 74.5371 72.59 60.9943 72.275 58.5974 52.8832 73.7034 50.5787zM149.863 50.0437L150.471 49.9993C162.551 49.4004 165.537 71.0973 150.737 71.6584 138.621 70.5819 131.178 54.5706 149.863 50.0437z" transform="scale(2.92969)"></path><path fill="#264653" d="M310.143 54.2443L310.182 53.9026C326.729 54.4272 322.421 68.0343 314.924 68.7208 311.573 69.0278 307.972 68.7602 304.596 68.7515L216.978 68.721 216.419 68.9519C201.609 69.182 203.67 55.1873 211.683 54.3337 216.055 53.8679 220.891 54.2811 225.304 54.2803L292.143 54.2775C298.079 54.2737 304.236 53.8473 310.143 54.2443zM444.519 53.6462L452.125 53.6082C453.286 53.6107 454.681 53.5233 455.729 54.0772L456 54.23C463.363 58.0706 461.847 67.777 453.381 68.7281 450.069 69.1001 446.336 68.7727 442.988 68.7702L350.312 68.7122 343.073 68.6963C327.336 68.5775 332.065 54.971 338.3 54.3123 342.466 53.8722 347.008 54.2545 351.221 54.257L429.052 54.2285C434.153 54.1842 439.13 53.6344 444.519 53.6462zM134.229 138.874L233.528 139.225C251.637 139.167 250.918 139.688 250.941 155.873L251.022 203.701C251.081 206.137 251.536 208.546 251.571 210.961L251.661 234.941C275.613 238.065 276.866 273.235 251.765 276.044L250.577 292.971C247.888 311.592 234.998 336.675 217.542 345.551 216.712 345.973 213.277 346.715 213.275 347.737L213.252 361.24C214.092 362.017 220.109 363.258 221.639 363.752 231.282 366.864 250.335 375.51 256.553 383.271 257.217 384.099 257.856 385.123 258.808 385.625L267.383 389.634C302.77 406.258 331.951 414.029 331.993 458.717L332.109 483.766C332.145 485.526 332.451 487.841 331.652 489.457L331.499 489.75C328.276 496.054 321.962 494.271 316.167 494.262L211.375 494.256 18.2332 494.155C7.03445 493.359 9.7801 481.285 9.76716 472.789 9.73128 449.24 8.46532 428.566 29.0355 411.434 34.042 407.264 40.3273 404.52 46.1858 401.767L75.4956 388.239C80.0043 386.14 83.2544 384.349 88.286 384.79 88.173 380.416 88.5373 379.237 92.451 377.212 97.2325 374.737 102.344 372.927 107.25 370.718 115.645 366.939 120.6 363.827 130.036 363.172L129.786 351.83C129.811 347.562 131.067 347.436 127.627 344.534 108.148 328.106 98.2852 310.524 96.1464 285.552 95.8929 282.592 96.3729 279.538 96.0191 276.608L93.8879 276.125C70.302 271.023 72.5649 239.267 93.3194 234.842L94.246 234.645C94.5034 234.581 95.9339 234.15 96.0107 234.045 96.2754 233.685 96.0092 200.755 95.9993 197.075 95.9534 180.044 94.4417 162.321 111.586 151.576 116.451 148.526 114.124 150.691 117.195 145.99 119.532 142.413 123.43 140.369 127.536 139.524L128 139.433C130.051 139.015 132.144 138.972 134.229 138.874zM138.094 374.125L126.33 378.394 138.02 410.067C140.879 408.286 143.183 406.303 145.68 404.053L163.163 389.002C157.732 386.078 152.447 382.642 147.251 379.315L140.5 375.003C139.451 374.339 139.299 373.887 138.094 374.125zM187.166 417.103C183.767 421.862 182.91 422.97 183.602 428.973L191.804 470.844C192.281 467.202 193.443 464.014 194.609 460.561L205.811 427.915C203.903 429.153 199.387 429.159 197.189 428.59 193.758 427.702 190.176 419.679 187.166 417.103zM152.833 416.998C148.06 420.223 143.351 423.617 137.568 424.721L148.571 454.189C149.62 456.622 150.665 458.965 151.382 461.523 152.148 450.115 160.27 425.745 152.979 417.141L152.833 416.998z" transform="scale(2.92969)"></path><path fill="#E9C46A" d="M251.664 245.894L252.875 246.563C257.369 249.961 259.228 256.638 255.53 261.285C254.379 262.136 253.384 262.614 252.003 263.014C251.103 261.916 251.641 248.599 251.664 245.894Z" transform="scale(2.92969)"></path><path fill="#BD974D" d="M95.5958 247.375C98.0006 246.902 96.7467 260.956 95.9112 263.375L95.395 263.513C94.1634 263.04 93.2194 262.518 92.1377 261.775C86.2376 256.295 89.5351 250.51 95.5958 247.375Z" transform="scale(2.92969)"></path><path fill="#E76F51" d="M170.602 399.966L173.325 402.426C179.166 408.357 176.676 415.237 168.484 414.844 165.592 413.772 163.254 411.357 161.776 408.716 163.778 404.955 166.956 402.108 170.602 399.966zM169.838 429.625C171.257 429.206 171.383 430.526 171.567 431.65L173.32 446.341C174.559 455.58 177.265 471.852 180.67 480.722L171.397 481.079 159.576 480.629C159.545 479.5 160 477.966 160.215 476.834L166.334 443.564C166.95 440.171 167.267 432.016 169.838 429.625z" transform="scale(2.92969)"></path><path fill="#E9C46A" d="M198.891 354.125L199.501 359.908C196.533 362.756 192.445 364.965 189 367.231C182.912 371.234 176.936 375.161 171.348 379.854C169.118 376.883 166.131 374.986 163.063 372.965L151.866 366.197C149.089 364.779 146.221 363.548 143.654 361.762L143.223 354.097L144.675 354.857C147.446 356.058 150.968 356.736 153.919 357.4C169.814 360.981 183.936 359.955 198.891 354.125Z" transform="scale(2.92969)"></path><path fill="#6EC7D7" d="M113.389 382.875L124.676 413.018 106.317 419.389C104.418 420.121 100.034 421.104 98.604 421.906L98.2565 422.116C98.2753 417.757 97.8041 390.326 98.5007 388.994 100.603 387.858 103.088 387.067 105.309 386.139L113.389 382.875zM229.694 381.235L245.265 390.009 244.619 422.339C243.761 421.616 242.842 421.498 241.804 421.15L236.934 419.393 217.584 413.573 229.694 381.235z" transform="scale(2.92969)"></path><path fill="#fff" d="M205.613 371.875C206.751 371.607 208.49 372.926 209.502 373.458L216.843 376.972L203.452 415.372L197.193 408.395L179.144 388.979C179.998 388.069 181.764 387.347 182.875 386.677L205.613 371.875Z" transform="scale(2.92969)"></path><path fill="#2A9D8F" d="M257.833 399.608C263.447 401.741 268.862 404.767 274.289 407.351 293.433 416.467 314.085 422.751 318.269 446.5 319.086 451.139 318.779 456.063 318.777 460.757L318.77 480.879C317.883 481.502 255.631 481.077 248.437 481.092L198.323 481.145C202.649 476.94 210.367 453.419 212.617 447.271L220.062 427.439C226.699 430.413 240.777 435.546 247.934 437.106 258.111 439.324 257.735 432.955 257.529 425.009L257.356 411.289C257.324 407.369 257.123 403.481 257.833 399.608zM84.4757 399.625L84.6402 428C84.5996 432.762 85.4819 435.841 89.8581 438.643 92.8465 438.491 95.9215 437.238 98.7272 436.211L124.824 427.303 141.445 470.241C142.781 473.651 143.733 478.209 144.887 480.948L95.1875 481.09C92.9726 480.832 90.4942 481.071 88.2429 481.075L23.164 481.152 23.1527 464.595C23.1358 460.397 22.8322 456.072 23.1398 451.889 25.0473 425.945 40.3744 419.134 60.4184 409.66 67.8682 406.139 76.3608 401.237 84.4757 399.625z" transform="scale(2.92969)"></path><path fill="#E9C46A" d="M228.24 207.375L229.427 207.584C238.819 214.244 239.122 217.6 239.1 227.51L239.064 269.851C239.061 289.98 238.286 304.192 224.998 321.424C202.651 350.404 162.455 355.495 133.63 332.95C108.487 312.537 108.704 291.031 108.728 262.648L108.724 245.625C108.756 223.059 113.515 211.693 137.137 211.845L206.195 211.883C214.124 211.853 221.106 211.396 228.24 207.375Z" transform="scale(2.92969)"></path><path fill="#264653" d="M175.194 276.32C184.962 275.97 185.977 294.772 176.355 296.455L174.789 296.175C169.062 294.61 167.593 286.881 169.082 281.902L169.21 281.5C170.172 278.427 171.999 277.015 175.194 276.32zM144.062 242.548C155.575 241.85 155.133 264.128 147.179 267.714 138.186 267.634 138.611 259.043 138.971 251.821 139.044 250.368 139.048 248.652 139.601 247.288L140.331 245.375C141.138 243.755 142.473 243.16 144.062 242.548zM206.177 241.329C214.509 241.797 213.364 248.697 213.388 255.183 213.409 260.661 214.725 267.238 207.414 267.809 196.359 264.788 196.372 242.864 206.177 241.329zM156.322 304.047L156.486 304.055C166.445 304.22 170.252 313.93 184.646 307.85 186.996 306.858 189.76 304.65 192.333 304.61 195.277 304.563 198.598 307.451 198.441 310.509 198.3 313.266 195.652 315.557 193.71 317.24 187.34 321.571 177.724 323.622 170.087 322.586L165.684 321.821C159.421 320.307 150.146 315.727 152.359 307.822 152.737 306.472 153.583 305.186 154.875 304.548L156.322 304.047z" transform="scale(2.92969)"></path></svg>