<svg xmlns="http://www.w3.org/2000/svg" data-name="Layer 1" viewBox="0 0 64 64" id="online-consulting"><path fill="#d98285" d="M51,19H39a2,2,0,0,0-2,2v8a2,2,0,0,0,2,2h7l4,4V31h1a2,2,0,0,0,2-2V21A2,2,0,0,0,51,19Z"></path><rect width="26" height="44" x="3" y="3" fill="#7cb2f8" rx="3"></rect><path fill="#c9e6fb" d="M20,31H12a3,3,0,0,0-3,3v9H23V34A3,3,0,0,0,20,31Z"></path><path fill="#e6eef3" d="M29 6V7H3V6A3 3 0 0 1 6 3H26A3 3 0 0 1 29 6zM29 44V43H3v1a3 3 0 0 0 3 3H26A3 3 0 0 0 29 44z"></path><path fill="#628ec5" d="M58,49H46a3,3,0,0,0-3,3V62H61V52A3,3,0,0,0,58,49Z"></path><circle cx="52" cy="43.5" r="4.5" fill="#628ec5"></circle><circle cx="16" cy="26" r="4" fill="#c9e6fb"></circle><path fill="#ffe66d" d="M42,26H30a2,2,0,0,1-2-2V23H24l4-4V16a2,2,0,0,1,2-2H42a2,2,0,0,1,2,2v8A2,2,0,0,1,42,26Z"></path><path d="M28 42H24V34a4 4 0 0 0-4-4H18.969a5 5 0 1 0-5.938 0H12a4 4 0 0 0-4 4v8H4V8H28v2h2V6a4 4 0 0 0-4-4H6A4 4 0 0 0 2 6V44a4 4 0 0 0 4 4H26a4 4 0 0 0 4-4V30H28zM6 4H26a2 2 0 0 1 2 2H4A2 2 0 0 1 6 4zm7 22a3 3 0 1 1 3 3A3 3 0 0 1 13 26zm-3 8a2 2 0 0 1 2-2h8a2 2 0 0 1 2 2v8H21V34H19v8H13V34H11v8H10zM26 46H6a2 2 0 0 1-2-2H28A2 2 0 0 1 26 46zM58 48H55.152a5.5 5.5 0 1 0-6.3 0H46a4 4 0 0 0-4 4V62h2V52a2 2 0 0 1 2-2H58a2 2 0 0 1 2 2V62h2V52A4 4 0 0 0 58 48zm-6-1a3.5 3.5 0 1 1 3.5-3.5A3.5 3.5 0 0 1 52 47z"></path><rect width="2" height="9" x="56" y="53"></rect><rect width="2" height="9" x="46" y="53"></rect><path d="M49.293,35.707A1,1,0,0,0,50,36a.987.987,0,0,0,.383-.076A1,1,0,0,0,51,35V32a3,3,0,0,0,3-3V21a3,3,0,0,0-3-3H45V16a3,3,0,0,0-3-3H30a3,3,0,0,0-3,3v2.586l-3.707,3.707A1,1,0,0,0,24,24h3a3,3,0,0,0,3,3h6v2a3,3,0,0,0,3,3h6.586ZM30,25a1,1,0,0,1-1-1V23a1,1,0,0,0-1-1H26.414l2.293-2.293A1,1,0,0,0,29,19V16a1,1,0,0,1,1-1H42a1,1,0,0,1,1,1v8a1,1,0,0,1-1,1Zm8,4V27h4a3,3,0,0,0,3-3V20h6a1,1,0,0,1,1,1v8a1,1,0,0,1-1,1H50a1,1,0,0,0-1,1v1.586l-2.293-2.293A1,1,0,0,0,46,30H39A1,1,0,0,1,38,29Z"></path><rect width="2" height="2" x="15" y="53"></rect><rect width="2" height="2" x="15" y="57"></rect><rect width="2" height="2" x="19" y="57"></rect><rect width="2" height="2" x="23" y="57"></rect><rect width="2" height="2" x="27" y="57"></rect><rect width="2" height="2" x="31" y="57"></rect><rect width="2" height="2" x="35" y="57"></rect></svg>