<svg xmlns="http://www.w3.org/2000/svg" enable-background="new 0 0 512 512" viewBox="0 0 512 512" id="productmanagement"><path fill-rule="evenodd" d="M293.34,254.719l-19.766,22.823c-2.638,3.048-7.08,3.611-10.368,1.475l-89.052-51.414v13.773h7.43
	c4.418,0,8,3.582,8,8v32.782c9.357,3.52,17.923,8.489,25.622,14.825l28.4-16.397c3.814-2.209,8.697-0.908,10.906,2.906
	l24.138,41.808c2.273,3.931,0.916,8.851-3.351,11.145l-24.856,14.351l42.897,24.767V254.719L293.34,254.719z M336.85,262.118
	l-23.176-26.761l121.119-69.928l23.175,26.761L336.85,262.118L336.85,262.118z M244.677,436.454l-26.445-15.268
	c-3.117-1.791-6.939-1.24-9.428,1.104l-0.009-0.01c-8.361,7.833-18.518,13.741-29.522,17.077c-3.441,1.044-5.658,4.206-5.657,7.625
	h-0.031v30.479h-32.276v-30.479c0-3.691-2.5-6.797-5.898-7.72c-10.636-3.072-21.322-9.482-29.311-16.981
	c-2.759-2.596-6.88-2.847-9.901-0.826l-25.995,15.008l-16.172-28.011l26.41-15.248c3.112-1.788,4.56-5.359,3.798-8.684l0.015-0.003
	c-2.597-11.177-2.577-23.016,0-34.195c0.844-3.685-1.012-7.359-4.268-8.951l-25.941-14.977l16.172-28.011l26.445,15.268
	c3.117,1.792,6.939,1.24,9.428-1.104l0.009,0.01c8.361-7.833,18.517-13.741,29.522-17.077c3.441-1.043,5.658-4.206,5.657-7.625h0.03
	v-30.479h32.276v30.478c0,3.852,2.723,7.068,6.349,7.829c5.263,1.649,10.304,3.882,15.05,6.625
	c5.056,2.923,9.699,6.367,13.842,10.248c2.625,2.455,6.471,2.79,9.427,1.077l0.01,0.017l26.421-15.254l16.165,27.997l-26.397,15.24
	c-3.112,1.788-4.56,5.359-3.797,8.684l-0.015,0.003c2.596,11.175,2.577,23.018,0,34.194c-0.844,3.686,1.012,7.359,4.268,8.951
	l25.941,14.977L244.677,436.454L244.677,436.454z M157.447,323.937c24.013,0,43.481,19.469,43.481,43.482
	c0,24.013-19.469,43.481-43.481,43.481c-24.013,0-43.481-19.468-43.481-43.481C113.966,343.405,133.434,323.937,157.447,323.937
	L157.447,323.937z M332.015,51.154L301.34,34.54l-52.149,28.246l52.149,28.246l52.149-28.246L332.015,51.154L332.015,51.154z
	 M240.429,76.198l52.911,28.659v56.492l-52.911-28.659V76.198L240.429,76.198z M309.34,161.349v-56.492l52.911-28.659v56.492
	L309.34,161.349L309.34,161.349z M265.82,262.13l-121.118-69.927l23.175-26.761l121.119,69.928L265.82,262.13L265.82,262.13z
	 M309.34,375.563l55.593-32.097l0.008,0.014l63.585-36.711V227.62l-89.389,51.609l-0.002-0.004
	c-3.249,1.886-7.481,1.261-10.029-1.684l-19.766-22.823V375.563L309.34,375.563z M182.085,155.249l119.255,68.852l119.255-68.852
	l-42.344-24.447v6.633c0,3.231-1.915,6.014-4.672,7.277l-68.458,37.079c-2.492,1.34-5.378,1.221-7.679-0.063l-68.795-37.262
	c-2.678-1.44-4.201-4.189-4.203-7.031h-0.016v-6.634L182.085,155.249z" clip-rule="evenodd" fill="#595bd4" class="color000000 svgShape"></path></svg>