<svg xmlns="http://www.w3.org/2000/svg" data-name="Layer 1" viewBox="0 0 512 512" id="shield"><path fill="#efaa66" fill-rule="evenodd" d="M256,486A415.785,415.785,0,0,1,65.105,104.011,316.671,316.671,0,0,0,256,26a316.676,316.676,0,0,0,190.9,78.011A415.785,415.785,0,0,1,256,486Z"></path><path fill="#ffe266" fill-rule="evenodd" d="M377.968,277.521H355.51a101.784,101.784,0,0,1-13.943,33.609l15.887,15.887a124.56,124.56,0,0,1-30.437,30.436l-15.871-15.872a102.149,102.149,0,0,1-33.624,13.907v22.479a124.869,124.869,0,0,1-43.043,0V355.509a101.8,101.8,0,0,1-33.608-13.943l-15.887,15.887a124.573,124.573,0,0,1-30.436-30.436l15.872-15.872a102.14,102.14,0,0,1-13.907-33.624H134.034a124.888,124.888,0,0,1,0-43.042h22.479a102.149,102.149,0,0,1,13.907-33.624l-15.872-15.872a124.573,124.573,0,0,1,30.436-30.436l15.887,15.887a101.8,101.8,0,0,1,33.608-13.943V134.033a124.869,124.869,0,0,1,43.043,0v22.479a102.14,102.14,0,0,1,33.624,13.907l15.872-15.872a124.573,124.573,0,0,1,30.436,30.436L341.567,200.87a101.793,101.793,0,0,1,13.943,33.609h22.458a124.987,124.987,0,0,1,0,43.042ZM326.145,256A70.144,70.144,0,1,0,256,326.144,70.145,70.145,0,0,0,326.145,256Z"></path></svg>