<svg xmlns="http://www.w3.org/2000/svg" xmlns:xlink="http://www.w3.org/1999/xlink" width="500" zoomAndPan="magnify" viewBox="0 0 375 374.999991" height="500" preserveAspectRatio="xMidYMid meet" version="1.0"><defs><g/><clipPath id="4d48645cb6"><path d="M 22.886719 9.445312 L 95.886719 9.445312 L 95.886719 11.605469 L 22.886719 11.605469 Z M 22.886719 9.445312 " clip-rule="nonzero"/></clipPath><clipPath id="51d4629eb5"><path d="M 22.3125 73.480469 L 95.308594 73.480469 L 95.308594 75.640625 L 22.3125 75.640625 Z M 22.3125 73.480469 " clip-rule="nonzero"/></clipPath><clipPath id="3cef6adda8"><path d="M 21.359375 62.039062 L 96.261719 62.039062 L 96.261719 71.355469 L 21.359375 71.355469 Z M 21.359375 62.039062 " clip-rule="nonzero"/></clipPath><clipPath id="af5dc62999"><path d="M 26.015625 62.039062 L 91.605469 62.039062 C 94.179688 62.039062 96.261719 64.125 96.261719 66.699219 C 96.261719 69.269531 94.179688 71.355469 91.605469 71.355469 L 26.015625 71.355469 C 23.445312 71.355469 21.359375 69.269531 21.359375 66.699219 C 21.359375 64.125 23.445312 62.039062 26.015625 62.039062 Z M 26.015625 62.039062 " clip-rule="nonzero"/></clipPath><clipPath id="60ffd94bf8"><path d="M 21.359375 62.042969 L 96.179688 62.042969 L 96.179688 71.449219 L 21.359375 71.449219 Z M 21.359375 62.042969 " clip-rule="nonzero"/></clipPath><clipPath id="93d7e30d41"><path d="M 26.015625 62.042969 L 91.601562 62.042969 C 94.175781 62.042969 96.261719 64.125 96.261719 66.699219 C 96.261719 69.269531 94.175781 71.355469 91.601562 71.355469 L 26.015625 71.355469 C 23.445312 71.355469 21.359375 69.269531 21.359375 66.699219 C 21.359375 64.125 23.445312 62.042969 26.015625 62.042969 Z M 26.015625 62.042969 " clip-rule="nonzero"/></clipPath></defs><g fill="#003070" fill-opacity="1"><g transform="translate(2.046708, 67.073986)"><g><path d="M 32.5 -48.9375 L 30.421875 -46.28125 C 29.554688 -46.757812 28.738281 -47.1875 27.96875 -47.5625 C 27.195312 -47.945312 26.414062 -48.257812 25.625 -48.5 C 24.832031 -48.75 23.988281 -48.929688 23.09375 -49.046875 C 22.207031 -49.171875 21.1875 -49.234375 20.03125 -49.234375 C 17.675781 -49.234375 15.570312 -48.847656 13.71875 -48.078125 C 11.875 -47.304688 10.300781 -46.269531 9 -44.96875 C 7.707031 -43.675781 6.722656 -42.1875 6.046875 -40.5 C 5.378906 -38.820312 5.046875 -37.046875 5.046875 -35.171875 C 5.046875 -32.628906 5.828125 -30.300781 7.390625 -28.1875 C 8.953125 -26.070312 11.390625 -24.460938 14.703125 -23.359375 C 16.285156 -22.828125 17.628906 -22.390625 18.734375 -22.046875 C 19.835938 -21.710938 20.867188 -21.390625 21.828125 -21.078125 C 22.796875 -20.765625 23.769531 -20.425781 24.75 -20.0625 C 25.738281 -19.707031 26.882812 -19.21875 28.1875 -18.59375 C 29.820312 -17.820312 30.925781 -16.75 31.5 -15.375 C 32.070312 -14.007812 32.359375 -12.632812 32.359375 -11.25 C 32.359375 -9.519531 32.019531 -7.941406 31.34375 -6.515625 C 30.675781 -5.097656 29.789062 -3.910156 28.6875 -2.953125 C 27.582031 -1.992188 26.304688 -1.25 24.859375 -0.71875 C 23.421875 -0.1875 21.957031 0.078125 20.46875 0.078125 C 18.738281 0.078125 17.082031 -0.222656 15.5 -0.828125 C 13.914062 -1.429688 12.445312 -2.285156 11.09375 -3.390625 C 9.75 -4.492188 8.582031 -5.863281 7.59375 -7.5 C 6.613281 -9.132812 5.859375 -10.957031 5.328125 -12.96875 C 5.191406 -13.59375 4.929688 -13.90625 4.546875 -13.90625 C 4.203125 -13.90625 4.03125 -13.570312 4.03125 -12.90625 L 4.03125 0 C 4.03125 0.625 4.25 0.9375 4.6875 0.9375 C 4.976562 0.9375 5.289062 0.695312 5.625 0.21875 L 8.21875 -3.53125 C 8.789062 -3 9.5 -2.445312 10.34375 -1.875 C 11.1875 -1.300781 12.125 -0.769531 13.15625 -0.28125 C 14.1875 0.195312 15.289062 0.59375 16.46875 0.90625 C 17.644531 1.21875 18.859375 1.375 20.109375 1.375 C 22.410156 1.375 24.546875 0.953125 26.515625 0.109375 C 28.492188 -0.734375 30.203125 -1.898438 31.640625 -3.390625 C 33.085938 -4.878906 34.226562 -6.644531 35.0625 -8.6875 C 35.90625 -10.726562 36.328125 -12.925781 36.328125 -15.28125 C 36.328125 -18.5 35.566406 -21.222656 34.046875 -23.453125 C 32.535156 -25.691406 30.148438 -27.289062 26.890625 -28.25 C 25.785156 -28.59375 24.75 -28.882812 23.78125 -29.125 C 22.820312 -29.363281 21.835938 -29.625 20.828125 -29.90625 C 19.816406 -30.195312 18.757812 -30.519531 17.65625 -30.875 C 16.550781 -31.238281 15.328125 -31.6875 13.984375 -32.21875 C 12.492188 -32.789062 11.363281 -33.675781 10.59375 -34.875 C 9.820312 -36.082031 9.4375 -37.476562 9.4375 -39.0625 C 9.4375 -40.550781 9.75 -41.859375 10.375 -42.984375 C 11 -44.117188 11.800781 -45.046875 12.78125 -45.765625 C 13.769531 -46.484375 14.898438 -47.023438 16.171875 -47.390625 C 17.453125 -47.753906 18.738281 -47.9375 20.03125 -47.9375 C 22.007812 -47.9375 23.742188 -47.597656 25.234375 -46.921875 C 26.722656 -46.242188 27.96875 -45.351562 28.96875 -44.25 C 29.976562 -43.144531 30.785156 -41.875 31.390625 -40.4375 C 31.992188 -39 32.390625 -37.507812 32.578125 -35.96875 C 32.628906 -35.488281 32.847656 -35.25 33.234375 -35.25 C 33.566406 -35.25 33.734375 -35.488281 33.734375 -35.96875 L 33.734375 -48.796875 C 33.734375 -49.273438 33.585938 -49.515625 33.296875 -49.515625 C 33.054688 -49.515625 32.789062 -49.320312 32.5 -48.9375 Z M 32.5 -48.9375 "/></g></g></g><g fill="#003070" fill-opacity="1"><g transform="translate(37.367601, 67.073986)"><g><path d="M 40 -13.328125 C 39.613281 -11.503906 39.203125 -9.847656 38.765625 -8.359375 C 38.335938 -6.867188 37.765625 -5.582031 37.046875 -4.5 C 36.328125 -3.425781 35.414062 -2.597656 34.3125 -2.015625 C 33.207031 -1.441406 31.8125 -1.15625 30.125 -1.15625 L 15.359375 -1.15625 L 15.359375 -47.28125 L 22.203125 -47.28125 L 22.203125 -48.4375 L 2.15625 -48.4375 L 2.15625 -47.28125 L 8.359375 -47.28125 L 8.359375 -1.15625 L 2.15625 -1.15625 L 2.15625 0 L 39.28125 0 C 40.675781 0 41.375 -0.769531 41.375 -2.3125 L 41.375 -13.125 C 41.375 -14.269531 41.179688 -14.84375 40.796875 -14.84375 C 40.460938 -14.84375 40.195312 -14.335938 40 -13.328125 Z M 40 -13.328125 "/></g></g></g><g fill="#003070" fill-opacity="1"><g transform="translate(76.797267, 67.073986)"><g><path d="M 26.015625 -1.15625 L 26.015625 -47.28125 L 32.21875 -47.28125 C 34.425781 -47.28125 36.359375 -46.148438 38.015625 -43.890625 C 39.679688 -41.640625 40.773438 -38.566406 41.296875 -34.671875 L 42.8125 -34.671875 L 41.734375 -47.21875 C 41.679688 -48.03125 41.203125 -48.4375 40.296875 -48.4375 L 4.75 -48.4375 C 3.84375 -48.4375 3.363281 -48.03125 3.3125 -47.21875 L 2.234375 -34.671875 L 3.75 -34.671875 C 4.28125 -38.566406 5.375 -41.640625 7.03125 -43.890625 C 8.6875 -46.148438 10.617188 -47.28125 12.828125 -47.28125 L 19.03125 -47.28125 L 19.03125 -1.15625 L 12.828125 -1.15625 L 12.828125 0 L 32.21875 0 L 32.21875 -1.15625 Z M 26.015625 -1.15625 "/></g></g></g><g clip-path="url(#4d48645cb6)"><path fill="#003070" d="M 22.886719 9.445312 L 95.886719 9.445312 L 95.886719 11.605469 L 22.886719 11.605469 Z M 22.886719 9.445312 " fill-opacity="1" fill-rule="nonzero"/></g><g clip-path="url(#51d4629eb5)"><path fill="#003070" d="M 22.3125 73.480469 L 95.308594 73.480469 L 95.308594 75.640625 L 22.3125 75.640625 Z M 22.3125 73.480469 " fill-opacity="1" fill-rule="nonzero"/></g><g clip-path="url(#3cef6adda8)"><g clip-path="url(#af5dc62999)"><path fill="#ffffff" d="M 21.359375 62.039062 L 96.261719 62.039062 L 96.261719 71.355469 L 21.359375 71.355469 Z M 21.359375 62.039062 " fill-opacity="1" fill-rule="nonzero"/></g></g><g clip-path="url(#60ffd94bf8)"><g clip-path="url(#93d7e30d41)"><path stroke-linecap="butt" transform="matrix(0.218779, 0, 0, 0.218779, 21.358976, 62.041117)" fill="none" stroke-linejoin="miter" d="M 21.284683 0.00846526 L 321.065891 0.00846526 C 332.83217 0.00846526 342.366605 9.525046 342.366605 21.291324 C 342.366605 33.039748 332.83217 42.574183 321.065891 42.574183 L 21.284683 42.574183 C 9.536259 42.574183 0.00182422 33.039748 0.00182422 21.291324 C 0.00182422 9.525046 9.536259 0.00846526 21.284683 0.00846526 Z M 21.284683 0.00846526 " stroke="#000000" stroke-width="6.856222" stroke-opacity="1" stroke-miterlimit="4"/></g></g><g fill="#003070" fill-opacity="1"><g transform="translate(42.09191, 68.724519)"><g><path d="M 1.90625 -3.703125 L 1.25 -1.75 L 2.53125 -1.75 L 2 -3.703125 Z M 2.1875 -4.5625 L 3.265625 -1.109375 C 3.335938 -0.847656 3.421875 -0.640625 3.515625 -0.484375 C 3.609375 -0.328125 3.722656 -0.234375 3.859375 -0.203125 L 4.046875 -0.1875 L 4.03125 0 C 3.925781 -0.0078125 3.8125 -0.015625 3.6875 -0.015625 C 3.5625 -0.0234375 3.429688 -0.03125 3.296875 -0.03125 C 3.160156 -0.03125 3.023438 -0.0234375 2.890625 -0.015625 C 2.753906 -0.015625 2.628906 -0.0078125 2.515625 0 L 2.515625 -0.1875 L 2.96875 -0.21875 L 2.59375 -1.53125 L 2.46875 -1.53125 C 2.414062 -1.53125 2.34375 -1.53125 2.25 -1.53125 C 2.15625 -1.53125 2.050781 -1.523438 1.9375 -1.515625 C 1.820312 -1.515625 1.695312 -1.507812 1.5625 -1.5 C 1.425781 -1.5 1.285156 -1.488281 1.140625 -1.46875 L 0.96875 -0.984375 C 0.925781 -0.878906 0.890625 -0.78125 0.859375 -0.6875 C 0.835938 -0.601562 0.828125 -0.523438 0.828125 -0.453125 C 0.828125 -0.390625 0.84375 -0.335938 0.875 -0.296875 C 0.914062 -0.253906 0.976562 -0.222656 1.0625 -0.203125 L 1.25 -0.1875 L 1.25 0 C 1.132812 -0.0078125 1.023438 -0.0195312 0.921875 -0.03125 C 0.816406 -0.0390625 0.707031 -0.046875 0.59375 -0.046875 C 0.476562 -0.046875 0.359375 -0.0390625 0.234375 -0.03125 C 0.109375 -0.0195312 -0.0234375 -0.0078125 -0.171875 0 L -0.171875 -0.1875 C -0.109375 -0.1875 -0.0507812 -0.191406 0 -0.203125 C 0.0507812 -0.203125 0.0976562 -0.203125 0.140625 -0.203125 C 0.191406 -0.210938 0.234375 -0.21875 0.265625 -0.21875 C 0.359375 -0.40625 0.453125 -0.601562 0.546875 -0.8125 C 0.640625 -1.03125 0.734375 -1.253906 0.828125 -1.484375 C 0.929688 -1.722656 1.03125 -1.96875 1.125 -2.21875 C 1.21875 -2.476562 1.3125 -2.734375 1.40625 -2.984375 C 1.507812 -3.242188 1.601562 -3.5 1.6875 -3.75 C 1.78125 -4.007812 1.863281 -4.257812 1.9375 -4.5 Z M 2.1875 -4.5625 "/></g></g></g><g fill="#003070" fill-opacity="1"><g transform="translate(46.164199, 68.724519)"><g><path d="M 1.4375 -0.140625 C 1.5625 -0.140625 1.675781 -0.160156 1.78125 -0.203125 C 1.894531 -0.242188 1.992188 -0.300781 2.078125 -0.375 C 2.160156 -0.445312 2.222656 -0.535156 2.265625 -0.640625 C 2.316406 -0.742188 2.34375 -0.863281 2.34375 -1 C 2.34375 -1.132812 2.3125 -1.253906 2.25 -1.359375 C 2.195312 -1.460938 2.125 -1.554688 2.03125 -1.640625 C 1.9375 -1.734375 1.832031 -1.820312 1.71875 -1.90625 C 1.613281 -1.988281 1.515625 -2.066406 1.421875 -2.140625 C 1.328125 -2.210938 1.222656 -2.289062 1.109375 -2.375 C 1.003906 -2.46875 0.898438 -2.566406 0.796875 -2.671875 C 0.703125 -2.773438 0.617188 -2.882812 0.546875 -3 C 0.484375 -3.125 0.453125 -3.265625 0.453125 -3.421875 C 0.453125 -3.492188 0.457031 -3.570312 0.46875 -3.65625 C 0.488281 -3.738281 0.515625 -3.820312 0.546875 -3.90625 C 0.585938 -3.988281 0.632812 -4.0625 0.6875 -4.125 C 0.75 -4.195312 0.828125 -4.257812 0.921875 -4.3125 C 1.015625 -4.363281 1.117188 -4.40625 1.234375 -4.4375 C 1.359375 -4.476562 1.503906 -4.5 1.671875 -4.5 C 1.878906 -4.5 2.078125 -4.476562 2.265625 -4.4375 C 2.460938 -4.40625 2.628906 -4.367188 2.765625 -4.328125 L 2.703125 -3.375 L 2.515625 -3.375 L 2.515625 -3.46875 C 2.515625 -3.539062 2.503906 -3.625 2.484375 -3.71875 C 2.472656 -3.8125 2.4375 -3.898438 2.375 -3.984375 C 2.320312 -4.066406 2.238281 -4.132812 2.125 -4.1875 C 2.019531 -4.238281 1.875 -4.265625 1.6875 -4.265625 C 1.582031 -4.265625 1.484375 -4.25 1.390625 -4.21875 C 1.304688 -4.1875 1.226562 -4.140625 1.15625 -4.078125 C 1.09375 -4.023438 1.046875 -3.957031 1.015625 -3.875 C 0.984375 -3.800781 0.96875 -3.710938 0.96875 -3.609375 C 0.96875 -3.484375 0.992188 -3.367188 1.046875 -3.265625 C 1.097656 -3.160156 1.160156 -3.066406 1.234375 -2.984375 C 1.316406 -2.910156 1.40625 -2.835938 1.5 -2.765625 C 1.601562 -2.703125 1.703125 -2.632812 1.796875 -2.5625 C 1.941406 -2.46875 2.078125 -2.367188 2.203125 -2.265625 C 2.328125 -2.160156 2.4375 -2.050781 2.53125 -1.9375 C 2.632812 -1.832031 2.710938 -1.71875 2.765625 -1.59375 C 2.828125 -1.46875 2.859375 -1.328125 2.859375 -1.171875 C 2.859375 -0.992188 2.816406 -0.828125 2.734375 -0.671875 C 2.660156 -0.523438 2.554688 -0.394531 2.421875 -0.28125 C 2.285156 -0.164062 2.128906 -0.0703125 1.953125 0 C 1.785156 0.0625 1.609375 0.09375 1.421875 0.09375 C 1.203125 0.09375 0.988281 0.0703125 0.78125 0.03125 C 0.582031 0 0.40625 -0.0351562 0.25 -0.078125 L 0.328125 -1.09375 L 0.53125 -1.09375 L 0.53125 -0.984375 C 0.53125 -0.890625 0.539062 -0.789062 0.5625 -0.6875 C 0.582031 -0.59375 0.625 -0.503906 0.6875 -0.421875 C 0.75 -0.335938 0.835938 -0.269531 0.953125 -0.21875 C 1.078125 -0.164062 1.238281 -0.140625 1.4375 -0.140625 Z M 1.4375 -0.140625 "/></g></g></g><g fill="#003070" fill-opacity="1"><g transform="translate(49.419802, 68.724519)"><g><path d="M 2.5625 -2.078125 C 2.425781 -2.097656 2.289062 -2.113281 2.15625 -2.125 C 2.03125 -2.132812 1.910156 -2.144531 1.796875 -2.15625 C 1.679688 -2.164062 1.570312 -2.171875 1.46875 -2.171875 C 1.375 -2.179688 1.296875 -2.1875 1.234375 -2.1875 C 1.222656 -1.9375 1.210938 -1.707031 1.203125 -1.5 C 1.203125 -1.40625 1.195312 -1.3125 1.1875 -1.21875 C 1.1875 -1.132812 1.1875 -1.054688 1.1875 -0.984375 C 1.1875 -0.910156 1.1875 -0.847656 1.1875 -0.796875 C 1.1875 -0.742188 1.1875 -0.707031 1.1875 -0.6875 C 1.1875 -0.570312 1.195312 -0.484375 1.21875 -0.421875 C 1.25 -0.359375 1.296875 -0.304688 1.359375 -0.265625 C 1.421875 -0.234375 1.492188 -0.210938 1.578125 -0.203125 C 1.671875 -0.191406 1.773438 -0.1875 1.890625 -0.1875 C 2.054688 -0.1875 2.195312 -0.195312 2.3125 -0.21875 C 2.4375 -0.238281 2.539062 -0.273438 2.625 -0.328125 C 2.707031 -0.390625 2.773438 -0.472656 2.828125 -0.578125 C 2.878906 -0.679688 2.925781 -0.8125 2.96875 -0.96875 L 3.15625 -0.96875 C 3.15625 -0.90625 3.144531 -0.832031 3.125 -0.75 C 3.101562 -0.664062 3.082031 -0.570312 3.0625 -0.46875 C 3.039062 -0.375 3.007812 -0.28125 2.96875 -0.1875 C 2.9375 -0.09375 2.90625 -0.0078125 2.875 0.0625 C 2.644531 0.0507812 2.425781 0.0390625 2.21875 0.03125 C 2.019531 0.0195312 1.835938 0.0078125 1.671875 0 C 1.503906 -0.0078125 1.359375 -0.015625 1.234375 -0.015625 C 1.109375 -0.0234375 1.015625 -0.03125 0.953125 -0.03125 C 0.847656 -0.03125 0.734375 -0.03125 0.609375 -0.03125 C 0.492188 -0.03125 0.351562 -0.0195312 0.1875 0 L 0.203125 -0.1875 C 0.253906 -0.1875 0.300781 -0.1875 0.34375 -0.1875 C 0.382812 -0.195312 0.421875 -0.203125 0.453125 -0.203125 C 0.492188 -0.210938 0.53125 -0.21875 0.5625 -0.21875 C 0.601562 -0.21875 0.640625 -0.21875 0.671875 -0.21875 C 0.691406 -0.84375 0.710938 -1.40625 0.734375 -1.90625 C 0.734375 -2.113281 0.738281 -2.320312 0.75 -2.53125 C 0.757812 -2.738281 0.765625 -2.925781 0.765625 -3.09375 C 0.773438 -3.257812 0.78125 -3.398438 0.78125 -3.515625 C 0.789062 -3.628906 0.796875 -3.703125 0.796875 -3.734375 C 0.796875 -3.828125 0.785156 -3.898438 0.765625 -3.953125 C 0.753906 -4.015625 0.738281 -4.0625 0.71875 -4.09375 C 0.695312 -4.125 0.664062 -4.144531 0.625 -4.15625 C 0.582031 -4.175781 0.53125 -4.191406 0.46875 -4.203125 L 0.34375 -4.21875 L 0.34375 -4.40625 C 0.40625 -4.394531 0.476562 -4.382812 0.5625 -4.375 C 0.644531 -4.375 0.742188 -4.367188 0.859375 -4.359375 C 0.984375 -4.359375 1.128906 -4.359375 1.296875 -4.359375 L 2.0625 -4.359375 C 2.144531 -4.359375 2.222656 -4.359375 2.296875 -4.359375 C 2.378906 -4.359375 2.460938 -4.359375 2.546875 -4.359375 C 2.628906 -4.367188 2.710938 -4.375 2.796875 -4.375 C 2.890625 -4.382812 2.988281 -4.394531 3.09375 -4.40625 L 3 -3.328125 L 2.796875 -3.328125 C 2.804688 -3.367188 2.8125 -3.398438 2.8125 -3.421875 C 2.8125 -3.453125 2.8125 -3.472656 2.8125 -3.484375 C 2.8125 -3.503906 2.8125 -3.515625 2.8125 -3.515625 C 2.8125 -3.523438 2.8125 -3.53125 2.8125 -3.53125 C 2.8125 -3.601562 2.800781 -3.671875 2.78125 -3.734375 C 2.757812 -3.796875 2.722656 -3.851562 2.671875 -3.90625 C 2.617188 -3.957031 2.546875 -4 2.453125 -4.03125 C 2.367188 -4.0625 2.253906 -4.082031 2.109375 -4.09375 L 1.328125 -4.140625 C 1.304688 -3.972656 1.289062 -3.796875 1.28125 -3.609375 C 1.269531 -3.429688 1.265625 -3.269531 1.265625 -3.125 L 1.234375 -2.40625 L 2.59375 -2.484375 Z M 2.5625 -2.078125 "/></g></g></g><g fill="#003070" fill-opacity="1"><g transform="translate(52.843174, 68.724519)"><g><path d="M 1.4375 -0.140625 C 1.5625 -0.140625 1.675781 -0.160156 1.78125 -0.203125 C 1.894531 -0.242188 1.992188 -0.300781 2.078125 -0.375 C 2.160156 -0.445312 2.222656 -0.535156 2.265625 -0.640625 C 2.316406 -0.742188 2.34375 -0.863281 2.34375 -1 C 2.34375 -1.132812 2.3125 -1.253906 2.25 -1.359375 C 2.195312 -1.460938 2.125 -1.554688 2.03125 -1.640625 C 1.9375 -1.734375 1.832031 -1.820312 1.71875 -1.90625 C 1.613281 -1.988281 1.515625 -2.066406 1.421875 -2.140625 C 1.328125 -2.210938 1.222656 -2.289062 1.109375 -2.375 C 1.003906 -2.46875 0.898438 -2.566406 0.796875 -2.671875 C 0.703125 -2.773438 0.617188 -2.882812 0.546875 -3 C 0.484375 -3.125 0.453125 -3.265625 0.453125 -3.421875 C 0.453125 -3.492188 0.457031 -3.570312 0.46875 -3.65625 C 0.488281 -3.738281 0.515625 -3.820312 0.546875 -3.90625 C 0.585938 -3.988281 0.632812 -4.0625 0.6875 -4.125 C 0.75 -4.195312 0.828125 -4.257812 0.921875 -4.3125 C 1.015625 -4.363281 1.117188 -4.40625 1.234375 -4.4375 C 1.359375 -4.476562 1.503906 -4.5 1.671875 -4.5 C 1.878906 -4.5 2.078125 -4.476562 2.265625 -4.4375 C 2.460938 -4.40625 2.628906 -4.367188 2.765625 -4.328125 L 2.703125 -3.375 L 2.515625 -3.375 L 2.515625 -3.46875 C 2.515625 -3.539062 2.503906 -3.625 2.484375 -3.71875 C 2.472656 -3.8125 2.4375 -3.898438 2.375 -3.984375 C 2.320312 -4.066406 2.238281 -4.132812 2.125 -4.1875 C 2.019531 -4.238281 1.875 -4.265625 1.6875 -4.265625 C 1.582031 -4.265625 1.484375 -4.25 1.390625 -4.21875 C 1.304688 -4.1875 1.226562 -4.140625 1.15625 -4.078125 C 1.09375 -4.023438 1.046875 -3.957031 1.015625 -3.875 C 0.984375 -3.800781 0.96875 -3.710938 0.96875 -3.609375 C 0.96875 -3.484375 0.992188 -3.367188 1.046875 -3.265625 C 1.097656 -3.160156 1.160156 -3.066406 1.234375 -2.984375 C 1.316406 -2.910156 1.40625 -2.835938 1.5 -2.765625 C 1.601562 -2.703125 1.703125 -2.632812 1.796875 -2.5625 C 1.941406 -2.46875 2.078125 -2.367188 2.203125 -2.265625 C 2.328125 -2.160156 2.4375 -2.050781 2.53125 -1.9375 C 2.632812 -1.832031 2.710938 -1.71875 2.765625 -1.59375 C 2.828125 -1.46875 2.859375 -1.328125 2.859375 -1.171875 C 2.859375 -0.992188 2.816406 -0.828125 2.734375 -0.671875 C 2.660156 -0.523438 2.554688 -0.394531 2.421875 -0.28125 C 2.285156 -0.164062 2.128906 -0.0703125 1.953125 0 C 1.785156 0.0625 1.609375 0.09375 1.421875 0.09375 C 1.203125 0.09375 0.988281 0.0703125 0.78125 0.03125 C 0.582031 0 0.40625 -0.0351562 0.25 -0.078125 L 0.328125 -1.09375 L 0.53125 -1.09375 L 0.53125 -0.984375 C 0.53125 -0.890625 0.539062 -0.789062 0.5625 -0.6875 C 0.582031 -0.59375 0.625 -0.503906 0.6875 -0.421875 C 0.75 -0.335938 0.835938 -0.269531 0.953125 -0.21875 C 1.078125 -0.164062 1.238281 -0.140625 1.4375 -0.140625 Z M 1.4375 -0.140625 "/></g></g></g><g fill="#003070" fill-opacity="1"><g transform="translate(56.098777, 68.724519)"><g><path d="M 0.875 -2.25 C 0.875 -1.976562 0.910156 -1.710938 0.984375 -1.453125 C 1.054688 -1.203125 1.164062 -0.976562 1.3125 -0.78125 C 1.457031 -0.59375 1.628906 -0.4375 1.828125 -0.3125 C 2.035156 -0.195312 2.273438 -0.140625 2.546875 -0.140625 C 2.796875 -0.140625 3.015625 -0.191406 3.203125 -0.296875 C 3.398438 -0.398438 3.5625 -0.535156 3.6875 -0.703125 C 3.820312 -0.878906 3.921875 -1.085938 3.984375 -1.328125 C 4.046875 -1.566406 4.078125 -1.820312 4.078125 -2.09375 C 4.078125 -2.394531 4.039062 -2.675781 3.96875 -2.9375 C 3.894531 -3.207031 3.785156 -3.4375 3.640625 -3.625 C 3.503906 -3.820312 3.335938 -3.976562 3.140625 -4.09375 C 2.953125 -4.207031 2.742188 -4.265625 2.515625 -4.265625 C 2.390625 -4.265625 2.265625 -4.25 2.140625 -4.21875 C 2.015625 -4.195312 1.890625 -4.15625 1.765625 -4.09375 C 1.648438 -4.03125 1.535156 -3.945312 1.421875 -3.84375 C 1.316406 -3.738281 1.222656 -3.613281 1.140625 -3.46875 C 1.054688 -3.320312 0.988281 -3.144531 0.9375 -2.9375 C 0.894531 -2.738281 0.875 -2.507812 0.875 -2.25 Z M 0.296875 -2.1875 C 0.296875 -2.519531 0.351562 -2.828125 0.46875 -3.109375 C 0.582031 -3.390625 0.738281 -3.628906 0.9375 -3.828125 C 1.144531 -4.035156 1.394531 -4.195312 1.6875 -4.3125 C 1.976562 -4.4375 2.300781 -4.5 2.65625 -4.5 C 2.863281 -4.5 3.0625 -4.46875 3.25 -4.40625 C 3.4375 -4.34375 3.601562 -4.257812 3.75 -4.15625 C 3.90625 -4.0625 4.039062 -3.941406 4.15625 -3.796875 C 4.269531 -3.660156 4.363281 -3.507812 4.4375 -3.34375 C 4.519531 -3.1875 4.582031 -3.019531 4.625 -2.84375 C 4.664062 -2.664062 4.6875 -2.484375 4.6875 -2.296875 C 4.6875 -1.941406 4.628906 -1.617188 4.515625 -1.328125 C 4.398438 -1.035156 4.242188 -0.785156 4.046875 -0.578125 C 3.847656 -0.367188 3.617188 -0.203125 3.359375 -0.078125 C 3.097656 0.0351562 2.820312 0.09375 2.53125 0.09375 C 2.28125 0.09375 2.050781 0.0625 1.84375 0 C 1.632812 -0.0625 1.445312 -0.144531 1.28125 -0.25 C 1.113281 -0.351562 0.96875 -0.476562 0.84375 -0.625 C 0.71875 -0.769531 0.613281 -0.925781 0.53125 -1.09375 C 0.457031 -1.257812 0.398438 -1.4375 0.359375 -1.625 C 0.316406 -1.8125 0.296875 -2 0.296875 -2.1875 Z M 0.296875 -2.1875 "/></g></g></g><g fill="#003070" fill-opacity="1"><g transform="translate(61.117536, 68.724519)"><g><path d="M 0.1875 -0.1875 C 0.25 -0.1875 0.300781 -0.1875 0.34375 -0.1875 C 0.382812 -0.195312 0.421875 -0.203125 0.453125 -0.203125 C 0.492188 -0.210938 0.53125 -0.21875 0.5625 -0.21875 C 0.59375 -0.21875 0.628906 -0.21875 0.671875 -0.21875 C 0.679688 -0.5 0.691406 -0.773438 0.703125 -1.046875 C 0.710938 -1.328125 0.71875 -1.59375 0.71875 -1.84375 C 0.726562 -2.09375 0.738281 -2.328125 0.75 -2.546875 C 0.757812 -2.765625 0.765625 -2.957031 0.765625 -3.125 C 0.773438 -3.289062 0.78125 -3.425781 0.78125 -3.53125 C 0.789062 -3.632812 0.796875 -3.707031 0.796875 -3.75 C 0.796875 -3.832031 0.785156 -3.898438 0.765625 -3.953125 C 0.753906 -4.015625 0.734375 -4.0625 0.703125 -4.09375 C 0.679688 -4.125 0.648438 -4.144531 0.609375 -4.15625 C 0.566406 -4.175781 0.519531 -4.191406 0.46875 -4.203125 L 0.328125 -4.21875 L 0.328125 -4.40625 C 0.390625 -4.394531 0.457031 -4.382812 0.53125 -4.375 C 0.582031 -4.375 0.644531 -4.367188 0.71875 -4.359375 C 0.789062 -4.359375 0.867188 -4.359375 0.953125 -4.359375 C 1.015625 -4.359375 1.078125 -4.359375 1.140625 -4.359375 C 1.210938 -4.367188 1.28125 -4.378906 1.34375 -4.390625 C 1.414062 -4.398438 1.488281 -4.410156 1.5625 -4.421875 C 1.644531 -4.429688 1.738281 -4.4375 1.84375 -4.4375 C 2.09375 -4.4375 2.304688 -4.40625 2.484375 -4.34375 C 2.660156 -4.28125 2.804688 -4.195312 2.921875 -4.09375 C 3.035156 -3.988281 3.117188 -3.867188 3.171875 -3.734375 C 3.222656 -3.597656 3.25 -3.460938 3.25 -3.328125 C 3.25 -3.128906 3.210938 -2.957031 3.140625 -2.8125 C 3.078125 -2.675781 2.992188 -2.5625 2.890625 -2.46875 C 2.785156 -2.375 2.675781 -2.296875 2.5625 -2.234375 C 2.445312 -2.179688 2.34375 -2.140625 2.25 -2.109375 C 2.414062 -1.816406 2.582031 -1.539062 2.75 -1.28125 C 2.914062 -1.03125 3.078125 -0.804688 3.234375 -0.609375 C 3.398438 -0.421875 3.554688 -0.269531 3.703125 -0.15625 C 3.859375 -0.0507812 4 0 4.125 0 L 4.125 0.109375 C 4.039062 0.117188 3.960938 0.125 3.890625 0.125 C 3.710938 0.125 3.546875 0.0820312 3.390625 0 C 3.234375 -0.0703125 3.082031 -0.171875 2.9375 -0.296875 C 2.789062 -0.421875 2.65625 -0.5625 2.53125 -0.71875 C 2.40625 -0.875 2.289062 -1.03125 2.1875 -1.1875 C 2.082031 -1.351562 1.988281 -1.503906 1.90625 -1.640625 C 1.832031 -1.785156 1.769531 -1.910156 1.71875 -2.015625 C 1.65625 -2.015625 1.59375 -2.007812 1.53125 -2 C 1.476562 -2 1.414062 -2 1.34375 -2 L 1.21875 -2 C 1.21875 -1.9375 1.210938 -1.863281 1.203125 -1.78125 C 1.203125 -1.695312 1.203125 -1.609375 1.203125 -1.515625 C 1.203125 -1.429688 1.195312 -1.34375 1.1875 -1.25 C 1.1875 -1.164062 1.1875 -1.082031 1.1875 -1 C 1.1875 -0.925781 1.179688 -0.859375 1.171875 -0.796875 C 1.171875 -0.734375 1.171875 -0.6875 1.171875 -0.65625 C 1.171875 -0.570312 1.175781 -0.5 1.1875 -0.4375 C 1.207031 -0.382812 1.226562 -0.335938 1.25 -0.296875 C 1.269531 -0.265625 1.300781 -0.242188 1.34375 -0.234375 C 1.382812 -0.222656 1.429688 -0.210938 1.484375 -0.203125 L 1.625 -0.1875 L 1.625 0 C 1.582031 -0.0078125 1.523438 -0.015625 1.453125 -0.015625 C 1.398438 -0.0234375 1.332031 -0.03125 1.25 -0.03125 C 1.175781 -0.0390625 1.085938 -0.046875 0.984375 -0.046875 C 0.867188 -0.046875 0.75 -0.0390625 0.625 -0.03125 C 0.5 -0.03125 0.351562 -0.0195312 0.1875 0 Z M 1.21875 -2.21875 L 1.40625 -2.21875 C 1.664062 -2.21875 1.882812 -2.25 2.0625 -2.3125 C 2.238281 -2.375 2.375 -2.457031 2.46875 -2.5625 C 2.570312 -2.664062 2.644531 -2.78125 2.6875 -2.90625 C 2.726562 -3.039062 2.75 -3.175781 2.75 -3.3125 C 2.75 -3.382812 2.738281 -3.453125 2.71875 -3.515625 C 2.707031 -3.585938 2.6875 -3.65625 2.65625 -3.71875 C 2.625 -3.789062 2.582031 -3.859375 2.53125 -3.921875 C 2.476562 -3.984375 2.410156 -4.035156 2.328125 -4.078125 C 2.253906 -4.117188 2.164062 -4.15625 2.0625 -4.1875 C 1.957031 -4.21875 1.835938 -4.234375 1.703125 -4.234375 C 1.628906 -4.234375 1.5625 -4.226562 1.5 -4.21875 C 1.4375 -4.21875 1.367188 -4.207031 1.296875 -4.1875 Z M 1.21875 -2.21875 "/></g></g></g><g fill="#003070" fill-opacity="1"><g transform="translate(65.104357, 68.724519)"><g><path d="M 2.5625 -2.078125 C 2.425781 -2.097656 2.289062 -2.113281 2.15625 -2.125 C 2.03125 -2.132812 1.910156 -2.144531 1.796875 -2.15625 C 1.679688 -2.164062 1.570312 -2.171875 1.46875 -2.171875 C 1.375 -2.179688 1.296875 -2.1875 1.234375 -2.1875 C 1.222656 -1.9375 1.210938 -1.707031 1.203125 -1.5 C 1.203125 -1.40625 1.195312 -1.3125 1.1875 -1.21875 C 1.1875 -1.132812 1.1875 -1.054688 1.1875 -0.984375 C 1.1875 -0.910156 1.1875 -0.847656 1.1875 -0.796875 C 1.1875 -0.742188 1.1875 -0.707031 1.1875 -0.6875 C 1.1875 -0.570312 1.195312 -0.484375 1.21875 -0.421875 C 1.25 -0.359375 1.296875 -0.304688 1.359375 -0.265625 C 1.421875 -0.234375 1.492188 -0.210938 1.578125 -0.203125 C 1.671875 -0.191406 1.773438 -0.1875 1.890625 -0.1875 C 2.054688 -0.1875 2.195312 -0.195312 2.3125 -0.21875 C 2.4375 -0.238281 2.539062 -0.273438 2.625 -0.328125 C 2.707031 -0.390625 2.773438 -0.472656 2.828125 -0.578125 C 2.878906 -0.679688 2.925781 -0.8125 2.96875 -0.96875 L 3.15625 -0.96875 C 3.15625 -0.90625 3.144531 -0.832031 3.125 -0.75 C 3.101562 -0.664062 3.082031 -0.570312 3.0625 -0.46875 C 3.039062 -0.375 3.007812 -0.28125 2.96875 -0.1875 C 2.9375 -0.09375 2.90625 -0.0078125 2.875 0.0625 C 2.644531 0.0507812 2.425781 0.0390625 2.21875 0.03125 C 2.019531 0.0195312 1.835938 0.0078125 1.671875 0 C 1.503906 -0.0078125 1.359375 -0.015625 1.234375 -0.015625 C 1.109375 -0.0234375 1.015625 -0.03125 0.953125 -0.03125 C 0.847656 -0.03125 0.734375 -0.03125 0.609375 -0.03125 C 0.492188 -0.03125 0.351562 -0.0195312 0.1875 0 L 0.203125 -0.1875 C 0.253906 -0.1875 0.300781 -0.1875 0.34375 -0.1875 C 0.382812 -0.195312 0.421875 -0.203125 0.453125 -0.203125 C 0.492188 -0.210938 0.53125 -0.21875 0.5625 -0.21875 C 0.601562 -0.21875 0.640625 -0.21875 0.671875 -0.21875 C 0.691406 -0.84375 0.710938 -1.40625 0.734375 -1.90625 C 0.734375 -2.113281 0.738281 -2.320312 0.75 -2.53125 C 0.757812 -2.738281 0.765625 -2.925781 0.765625 -3.09375 C 0.773438 -3.257812 0.78125 -3.398438 0.78125 -3.515625 C 0.789062 -3.628906 0.796875 -3.703125 0.796875 -3.734375 C 0.796875 -3.828125 0.785156 -3.898438 0.765625 -3.953125 C 0.753906 -4.015625 0.738281 -4.0625 0.71875 -4.09375 C 0.695312 -4.125 0.664062 -4.144531 0.625 -4.15625 C 0.582031 -4.175781 0.53125 -4.191406 0.46875 -4.203125 L 0.34375 -4.21875 L 0.34375 -4.40625 C 0.40625 -4.394531 0.476562 -4.382812 0.5625 -4.375 C 0.644531 -4.375 0.742188 -4.367188 0.859375 -4.359375 C 0.984375 -4.359375 1.128906 -4.359375 1.296875 -4.359375 L 2.0625 -4.359375 C 2.144531 -4.359375 2.222656 -4.359375 2.296875 -4.359375 C 2.378906 -4.359375 2.460938 -4.359375 2.546875 -4.359375 C 2.628906 -4.367188 2.710938 -4.375 2.796875 -4.375 C 2.890625 -4.382812 2.988281 -4.394531 3.09375 -4.40625 L 3 -3.328125 L 2.796875 -3.328125 C 2.804688 -3.367188 2.8125 -3.398438 2.8125 -3.421875 C 2.8125 -3.453125 2.8125 -3.472656 2.8125 -3.484375 C 2.8125 -3.503906 2.8125 -3.515625 2.8125 -3.515625 C 2.8125 -3.523438 2.8125 -3.53125 2.8125 -3.53125 C 2.8125 -3.601562 2.800781 -3.671875 2.78125 -3.734375 C 2.757812 -3.796875 2.722656 -3.851562 2.671875 -3.90625 C 2.617188 -3.957031 2.546875 -4 2.453125 -4.03125 C 2.367188 -4.0625 2.253906 -4.082031 2.109375 -4.09375 L 1.328125 -4.140625 C 1.304688 -3.972656 1.289062 -3.796875 1.28125 -3.609375 C 1.269531 -3.429688 1.265625 -3.269531 1.265625 -3.125 L 1.234375 -2.40625 L 2.59375 -2.484375 Z M 2.5625 -2.078125 "/></g></g></g><g fill="#003070" fill-opacity="1"><g transform="translate(68.527729, 68.724519)"><g><path d="M 1.4375 -0.140625 C 1.5625 -0.140625 1.675781 -0.160156 1.78125 -0.203125 C 1.894531 -0.242188 1.992188 -0.300781 2.078125 -0.375 C 2.160156 -0.445312 2.222656 -0.535156 2.265625 -0.640625 C 2.316406 -0.742188 2.34375 -0.863281 2.34375 -1 C 2.34375 -1.132812 2.3125 -1.253906 2.25 -1.359375 C 2.195312 -1.460938 2.125 -1.554688 2.03125 -1.640625 C 1.9375 -1.734375 1.832031 -1.820312 1.71875 -1.90625 C 1.613281 -1.988281 1.515625 -2.066406 1.421875 -2.140625 C 1.328125 -2.210938 1.222656 -2.289062 1.109375 -2.375 C 1.003906 -2.46875 0.898438 -2.566406 0.796875 -2.671875 C 0.703125 -2.773438 0.617188 -2.882812 0.546875 -3 C 0.484375 -3.125 0.453125 -3.265625 0.453125 -3.421875 C 0.453125 -3.492188 0.457031 -3.570312 0.46875 -3.65625 C 0.488281 -3.738281 0.515625 -3.820312 0.546875 -3.90625 C 0.585938 -3.988281 0.632812 -4.0625 0.6875 -4.125 C 0.75 -4.195312 0.828125 -4.257812 0.921875 -4.3125 C 1.015625 -4.363281 1.117188 -4.40625 1.234375 -4.4375 C 1.359375 -4.476562 1.503906 -4.5 1.671875 -4.5 C 1.878906 -4.5 2.078125 -4.476562 2.265625 -4.4375 C 2.460938 -4.40625 2.628906 -4.367188 2.765625 -4.328125 L 2.703125 -3.375 L 2.515625 -3.375 L 2.515625 -3.46875 C 2.515625 -3.539062 2.503906 -3.625 2.484375 -3.71875 C 2.472656 -3.8125 2.4375 -3.898438 2.375 -3.984375 C 2.320312 -4.066406 2.238281 -4.132812 2.125 -4.1875 C 2.019531 -4.238281 1.875 -4.265625 1.6875 -4.265625 C 1.582031 -4.265625 1.484375 -4.25 1.390625 -4.21875 C 1.304688 -4.1875 1.226562 -4.140625 1.15625 -4.078125 C 1.09375 -4.023438 1.046875 -3.957031 1.015625 -3.875 C 0.984375 -3.800781 0.96875 -3.710938 0.96875 -3.609375 C 0.96875 -3.484375 0.992188 -3.367188 1.046875 -3.265625 C 1.097656 -3.160156 1.160156 -3.066406 1.234375 -2.984375 C 1.316406 -2.910156 1.40625 -2.835938 1.5 -2.765625 C 1.601562 -2.703125 1.703125 -2.632812 1.796875 -2.5625 C 1.941406 -2.46875 2.078125 -2.367188 2.203125 -2.265625 C 2.328125 -2.160156 2.4375 -2.050781 2.53125 -1.9375 C 2.632812 -1.832031 2.710938 -1.71875 2.765625 -1.59375 C 2.828125 -1.46875 2.859375 -1.328125 2.859375 -1.171875 C 2.859375 -0.992188 2.816406 -0.828125 2.734375 -0.671875 C 2.660156 -0.523438 2.554688 -0.394531 2.421875 -0.28125 C 2.285156 -0.164062 2.128906 -0.0703125 1.953125 0 C 1.785156 0.0625 1.609375 0.09375 1.421875 0.09375 C 1.203125 0.09375 0.988281 0.0703125 0.78125 0.03125 C 0.582031 0 0.40625 -0.0351562 0.25 -0.078125 L 0.328125 -1.09375 L 0.53125 -1.09375 L 0.53125 -0.984375 C 0.53125 -0.890625 0.539062 -0.789062 0.5625 -0.6875 C 0.582031 -0.59375 0.625 -0.503906 0.6875 -0.421875 C 0.75 -0.335938 0.835938 -0.269531 0.953125 -0.21875 C 1.078125 -0.164062 1.238281 -0.140625 1.4375 -0.140625 Z M 1.4375 -0.140625 "/></g></g></g></svg>