<svg xmlns="http://www.w3.org/2000/svg" xmlns:xlink="http://www.w3.org/1999/xlink" width="500" zoomAndPan="magnify" viewBox="0 0 375 374.999991" height="500" preserveAspectRatio="xMidYMid meet" version="1.0"><defs><g/><clipPath id="daa5e5388c"><path d="M 72.003906 87.242188 L 289.023438 87.242188 L 289.023438 93.667969 L 72.003906 93.667969 Z M 72.003906 87.242188 " clip-rule="nonzero"/></clipPath><clipPath id="0f8b55a2bc"><path d="M 70.292969 277.609375 L 287.3125 277.609375 L 287.3125 284.035156 L 70.292969 284.035156 Z M 70.292969 277.609375 " clip-rule="nonzero"/></clipPath><clipPath id="ed2bfacce8"><path d="M 67.460938 243.605469 L 290.144531 243.605469 L 290.144531 271.300781 L 67.460938 271.300781 Z M 67.460938 243.605469 " clip-rule="nonzero"/></clipPath><clipPath id="ee35be16c6"><path d="M 81.308594 243.605469 L 276.296875 243.605469 C 283.945312 243.605469 290.144531 249.804688 290.144531 257.453125 C 290.144531 265.101562 283.945312 271.300781 276.296875 271.300781 L 81.308594 271.300781 C 73.660156 271.300781 67.460938 265.101562 67.460938 257.453125 C 67.460938 249.804688 73.660156 243.605469 81.308594 243.605469 Z M 81.308594 243.605469 " clip-rule="nonzero"/></clipPath><clipPath id="473843fe8b"><path d="M 67.460938 243.605469 L 289.902344 243.605469 L 289.902344 271.574219 L 67.460938 271.574219 Z M 67.460938 243.605469 " clip-rule="nonzero"/></clipPath><clipPath id="e88ff79a1f"><path d="M 81.308594 243.605469 L 276.289062 243.605469 C 283.9375 243.605469 290.136719 249.804688 290.136719 257.453125 C 290.136719 265.101562 283.9375 271.300781 276.289062 271.300781 L 81.308594 271.300781 C 73.660156 271.300781 67.460938 265.101562 67.460938 257.453125 C 67.460938 249.804688 73.660156 243.605469 81.308594 243.605469 Z M 81.308594 243.605469 " clip-rule="nonzero"/></clipPath></defs><g fill="#003070" fill-opacity="1"><g transform="translate(10.047606, 258.568814)"><g><path d="M 96.640625 -145.5 L 90.4375 -137.578125 C 87.863281 -139.003906 85.429688 -140.289062 83.140625 -141.4375 C 80.859375 -142.582031 78.535156 -143.507812 76.171875 -144.21875 C 73.816406 -144.9375 71.316406 -145.472656 68.671875 -145.828125 C 66.035156 -146.179688 63.003906 -146.359375 59.578125 -146.359375 C 52.578125 -146.359375 46.328125 -145.210938 40.828125 -142.921875 C 35.328125 -140.640625 30.644531 -137.570312 26.78125 -133.71875 C 22.925781 -129.863281 20 -125.4375 18 -120.4375 C 16 -115.4375 15 -110.148438 15 -104.578125 C 15 -97.003906 17.320312 -90.070312 21.96875 -83.78125 C 26.613281 -77.5 33.863281 -72.71875 43.71875 -69.4375 C 48.425781 -67.863281 52.421875 -66.578125 55.703125 -65.578125 C 58.992188 -64.578125 62.066406 -63.609375 64.921875 -62.671875 C 67.785156 -61.742188 70.679688 -60.742188 73.609375 -59.671875 C 76.535156 -58.609375 79.929688 -57.144531 83.796875 -55.28125 C 88.648438 -53 91.929688 -49.820312 93.640625 -45.75 C 95.359375 -41.675781 96.21875 -37.570312 96.21875 -33.4375 C 96.21875 -28.289062 95.21875 -23.609375 93.21875 -19.390625 C 91.21875 -15.179688 88.570312 -11.644531 85.28125 -8.78125 C 82 -5.925781 78.210938 -3.710938 73.921875 -2.140625 C 69.640625 -0.566406 65.285156 0.21875 60.859375 0.21875 C 55.710938 0.21875 50.78125 -0.671875 46.0625 -2.453125 C 41.351562 -4.242188 37 -6.78125 33 -10.0625 C 29 -13.351562 25.535156 -17.425781 22.609375 -22.28125 C 19.679688 -27.144531 17.429688 -32.578125 15.859375 -38.578125 C 15.429688 -40.429688 14.644531 -41.359375 13.5 -41.359375 C 12.5 -41.359375 12 -40.359375 12 -38.359375 L 12 0 C 12 1.851562 12.640625 2.78125 13.921875 2.78125 C 14.785156 2.78125 15.71875 2.066406 16.71875 0.640625 L 24.4375 -10.5 C 26.144531 -8.925781 28.25 -7.28125 30.75 -5.5625 C 33.25 -3.851562 36.035156 -2.285156 39.109375 -0.859375 C 42.179688 0.566406 45.46875 1.742188 48.96875 2.671875 C 52.46875 3.609375 56.070312 4.078125 59.78125 4.078125 C 66.644531 4.078125 73.003906 2.828125 78.859375 0.328125 C 84.710938 -2.171875 89.78125 -5.632812 94.0625 -10.0625 C 98.351562 -14.5 101.75 -19.753906 104.25 -25.828125 C 106.75 -31.898438 108 -38.4375 108 -45.4375 C 108 -55 105.75 -63.101562 101.25 -69.75 C 96.75 -76.394531 89.644531 -81.144531 79.9375 -84 C 76.644531 -85 73.570312 -85.851562 70.71875 -86.5625 C 67.863281 -87.28125 64.9375 -88.066406 61.9375 -88.921875 C 58.9375 -89.785156 55.789062 -90.753906 52.5 -91.828125 C 49.21875 -92.898438 45.578125 -94.222656 41.578125 -95.796875 C 37.148438 -97.503906 33.789062 -100.144531 31.5 -103.71875 C 29.21875 -107.289062 28.078125 -111.4375 28.078125 -116.15625 C 28.078125 -120.582031 29.003906 -124.472656 30.859375 -127.828125 C 32.710938 -131.179688 35.101562 -133.929688 38.03125 -136.078125 C 40.96875 -138.222656 44.328125 -139.828125 48.109375 -140.890625 C 51.890625 -141.960938 55.710938 -142.5 59.578125 -142.5 C 65.429688 -142.5 70.570312 -141.5 75 -139.5 C 79.425781 -137.5 83.140625 -134.859375 86.140625 -131.578125 C 89.140625 -128.296875 91.53125 -124.507812 93.3125 -120.21875 C 95.101562 -115.9375 96.285156 -111.507812 96.859375 -106.9375 C 97.003906 -105.507812 97.648438 -104.796875 98.796875 -104.796875 C 99.796875 -104.796875 100.296875 -105.507812 100.296875 -106.9375 L 100.296875 -145.078125 C 100.296875 -146.503906 99.863281 -147.21875 99 -147.21875 C 98.289062 -147.21875 97.503906 -146.644531 96.640625 -145.5 Z M 96.640625 -145.5 "/></g></g></g><g fill="#003070" fill-opacity="1"><g transform="translate(115.053398, 258.568814)"><g><path d="M 118.9375 -39.640625 C 117.789062 -34.210938 116.570312 -29.285156 115.28125 -24.859375 C 114 -20.429688 112.285156 -16.609375 110.140625 -13.390625 C 108.003906 -10.179688 105.289062 -7.71875 102 -6 C 98.71875 -4.28125 94.578125 -3.421875 89.578125 -3.421875 L 45.640625 -3.421875 L 45.640625 -140.578125 L 66 -140.578125 L 66 -144 L 6.421875 -144 L 6.421875 -140.578125 L 24.859375 -140.578125 L 24.859375 -3.421875 L 6.421875 -3.421875 L 6.421875 0 L 116.796875 0 C 120.929688 0 123 -2.285156 123 -6.859375 L 123 -39 C 123 -42.425781 122.429688 -44.140625 121.296875 -44.140625 C 120.296875 -44.140625 119.507812 -42.640625 118.9375 -39.640625 Z M 118.9375 -39.640625 "/></g></g></g><g fill="#003070" fill-opacity="1"><g transform="translate(232.274194, 258.568814)"><g><path d="M 77.359375 -3.421875 L 77.359375 -140.578125 L 95.796875 -140.578125 C 102.359375 -140.578125 108.101562 -137.21875 113.03125 -130.5 C 117.96875 -123.789062 121.222656 -114.648438 122.796875 -103.078125 L 127.296875 -103.078125 L 124.078125 -140.359375 C 123.929688 -142.785156 122.503906 -144 119.796875 -144 L 14.140625 -144 C 11.429688 -144 10.003906 -142.785156 9.859375 -140.359375 L 6.640625 -103.078125 L 11.140625 -103.078125 C 12.710938 -114.648438 15.960938 -123.789062 20.890625 -130.5 C 25.816406 -137.21875 31.566406 -140.578125 38.140625 -140.578125 L 56.578125 -140.578125 L 56.578125 -3.421875 L 38.140625 -3.421875 L 38.140625 0 L 95.796875 0 L 95.796875 -3.421875 Z M 77.359375 -3.421875 "/></g></g></g><g clip-path="url(#daa5e5388c)"><path fill="#003070" d="M 72.003906 87.242188 L 289.023438 87.242188 L 289.023438 93.667969 L 72.003906 93.667969 Z M 72.003906 87.242188 " fill-opacity="1" fill-rule="nonzero"/></g><g clip-path="url(#0f8b55a2bc)"><path fill="#003070" d="M 70.292969 277.609375 L 287.3125 277.609375 L 287.3125 284.035156 L 70.292969 284.035156 Z M 70.292969 277.609375 " fill-opacity="1" fill-rule="nonzero"/></g><g clip-path="url(#ed2bfacce8)"><g clip-path="url(#ee35be16c6)"><path fill="#ffffff" d="M 67.460938 243.605469 L 290.144531 243.605469 L 290.144531 271.300781 L 67.460938 271.300781 Z M 67.460938 243.605469 " fill-opacity="1" fill-rule="nonzero"/></g></g><g clip-path="url(#473843fe8b)"><g clip-path="url(#e88ff79a1f)"><path stroke-linecap="butt" transform="matrix(0.650411, 0, 0, 0.650411, 67.461218, 243.606591)" fill="none" stroke-linejoin="miter" d="M 21.290192 -0.00172576 L 321.07058 -0.00172576 C 332.829971 -0.00172576 342.361204 9.529507 342.361204 21.288898 C 342.361204 33.048289 332.829971 42.579521 321.07058 42.579521 L 21.290192 42.579521 C 9.530801 42.579521 -0.000431988 33.048289 -0.000431988 21.288898 C -0.000431988 9.529507 9.530801 -0.00172576 21.290192 -0.00172576 Z M 21.290192 -0.00172576 " stroke="#000000" stroke-width="2.306234" stroke-opacity="1" stroke-miterlimit="4"/></g></g><g fill="#003070" fill-opacity="1"><g transform="translate(129.09833, 263.475699)"><g><path d="M 5.6875 -11 L 3.703125 -5.21875 L 7.53125 -5.21875 L 5.953125 -11 Z M 6.515625 -13.5625 L 9.6875 -3.28125 C 9.914062 -2.507812 10.164062 -1.890625 10.4375 -1.421875 C 10.71875 -0.953125 11.066406 -0.6875 11.484375 -0.625 L 12 -0.53125 L 11.984375 0 C 11.660156 -0.0390625 11.3125 -0.0664062 10.9375 -0.078125 C 10.570312 -0.0976562 10.191406 -0.109375 9.796875 -0.109375 C 9.390625 -0.109375 8.988281 -0.0976562 8.59375 -0.078125 C 8.195312 -0.0664062 7.816406 -0.0390625 7.453125 0 L 7.484375 -0.53125 L 8.8125 -0.65625 L 7.71875 -4.5625 L 7.359375 -4.5625 C 7.191406 -4.5625 6.96875 -4.554688 6.6875 -4.546875 C 6.414062 -4.546875 6.101562 -4.539062 5.75 -4.53125 C 5.40625 -4.519531 5.03125 -4.5 4.625 -4.46875 C 4.226562 -4.445312 3.816406 -4.414062 3.390625 -4.375 L 2.875 -2.921875 C 2.757812 -2.617188 2.660156 -2.332031 2.578125 -2.0625 C 2.492188 -1.800781 2.453125 -1.566406 2.453125 -1.359375 C 2.453125 -1.160156 2.503906 -0.992188 2.609375 -0.859375 C 2.710938 -0.734375 2.894531 -0.65625 3.15625 -0.625 L 3.71875 -0.53125 L 3.703125 0 C 3.359375 -0.0390625 3.03125 -0.0703125 2.71875 -0.09375 C 2.40625 -0.113281 2.082031 -0.125 1.75 -0.125 C 1.40625 -0.125 1.050781 -0.113281 0.6875 -0.09375 C 0.332031 -0.0703125 -0.0664062 -0.0390625 -0.515625 0 L -0.5 -0.53125 C -0.3125 -0.550781 -0.140625 -0.570312 0.015625 -0.59375 C 0.160156 -0.601562 0.304688 -0.613281 0.453125 -0.625 C 0.597656 -0.644531 0.71875 -0.65625 0.8125 -0.65625 C 1.0625 -1.195312 1.328125 -1.785156 1.609375 -2.421875 C 1.890625 -3.066406 2.175781 -3.738281 2.46875 -4.4375 C 2.757812 -5.144531 3.050781 -5.875 3.34375 -6.625 C 3.632812 -7.375 3.921875 -8.128906 4.203125 -8.890625 C 4.484375 -9.648438 4.753906 -10.40625 5.015625 -11.15625 C 5.273438 -11.90625 5.519531 -12.632812 5.75 -13.34375 Z M 6.515625 -13.5625 "/></g></g></g><g fill="#003070" fill-opacity="1"><g transform="translate(141.204874, 263.475699)"><g><path d="M 4.265625 -0.421875 C 4.640625 -0.421875 4.988281 -0.476562 5.3125 -0.59375 C 5.644531 -0.707031 5.929688 -0.875 6.171875 -1.09375 C 6.421875 -1.320312 6.613281 -1.59375 6.75 -1.90625 C 6.894531 -2.21875 6.96875 -2.578125 6.96875 -2.984375 C 6.96875 -3.367188 6.878906 -3.71875 6.703125 -4.03125 C 6.523438 -4.34375 6.296875 -4.632812 6.015625 -4.90625 C 5.742188 -5.175781 5.445312 -5.429688 5.125 -5.671875 C 4.8125 -5.910156 4.507812 -6.144531 4.21875 -6.375 C 3.945312 -6.59375 3.644531 -6.828125 3.3125 -7.078125 C 2.976562 -7.328125 2.664062 -7.601562 2.375 -7.90625 C 2.082031 -8.21875 1.835938 -8.554688 1.640625 -8.921875 C 1.441406 -9.296875 1.34375 -9.710938 1.34375 -10.171875 C 1.34375 -10.390625 1.363281 -10.625 1.40625 -10.875 C 1.457031 -11.125 1.535156 -11.363281 1.640625 -11.59375 C 1.753906 -11.832031 1.898438 -12.054688 2.078125 -12.265625 C 2.253906 -12.484375 2.476562 -12.671875 2.75 -12.828125 C 3.019531 -12.984375 3.335938 -13.109375 3.703125 -13.203125 C 4.066406 -13.296875 4.488281 -13.34375 4.96875 -13.34375 C 5.582031 -13.34375 6.171875 -13.296875 6.734375 -13.203125 C 7.304688 -13.109375 7.800781 -13 8.21875 -12.875 L 8.015625 -10.03125 L 7.484375 -10.03125 L 7.484375 -10.296875 C 7.484375 -10.535156 7.457031 -10.789062 7.40625 -11.0625 C 7.351562 -11.34375 7.238281 -11.597656 7.0625 -11.828125 C 6.894531 -12.066406 6.648438 -12.265625 6.328125 -12.421875 C 6.003906 -12.578125 5.570312 -12.65625 5.03125 -12.65625 C 4.707031 -12.65625 4.410156 -12.609375 4.140625 -12.515625 C 3.878906 -12.429688 3.648438 -12.304688 3.453125 -12.140625 C 3.265625 -11.972656 3.117188 -11.769531 3.015625 -11.53125 C 2.921875 -11.289062 2.875 -11.023438 2.875 -10.734375 C 2.875 -10.347656 2.945312 -10.003906 3.09375 -9.703125 C 3.25 -9.398438 3.445312 -9.128906 3.6875 -8.890625 C 3.925781 -8.660156 4.191406 -8.441406 4.484375 -8.234375 C 4.785156 -8.035156 5.078125 -7.832031 5.359375 -7.625 C 5.765625 -7.320312 6.15625 -7.019531 6.53125 -6.71875 C 6.914062 -6.425781 7.253906 -6.113281 7.546875 -5.78125 C 7.835938 -5.457031 8.066406 -5.109375 8.234375 -4.734375 C 8.410156 -4.359375 8.5 -3.941406 8.5 -3.484375 C 8.5 -2.960938 8.378906 -2.472656 8.140625 -2.015625 C 7.898438 -1.554688 7.578125 -1.15625 7.171875 -0.8125 C 6.773438 -0.476562 6.320312 -0.210938 5.8125 -0.015625 C 5.300781 0.171875 4.769531 0.265625 4.21875 0.265625 C 3.5625 0.265625 2.929688 0.210938 2.328125 0.109375 C 1.722656 0.00390625 1.195312 -0.113281 0.75 -0.25 L 0.984375 -3.234375 L 1.5625 -3.234375 L 1.5625 -2.90625 C 1.5625 -2.644531 1.59375 -2.367188 1.65625 -2.078125 C 1.71875 -1.785156 1.84375 -1.515625 2.03125 -1.265625 C 2.226562 -1.023438 2.503906 -0.820312 2.859375 -0.65625 C 3.210938 -0.5 3.679688 -0.421875 4.265625 -0.421875 Z M 4.265625 -0.421875 "/></g></g></g><g fill="#003070" fill-opacity="1"><g transform="translate(150.883484, 263.475699)"><g><path d="M 7.59375 -6.1875 C 7.21875 -6.226562 6.835938 -6.269531 6.453125 -6.3125 C 6.066406 -6.351562 5.695312 -6.382812 5.34375 -6.40625 C 4.988281 -6.425781 4.664062 -6.441406 4.375 -6.453125 C 4.082031 -6.472656 3.84375 -6.492188 3.65625 -6.515625 C 3.632812 -5.753906 3.609375 -5.066406 3.578125 -4.453125 C 3.566406 -4.179688 3.554688 -3.914062 3.546875 -3.65625 C 3.546875 -3.394531 3.539062 -3.148438 3.53125 -2.921875 C 3.519531 -2.703125 3.515625 -2.515625 3.515625 -2.359375 C 3.515625 -2.203125 3.515625 -2.097656 3.515625 -2.046875 C 3.515625 -1.710938 3.554688 -1.445312 3.640625 -1.25 C 3.722656 -1.0625 3.851562 -0.914062 4.03125 -0.8125 C 4.21875 -0.71875 4.441406 -0.65625 4.703125 -0.625 C 4.960938 -0.59375 5.269531 -0.578125 5.625 -0.578125 C 6.125 -0.578125 6.550781 -0.609375 6.90625 -0.671875 C 7.257812 -0.734375 7.5625 -0.847656 7.8125 -1.015625 C 8.0625 -1.179688 8.265625 -1.410156 8.421875 -1.703125 C 8.578125 -2.003906 8.707031 -2.394531 8.8125 -2.875 L 9.390625 -2.875 C 9.367188 -2.695312 9.332031 -2.476562 9.28125 -2.21875 C 9.226562 -1.96875 9.164062 -1.695312 9.09375 -1.40625 C 9.03125 -1.125 8.945312 -0.84375 8.84375 -0.5625 C 8.75 -0.28125 8.644531 -0.03125 8.53125 0.1875 C 7.863281 0.164062 7.226562 0.140625 6.625 0.109375 C 6.019531 0.078125 5.46875 0.046875 4.96875 0.015625 C 4.46875 -0.015625 4.03125 -0.0390625 3.65625 -0.0625 C 3.289062 -0.09375 3.015625 -0.109375 2.828125 -0.109375 C 2.515625 -0.109375 2.175781 -0.101562 1.8125 -0.09375 C 1.457031 -0.0820312 1.046875 -0.0507812 0.578125 0 L 0.59375 -0.53125 C 0.757812 -0.550781 0.90625 -0.566406 1.03125 -0.578125 C 1.15625 -0.585938 1.269531 -0.597656 1.375 -0.609375 C 1.476562 -0.617188 1.578125 -0.628906 1.671875 -0.640625 C 1.773438 -0.648438 1.882812 -0.65625 2 -0.65625 C 2.0625 -2.5 2.117188 -4.160156 2.171875 -5.640625 C 2.191406 -6.273438 2.210938 -6.898438 2.234375 -7.515625 C 2.253906 -8.140625 2.273438 -8.703125 2.296875 -9.203125 C 2.316406 -9.703125 2.332031 -10.117188 2.34375 -10.453125 C 2.351562 -10.796875 2.359375 -11.003906 2.359375 -11.078125 C 2.359375 -11.359375 2.335938 -11.582031 2.296875 -11.75 C 2.265625 -11.925781 2.207031 -12.0625 2.125 -12.15625 C 2.050781 -12.257812 1.957031 -12.332031 1.84375 -12.375 C 1.726562 -12.425781 1.582031 -12.460938 1.40625 -12.484375 L 1.03125 -12.546875 L 1.03125 -13.078125 C 1.195312 -13.054688 1.414062 -13.035156 1.6875 -13.015625 C 1.925781 -12.992188 2.21875 -12.972656 2.5625 -12.953125 C 2.914062 -12.941406 3.347656 -12.9375 3.859375 -12.9375 L 6.125 -12.9375 C 6.375 -12.9375 6.617188 -12.9375 6.859375 -12.9375 C 7.097656 -12.945312 7.335938 -12.957031 7.578125 -12.96875 C 7.828125 -12.976562 8.082031 -12.988281 8.34375 -13 C 8.601562 -13.019531 8.882812 -13.046875 9.1875 -13.078125 L 8.90625 -9.90625 L 8.328125 -9.90625 C 8.328125 -10.03125 8.328125 -10.128906 8.328125 -10.203125 C 8.335938 -10.273438 8.34375 -10.332031 8.34375 -10.375 C 8.34375 -10.414062 8.34375 -10.441406 8.34375 -10.453125 C 8.34375 -10.472656 8.34375 -10.488281 8.34375 -10.5 C 8.34375 -10.707031 8.316406 -10.90625 8.265625 -11.09375 C 8.210938 -11.28125 8.109375 -11.445312 7.953125 -11.59375 C 7.796875 -11.738281 7.582031 -11.859375 7.3125 -11.953125 C 7.039062 -12.054688 6.6875 -12.125 6.25 -12.15625 L 3.9375 -12.3125 C 3.882812 -11.800781 3.84375 -11.28125 3.8125 -10.75 C 3.78125 -10.21875 3.757812 -9.726562 3.75 -9.28125 L 3.671875 -7.171875 L 7.6875 -7.375 Z M 7.59375 -6.1875 "/></g></g></g><g fill="#003070" fill-opacity="1"><g transform="translate(161.060858, 263.475699)"><g><path d="M 4.265625 -0.421875 C 4.640625 -0.421875 4.988281 -0.476562 5.3125 -0.59375 C 5.644531 -0.707031 5.929688 -0.875 6.171875 -1.09375 C 6.421875 -1.320312 6.613281 -1.59375 6.75 -1.90625 C 6.894531 -2.21875 6.96875 -2.578125 6.96875 -2.984375 C 6.96875 -3.367188 6.878906 -3.71875 6.703125 -4.03125 C 6.523438 -4.34375 6.296875 -4.632812 6.015625 -4.90625 C 5.742188 -5.175781 5.445312 -5.429688 5.125 -5.671875 C 4.8125 -5.910156 4.507812 -6.144531 4.21875 -6.375 C 3.945312 -6.59375 3.644531 -6.828125 3.3125 -7.078125 C 2.976562 -7.328125 2.664062 -7.601562 2.375 -7.90625 C 2.082031 -8.21875 1.835938 -8.554688 1.640625 -8.921875 C 1.441406 -9.296875 1.34375 -9.710938 1.34375 -10.171875 C 1.34375 -10.390625 1.363281 -10.625 1.40625 -10.875 C 1.457031 -11.125 1.535156 -11.363281 1.640625 -11.59375 C 1.753906 -11.832031 1.898438 -12.054688 2.078125 -12.265625 C 2.253906 -12.484375 2.476562 -12.671875 2.75 -12.828125 C 3.019531 -12.984375 3.335938 -13.109375 3.703125 -13.203125 C 4.066406 -13.296875 4.488281 -13.34375 4.96875 -13.34375 C 5.582031 -13.34375 6.171875 -13.296875 6.734375 -13.203125 C 7.304688 -13.109375 7.800781 -13 8.21875 -12.875 L 8.015625 -10.03125 L 7.484375 -10.03125 L 7.484375 -10.296875 C 7.484375 -10.535156 7.457031 -10.789062 7.40625 -11.0625 C 7.351562 -11.34375 7.238281 -11.597656 7.0625 -11.828125 C 6.894531 -12.066406 6.648438 -12.265625 6.328125 -12.421875 C 6.003906 -12.578125 5.570312 -12.65625 5.03125 -12.65625 C 4.707031 -12.65625 4.410156 -12.609375 4.140625 -12.515625 C 3.878906 -12.429688 3.648438 -12.304688 3.453125 -12.140625 C 3.265625 -11.972656 3.117188 -11.769531 3.015625 -11.53125 C 2.921875 -11.289062 2.875 -11.023438 2.875 -10.734375 C 2.875 -10.347656 2.945312 -10.003906 3.09375 -9.703125 C 3.25 -9.398438 3.445312 -9.128906 3.6875 -8.890625 C 3.925781 -8.660156 4.191406 -8.441406 4.484375 -8.234375 C 4.785156 -8.035156 5.078125 -7.832031 5.359375 -7.625 C 5.765625 -7.320312 6.15625 -7.019531 6.53125 -6.71875 C 6.914062 -6.425781 7.253906 -6.113281 7.546875 -5.78125 C 7.835938 -5.457031 8.066406 -5.109375 8.234375 -4.734375 C 8.410156 -4.359375 8.5 -3.941406 8.5 -3.484375 C 8.5 -2.960938 8.378906 -2.472656 8.140625 -2.015625 C 7.898438 -1.554688 7.578125 -1.15625 7.171875 -0.8125 C 6.773438 -0.476562 6.320312 -0.210938 5.8125 -0.015625 C 5.300781 0.171875 4.769531 0.265625 4.21875 0.265625 C 3.5625 0.265625 2.929688 0.210938 2.328125 0.109375 C 1.722656 0.00390625 1.195312 -0.113281 0.75 -0.25 L 0.984375 -3.234375 L 1.5625 -3.234375 L 1.5625 -2.90625 C 1.5625 -2.644531 1.59375 -2.367188 1.65625 -2.078125 C 1.71875 -1.785156 1.84375 -1.515625 2.03125 -1.265625 C 2.226562 -1.023438 2.503906 -0.820312 2.859375 -0.65625 C 3.210938 -0.5 3.679688 -0.421875 4.265625 -0.421875 Z M 4.265625 -0.421875 "/></g></g></g><g fill="#003070" fill-opacity="1"><g transform="translate(170.739467, 263.475699)"><g><path d="M 2.59375 -6.6875 C 2.59375 -5.875 2.703125 -5.085938 2.921875 -4.328125 C 3.148438 -3.578125 3.472656 -2.910156 3.890625 -2.328125 C 4.316406 -1.753906 4.835938 -1.289062 5.453125 -0.9375 C 6.066406 -0.59375 6.765625 -0.421875 7.546875 -0.421875 C 8.304688 -0.421875 8.972656 -0.570312 9.546875 -0.875 C 10.117188 -1.175781 10.59375 -1.585938 10.96875 -2.109375 C 11.351562 -2.628906 11.644531 -3.238281 11.84375 -3.9375 C 12.039062 -4.644531 12.140625 -5.398438 12.140625 -6.203125 C 12.140625 -7.097656 12.023438 -7.941406 11.796875 -8.734375 C 11.566406 -9.523438 11.242188 -10.210938 10.828125 -10.796875 C 10.410156 -11.378906 9.914062 -11.832031 9.34375 -12.15625 C 8.769531 -12.488281 8.140625 -12.65625 7.453125 -12.65625 C 7.097656 -12.65625 6.734375 -12.613281 6.359375 -12.53125 C 5.984375 -12.457031 5.613281 -12.328125 5.25 -12.140625 C 4.894531 -11.960938 4.554688 -11.722656 4.234375 -11.421875 C 3.910156 -11.117188 3.625 -10.742188 3.375 -10.296875 C 3.132812 -9.859375 2.941406 -9.34375 2.796875 -8.75 C 2.660156 -8.15625 2.59375 -7.46875 2.59375 -6.6875 Z M 0.859375 -6.484375 C 0.859375 -7.472656 1.023438 -8.382812 1.359375 -9.21875 C 1.703125 -10.0625 2.179688 -10.785156 2.796875 -11.390625 C 3.410156 -12.003906 4.148438 -12.484375 5.015625 -12.828125 C 5.878906 -13.171875 6.835938 -13.34375 7.890625 -13.34375 C 8.523438 -13.34375 9.113281 -13.253906 9.65625 -13.078125 C 10.207031 -12.910156 10.703125 -12.675781 11.140625 -12.375 C 11.585938 -12.070312 11.984375 -11.710938 12.328125 -11.296875 C 12.671875 -10.878906 12.960938 -10.429688 13.203125 -9.953125 C 13.441406 -9.472656 13.617188 -8.96875 13.734375 -8.4375 C 13.847656 -7.90625 13.90625 -7.375 13.90625 -6.84375 C 13.90625 -5.789062 13.734375 -4.828125 13.390625 -3.953125 C 13.054688 -3.085938 12.597656 -2.335938 12.015625 -1.703125 C 11.429688 -1.078125 10.753906 -0.59375 9.984375 -0.25 C 9.210938 0.09375 8.394531 0.265625 7.53125 0.265625 C 6.789062 0.265625 6.109375 0.175781 5.484375 0 C 4.867188 -0.175781 4.3125 -0.421875 3.8125 -0.734375 C 3.320312 -1.054688 2.890625 -1.429688 2.515625 -1.859375 C 2.148438 -2.285156 1.84375 -2.75 1.59375 -3.25 C 1.351562 -3.75 1.171875 -4.273438 1.046875 -4.828125 C 0.921875 -5.378906 0.859375 -5.929688 0.859375 -6.484375 Z M 0.859375 -6.484375 "/></g></g></g><g fill="#003070" fill-opacity="1"><g transform="translate(185.659779, 263.475699)"><g><path d="M 0.578125 -0.53125 C 0.734375 -0.550781 0.875 -0.566406 1 -0.578125 C 1.125 -0.585938 1.238281 -0.597656 1.34375 -0.609375 C 1.457031 -0.617188 1.5625 -0.628906 1.65625 -0.640625 C 1.757812 -0.648438 1.867188 -0.65625 1.984375 -0.65625 C 2.015625 -1.488281 2.039062 -2.3125 2.0625 -3.125 C 2.09375 -3.945312 2.117188 -4.726562 2.140625 -5.46875 C 2.171875 -6.21875 2.195312 -6.914062 2.21875 -7.5625 C 2.25 -8.207031 2.273438 -8.773438 2.296875 -9.265625 C 2.316406 -9.765625 2.332031 -10.175781 2.34375 -10.5 C 2.351562 -10.820312 2.359375 -11.03125 2.359375 -11.125 C 2.359375 -11.394531 2.335938 -11.613281 2.296875 -11.78125 C 2.253906 -11.945312 2.191406 -12.078125 2.109375 -12.171875 C 2.035156 -12.273438 1.9375 -12.347656 1.8125 -12.390625 C 1.695312 -12.429688 1.5625 -12.460938 1.40625 -12.484375 L 1 -12.546875 L 1 -13.078125 C 1.175781 -13.054688 1.363281 -13.035156 1.5625 -13.015625 C 1.726562 -12.992188 1.921875 -12.972656 2.140625 -12.953125 C 2.359375 -12.941406 2.582031 -12.9375 2.8125 -12.9375 C 3.019531 -12.9375 3.222656 -12.945312 3.421875 -12.96875 C 3.617188 -13 3.820312 -13.03125 4.03125 -13.0625 C 4.238281 -13.09375 4.457031 -13.117188 4.6875 -13.140625 C 4.914062 -13.160156 5.171875 -13.171875 5.453125 -13.171875 C 6.203125 -13.171875 6.84375 -13.078125 7.375 -12.890625 C 7.914062 -12.710938 8.351562 -12.46875 8.6875 -12.15625 C 9.03125 -11.84375 9.28125 -11.488281 9.4375 -11.09375 C 9.59375 -10.695312 9.671875 -10.289062 9.671875 -9.875 C 9.671875 -9.289062 9.566406 -8.789062 9.359375 -8.375 C 9.148438 -7.96875 8.890625 -7.617188 8.578125 -7.328125 C 8.273438 -7.046875 7.953125 -6.816406 7.609375 -6.640625 C 7.273438 -6.472656 6.972656 -6.347656 6.703125 -6.265625 C 7.179688 -5.398438 7.664062 -4.585938 8.15625 -3.828125 C 8.65625 -3.078125 9.144531 -2.414062 9.625 -1.84375 C 10.101562 -1.269531 10.566406 -0.816406 11.015625 -0.484375 C 11.460938 -0.160156 11.882812 0 12.28125 0 L 12.25 0.328125 C 12.019531 0.367188 11.789062 0.390625 11.5625 0.390625 C 11.050781 0.367188 10.554688 0.238281 10.078125 0 C 9.609375 -0.226562 9.160156 -0.523438 8.734375 -0.890625 C 8.304688 -1.265625 7.90625 -1.679688 7.53125 -2.140625 C 7.15625 -2.609375 6.8125 -3.078125 6.5 -3.546875 C 6.195312 -4.023438 5.925781 -4.476562 5.6875 -4.90625 C 5.445312 -5.332031 5.25 -5.695312 5.09375 -6 C 4.925781 -5.976562 4.753906 -5.960938 4.578125 -5.953125 C 4.398438 -5.953125 4.207031 -5.953125 4 -5.953125 L 3.625 -5.953125 C 3.613281 -5.765625 3.601562 -5.546875 3.59375 -5.296875 C 3.582031 -5.046875 3.570312 -4.789062 3.5625 -4.53125 C 3.5625 -4.269531 3.554688 -4.003906 3.546875 -3.734375 C 3.535156 -3.460938 3.523438 -3.210938 3.515625 -2.984375 C 3.515625 -2.753906 3.507812 -2.546875 3.5 -2.359375 C 3.488281 -2.179688 3.484375 -2.050781 3.484375 -1.96875 C 3.484375 -1.695312 3.503906 -1.476562 3.546875 -1.3125 C 3.585938 -1.144531 3.644531 -1.007812 3.71875 -0.90625 C 3.789062 -0.8125 3.882812 -0.738281 4 -0.6875 C 4.125 -0.644531 4.269531 -0.613281 4.4375 -0.59375 L 4.828125 -0.53125 L 4.828125 0 C 4.691406 -0.0195312 4.53125 -0.0390625 4.34375 -0.0625 C 4.175781 -0.0703125 3.972656 -0.0820312 3.734375 -0.09375 C 3.492188 -0.113281 3.21875 -0.125 2.90625 -0.125 C 2.582031 -0.125 2.226562 -0.113281 1.84375 -0.09375 C 1.46875 -0.0820312 1.046875 -0.0507812 0.578125 0 Z M 3.640625 -6.609375 L 4.171875 -6.609375 C 4.960938 -6.609375 5.613281 -6.695312 6.125 -6.875 C 6.632812 -7.0625 7.039062 -7.304688 7.34375 -7.609375 C 7.644531 -7.910156 7.859375 -8.253906 7.984375 -8.640625 C 8.109375 -9.035156 8.171875 -9.4375 8.171875 -9.84375 C 8.171875 -10.050781 8.148438 -10.257812 8.109375 -10.46875 C 8.066406 -10.675781 7.992188 -10.878906 7.890625 -11.078125 C 7.796875 -11.273438 7.664062 -11.460938 7.5 -11.640625 C 7.34375 -11.828125 7.148438 -11.988281 6.921875 -12.125 C 6.691406 -12.257812 6.421875 -12.363281 6.109375 -12.4375 C 5.804688 -12.519531 5.453125 -12.5625 5.046875 -12.5625 C 4.828125 -12.5625 4.625 -12.550781 4.4375 -12.53125 C 4.257812 -12.519531 4.0625 -12.5 3.84375 -12.46875 Z M 3.640625 -6.609375 "/></g></g></g><g fill="#003070" fill-opacity="1"><g transform="translate(197.512235, 263.475699)"><g><path d="M 7.59375 -6.1875 C 7.21875 -6.226562 6.835938 -6.269531 6.453125 -6.3125 C 6.066406 -6.351562 5.695312 -6.382812 5.34375 -6.40625 C 4.988281 -6.425781 4.664062 -6.441406 4.375 -6.453125 C 4.082031 -6.472656 3.84375 -6.492188 3.65625 -6.515625 C 3.632812 -5.753906 3.609375 -5.066406 3.578125 -4.453125 C 3.566406 -4.179688 3.554688 -3.914062 3.546875 -3.65625 C 3.546875 -3.394531 3.539062 -3.148438 3.53125 -2.921875 C 3.519531 -2.703125 3.515625 -2.515625 3.515625 -2.359375 C 3.515625 -2.203125 3.515625 -2.097656 3.515625 -2.046875 C 3.515625 -1.710938 3.554688 -1.445312 3.640625 -1.25 C 3.722656 -1.0625 3.851562 -0.914062 4.03125 -0.8125 C 4.21875 -0.71875 4.441406 -0.65625 4.703125 -0.625 C 4.960938 -0.59375 5.269531 -0.578125 5.625 -0.578125 C 6.125 -0.578125 6.550781 -0.609375 6.90625 -0.671875 C 7.257812 -0.734375 7.5625 -0.847656 7.8125 -1.015625 C 8.0625 -1.179688 8.265625 -1.410156 8.421875 -1.703125 C 8.578125 -2.003906 8.707031 -2.394531 8.8125 -2.875 L 9.390625 -2.875 C 9.367188 -2.695312 9.332031 -2.476562 9.28125 -2.21875 C 9.226562 -1.96875 9.164062 -1.695312 9.09375 -1.40625 C 9.03125 -1.125 8.945312 -0.84375 8.84375 -0.5625 C 8.75 -0.28125 8.644531 -0.03125 8.53125 0.1875 C 7.863281 0.164062 7.226562 0.140625 6.625 0.109375 C 6.019531 0.078125 5.46875 0.046875 4.96875 0.015625 C 4.46875 -0.015625 4.03125 -0.0390625 3.65625 -0.0625 C 3.289062 -0.09375 3.015625 -0.109375 2.828125 -0.109375 C 2.515625 -0.109375 2.175781 -0.101562 1.8125 -0.09375 C 1.457031 -0.0820312 1.046875 -0.0507812 0.578125 0 L 0.59375 -0.53125 C 0.757812 -0.550781 0.90625 -0.566406 1.03125 -0.578125 C 1.15625 -0.585938 1.269531 -0.597656 1.375 -0.609375 C 1.476562 -0.617188 1.578125 -0.628906 1.671875 -0.640625 C 1.773438 -0.648438 1.882812 -0.65625 2 -0.65625 C 2.0625 -2.5 2.117188 -4.160156 2.171875 -5.640625 C 2.191406 -6.273438 2.210938 -6.898438 2.234375 -7.515625 C 2.253906 -8.140625 2.273438 -8.703125 2.296875 -9.203125 C 2.316406 -9.703125 2.332031 -10.117188 2.34375 -10.453125 C 2.351562 -10.796875 2.359375 -11.003906 2.359375 -11.078125 C 2.359375 -11.359375 2.335938 -11.582031 2.296875 -11.75 C 2.265625 -11.925781 2.207031 -12.0625 2.125 -12.15625 C 2.050781 -12.257812 1.957031 -12.332031 1.84375 -12.375 C 1.726562 -12.425781 1.582031 -12.460938 1.40625 -12.484375 L 1.03125 -12.546875 L 1.03125 -13.078125 C 1.195312 -13.054688 1.414062 -13.035156 1.6875 -13.015625 C 1.925781 -12.992188 2.21875 -12.972656 2.5625 -12.953125 C 2.914062 -12.941406 3.347656 -12.9375 3.859375 -12.9375 L 6.125 -12.9375 C 6.375 -12.9375 6.617188 -12.9375 6.859375 -12.9375 C 7.097656 -12.945312 7.335938 -12.957031 7.578125 -12.96875 C 7.828125 -12.976562 8.082031 -12.988281 8.34375 -13 C 8.601562 -13.019531 8.882812 -13.046875 9.1875 -13.078125 L 8.90625 -9.90625 L 8.328125 -9.90625 C 8.328125 -10.03125 8.328125 -10.128906 8.328125 -10.203125 C 8.335938 -10.273438 8.34375 -10.332031 8.34375 -10.375 C 8.34375 -10.414062 8.34375 -10.441406 8.34375 -10.453125 C 8.34375 -10.472656 8.34375 -10.488281 8.34375 -10.5 C 8.34375 -10.707031 8.316406 -10.90625 8.265625 -11.09375 C 8.210938 -11.28125 8.109375 -11.445312 7.953125 -11.59375 C 7.796875 -11.738281 7.582031 -11.859375 7.3125 -11.953125 C 7.039062 -12.054688 6.6875 -12.125 6.25 -12.15625 L 3.9375 -12.3125 C 3.882812 -11.800781 3.84375 -11.28125 3.8125 -10.75 C 3.78125 -10.21875 3.757812 -9.726562 3.75 -9.28125 L 3.671875 -7.171875 L 7.6875 -7.375 Z M 7.59375 -6.1875 "/></g></g></g><g fill="#003070" fill-opacity="1"><g transform="translate(207.689606, 263.475699)"><g><path d="M 4.265625 -0.421875 C 4.640625 -0.421875 4.988281 -0.476562 5.3125 -0.59375 C 5.644531 -0.707031 5.929688 -0.875 6.171875 -1.09375 C 6.421875 -1.320312 6.613281 -1.59375 6.75 -1.90625 C 6.894531 -2.21875 6.96875 -2.578125 6.96875 -2.984375 C 6.96875 -3.367188 6.878906 -3.71875 6.703125 -4.03125 C 6.523438 -4.34375 6.296875 -4.632812 6.015625 -4.90625 C 5.742188 -5.175781 5.445312 -5.429688 5.125 -5.671875 C 4.8125 -5.910156 4.507812 -6.144531 4.21875 -6.375 C 3.945312 -6.59375 3.644531 -6.828125 3.3125 -7.078125 C 2.976562 -7.328125 2.664062 -7.601562 2.375 -7.90625 C 2.082031 -8.21875 1.835938 -8.554688 1.640625 -8.921875 C 1.441406 -9.296875 1.34375 -9.710938 1.34375 -10.171875 C 1.34375 -10.390625 1.363281 -10.625 1.40625 -10.875 C 1.457031 -11.125 1.535156 -11.363281 1.640625 -11.59375 C 1.753906 -11.832031 1.898438 -12.054688 2.078125 -12.265625 C 2.253906 -12.484375 2.476562 -12.671875 2.75 -12.828125 C 3.019531 -12.984375 3.335938 -13.109375 3.703125 -13.203125 C 4.066406 -13.296875 4.488281 -13.34375 4.96875 -13.34375 C 5.582031 -13.34375 6.171875 -13.296875 6.734375 -13.203125 C 7.304688 -13.109375 7.800781 -13 8.21875 -12.875 L 8.015625 -10.03125 L 7.484375 -10.03125 L 7.484375 -10.296875 C 7.484375 -10.535156 7.457031 -10.789062 7.40625 -11.0625 C 7.351562 -11.34375 7.238281 -11.597656 7.0625 -11.828125 C 6.894531 -12.066406 6.648438 -12.265625 6.328125 -12.421875 C 6.003906 -12.578125 5.570312 -12.65625 5.03125 -12.65625 C 4.707031 -12.65625 4.410156 -12.609375 4.140625 -12.515625 C 3.878906 -12.429688 3.648438 -12.304688 3.453125 -12.140625 C 3.265625 -11.972656 3.117188 -11.769531 3.015625 -11.53125 C 2.921875 -11.289062 2.875 -11.023438 2.875 -10.734375 C 2.875 -10.347656 2.945312 -10.003906 3.09375 -9.703125 C 3.25 -9.398438 3.445312 -9.128906 3.6875 -8.890625 C 3.925781 -8.660156 4.191406 -8.441406 4.484375 -8.234375 C 4.785156 -8.035156 5.078125 -7.832031 5.359375 -7.625 C 5.765625 -7.320312 6.15625 -7.019531 6.53125 -6.71875 C 6.914062 -6.425781 7.253906 -6.113281 7.546875 -5.78125 C 7.835938 -5.457031 8.066406 -5.109375 8.234375 -4.734375 C 8.410156 -4.359375 8.5 -3.941406 8.5 -3.484375 C 8.5 -2.960938 8.378906 -2.472656 8.140625 -2.015625 C 7.898438 -1.554688 7.578125 -1.15625 7.171875 -0.8125 C 6.773438 -0.476562 6.320312 -0.210938 5.8125 -0.015625 C 5.300781 0.171875 4.769531 0.265625 4.21875 0.265625 C 3.5625 0.265625 2.929688 0.210938 2.328125 0.109375 C 1.722656 0.00390625 1.195312 -0.113281 0.75 -0.25 L 0.984375 -3.234375 L 1.5625 -3.234375 L 1.5625 -2.90625 C 1.5625 -2.644531 1.59375 -2.367188 1.65625 -2.078125 C 1.71875 -1.785156 1.84375 -1.515625 2.03125 -1.265625 C 2.226562 -1.023438 2.503906 -0.820312 2.859375 -0.65625 C 3.210938 -0.5 3.679688 -0.421875 4.265625 -0.421875 Z M 4.265625 -0.421875 "/></g></g></g></svg>