<svg xmlns="http://www.w3.org/2000/svg" xmlns:xlink="http://www.w3.org/1999/xlink" width="500" zoomAndPan="magnify" viewBox="0 0 375 374.999991" height="500" preserveAspectRatio="xMidYMid meet" version="1.0"><defs><g/><clipPath id="e06aec7891"><path d="M 101.316406 20.953125 L 263.253906 20.953125 L 263.253906 25.746094 L 101.316406 25.746094 Z M 101.316406 20.953125 " clip-rule="nonzero"/></clipPath><clipPath id="4d1e7d49fc"><path d="M 100.042969 163 L 261.976562 163 L 261.976562 167.792969 L 100.042969 167.792969 Z M 100.042969 163 " clip-rule="nonzero"/></clipPath><clipPath id="cd3cc77bf8"><path d="M 97.929688 137.628906 L 264.089844 137.628906 L 264.089844 158.292969 L 97.929688 158.292969 Z M 97.929688 137.628906 " clip-rule="nonzero"/></clipPath><clipPath id="3dd5739162"><path d="M 108.261719 137.628906 L 253.757812 137.628906 C 259.464844 137.628906 264.089844 142.253906 264.089844 147.960938 C 264.089844 153.667969 259.464844 158.292969 253.757812 158.292969 L 108.261719 158.292969 C 102.554688 158.292969 97.929688 153.667969 97.929688 147.960938 C 97.929688 142.253906 102.554688 137.628906 108.261719 137.628906 Z M 108.261719 137.628906 " clip-rule="nonzero"/></clipPath><clipPath id="cd7db7efce"><path d="M 97.929688 137.628906 L 263.910156 137.628906 L 263.910156 158.496094 L 97.929688 158.496094 Z M 97.929688 137.628906 " clip-rule="nonzero"/></clipPath><clipPath id="dbd0b913e5"><path d="M 108.261719 137.628906 L 253.753906 137.628906 C 259.460938 137.628906 264.085938 142.253906 264.085938 147.960938 C 264.085938 153.664062 259.460938 158.292969 253.753906 158.292969 L 108.261719 158.292969 C 102.554688 158.292969 97.929688 153.664062 97.929688 147.960938 C 97.929688 142.253906 102.554688 137.628906 108.261719 137.628906 Z M 108.261719 137.628906 " clip-rule="nonzero"/></clipPath></defs><g fill="#003070" fill-opacity="1"><g transform="translate(55.087952, 148.792599)"><g><path d="M 72.125 -108.578125 L 67.484375 -102.65625 C 65.566406 -103.726562 63.753906 -104.6875 62.046875 -105.53125 C 60.335938 -106.382812 58.601562 -107.078125 56.84375 -107.609375 C 55.082031 -108.148438 53.21875 -108.550781 51.25 -108.8125 C 49.28125 -109.082031 47.015625 -109.21875 44.453125 -109.21875 C 39.234375 -109.21875 34.570312 -108.363281 30.46875 -106.65625 C 26.363281 -104.945312 22.867188 -102.65625 19.984375 -99.78125 C 17.109375 -96.90625 14.921875 -93.597656 13.421875 -89.859375 C 11.929688 -86.128906 11.1875 -82.1875 11.1875 -78.03125 C 11.1875 -72.382812 12.921875 -67.210938 16.390625 -62.515625 C 19.859375 -57.828125 25.269531 -54.257812 32.625 -51.8125 C 36.132812 -50.632812 39.113281 -49.671875 41.5625 -48.921875 C 44.019531 -48.179688 46.316406 -47.460938 48.453125 -46.765625 C 50.585938 -46.078125 52.742188 -45.332031 54.921875 -44.53125 C 57.109375 -43.726562 59.640625 -42.632812 62.515625 -41.25 C 66.140625 -39.550781 68.59375 -37.179688 69.875 -34.140625 C 71.15625 -31.097656 71.796875 -28.035156 71.796875 -24.953125 C 71.796875 -21.109375 71.050781 -17.613281 69.5625 -14.46875 C 68.070312 -11.320312 66.097656 -8.679688 63.640625 -6.546875 C 61.191406 -4.421875 58.367188 -2.769531 55.171875 -1.59375 C 51.972656 -0.425781 48.71875 0.15625 45.40625 0.15625 C 41.570312 0.15625 37.894531 -0.507812 34.375 -1.84375 C 30.863281 -3.175781 27.613281 -5.066406 24.625 -7.515625 C 21.632812 -9.960938 19.046875 -13 16.859375 -16.625 C 14.679688 -20.25 13.003906 -24.300781 11.828125 -28.78125 C 11.515625 -30.164062 10.929688 -30.859375 10.078125 -30.859375 C 9.328125 -30.859375 8.953125 -30.113281 8.953125 -28.625 L 8.953125 0 C 8.953125 1.382812 9.429688 2.078125 10.390625 2.078125 C 11.035156 2.078125 11.726562 1.546875 12.46875 0.484375 L 18.234375 -7.828125 C 19.503906 -6.660156 21.070312 -5.4375 22.9375 -4.15625 C 24.8125 -2.875 26.894531 -1.703125 29.1875 -0.640625 C 31.476562 0.421875 33.925781 1.296875 36.53125 1.984375 C 39.144531 2.679688 41.835938 3.03125 44.609375 3.03125 C 49.734375 3.03125 54.476562 2.097656 58.84375 0.234375 C 63.21875 -1.628906 67.003906 -4.210938 70.203125 -7.515625 C 73.398438 -10.816406 75.929688 -14.734375 77.796875 -19.265625 C 79.660156 -23.796875 80.59375 -28.675781 80.59375 -33.90625 C 80.59375 -41.039062 78.910156 -47.085938 75.546875 -52.046875 C 72.191406 -57.003906 66.890625 -60.550781 59.640625 -62.6875 C 57.191406 -63.425781 54.898438 -64.0625 52.765625 -64.59375 C 50.640625 -65.132812 48.457031 -65.722656 46.21875 -66.359375 C 43.976562 -67.003906 41.628906 -67.722656 39.171875 -68.515625 C 36.722656 -69.316406 34.003906 -70.304688 31.015625 -71.484375 C 27.710938 -72.753906 25.207031 -74.722656 23.5 -77.390625 C 21.800781 -80.054688 20.953125 -83.148438 20.953125 -86.671875 C 20.953125 -89.972656 21.644531 -92.875 23.03125 -95.375 C 24.414062 -97.882812 26.195312 -99.9375 28.375 -101.53125 C 30.5625 -103.132812 33.066406 -104.335938 35.890625 -105.140625 C 38.722656 -105.941406 41.578125 -106.34375 44.453125 -106.34375 C 48.828125 -106.34375 52.664062 -105.59375 55.96875 -104.09375 C 59.269531 -102.601562 62.039062 -100.628906 64.28125 -98.171875 C 66.519531 -95.722656 68.304688 -92.898438 69.640625 -89.703125 C 70.972656 -86.503906 71.851562 -83.203125 72.28125 -79.796875 C 72.382812 -78.722656 72.863281 -78.1875 73.71875 -78.1875 C 74.46875 -78.1875 74.84375 -78.722656 74.84375 -79.796875 L 74.84375 -108.25 C 74.84375 -109.320312 74.519531 -109.859375 73.875 -109.859375 C 73.34375 -109.859375 72.757812 -109.429688 72.125 -108.578125 Z M 72.125 -108.578125 "/></g></g></g><g fill="#003070" fill-opacity="1"><g transform="translate(133.441542, 148.792599)"><g><path d="M 88.75 -29.578125 C 87.894531 -25.523438 86.988281 -21.847656 86.03125 -18.546875 C 85.070312 -15.242188 83.789062 -12.390625 82.1875 -9.984375 C 80.59375 -7.585938 78.566406 -5.75 76.109375 -4.46875 C 73.660156 -3.195312 70.570312 -2.5625 66.84375 -2.5625 L 34.0625 -2.5625 L 34.0625 -104.890625 L 49.25 -104.890625 L 49.25 -107.453125 L 4.796875 -107.453125 L 4.796875 -104.890625 L 18.546875 -104.890625 L 18.546875 -2.5625 L 4.796875 -2.5625 L 4.796875 0 L 87.15625 0 C 90.238281 0 91.78125 -1.703125 91.78125 -5.109375 L 91.78125 -29.109375 C 91.78125 -31.660156 91.351562 -32.9375 90.5 -32.9375 C 89.757812 -32.9375 89.175781 -31.816406 88.75 -29.578125 Z M 88.75 -29.578125 "/></g></g></g><g fill="#003070" fill-opacity="1"><g transform="translate(220.909767, 148.792599)"><g><path d="M 57.71875 -2.5625 L 57.71875 -104.890625 L 71.484375 -104.890625 C 76.378906 -104.890625 80.664062 -102.382812 84.34375 -97.375 C 88.03125 -92.375 90.457031 -85.554688 91.625 -76.921875 L 94.984375 -76.921875 L 92.578125 -104.734375 C 92.472656 -106.546875 91.410156 -107.453125 89.390625 -107.453125 L 10.546875 -107.453125 C 8.523438 -107.453125 7.460938 -106.546875 7.359375 -104.734375 L 4.953125 -76.921875 L 8.3125 -76.921875 C 9.488281 -85.554688 11.914062 -92.375 15.59375 -97.375 C 19.269531 -102.382812 23.5625 -104.890625 28.46875 -104.890625 L 42.21875 -104.890625 L 42.21875 -2.5625 L 28.46875 -2.5625 L 28.46875 0 L 71.484375 0 L 71.484375 -2.5625 Z M 57.71875 -2.5625 "/></g></g></g><g clip-path="url(#e06aec7891)"><path fill="#003070" d="M 101.316406 20.953125 L 263.253906 20.953125 L 263.253906 25.746094 L 101.316406 25.746094 Z M 101.316406 20.953125 " fill-opacity="1" fill-rule="nonzero"/></g><g clip-path="url(#4d1e7d49fc)"><path fill="#003070" d="M 100.042969 163 L 261.976562 163 L 261.976562 167.792969 L 100.042969 167.792969 Z M 100.042969 163 " fill-opacity="1" fill-rule="nonzero"/></g><g clip-path="url(#cd3cc77bf8)"><g clip-path="url(#3dd5739162)"><path fill="#ffffff" d="M 97.929688 137.628906 L 264.089844 137.628906 L 264.089844 158.292969 L 97.929688 158.292969 Z M 97.929688 137.628906 " fill-opacity="1" fill-rule="nonzero"/></g></g><g clip-path="url(#cd7db7efce)"><g clip-path="url(#dbd0b913e5)"><path stroke-linecap="butt" transform="matrix(0.485326, 0, 0, 0.485326, 97.929036, 137.627993)" fill="none" stroke-linejoin="miter" d="M 21.290187 0.00188098 L 321.072546 0.00188098 C 332.831715 0.00188098 342.361391 9.531557 342.361391 21.290726 C 342.361391 33.041847 332.831715 42.579572 321.072546 42.579572 L 21.290187 42.579572 C 9.531017 42.579572 0.00134143 33.041847 0.00134143 21.290726 C 0.00134143 9.531557 9.531017 0.00188098 21.290187 0.00188098 Z M 21.290187 0.00188098 " stroke="#000000" stroke-width="3.090706" stroke-opacity="1" stroke-miterlimit="4"/></g></g><g fill="#003070" fill-opacity="1"><g transform="translate(143.921632, 152.454046)"><g><path d="M 4.234375 -8.203125 L 2.765625 -3.890625 L 5.625 -3.890625 L 4.4375 -8.203125 Z M 4.859375 -10.125 L 7.234375 -2.4375 C 7.398438 -1.875 7.585938 -1.414062 7.796875 -1.0625 C 8.003906 -0.71875 8.257812 -0.519531 8.5625 -0.46875 L 8.953125 -0.40625 L 8.9375 0 C 8.695312 -0.03125 8.4375 -0.0507812 8.15625 -0.0625 C 7.882812 -0.0703125 7.601562 -0.078125 7.3125 -0.078125 C 7 -0.078125 6.695312 -0.0703125 6.40625 -0.0625 C 6.113281 -0.0507812 5.832031 -0.03125 5.5625 0 L 5.578125 -0.40625 L 6.5625 -0.484375 L 5.765625 -3.40625 L 5.484375 -3.40625 C 5.359375 -3.40625 5.191406 -3.398438 4.984375 -3.390625 C 4.785156 -3.390625 4.554688 -3.382812 4.296875 -3.375 C 4.035156 -3.375 3.753906 -3.363281 3.453125 -3.34375 C 3.148438 -3.320312 2.84375 -3.296875 2.53125 -3.265625 L 2.140625 -2.1875 C 2.054688 -1.957031 1.984375 -1.742188 1.921875 -1.546875 C 1.859375 -1.347656 1.828125 -1.171875 1.828125 -1.015625 C 1.828125 -0.867188 1.863281 -0.742188 1.9375 -0.640625 C 2.019531 -0.546875 2.160156 -0.488281 2.359375 -0.46875 L 2.765625 -0.40625 L 2.765625 0 C 2.503906 -0.03125 2.257812 -0.0507812 2.03125 -0.0625 C 1.800781 -0.0820312 1.5625 -0.09375 1.3125 -0.09375 C 1.050781 -0.09375 0.785156 -0.0820312 0.515625 -0.0625 C 0.242188 -0.0507812 -0.0546875 -0.03125 -0.390625 0 L -0.375 -0.40625 C -0.238281 -0.414062 -0.109375 -0.425781 0.015625 -0.4375 C 0.117188 -0.445312 0.222656 -0.457031 0.328125 -0.46875 C 0.441406 -0.476562 0.535156 -0.484375 0.609375 -0.484375 C 0.796875 -0.890625 0.992188 -1.332031 1.203125 -1.8125 C 1.410156 -2.289062 1.625 -2.789062 1.84375 -3.3125 C 2.0625 -3.832031 2.28125 -4.375 2.5 -4.9375 C 2.71875 -5.5 2.929688 -6.0625 3.140625 -6.625 C 3.347656 -7.195312 3.546875 -7.765625 3.734375 -8.328125 C 3.929688 -8.890625 4.117188 -9.429688 4.296875 -9.953125 Z M 4.859375 -10.125 "/></g></g></g><g fill="#003070" fill-opacity="1"><g transform="translate(152.955336, 152.454046)"><g><path d="M 3.171875 -0.3125 C 3.453125 -0.3125 3.71875 -0.351562 3.96875 -0.4375 C 4.21875 -0.53125 4.429688 -0.65625 4.609375 -0.8125 C 4.796875 -0.976562 4.941406 -1.179688 5.046875 -1.421875 C 5.148438 -1.660156 5.203125 -1.925781 5.203125 -2.21875 C 5.203125 -2.507812 5.132812 -2.769531 5 -3 C 4.863281 -3.238281 4.691406 -3.457031 4.484375 -3.65625 C 4.285156 -3.863281 4.066406 -4.054688 3.828125 -4.234375 C 3.585938 -4.410156 3.363281 -4.585938 3.15625 -4.765625 C 2.945312 -4.921875 2.71875 -5.09375 2.46875 -5.28125 C 2.21875 -5.46875 1.984375 -5.675781 1.765625 -5.90625 C 1.554688 -6.132812 1.375 -6.382812 1.21875 -6.65625 C 1.070312 -6.9375 1 -7.25 1 -7.59375 C 1 -7.757812 1.015625 -7.929688 1.046875 -8.109375 C 1.085938 -8.296875 1.144531 -8.476562 1.21875 -8.65625 C 1.300781 -8.832031 1.410156 -9 1.546875 -9.15625 C 1.679688 -9.3125 1.847656 -9.445312 2.046875 -9.5625 C 2.242188 -9.6875 2.476562 -9.78125 2.75 -9.84375 C 3.03125 -9.914062 3.347656 -9.953125 3.703125 -9.953125 C 4.160156 -9.953125 4.601562 -9.914062 5.03125 -9.84375 C 5.457031 -9.78125 5.828125 -9.703125 6.140625 -9.609375 L 5.984375 -7.484375 L 5.578125 -7.484375 L 5.578125 -7.671875 C 5.578125 -7.859375 5.554688 -8.050781 5.515625 -8.25 C 5.484375 -8.457031 5.40625 -8.648438 5.28125 -8.828125 C 5.15625 -9.003906 4.96875 -9.148438 4.71875 -9.265625 C 4.476562 -9.390625 4.15625 -9.453125 3.75 -9.453125 C 3.507812 -9.453125 3.289062 -9.414062 3.09375 -9.34375 C 2.894531 -9.28125 2.722656 -9.1875 2.578125 -9.0625 C 2.441406 -8.9375 2.332031 -8.785156 2.25 -8.609375 C 2.175781 -8.429688 2.140625 -8.234375 2.140625 -8.015625 C 2.140625 -7.722656 2.195312 -7.460938 2.3125 -7.234375 C 2.425781 -7.015625 2.570312 -6.816406 2.75 -6.640625 C 2.9375 -6.460938 3.140625 -6.296875 3.359375 -6.140625 C 3.578125 -5.992188 3.789062 -5.84375 4 -5.6875 C 4.300781 -5.46875 4.59375 -5.242188 4.875 -5.015625 C 5.164062 -4.796875 5.414062 -4.5625 5.625 -4.3125 C 5.84375 -4.070312 6.015625 -3.8125 6.140625 -3.53125 C 6.273438 -3.25 6.34375 -2.941406 6.34375 -2.609375 C 6.34375 -2.210938 6.253906 -1.84375 6.078125 -1.5 C 5.898438 -1.15625 5.660156 -0.859375 5.359375 -0.609375 C 5.054688 -0.359375 4.710938 -0.160156 4.328125 -0.015625 C 3.953125 0.128906 3.5625 0.203125 3.15625 0.203125 C 2.65625 0.203125 2.179688 0.160156 1.734375 0.078125 C 1.285156 0.00390625 0.894531 -0.0820312 0.5625 -0.1875 L 0.734375 -2.421875 L 1.171875 -2.421875 L 1.171875 -2.171875 C 1.171875 -1.972656 1.191406 -1.765625 1.234375 -1.546875 C 1.285156 -1.328125 1.378906 -1.125 1.515625 -0.9375 C 1.660156 -0.757812 1.863281 -0.609375 2.125 -0.484375 C 2.394531 -0.367188 2.742188 -0.3125 3.171875 -0.3125 Z M 3.171875 -0.3125 "/></g></g></g><g fill="#003070" fill-opacity="1"><g transform="translate(160.177355, 152.454046)"><g><path d="M 5.671875 -4.609375 C 5.390625 -4.648438 5.101562 -4.679688 4.8125 -4.703125 C 4.519531 -4.734375 4.242188 -4.757812 3.984375 -4.78125 C 3.722656 -4.800781 3.484375 -4.816406 3.265625 -4.828125 C 3.046875 -4.835938 2.867188 -4.847656 2.734375 -4.859375 C 2.710938 -4.296875 2.691406 -3.78125 2.671875 -3.3125 C 2.660156 -3.125 2.648438 -2.929688 2.640625 -2.734375 C 2.640625 -2.535156 2.632812 -2.351562 2.625 -2.1875 C 2.625 -2.019531 2.625 -1.878906 2.625 -1.765625 C 2.625 -1.648438 2.625 -1.566406 2.625 -1.515625 C 2.625 -1.273438 2.65625 -1.082031 2.71875 -0.9375 C 2.78125 -0.789062 2.878906 -0.679688 3.015625 -0.609375 C 3.148438 -0.535156 3.3125 -0.484375 3.5 -0.453125 C 3.695312 -0.429688 3.929688 -0.421875 4.203125 -0.421875 C 4.578125 -0.421875 4.894531 -0.441406 5.15625 -0.484375 C 5.414062 -0.535156 5.640625 -0.625 5.828125 -0.75 C 6.015625 -0.882812 6.164062 -1.0625 6.28125 -1.28125 C 6.394531 -1.5 6.488281 -1.785156 6.5625 -2.140625 L 7.015625 -2.140625 C 6.992188 -2.015625 6.960938 -1.851562 6.921875 -1.65625 C 6.890625 -1.46875 6.84375 -1.265625 6.78125 -1.046875 C 6.726562 -0.835938 6.664062 -0.628906 6.59375 -0.421875 C 6.53125 -0.210938 6.453125 -0.0234375 6.359375 0.140625 C 5.867188 0.128906 5.394531 0.109375 4.9375 0.078125 C 4.488281 0.0546875 4.078125 0.03125 3.703125 0 C 3.335938 -0.0195312 3.015625 -0.0351562 2.734375 -0.046875 C 2.460938 -0.0664062 2.253906 -0.078125 2.109375 -0.078125 C 1.867188 -0.078125 1.613281 -0.0703125 1.34375 -0.0625 C 1.082031 -0.0625 0.773438 -0.0390625 0.421875 0 L 0.4375 -0.40625 C 0.5625 -0.414062 0.671875 -0.421875 0.765625 -0.421875 C 0.859375 -0.429688 0.941406 -0.441406 1.015625 -0.453125 C 1.097656 -0.460938 1.175781 -0.46875 1.25 -0.46875 C 1.332031 -0.476562 1.414062 -0.484375 1.5 -0.484375 C 1.539062 -1.859375 1.582031 -3.101562 1.625 -4.21875 C 1.632812 -4.6875 1.644531 -5.148438 1.65625 -5.609375 C 1.675781 -6.066406 1.691406 -6.484375 1.703125 -6.859375 C 1.722656 -7.234375 1.734375 -7.546875 1.734375 -7.796875 C 1.742188 -8.054688 1.75 -8.210938 1.75 -8.265625 C 1.75 -8.472656 1.734375 -8.640625 1.703125 -8.765625 C 1.679688 -8.898438 1.644531 -9.003906 1.59375 -9.078125 C 1.539062 -9.148438 1.46875 -9.203125 1.375 -9.234375 C 1.289062 -9.265625 1.179688 -9.289062 1.046875 -9.3125 L 0.765625 -9.359375 L 0.765625 -9.765625 C 0.898438 -9.742188 1.066406 -9.722656 1.265625 -9.703125 C 1.429688 -9.691406 1.644531 -9.679688 1.90625 -9.671875 C 2.175781 -9.660156 2.5 -9.65625 2.875 -9.65625 L 4.5625 -9.65625 C 4.75 -9.65625 4.929688 -9.65625 5.109375 -9.65625 C 5.296875 -9.664062 5.476562 -9.671875 5.65625 -9.671875 C 5.84375 -9.679688 6.03125 -9.691406 6.21875 -9.703125 C 6.414062 -9.722656 6.628906 -9.742188 6.859375 -9.765625 L 6.640625 -7.390625 L 6.21875 -7.390625 C 6.21875 -7.484375 6.21875 -7.554688 6.21875 -7.609375 C 6.21875 -7.660156 6.21875 -7.703125 6.21875 -7.734375 C 6.21875 -7.765625 6.21875 -7.785156 6.21875 -7.796875 C 6.21875 -7.804688 6.21875 -7.816406 6.21875 -7.828125 C 6.21875 -7.984375 6.195312 -8.128906 6.15625 -8.265625 C 6.125 -8.410156 6.050781 -8.535156 5.9375 -8.640625 C 5.820312 -8.753906 5.660156 -8.847656 5.453125 -8.921875 C 5.253906 -8.992188 4.988281 -9.039062 4.65625 -9.0625 L 2.9375 -9.1875 C 2.894531 -8.800781 2.863281 -8.410156 2.84375 -8.015625 C 2.820312 -7.617188 2.804688 -7.253906 2.796875 -6.921875 L 2.75 -5.34375 L 5.734375 -5.5 Z M 5.671875 -4.609375 "/></g></g></g><g fill="#003070" fill-opacity="1"><g transform="translate(167.771544, 152.454046)"><g><path d="M 3.171875 -0.3125 C 3.453125 -0.3125 3.71875 -0.351562 3.96875 -0.4375 C 4.21875 -0.53125 4.429688 -0.65625 4.609375 -0.8125 C 4.796875 -0.976562 4.941406 -1.179688 5.046875 -1.421875 C 5.148438 -1.660156 5.203125 -1.925781 5.203125 -2.21875 C 5.203125 -2.507812 5.132812 -2.769531 5 -3 C 4.863281 -3.238281 4.691406 -3.457031 4.484375 -3.65625 C 4.285156 -3.863281 4.066406 -4.054688 3.828125 -4.234375 C 3.585938 -4.410156 3.363281 -4.585938 3.15625 -4.765625 C 2.945312 -4.921875 2.71875 -5.09375 2.46875 -5.28125 C 2.21875 -5.46875 1.984375 -5.675781 1.765625 -5.90625 C 1.554688 -6.132812 1.375 -6.382812 1.21875 -6.65625 C 1.070312 -6.9375 1 -7.25 1 -7.59375 C 1 -7.757812 1.015625 -7.929688 1.046875 -8.109375 C 1.085938 -8.296875 1.144531 -8.476562 1.21875 -8.65625 C 1.300781 -8.832031 1.410156 -9 1.546875 -9.15625 C 1.679688 -9.3125 1.847656 -9.445312 2.046875 -9.5625 C 2.242188 -9.6875 2.476562 -9.78125 2.75 -9.84375 C 3.03125 -9.914062 3.347656 -9.953125 3.703125 -9.953125 C 4.160156 -9.953125 4.601562 -9.914062 5.03125 -9.84375 C 5.457031 -9.78125 5.828125 -9.703125 6.140625 -9.609375 L 5.984375 -7.484375 L 5.578125 -7.484375 L 5.578125 -7.671875 C 5.578125 -7.859375 5.554688 -8.050781 5.515625 -8.25 C 5.484375 -8.457031 5.40625 -8.648438 5.28125 -8.828125 C 5.15625 -9.003906 4.96875 -9.148438 4.71875 -9.265625 C 4.476562 -9.390625 4.15625 -9.453125 3.75 -9.453125 C 3.507812 -9.453125 3.289062 -9.414062 3.09375 -9.34375 C 2.894531 -9.28125 2.722656 -9.1875 2.578125 -9.0625 C 2.441406 -8.9375 2.332031 -8.785156 2.25 -8.609375 C 2.175781 -8.429688 2.140625 -8.234375 2.140625 -8.015625 C 2.140625 -7.722656 2.195312 -7.460938 2.3125 -7.234375 C 2.425781 -7.015625 2.570312 -6.816406 2.75 -6.640625 C 2.9375 -6.460938 3.140625 -6.296875 3.359375 -6.140625 C 3.578125 -5.992188 3.789062 -5.84375 4 -5.6875 C 4.300781 -5.46875 4.59375 -5.242188 4.875 -5.015625 C 5.164062 -4.796875 5.414062 -4.5625 5.625 -4.3125 C 5.84375 -4.070312 6.015625 -3.8125 6.140625 -3.53125 C 6.273438 -3.25 6.34375 -2.941406 6.34375 -2.609375 C 6.34375 -2.210938 6.253906 -1.84375 6.078125 -1.5 C 5.898438 -1.15625 5.660156 -0.859375 5.359375 -0.609375 C 5.054688 -0.359375 4.710938 -0.160156 4.328125 -0.015625 C 3.953125 0.128906 3.5625 0.203125 3.15625 0.203125 C 2.65625 0.203125 2.179688 0.160156 1.734375 0.078125 C 1.285156 0.00390625 0.894531 -0.0820312 0.5625 -0.1875 L 0.734375 -2.421875 L 1.171875 -2.421875 L 1.171875 -2.171875 C 1.171875 -1.972656 1.191406 -1.765625 1.234375 -1.546875 C 1.285156 -1.328125 1.378906 -1.125 1.515625 -0.9375 C 1.660156 -0.757812 1.863281 -0.609375 2.125 -0.484375 C 2.394531 -0.367188 2.742188 -0.3125 3.171875 -0.3125 Z M 3.171875 -0.3125 "/></g></g></g><g fill="#003070" fill-opacity="1"><g transform="translate(174.993562, 152.454046)"><g><path d="M 1.9375 -4.984375 C 1.9375 -4.378906 2.019531 -3.796875 2.1875 -3.234375 C 2.351562 -2.671875 2.59375 -2.171875 2.90625 -1.734375 C 3.226562 -1.304688 3.617188 -0.960938 4.078125 -0.703125 C 4.535156 -0.441406 5.054688 -0.3125 5.640625 -0.3125 C 6.203125 -0.3125 6.695312 -0.421875 7.125 -0.640625 C 7.550781 -0.867188 7.90625 -1.175781 8.1875 -1.5625 C 8.476562 -1.957031 8.691406 -2.414062 8.828125 -2.9375 C 8.972656 -3.46875 9.046875 -4.03125 9.046875 -4.625 C 9.046875 -5.300781 8.960938 -5.929688 8.796875 -6.515625 C 8.628906 -7.097656 8.390625 -7.609375 8.078125 -8.046875 C 7.765625 -8.484375 7.394531 -8.828125 6.96875 -9.078125 C 6.539062 -9.328125 6.070312 -9.453125 5.5625 -9.453125 C 5.300781 -9.453125 5.03125 -9.421875 4.75 -9.359375 C 4.46875 -9.296875 4.191406 -9.195312 3.921875 -9.0625 C 3.648438 -8.925781 3.394531 -8.742188 3.15625 -8.515625 C 2.914062 -8.296875 2.703125 -8.019531 2.515625 -7.6875 C 2.335938 -7.351562 2.195312 -6.960938 2.09375 -6.515625 C 1.988281 -6.078125 1.9375 -5.566406 1.9375 -4.984375 Z M 0.640625 -4.84375 C 0.640625 -5.570312 0.765625 -6.25 1.015625 -6.875 C 1.273438 -7.507812 1.632812 -8.050781 2.09375 -8.5 C 2.550781 -8.957031 3.097656 -9.3125 3.734375 -9.5625 C 4.378906 -9.820312 5.09375 -9.953125 5.875 -9.953125 C 6.351562 -9.953125 6.796875 -9.890625 7.203125 -9.765625 C 7.609375 -9.640625 7.976562 -9.460938 8.3125 -9.234375 C 8.644531 -9.003906 8.941406 -8.734375 9.203125 -8.421875 C 9.460938 -8.117188 9.675781 -7.785156 9.84375 -7.421875 C 10.019531 -7.066406 10.148438 -6.691406 10.234375 -6.296875 C 10.328125 -5.898438 10.375 -5.503906 10.375 -5.109375 C 10.375 -4.328125 10.25 -3.609375 10 -2.953125 C 9.75 -2.304688 9.40625 -1.75 8.96875 -1.28125 C 8.53125 -0.8125 8.023438 -0.445312 7.453125 -0.1875 C 6.878906 0.0703125 6.269531 0.203125 5.625 0.203125 C 5.0625 0.203125 4.550781 0.132812 4.09375 0 C 3.632812 -0.132812 3.21875 -0.316406 2.84375 -0.546875 C 2.476562 -0.785156 2.15625 -1.0625 1.875 -1.375 C 1.601562 -1.695312 1.375 -2.046875 1.1875 -2.421875 C 1.007812 -2.796875 0.875 -3.1875 0.78125 -3.59375 C 0.6875 -4.007812 0.640625 -4.425781 0.640625 -4.84375 Z M 0.640625 -4.84375 "/></g></g></g><g fill="#003070" fill-opacity="1"><g transform="translate(186.126852, 152.454046)"><g><path d="M 0.421875 -0.40625 C 0.546875 -0.414062 0.65625 -0.421875 0.75 -0.421875 C 0.84375 -0.429688 0.925781 -0.441406 1 -0.453125 C 1.082031 -0.460938 1.160156 -0.46875 1.234375 -0.46875 C 1.316406 -0.476562 1.398438 -0.484375 1.484375 -0.484375 C 1.503906 -1.109375 1.523438 -1.722656 1.546875 -2.328125 C 1.566406 -2.941406 1.585938 -3.523438 1.609375 -4.078125 C 1.628906 -4.640625 1.644531 -5.160156 1.65625 -5.640625 C 1.675781 -6.117188 1.691406 -6.539062 1.703125 -6.90625 C 1.722656 -7.28125 1.734375 -7.585938 1.734375 -7.828125 C 1.742188 -8.066406 1.75 -8.222656 1.75 -8.296875 C 1.75 -8.492188 1.734375 -8.65625 1.703125 -8.78125 C 1.679688 -8.914062 1.640625 -9.015625 1.578125 -9.078125 C 1.523438 -9.148438 1.453125 -9.203125 1.359375 -9.234375 C 1.273438 -9.265625 1.171875 -9.289062 1.046875 -9.3125 L 0.75 -9.359375 L 0.75 -9.765625 C 0.875 -9.742188 1.015625 -9.722656 1.171875 -9.703125 C 1.296875 -9.691406 1.4375 -9.679688 1.59375 -9.671875 C 1.757812 -9.660156 1.925781 -9.65625 2.09375 -9.65625 C 2.257812 -9.65625 2.410156 -9.664062 2.546875 -9.6875 C 2.691406 -9.707031 2.84375 -9.726562 3 -9.75 C 3.15625 -9.769531 3.316406 -9.785156 3.484375 -9.796875 C 3.660156 -9.816406 3.859375 -9.828125 4.078125 -9.828125 C 4.628906 -9.828125 5.101562 -9.757812 5.5 -9.625 C 5.90625 -9.488281 6.234375 -9.300781 6.484375 -9.0625 C 6.734375 -8.832031 6.914062 -8.566406 7.03125 -8.265625 C 7.15625 -7.972656 7.21875 -7.671875 7.21875 -7.359375 C 7.21875 -6.929688 7.140625 -6.5625 6.984375 -6.25 C 6.828125 -5.945312 6.632812 -5.6875 6.40625 -5.46875 C 6.175781 -5.257812 5.929688 -5.085938 5.671875 -4.953125 C 5.421875 -4.828125 5.195312 -4.734375 5 -4.671875 C 5.351562 -4.035156 5.710938 -3.429688 6.078125 -2.859375 C 6.453125 -2.296875 6.816406 -1.800781 7.171875 -1.375 C 7.535156 -0.945312 7.882812 -0.609375 8.21875 -0.359375 C 8.550781 -0.117188 8.863281 0 9.15625 0 L 9.140625 0.25 C 8.960938 0.269531 8.789062 0.28125 8.625 0.28125 C 8.238281 0.28125 7.867188 0.191406 7.515625 0.015625 C 7.160156 -0.160156 6.820312 -0.382812 6.5 -0.65625 C 6.1875 -0.9375 5.890625 -1.25 5.609375 -1.59375 C 5.335938 -1.945312 5.082031 -2.296875 4.84375 -2.640625 C 4.613281 -2.992188 4.410156 -3.332031 4.234375 -3.65625 C 4.054688 -3.976562 3.910156 -4.25 3.796875 -4.46875 C 3.671875 -4.457031 3.539062 -4.445312 3.40625 -4.4375 C 3.28125 -4.4375 3.140625 -4.4375 2.984375 -4.4375 L 2.703125 -4.4375 C 2.703125 -4.300781 2.695312 -4.140625 2.6875 -3.953125 C 2.675781 -3.765625 2.664062 -3.570312 2.65625 -3.375 C 2.65625 -3.1875 2.648438 -2.988281 2.640625 -2.78125 C 2.628906 -2.582031 2.625 -2.394531 2.625 -2.21875 C 2.625 -2.050781 2.617188 -1.898438 2.609375 -1.765625 C 2.609375 -1.628906 2.609375 -1.53125 2.609375 -1.46875 C 2.609375 -1.269531 2.617188 -1.109375 2.640625 -0.984375 C 2.671875 -0.859375 2.710938 -0.753906 2.765625 -0.671875 C 2.828125 -0.597656 2.898438 -0.546875 2.984375 -0.515625 C 3.078125 -0.484375 3.1875 -0.457031 3.3125 -0.4375 L 3.609375 -0.40625 L 3.609375 0 C 3.503906 -0.0078125 3.378906 -0.0234375 3.234375 -0.046875 C 3.109375 -0.0546875 2.957031 -0.0664062 2.78125 -0.078125 C 2.601562 -0.0859375 2.398438 -0.09375 2.171875 -0.09375 C 1.929688 -0.09375 1.664062 -0.0859375 1.375 -0.078125 C 1.09375 -0.0664062 0.773438 -0.0390625 0.421875 0 Z M 2.71875 -4.921875 L 3.109375 -4.921875 C 3.703125 -4.921875 4.1875 -4.988281 4.5625 -5.125 C 4.945312 -5.269531 5.25 -5.453125 5.46875 -5.671875 C 5.695312 -5.898438 5.859375 -6.160156 5.953125 -6.453125 C 6.046875 -6.742188 6.09375 -7.039062 6.09375 -7.34375 C 6.09375 -7.5 6.078125 -7.65625 6.046875 -7.8125 C 6.015625 -7.96875 5.960938 -8.117188 5.890625 -8.265625 C 5.816406 -8.421875 5.71875 -8.5625 5.59375 -8.6875 C 5.476562 -8.820312 5.332031 -8.9375 5.15625 -9.03125 C 4.988281 -9.132812 4.789062 -9.21875 4.5625 -9.28125 C 4.332031 -9.34375 4.066406 -9.375 3.765625 -9.375 C 3.597656 -9.375 3.445312 -9.367188 3.3125 -9.359375 C 3.175781 -9.347656 3.023438 -9.328125 2.859375 -9.296875 Z M 2.71875 -4.921875 "/></g></g></g><g fill="#003070" fill-opacity="1"><g transform="translate(194.97096, 152.454046)"><g><path d="M 5.671875 -4.609375 C 5.390625 -4.648438 5.101562 -4.679688 4.8125 -4.703125 C 4.519531 -4.734375 4.242188 -4.757812 3.984375 -4.78125 C 3.722656 -4.800781 3.484375 -4.816406 3.265625 -4.828125 C 3.046875 -4.835938 2.867188 -4.847656 2.734375 -4.859375 C 2.710938 -4.296875 2.691406 -3.78125 2.671875 -3.3125 C 2.660156 -3.125 2.648438 -2.929688 2.640625 -2.734375 C 2.640625 -2.535156 2.632812 -2.351562 2.625 -2.1875 C 2.625 -2.019531 2.625 -1.878906 2.625 -1.765625 C 2.625 -1.648438 2.625 -1.566406 2.625 -1.515625 C 2.625 -1.273438 2.65625 -1.082031 2.71875 -0.9375 C 2.78125 -0.789062 2.878906 -0.679688 3.015625 -0.609375 C 3.148438 -0.535156 3.3125 -0.484375 3.5 -0.453125 C 3.695312 -0.429688 3.929688 -0.421875 4.203125 -0.421875 C 4.578125 -0.421875 4.894531 -0.441406 5.15625 -0.484375 C 5.414062 -0.535156 5.640625 -0.625 5.828125 -0.75 C 6.015625 -0.882812 6.164062 -1.0625 6.28125 -1.28125 C 6.394531 -1.5 6.488281 -1.785156 6.5625 -2.140625 L 7.015625 -2.140625 C 6.992188 -2.015625 6.960938 -1.851562 6.921875 -1.65625 C 6.890625 -1.46875 6.84375 -1.265625 6.78125 -1.046875 C 6.726562 -0.835938 6.664062 -0.628906 6.59375 -0.421875 C 6.53125 -0.210938 6.453125 -0.0234375 6.359375 0.140625 C 5.867188 0.128906 5.394531 0.109375 4.9375 0.078125 C 4.488281 0.0546875 4.078125 0.03125 3.703125 0 C 3.335938 -0.0195312 3.015625 -0.0351562 2.734375 -0.046875 C 2.460938 -0.0664062 2.253906 -0.078125 2.109375 -0.078125 C 1.867188 -0.078125 1.613281 -0.0703125 1.34375 -0.0625 C 1.082031 -0.0625 0.773438 -0.0390625 0.421875 0 L 0.4375 -0.40625 C 0.5625 -0.414062 0.671875 -0.421875 0.765625 -0.421875 C 0.859375 -0.429688 0.941406 -0.441406 1.015625 -0.453125 C 1.097656 -0.460938 1.175781 -0.46875 1.25 -0.46875 C 1.332031 -0.476562 1.414062 -0.484375 1.5 -0.484375 C 1.539062 -1.859375 1.582031 -3.101562 1.625 -4.21875 C 1.632812 -4.6875 1.644531 -5.148438 1.65625 -5.609375 C 1.675781 -6.066406 1.691406 -6.484375 1.703125 -6.859375 C 1.722656 -7.234375 1.734375 -7.546875 1.734375 -7.796875 C 1.742188 -8.054688 1.75 -8.210938 1.75 -8.265625 C 1.75 -8.472656 1.734375 -8.640625 1.703125 -8.765625 C 1.679688 -8.898438 1.644531 -9.003906 1.59375 -9.078125 C 1.539062 -9.148438 1.46875 -9.203125 1.375 -9.234375 C 1.289062 -9.265625 1.179688 -9.289062 1.046875 -9.3125 L 0.765625 -9.359375 L 0.765625 -9.765625 C 0.898438 -9.742188 1.066406 -9.722656 1.265625 -9.703125 C 1.429688 -9.691406 1.644531 -9.679688 1.90625 -9.671875 C 2.175781 -9.660156 2.5 -9.65625 2.875 -9.65625 L 4.5625 -9.65625 C 4.75 -9.65625 4.929688 -9.65625 5.109375 -9.65625 C 5.296875 -9.664062 5.476562 -9.671875 5.65625 -9.671875 C 5.84375 -9.679688 6.03125 -9.691406 6.21875 -9.703125 C 6.414062 -9.722656 6.628906 -9.742188 6.859375 -9.765625 L 6.640625 -7.390625 L 6.21875 -7.390625 C 6.21875 -7.484375 6.21875 -7.554688 6.21875 -7.609375 C 6.21875 -7.660156 6.21875 -7.703125 6.21875 -7.734375 C 6.21875 -7.765625 6.21875 -7.785156 6.21875 -7.796875 C 6.21875 -7.804688 6.21875 -7.816406 6.21875 -7.828125 C 6.21875 -7.984375 6.195312 -8.128906 6.15625 -8.265625 C 6.125 -8.410156 6.050781 -8.535156 5.9375 -8.640625 C 5.820312 -8.753906 5.660156 -8.847656 5.453125 -8.921875 C 5.253906 -8.992188 4.988281 -9.039062 4.65625 -9.0625 L 2.9375 -9.1875 C 2.894531 -8.800781 2.863281 -8.410156 2.84375 -8.015625 C 2.820312 -7.617188 2.804688 -7.253906 2.796875 -6.921875 L 2.75 -5.34375 L 5.734375 -5.5 Z M 5.671875 -4.609375 "/></g></g></g><g fill="#003070" fill-opacity="1"><g transform="translate(202.565146, 152.454046)"><g><path d="M 3.171875 -0.3125 C 3.453125 -0.3125 3.71875 -0.351562 3.96875 -0.4375 C 4.21875 -0.53125 4.429688 -0.65625 4.609375 -0.8125 C 4.796875 -0.976562 4.941406 -1.179688 5.046875 -1.421875 C 5.148438 -1.660156 5.203125 -1.925781 5.203125 -2.21875 C 5.203125 -2.507812 5.132812 -2.769531 5 -3 C 4.863281 -3.238281 4.691406 -3.457031 4.484375 -3.65625 C 4.285156 -3.863281 4.066406 -4.054688 3.828125 -4.234375 C 3.585938 -4.410156 3.363281 -4.585938 3.15625 -4.765625 C 2.945312 -4.921875 2.71875 -5.09375 2.46875 -5.28125 C 2.21875 -5.46875 1.984375 -5.675781 1.765625 -5.90625 C 1.554688 -6.132812 1.375 -6.382812 1.21875 -6.65625 C 1.070312 -6.9375 1 -7.25 1 -7.59375 C 1 -7.757812 1.015625 -7.929688 1.046875 -8.109375 C 1.085938 -8.296875 1.144531 -8.476562 1.21875 -8.65625 C 1.300781 -8.832031 1.410156 -9 1.546875 -9.15625 C 1.679688 -9.3125 1.847656 -9.445312 2.046875 -9.5625 C 2.242188 -9.6875 2.476562 -9.78125 2.75 -9.84375 C 3.03125 -9.914062 3.347656 -9.953125 3.703125 -9.953125 C 4.160156 -9.953125 4.601562 -9.914062 5.03125 -9.84375 C 5.457031 -9.78125 5.828125 -9.703125 6.140625 -9.609375 L 5.984375 -7.484375 L 5.578125 -7.484375 L 5.578125 -7.671875 C 5.578125 -7.859375 5.554688 -8.050781 5.515625 -8.25 C 5.484375 -8.457031 5.40625 -8.648438 5.28125 -8.828125 C 5.15625 -9.003906 4.96875 -9.148438 4.71875 -9.265625 C 4.476562 -9.390625 4.15625 -9.453125 3.75 -9.453125 C 3.507812 -9.453125 3.289062 -9.414062 3.09375 -9.34375 C 2.894531 -9.28125 2.722656 -9.1875 2.578125 -9.0625 C 2.441406 -8.9375 2.332031 -8.785156 2.25 -8.609375 C 2.175781 -8.429688 2.140625 -8.234375 2.140625 -8.015625 C 2.140625 -7.722656 2.195312 -7.460938 2.3125 -7.234375 C 2.425781 -7.015625 2.570312 -6.816406 2.75 -6.640625 C 2.9375 -6.460938 3.140625 -6.296875 3.359375 -6.140625 C 3.578125 -5.992188 3.789062 -5.84375 4 -5.6875 C 4.300781 -5.46875 4.59375 -5.242188 4.875 -5.015625 C 5.164062 -4.796875 5.414062 -4.5625 5.625 -4.3125 C 5.84375 -4.070312 6.015625 -3.8125 6.140625 -3.53125 C 6.273438 -3.25 6.34375 -2.941406 6.34375 -2.609375 C 6.34375 -2.210938 6.253906 -1.84375 6.078125 -1.5 C 5.898438 -1.15625 5.660156 -0.859375 5.359375 -0.609375 C 5.054688 -0.359375 4.710938 -0.160156 4.328125 -0.015625 C 3.953125 0.128906 3.5625 0.203125 3.15625 0.203125 C 2.65625 0.203125 2.179688 0.160156 1.734375 0.078125 C 1.285156 0.00390625 0.894531 -0.0820312 0.5625 -0.1875 L 0.734375 -2.421875 L 1.171875 -2.421875 L 1.171875 -2.171875 C 1.171875 -1.972656 1.191406 -1.765625 1.234375 -1.546875 C 1.285156 -1.328125 1.378906 -1.125 1.515625 -0.9375 C 1.660156 -0.757812 1.863281 -0.609375 2.125 -0.484375 C 2.394531 -0.367188 2.742188 -0.3125 3.171875 -0.3125 Z M 3.171875 -0.3125 "/></g></g></g></svg>