<svg xmlns="http://www.w3.org/2000/svg" xmlns:xlink="http://www.w3.org/1999/xlink" width="350" zoomAndPan="magnify" viewBox="0 0 262.5 262.500001" height="350" preserveAspectRatio="xMidYMid meet" version="1.0"><defs><g/><clipPath id="ad80ce5da6"><path d="M 70.789062 78.734375 L 183.925781 78.734375 L 183.925781 82.082031 L 70.789062 82.082031 Z M 70.789062 78.734375 " clip-rule="nonzero"/></clipPath><clipPath id="84a663bcb5"><path d="M 69.894531 177.976562 L 183.035156 177.976562 L 183.035156 181.328125 L 69.894531 181.328125 Z M 69.894531 177.976562 " clip-rule="nonzero"/></clipPath><clipPath id="fc8621a6f2"><path d="M 68.421875 160.25 L 184.511719 160.25 L 184.511719 174.6875 L 68.421875 174.6875 Z M 68.421875 160.25 " clip-rule="nonzero"/></clipPath><clipPath id="036efd8fb0"><path d="M 75.640625 160.25 L 177.292969 160.25 C 181.28125 160.25 184.511719 163.484375 184.511719 167.46875 C 184.511719 171.457031 181.28125 174.6875 177.292969 174.6875 L 75.640625 174.6875 C 71.652344 174.6875 68.421875 171.457031 68.421875 167.46875 C 68.421875 163.484375 71.652344 160.25 75.640625 160.25 Z M 75.640625 160.25 " clip-rule="nonzero"/></clipPath><clipPath id="7d566a9b1e"><path d="M 68.421875 160.25 L 184.386719 160.25 L 184.386719 174.832031 L 68.421875 174.832031 Z M 68.421875 160.25 " clip-rule="nonzero"/></clipPath><clipPath id="c186b826d6"><path d="M 75.636719 160.25 L 177.289062 160.25 C 181.277344 160.25 184.507812 163.484375 184.507812 167.46875 C 184.507812 171.457031 181.277344 174.6875 177.289062 174.6875 L 75.636719 174.6875 C 71.652344 174.6875 68.421875 171.457031 68.421875 167.46875 C 68.421875 163.484375 71.652344 160.25 75.636719 160.25 Z M 75.636719 160.25 " clip-rule="nonzero"/></clipPath></defs><g fill="#003070" fill-opacity="1"><g transform="translate(38.488255, 168.051182)"><g><path d="M 50.390625 -75.859375 L 47.140625 -71.71875 C 45.804688 -72.46875 44.539062 -73.140625 43.34375 -73.734375 C 42.15625 -74.328125 40.945312 -74.8125 39.71875 -75.1875 C 38.488281 -75.5625 37.179688 -75.835938 35.796875 -76.015625 C 34.421875 -76.203125 32.84375 -76.296875 31.0625 -76.296875 C 27.40625 -76.296875 24.144531 -75.703125 21.28125 -74.515625 C 18.414062 -73.328125 15.976562 -71.726562 13.96875 -69.71875 C 11.957031 -67.707031 10.425781 -65.394531 9.375 -62.78125 C 8.332031 -60.175781 7.8125 -57.421875 7.8125 -54.515625 C 7.8125 -50.566406 9.019531 -46.953125 11.4375 -43.671875 C 13.863281 -40.398438 17.648438 -37.910156 22.796875 -36.203125 C 25.253906 -35.378906 27.335938 -34.707031 29.046875 -34.1875 C 30.753906 -33.664062 32.351562 -33.160156 33.84375 -32.671875 C 35.332031 -32.191406 36.84375 -31.671875 38.375 -31.109375 C 39.90625 -30.554688 41.675781 -29.796875 43.6875 -28.828125 C 46.21875 -27.628906 47.925781 -25.96875 48.8125 -23.84375 C 49.707031 -21.726562 50.15625 -19.585938 50.15625 -17.421875 C 50.15625 -14.742188 49.632812 -12.304688 48.59375 -10.109375 C 47.550781 -7.910156 46.171875 -6.066406 44.453125 -4.578125 C 42.742188 -3.085938 40.769531 -1.929688 38.53125 -1.109375 C 36.300781 -0.296875 34.035156 0.109375 31.734375 0.109375 C 29.046875 0.109375 26.472656 -0.351562 24.015625 -1.28125 C 21.554688 -2.21875 19.285156 -3.539062 17.203125 -5.25 C 15.117188 -6.957031 13.3125 -9.078125 11.78125 -11.609375 C 10.257812 -14.148438 9.085938 -16.984375 8.265625 -20.109375 C 8.046875 -21.078125 7.632812 -21.5625 7.03125 -21.5625 C 6.507812 -21.5625 6.25 -21.039062 6.25 -20 L 6.25 0 C 6.25 0.96875 6.585938 1.453125 7.265625 1.453125 C 7.710938 1.453125 8.195312 1.078125 8.71875 0.328125 L 12.734375 -5.46875 C 13.628906 -4.65625 14.726562 -3.800781 16.03125 -2.90625 C 17.332031 -2.007812 18.785156 -1.1875 20.390625 -0.4375 C 21.992188 0.300781 23.707031 0.910156 25.53125 1.390625 C 27.351562 1.878906 29.234375 2.125 31.171875 2.125 C 34.742188 2.125 38.054688 1.472656 41.109375 0.171875 C 44.160156 -1.128906 46.800781 -2.9375 49.03125 -5.25 C 51.269531 -7.5625 53.039062 -10.296875 54.34375 -13.453125 C 55.65625 -16.617188 56.3125 -20.03125 56.3125 -23.6875 C 56.3125 -28.675781 55.132812 -32.898438 52.78125 -36.359375 C 50.4375 -39.828125 46.734375 -42.304688 41.671875 -43.796875 C 39.953125 -44.316406 38.347656 -44.757812 36.859375 -45.125 C 35.367188 -45.5 33.84375 -45.910156 32.28125 -46.359375 C 30.71875 -46.804688 29.078125 -47.304688 27.359375 -47.859375 C 25.648438 -48.421875 23.753906 -49.113281 21.671875 -49.9375 C 19.359375 -50.832031 17.609375 -52.207031 16.421875 -54.0625 C 15.234375 -55.925781 14.640625 -58.085938 14.640625 -60.546875 C 14.640625 -62.859375 15.125 -64.890625 16.09375 -66.640625 C 17.0625 -68.390625 18.304688 -69.820312 19.828125 -70.9375 C 21.359375 -72.050781 23.109375 -72.890625 25.078125 -73.453125 C 27.054688 -74.015625 29.050781 -74.296875 31.0625 -74.296875 C 34.113281 -74.296875 36.789062 -73.773438 39.09375 -72.734375 C 41.40625 -71.691406 43.34375 -70.3125 44.90625 -68.59375 C 46.46875 -66.882812 47.710938 -64.910156 48.640625 -62.671875 C 49.578125 -60.441406 50.195312 -58.132812 50.5 -55.75 C 50.570312 -55 50.90625 -54.625 51.5 -54.625 C 52.019531 -54.625 52.28125 -55 52.28125 -55.75 L 52.28125 -75.640625 C 52.28125 -76.378906 52.054688 -76.75 51.609375 -76.75 C 51.242188 -76.75 50.835938 -76.453125 50.390625 -75.859375 Z M 50.390625 -75.859375 "/></g></g></g><g fill="#003070" fill-opacity="1"><g transform="translate(93.231496, 168.051182)"><g><path d="M 62 -20.671875 C 61.40625 -17.835938 60.769531 -15.265625 60.09375 -12.953125 C 59.425781 -10.648438 58.535156 -8.660156 57.421875 -6.984375 C 56.304688 -5.304688 54.890625 -4.019531 53.171875 -3.125 C 51.460938 -2.226562 49.304688 -1.78125 46.703125 -1.78125 L 23.796875 -1.78125 L 23.796875 -73.28125 L 34.40625 -73.28125 L 34.40625 -75.078125 L 3.34375 -75.078125 L 3.34375 -73.28125 L 12.953125 -73.28125 L 12.953125 -1.78125 L 3.34375 -1.78125 L 3.34375 0 L 60.890625 0 C 63.046875 0 64.125 -1.191406 64.125 -3.578125 L 64.125 -20.328125 C 64.125 -22.117188 63.828125 -23.015625 63.234375 -23.015625 C 62.710938 -23.015625 62.300781 -22.234375 62 -20.671875 Z M 62 -20.671875 "/></g></g></g><g fill="#003070" fill-opacity="1"><g transform="translate(154.342853, 168.051182)"><g><path d="M 40.328125 -1.78125 L 40.328125 -73.28125 L 49.9375 -73.28125 C 53.363281 -73.28125 56.359375 -71.53125 58.921875 -68.03125 C 61.492188 -64.53125 63.191406 -59.765625 64.015625 -53.734375 L 66.359375 -53.734375 L 64.6875 -73.171875 C 64.613281 -74.441406 63.867188 -75.078125 62.453125 -75.078125 L 7.375 -75.078125 C 5.957031 -75.078125 5.210938 -74.441406 5.140625 -73.171875 L 3.46875 -53.734375 L 5.8125 -53.734375 C 6.625 -59.765625 8.316406 -64.53125 10.890625 -68.03125 C 13.460938 -71.53125 16.460938 -73.28125 19.890625 -73.28125 L 29.5 -73.28125 L 29.5 -1.78125 L 19.890625 -1.78125 L 19.890625 0 L 49.9375 0 L 49.9375 -1.78125 Z M 40.328125 -1.78125 "/></g></g></g><g clip-path="url(#ad80ce5da6)"><path fill="#003070" d="M 70.789062 78.734375 L 183.925781 78.734375 L 183.925781 82.082031 L 70.789062 82.082031 Z M 70.789062 78.734375 " fill-opacity="1" fill-rule="nonzero"/></g><g clip-path="url(#84a663bcb5)"><path fill="#003070" d="M 69.894531 177.976562 L 183.035156 177.976562 L 183.035156 181.328125 L 69.894531 181.328125 Z M 69.894531 177.976562 " fill-opacity="1" fill-rule="nonzero"/></g><g clip-path="url(#fc8621a6f2)"><g clip-path="url(#036efd8fb0)"><path fill="#ffffff" d="M 68.421875 160.25 L 184.511719 160.25 L 184.511719 174.6875 L 68.421875 174.6875 Z M 68.421875 160.25 " fill-opacity="1" fill-rule="nonzero"/></g></g><g clip-path="url(#7d566a9b1e)"><g clip-path="url(#c186b826d6)"><path stroke-linecap="butt" transform="matrix(0.339082, 0, 0, 0.339082, 68.420002, 160.250823)" fill="none" stroke-linejoin="miter" d="M 21.28308 -0.00242816 L 321.069689 -0.00242816 C 332.831673 -0.00242816 342.358766 9.536184 342.358766 21.286649 C 342.358766 33.048634 332.831673 42.575726 321.069689 42.575726 L 21.28308 42.575726 C 9.532616 42.575726 0.00552335 33.048634 0.00552335 21.286649 C 0.00552335 9.536184 9.532616 -0.00242816 21.28308 -0.00242816 Z M 21.28308 -0.00242816 " stroke="#000000" stroke-width="4.415294" stroke-opacity="1" stroke-miterlimit="4"/></g></g><g fill="#003070" fill-opacity="1"><g transform="translate(100.553622, 170.609319)"><g><path d="M 2.96875 -5.734375 L 1.921875 -2.71875 L 3.921875 -2.71875 L 3.109375 -5.734375 Z M 3.390625 -7.078125 L 5.046875 -1.703125 C 5.171875 -1.304688 5.304688 -0.984375 5.453125 -0.734375 C 5.597656 -0.492188 5.773438 -0.359375 5.984375 -0.328125 L 6.265625 -0.28125 L 6.25 0 C 6.082031 -0.0195312 5.898438 -0.0351562 5.703125 -0.046875 C 5.515625 -0.0546875 5.316406 -0.0625 5.109375 -0.0625 C 4.890625 -0.0625 4.675781 -0.0546875 4.46875 -0.046875 C 4.269531 -0.0351562 4.078125 -0.0195312 3.890625 0 L 3.90625 -0.28125 L 4.59375 -0.34375 L 4.03125 -2.375 L 3.84375 -2.375 C 3.75 -2.375 3.628906 -2.375 3.484375 -2.375 C 3.335938 -2.375 3.175781 -2.367188 3 -2.359375 C 2.820312 -2.359375 2.625 -2.347656 2.40625 -2.328125 C 2.195312 -2.316406 1.984375 -2.300781 1.765625 -2.28125 L 1.5 -1.53125 C 1.4375 -1.375 1.382812 -1.222656 1.34375 -1.078125 C 1.300781 -0.941406 1.28125 -0.820312 1.28125 -0.71875 C 1.28125 -0.601562 1.304688 -0.515625 1.359375 -0.453125 C 1.410156 -0.390625 1.503906 -0.347656 1.640625 -0.328125 L 1.9375 -0.28125 L 1.921875 0 C 1.742188 -0.0195312 1.570312 -0.0351562 1.40625 -0.046875 C 1.25 -0.0546875 1.082031 -0.0625 0.90625 -0.0625 C 0.726562 -0.0625 0.546875 -0.0546875 0.359375 -0.046875 C 0.171875 -0.0351562 -0.0351562 -0.0195312 -0.265625 0 L -0.265625 -0.28125 C -0.171875 -0.289062 -0.078125 -0.300781 0.015625 -0.3125 C 0.0859375 -0.3125 0.160156 -0.316406 0.234375 -0.328125 C 0.304688 -0.335938 0.367188 -0.34375 0.421875 -0.34375 C 0.554688 -0.625 0.695312 -0.929688 0.84375 -1.265625 C 0.988281 -1.597656 1.132812 -1.945312 1.28125 -2.3125 C 1.4375 -2.675781 1.585938 -3.054688 1.734375 -3.453125 C 1.890625 -3.847656 2.039062 -4.242188 2.1875 -4.640625 C 2.332031 -5.035156 2.472656 -5.425781 2.609375 -5.8125 C 2.753906 -6.207031 2.882812 -6.59375 3 -6.96875 Z M 3.390625 -7.078125 "/></g></g></g><g fill="#003070" fill-opacity="1"><g transform="translate(106.865193, 170.609319)"><g><path d="M 2.21875 -0.21875 C 2.414062 -0.21875 2.597656 -0.25 2.765625 -0.3125 C 2.941406 -0.375 3.09375 -0.460938 3.21875 -0.578125 C 3.351562 -0.691406 3.457031 -0.828125 3.53125 -0.984375 C 3.601562 -1.148438 3.640625 -1.34375 3.640625 -1.5625 C 3.640625 -1.757812 3.59375 -1.9375 3.5 -2.09375 C 3.40625 -2.257812 3.285156 -2.410156 3.140625 -2.546875 C 2.992188 -2.691406 2.835938 -2.828125 2.671875 -2.953125 C 2.503906 -3.078125 2.347656 -3.203125 2.203125 -3.328125 C 2.054688 -3.441406 1.894531 -3.5625 1.71875 -3.6875 C 1.550781 -3.820312 1.390625 -3.96875 1.234375 -4.125 C 1.085938 -4.289062 0.960938 -4.46875 0.859375 -4.65625 C 0.753906 -4.851562 0.703125 -5.066406 0.703125 -5.296875 C 0.703125 -5.421875 0.710938 -5.546875 0.734375 -5.671875 C 0.753906 -5.804688 0.789062 -5.929688 0.84375 -6.046875 C 0.90625 -6.171875 0.984375 -6.285156 1.078125 -6.390625 C 1.171875 -6.503906 1.285156 -6.601562 1.421875 -6.6875 C 1.566406 -6.769531 1.734375 -6.835938 1.921875 -6.890625 C 2.117188 -6.941406 2.34375 -6.96875 2.59375 -6.96875 C 2.914062 -6.96875 3.222656 -6.941406 3.515625 -6.890625 C 3.816406 -6.835938 4.070312 -6.78125 4.28125 -6.71875 L 4.171875 -5.234375 L 3.90625 -5.234375 L 3.90625 -5.359375 C 3.90625 -5.484375 3.890625 -5.617188 3.859375 -5.765625 C 3.835938 -5.910156 3.78125 -6.046875 3.6875 -6.171875 C 3.601562 -6.296875 3.472656 -6.398438 3.296875 -6.484375 C 3.128906 -6.566406 2.90625 -6.609375 2.625 -6.609375 C 2.457031 -6.609375 2.300781 -6.582031 2.15625 -6.53125 C 2.019531 -6.476562 1.898438 -6.410156 1.796875 -6.328125 C 1.703125 -6.242188 1.628906 -6.140625 1.578125 -6.015625 C 1.523438 -5.890625 1.5 -5.75 1.5 -5.59375 C 1.5 -5.394531 1.535156 -5.21875 1.609375 -5.0625 C 1.691406 -4.90625 1.796875 -4.765625 1.921875 -4.640625 C 2.046875 -4.515625 2.1875 -4.398438 2.34375 -4.296875 C 2.5 -4.191406 2.648438 -4.085938 2.796875 -3.984375 C 3.003906 -3.828125 3.207031 -3.671875 3.40625 -3.515625 C 3.601562 -3.359375 3.773438 -3.191406 3.921875 -3.015625 C 4.078125 -2.847656 4.203125 -2.664062 4.296875 -2.46875 C 4.390625 -2.269531 4.4375 -2.050781 4.4375 -1.8125 C 4.4375 -1.539062 4.375 -1.285156 4.25 -1.046875 C 4.125 -0.804688 3.957031 -0.597656 3.75 -0.421875 C 3.539062 -0.242188 3.300781 -0.101562 3.03125 0 C 2.757812 0.09375 2.484375 0.140625 2.203125 0.140625 C 1.859375 0.140625 1.523438 0.109375 1.203125 0.046875 C 0.890625 -0.00390625 0.617188 -0.0625 0.390625 -0.125 L 0.515625 -1.6875 L 0.8125 -1.6875 L 0.8125 -1.515625 C 0.8125 -1.378906 0.828125 -1.234375 0.859375 -1.078125 C 0.890625 -0.929688 0.957031 -0.789062 1.0625 -0.65625 C 1.164062 -0.53125 1.304688 -0.425781 1.484375 -0.34375 C 1.671875 -0.257812 1.914062 -0.21875 2.21875 -0.21875 Z M 2.21875 -0.21875 "/></g></g></g><g fill="#003070" fill-opacity="1"><g transform="translate(111.910996, 170.609319)"><g><path d="M 3.953125 -3.21875 C 3.765625 -3.25 3.566406 -3.273438 3.359375 -3.296875 C 3.160156 -3.316406 2.96875 -3.332031 2.78125 -3.34375 C 2.601562 -3.351562 2.4375 -3.363281 2.28125 -3.375 C 2.132812 -3.382812 2.007812 -3.390625 1.90625 -3.390625 C 1.894531 -3.003906 1.882812 -2.648438 1.875 -2.328125 C 1.863281 -2.179688 1.851562 -2.039062 1.84375 -1.90625 C 1.84375 -1.769531 1.835938 -1.644531 1.828125 -1.53125 C 1.828125 -1.414062 1.828125 -1.316406 1.828125 -1.234375 C 1.828125 -1.148438 1.828125 -1.09375 1.828125 -1.0625 C 1.828125 -0.894531 1.847656 -0.757812 1.890625 -0.65625 C 1.941406 -0.550781 2.015625 -0.472656 2.109375 -0.421875 C 2.203125 -0.367188 2.316406 -0.332031 2.453125 -0.3125 C 2.585938 -0.300781 2.75 -0.296875 2.9375 -0.296875 C 3.195312 -0.296875 3.414062 -0.3125 3.59375 -0.34375 C 3.78125 -0.375 3.9375 -0.429688 4.0625 -0.515625 C 4.195312 -0.609375 4.304688 -0.734375 4.390625 -0.890625 C 4.472656 -1.046875 4.539062 -1.25 4.59375 -1.5 L 4.90625 -1.5 C 4.882812 -1.40625 4.859375 -1.289062 4.828125 -1.15625 C 4.804688 -1.03125 4.773438 -0.890625 4.734375 -0.734375 C 4.703125 -0.585938 4.660156 -0.441406 4.609375 -0.296875 C 4.554688 -0.148438 4.503906 -0.0195312 4.453125 0.09375 C 4.097656 0.0820312 3.765625 0.0664062 3.453125 0.046875 C 3.140625 0.0351562 2.851562 0.0195312 2.59375 0 C 2.332031 -0.0078125 2.101562 -0.0195312 1.90625 -0.03125 C 1.71875 -0.0507812 1.578125 -0.0625 1.484375 -0.0625 C 1.304688 -0.0625 1.125 -0.0546875 0.9375 -0.046875 C 0.757812 -0.046875 0.546875 -0.03125 0.296875 0 L 0.3125 -0.28125 C 0.394531 -0.289062 0.46875 -0.296875 0.53125 -0.296875 C 0.601562 -0.304688 0.664062 -0.3125 0.71875 -0.3125 C 0.769531 -0.320312 0.820312 -0.328125 0.875 -0.328125 C 0.925781 -0.335938 0.984375 -0.34375 1.046875 -0.34375 C 1.078125 -1.300781 1.109375 -2.164062 1.140625 -2.9375 C 1.140625 -3.269531 1.144531 -3.597656 1.15625 -3.921875 C 1.175781 -4.242188 1.191406 -4.535156 1.203125 -4.796875 C 1.210938 -5.054688 1.21875 -5.273438 1.21875 -5.453125 C 1.21875 -5.628906 1.21875 -5.738281 1.21875 -5.78125 C 1.21875 -5.925781 1.207031 -6.039062 1.1875 -6.125 C 1.175781 -6.21875 1.148438 -6.289062 1.109375 -6.34375 C 1.078125 -6.394531 1.03125 -6.429688 0.96875 -6.453125 C 0.90625 -6.472656 0.828125 -6.492188 0.734375 -6.515625 L 0.53125 -6.546875 L 0.53125 -6.828125 C 0.625 -6.804688 0.742188 -6.789062 0.890625 -6.78125 C 1.003906 -6.769531 1.148438 -6.757812 1.328125 -6.75 C 1.515625 -6.75 1.742188 -6.75 2.015625 -6.75 L 3.1875 -6.75 C 3.320312 -6.75 3.453125 -6.75 3.578125 -6.75 C 3.703125 -6.75 3.828125 -6.75 3.953125 -6.75 C 4.078125 -6.757812 4.207031 -6.769531 4.34375 -6.78125 C 4.488281 -6.789062 4.640625 -6.804688 4.796875 -6.828125 L 4.640625 -5.171875 L 4.34375 -5.171875 C 4.34375 -5.234375 4.34375 -5.28125 4.34375 -5.3125 C 4.34375 -5.351562 4.34375 -5.382812 4.34375 -5.40625 C 4.34375 -5.425781 4.34375 -5.441406 4.34375 -5.453125 C 4.34375 -5.460938 4.34375 -5.46875 4.34375 -5.46875 C 4.34375 -5.582031 4.328125 -5.6875 4.296875 -5.78125 C 4.273438 -5.882812 4.222656 -5.972656 4.140625 -6.046875 C 4.066406 -6.117188 3.957031 -6.179688 3.8125 -6.234375 C 3.664062 -6.285156 3.476562 -6.320312 3.25 -6.34375 L 2.046875 -6.421875 C 2.023438 -6.148438 2.003906 -5.875 1.984375 -5.59375 C 1.972656 -5.320312 1.960938 -5.070312 1.953125 -4.84375 L 1.921875 -3.734375 L 4.015625 -3.84375 Z M 3.953125 -3.21875 "/></g></g></g><g fill="#003070" fill-opacity="1"><g transform="translate(117.216821, 170.609319)"><g><path d="M 2.21875 -0.21875 C 2.414062 -0.21875 2.597656 -0.25 2.765625 -0.3125 C 2.941406 -0.375 3.09375 -0.460938 3.21875 -0.578125 C 3.351562 -0.691406 3.457031 -0.828125 3.53125 -0.984375 C 3.601562 -1.148438 3.640625 -1.34375 3.640625 -1.5625 C 3.640625 -1.757812 3.59375 -1.9375 3.5 -2.09375 C 3.40625 -2.257812 3.285156 -2.410156 3.140625 -2.546875 C 2.992188 -2.691406 2.835938 -2.828125 2.671875 -2.953125 C 2.503906 -3.078125 2.347656 -3.203125 2.203125 -3.328125 C 2.054688 -3.441406 1.894531 -3.5625 1.71875 -3.6875 C 1.550781 -3.820312 1.390625 -3.96875 1.234375 -4.125 C 1.085938 -4.289062 0.960938 -4.46875 0.859375 -4.65625 C 0.753906 -4.851562 0.703125 -5.066406 0.703125 -5.296875 C 0.703125 -5.421875 0.710938 -5.546875 0.734375 -5.671875 C 0.753906 -5.804688 0.789062 -5.929688 0.84375 -6.046875 C 0.90625 -6.171875 0.984375 -6.285156 1.078125 -6.390625 C 1.171875 -6.503906 1.285156 -6.601562 1.421875 -6.6875 C 1.566406 -6.769531 1.734375 -6.835938 1.921875 -6.890625 C 2.117188 -6.941406 2.34375 -6.96875 2.59375 -6.96875 C 2.914062 -6.96875 3.222656 -6.941406 3.515625 -6.890625 C 3.816406 -6.835938 4.070312 -6.78125 4.28125 -6.71875 L 4.171875 -5.234375 L 3.90625 -5.234375 L 3.90625 -5.359375 C 3.90625 -5.484375 3.890625 -5.617188 3.859375 -5.765625 C 3.835938 -5.910156 3.78125 -6.046875 3.6875 -6.171875 C 3.601562 -6.296875 3.472656 -6.398438 3.296875 -6.484375 C 3.128906 -6.566406 2.90625 -6.609375 2.625 -6.609375 C 2.457031 -6.609375 2.300781 -6.582031 2.15625 -6.53125 C 2.019531 -6.476562 1.898438 -6.410156 1.796875 -6.328125 C 1.703125 -6.242188 1.628906 -6.140625 1.578125 -6.015625 C 1.523438 -5.890625 1.5 -5.75 1.5 -5.59375 C 1.5 -5.394531 1.535156 -5.21875 1.609375 -5.0625 C 1.691406 -4.90625 1.796875 -4.765625 1.921875 -4.640625 C 2.046875 -4.515625 2.1875 -4.398438 2.34375 -4.296875 C 2.5 -4.191406 2.648438 -4.085938 2.796875 -3.984375 C 3.003906 -3.828125 3.207031 -3.671875 3.40625 -3.515625 C 3.601562 -3.359375 3.773438 -3.191406 3.921875 -3.015625 C 4.078125 -2.847656 4.203125 -2.664062 4.296875 -2.46875 C 4.390625 -2.269531 4.4375 -2.050781 4.4375 -1.8125 C 4.4375 -1.539062 4.375 -1.285156 4.25 -1.046875 C 4.125 -0.804688 3.957031 -0.597656 3.75 -0.421875 C 3.539062 -0.242188 3.300781 -0.101562 3.03125 0 C 2.757812 0.09375 2.484375 0.140625 2.203125 0.140625 C 1.859375 0.140625 1.523438 0.109375 1.203125 0.046875 C 0.890625 -0.00390625 0.617188 -0.0625 0.390625 -0.125 L 0.515625 -1.6875 L 0.8125 -1.6875 L 0.8125 -1.515625 C 0.8125 -1.378906 0.828125 -1.234375 0.859375 -1.078125 C 0.890625 -0.929688 0.957031 -0.789062 1.0625 -0.65625 C 1.164062 -0.53125 1.304688 -0.425781 1.484375 -0.34375 C 1.671875 -0.257812 1.914062 -0.21875 2.21875 -0.21875 Z M 2.21875 -0.21875 "/></g></g></g><g fill="#003070" fill-opacity="1"><g transform="translate(122.262623, 170.609319)"><g><path d="M 1.359375 -3.484375 C 1.359375 -3.054688 1.414062 -2.644531 1.53125 -2.25 C 1.644531 -1.863281 1.8125 -1.519531 2.03125 -1.21875 C 2.25 -0.914062 2.519531 -0.671875 2.84375 -0.484375 C 3.164062 -0.304688 3.53125 -0.21875 3.9375 -0.21875 C 4.332031 -0.21875 4.675781 -0.296875 4.96875 -0.453125 C 5.269531 -0.609375 5.519531 -0.820312 5.71875 -1.09375 C 5.925781 -1.375 6.078125 -1.695312 6.171875 -2.0625 C 6.273438 -2.425781 6.328125 -2.816406 6.328125 -3.234375 C 6.328125 -3.703125 6.265625 -4.140625 6.140625 -4.546875 C 6.023438 -4.960938 5.859375 -5.320312 5.640625 -5.625 C 5.429688 -5.925781 5.175781 -6.164062 4.875 -6.34375 C 4.570312 -6.519531 4.242188 -6.609375 3.890625 -6.609375 C 3.703125 -6.609375 3.507812 -6.585938 3.3125 -6.546875 C 3.113281 -6.503906 2.921875 -6.429688 2.734375 -6.328125 C 2.546875 -6.234375 2.367188 -6.109375 2.203125 -5.953125 C 2.035156 -5.796875 1.890625 -5.601562 1.765625 -5.375 C 1.640625 -5.144531 1.539062 -4.875 1.46875 -4.5625 C 1.394531 -4.25 1.359375 -3.890625 1.359375 -3.484375 Z M 0.453125 -3.390625 C 0.453125 -3.898438 0.539062 -4.375 0.71875 -4.8125 C 0.894531 -5.25 1.140625 -5.625 1.453125 -5.9375 C 1.773438 -6.257812 2.160156 -6.507812 2.609375 -6.6875 C 3.066406 -6.875 3.566406 -6.96875 4.109375 -6.96875 C 4.441406 -6.96875 4.75 -6.921875 5.03125 -6.828125 C 5.320312 -6.734375 5.582031 -6.609375 5.8125 -6.453125 C 6.039062 -6.296875 6.242188 -6.109375 6.421875 -5.890625 C 6.609375 -5.671875 6.757812 -5.4375 6.875 -5.1875 C 7 -4.9375 7.09375 -4.671875 7.15625 -4.390625 C 7.21875 -4.117188 7.25 -3.84375 7.25 -3.5625 C 7.25 -3.019531 7.160156 -2.519531 6.984375 -2.0625 C 6.804688 -1.613281 6.566406 -1.222656 6.265625 -0.890625 C 5.960938 -0.566406 5.609375 -0.3125 5.203125 -0.125 C 4.804688 0.0507812 4.378906 0.140625 3.921875 0.140625 C 3.535156 0.140625 3.179688 0.09375 2.859375 0 C 2.535156 -0.09375 2.242188 -0.222656 1.984375 -0.390625 C 1.734375 -0.554688 1.507812 -0.75 1.3125 -0.96875 C 1.125 -1.195312 0.960938 -1.441406 0.828125 -1.703125 C 0.703125 -1.960938 0.609375 -2.234375 0.546875 -2.515625 C 0.484375 -2.804688 0.453125 -3.097656 0.453125 -3.390625 Z M 0.453125 -3.390625 "/></g></g></g><g fill="#003070" fill-opacity="1"><g transform="translate(130.041111, 170.609319)"><g><path d="M 0.296875 -0.28125 C 0.378906 -0.289062 0.453125 -0.296875 0.515625 -0.296875 C 0.585938 -0.304688 0.648438 -0.3125 0.703125 -0.3125 C 0.765625 -0.320312 0.820312 -0.328125 0.875 -0.328125 C 0.925781 -0.335938 0.976562 -0.34375 1.03125 -0.34375 C 1.050781 -0.78125 1.066406 -1.207031 1.078125 -1.625 C 1.097656 -2.050781 1.113281 -2.457031 1.125 -2.84375 C 1.132812 -3.238281 1.144531 -3.601562 1.15625 -3.9375 C 1.175781 -4.28125 1.191406 -4.578125 1.203125 -4.828125 C 1.210938 -5.085938 1.21875 -5.300781 1.21875 -5.46875 C 1.21875 -5.632812 1.21875 -5.742188 1.21875 -5.796875 C 1.21875 -5.941406 1.207031 -6.054688 1.1875 -6.140625 C 1.175781 -6.234375 1.148438 -6.300781 1.109375 -6.34375 C 1.066406 -6.394531 1.015625 -6.429688 0.953125 -6.453125 C 0.890625 -6.472656 0.816406 -6.492188 0.734375 -6.515625 L 0.515625 -6.546875 L 0.515625 -6.828125 C 0.609375 -6.804688 0.707031 -6.789062 0.8125 -6.78125 C 0.90625 -6.769531 1.003906 -6.757812 1.109375 -6.75 C 1.222656 -6.75 1.34375 -6.75 1.46875 -6.75 C 1.582031 -6.75 1.6875 -6.753906 1.78125 -6.765625 C 1.882812 -6.785156 1.988281 -6.800781 2.09375 -6.8125 C 2.207031 -6.820312 2.320312 -6.832031 2.4375 -6.84375 C 2.5625 -6.863281 2.695312 -6.875 2.84375 -6.875 C 3.238281 -6.875 3.570312 -6.820312 3.84375 -6.71875 C 4.125 -6.625 4.351562 -6.492188 4.53125 -6.328125 C 4.707031 -6.171875 4.835938 -5.988281 4.921875 -5.78125 C 5.003906 -5.570312 5.046875 -5.359375 5.046875 -5.140625 C 5.046875 -4.835938 4.988281 -4.578125 4.875 -4.359375 C 4.769531 -4.148438 4.632812 -3.96875 4.46875 -3.8125 C 4.3125 -3.664062 4.144531 -3.546875 3.96875 -3.453125 C 3.789062 -3.367188 3.632812 -3.304688 3.5 -3.265625 C 3.75 -2.816406 4 -2.394531 4.25 -2 C 4.507812 -1.601562 4.765625 -1.253906 5.015625 -0.953125 C 5.265625 -0.660156 5.503906 -0.425781 5.734375 -0.25 C 5.972656 -0.0820312 6.195312 0 6.40625 0 L 6.390625 0.171875 C 6.265625 0.191406 6.144531 0.203125 6.03125 0.203125 C 5.757812 0.191406 5.5 0.125 5.25 0 C 5.007812 -0.113281 4.773438 -0.265625 4.546875 -0.453125 C 4.328125 -0.648438 4.117188 -0.867188 3.921875 -1.109375 C 3.734375 -1.359375 3.554688 -1.601562 3.390625 -1.84375 C 3.234375 -2.09375 3.09375 -2.328125 2.96875 -2.546875 C 2.84375 -2.773438 2.738281 -2.96875 2.65625 -3.125 C 2.570312 -3.113281 2.484375 -3.109375 2.390625 -3.109375 C 2.296875 -3.109375 2.195312 -3.109375 2.09375 -3.109375 L 1.890625 -3.109375 C 1.890625 -3.003906 1.882812 -2.890625 1.875 -2.765625 C 1.875 -2.640625 1.867188 -2.503906 1.859375 -2.359375 C 1.859375 -2.222656 1.851562 -2.082031 1.84375 -1.9375 C 1.84375 -1.800781 1.835938 -1.671875 1.828125 -1.546875 C 1.828125 -1.429688 1.820312 -1.328125 1.8125 -1.234375 C 1.8125 -1.140625 1.8125 -1.070312 1.8125 -1.03125 C 1.8125 -0.882812 1.820312 -0.765625 1.84375 -0.671875 C 1.863281 -0.585938 1.894531 -0.519531 1.9375 -0.46875 C 1.976562 -0.414062 2.03125 -0.378906 2.09375 -0.359375 C 2.15625 -0.335938 2.226562 -0.320312 2.3125 -0.3125 L 2.515625 -0.28125 L 2.515625 0 C 2.441406 -0.0078125 2.359375 -0.0195312 2.265625 -0.03125 C 2.179688 -0.0390625 2.078125 -0.046875 1.953125 -0.046875 C 1.828125 -0.0546875 1.679688 -0.0625 1.515625 -0.0625 C 1.347656 -0.0625 1.164062 -0.0546875 0.96875 -0.046875 C 0.769531 -0.046875 0.546875 -0.03125 0.296875 0 Z M 1.90625 -3.4375 L 2.171875 -3.4375 C 2.585938 -3.4375 2.925781 -3.484375 3.1875 -3.578125 C 3.457031 -3.679688 3.671875 -3.8125 3.828125 -3.96875 C 3.984375 -4.125 4.09375 -4.300781 4.15625 -4.5 C 4.226562 -4.707031 4.265625 -4.921875 4.265625 -5.140625 C 4.265625 -5.242188 4.25 -5.347656 4.21875 -5.453125 C 4.195312 -5.566406 4.160156 -5.675781 4.109375 -5.78125 C 4.066406 -5.882812 4.003906 -5.984375 3.921875 -6.078125 C 3.835938 -6.171875 3.734375 -6.25 3.609375 -6.3125 C 3.492188 -6.382812 3.351562 -6.441406 3.1875 -6.484375 C 3.03125 -6.523438 2.847656 -6.546875 2.640625 -6.546875 C 2.515625 -6.546875 2.40625 -6.539062 2.3125 -6.53125 C 2.21875 -6.53125 2.113281 -6.519531 2 -6.5 Z M 1.90625 -3.4375 "/></g></g></g><g fill="#003070" fill-opacity="1"><g transform="translate(136.220217, 170.609319)"><g><path d="M 3.953125 -3.21875 C 3.765625 -3.25 3.566406 -3.273438 3.359375 -3.296875 C 3.160156 -3.316406 2.96875 -3.332031 2.78125 -3.34375 C 2.601562 -3.351562 2.4375 -3.363281 2.28125 -3.375 C 2.132812 -3.382812 2.007812 -3.390625 1.90625 -3.390625 C 1.894531 -3.003906 1.882812 -2.648438 1.875 -2.328125 C 1.863281 -2.179688 1.851562 -2.039062 1.84375 -1.90625 C 1.84375 -1.769531 1.835938 -1.644531 1.828125 -1.53125 C 1.828125 -1.414062 1.828125 -1.316406 1.828125 -1.234375 C 1.828125 -1.148438 1.828125 -1.09375 1.828125 -1.0625 C 1.828125 -0.894531 1.847656 -0.757812 1.890625 -0.65625 C 1.941406 -0.550781 2.015625 -0.472656 2.109375 -0.421875 C 2.203125 -0.367188 2.316406 -0.332031 2.453125 -0.3125 C 2.585938 -0.300781 2.75 -0.296875 2.9375 -0.296875 C 3.195312 -0.296875 3.414062 -0.3125 3.59375 -0.34375 C 3.78125 -0.375 3.9375 -0.429688 4.0625 -0.515625 C 4.195312 -0.609375 4.304688 -0.734375 4.390625 -0.890625 C 4.472656 -1.046875 4.539062 -1.25 4.59375 -1.5 L 4.90625 -1.5 C 4.882812 -1.40625 4.859375 -1.289062 4.828125 -1.15625 C 4.804688 -1.03125 4.773438 -0.890625 4.734375 -0.734375 C 4.703125 -0.585938 4.660156 -0.441406 4.609375 -0.296875 C 4.554688 -0.148438 4.503906 -0.0195312 4.453125 0.09375 C 4.097656 0.0820312 3.765625 0.0664062 3.453125 0.046875 C 3.140625 0.0351562 2.851562 0.0195312 2.59375 0 C 2.332031 -0.0078125 2.101562 -0.0195312 1.90625 -0.03125 C 1.71875 -0.0507812 1.578125 -0.0625 1.484375 -0.0625 C 1.304688 -0.0625 1.125 -0.0546875 0.9375 -0.046875 C 0.757812 -0.046875 0.546875 -0.03125 0.296875 0 L 0.3125 -0.28125 C 0.394531 -0.289062 0.46875 -0.296875 0.53125 -0.296875 C 0.601562 -0.304688 0.664062 -0.3125 0.71875 -0.3125 C 0.769531 -0.320312 0.820312 -0.328125 0.875 -0.328125 C 0.925781 -0.335938 0.984375 -0.34375 1.046875 -0.34375 C 1.078125 -1.300781 1.109375 -2.164062 1.140625 -2.9375 C 1.140625 -3.269531 1.144531 -3.597656 1.15625 -3.921875 C 1.175781 -4.242188 1.191406 -4.535156 1.203125 -4.796875 C 1.210938 -5.054688 1.21875 -5.273438 1.21875 -5.453125 C 1.21875 -5.628906 1.21875 -5.738281 1.21875 -5.78125 C 1.21875 -5.925781 1.207031 -6.039062 1.1875 -6.125 C 1.175781 -6.21875 1.148438 -6.289062 1.109375 -6.34375 C 1.078125 -6.394531 1.03125 -6.429688 0.96875 -6.453125 C 0.90625 -6.472656 0.828125 -6.492188 0.734375 -6.515625 L 0.53125 -6.546875 L 0.53125 -6.828125 C 0.625 -6.804688 0.742188 -6.789062 0.890625 -6.78125 C 1.003906 -6.769531 1.148438 -6.757812 1.328125 -6.75 C 1.515625 -6.75 1.742188 -6.75 2.015625 -6.75 L 3.1875 -6.75 C 3.320312 -6.75 3.453125 -6.75 3.578125 -6.75 C 3.703125 -6.75 3.828125 -6.75 3.953125 -6.75 C 4.078125 -6.757812 4.207031 -6.769531 4.34375 -6.78125 C 4.488281 -6.789062 4.640625 -6.804688 4.796875 -6.828125 L 4.640625 -5.171875 L 4.34375 -5.171875 C 4.34375 -5.234375 4.34375 -5.28125 4.34375 -5.3125 C 4.34375 -5.351562 4.34375 -5.382812 4.34375 -5.40625 C 4.34375 -5.425781 4.34375 -5.441406 4.34375 -5.453125 C 4.34375 -5.460938 4.34375 -5.46875 4.34375 -5.46875 C 4.34375 -5.582031 4.328125 -5.6875 4.296875 -5.78125 C 4.273438 -5.882812 4.222656 -5.972656 4.140625 -6.046875 C 4.066406 -6.117188 3.957031 -6.179688 3.8125 -6.234375 C 3.664062 -6.285156 3.476562 -6.320312 3.25 -6.34375 L 2.046875 -6.421875 C 2.023438 -6.148438 2.003906 -5.875 1.984375 -5.59375 C 1.972656 -5.320312 1.960938 -5.070312 1.953125 -4.84375 L 1.921875 -3.734375 L 4.015625 -3.84375 Z M 3.953125 -3.21875 "/></g></g></g><g fill="#003070" fill-opacity="1"><g transform="translate(141.526041, 170.609319)"><g><path d="M 2.21875 -0.21875 C 2.414062 -0.21875 2.597656 -0.25 2.765625 -0.3125 C 2.941406 -0.375 3.09375 -0.460938 3.21875 -0.578125 C 3.351562 -0.691406 3.457031 -0.828125 3.53125 -0.984375 C 3.601562 -1.148438 3.640625 -1.34375 3.640625 -1.5625 C 3.640625 -1.757812 3.59375 -1.9375 3.5 -2.09375 C 3.40625 -2.257812 3.285156 -2.410156 3.140625 -2.546875 C 2.992188 -2.691406 2.835938 -2.828125 2.671875 -2.953125 C 2.503906 -3.078125 2.347656 -3.203125 2.203125 -3.328125 C 2.054688 -3.441406 1.894531 -3.5625 1.71875 -3.6875 C 1.550781 -3.820312 1.390625 -3.96875 1.234375 -4.125 C 1.085938 -4.289062 0.960938 -4.46875 0.859375 -4.65625 C 0.753906 -4.851562 0.703125 -5.066406 0.703125 -5.296875 C 0.703125 -5.421875 0.710938 -5.546875 0.734375 -5.671875 C 0.753906 -5.804688 0.789062 -5.929688 0.84375 -6.046875 C 0.90625 -6.171875 0.984375 -6.285156 1.078125 -6.390625 C 1.171875 -6.503906 1.285156 -6.601562 1.421875 -6.6875 C 1.566406 -6.769531 1.734375 -6.835938 1.921875 -6.890625 C 2.117188 -6.941406 2.34375 -6.96875 2.59375 -6.96875 C 2.914062 -6.96875 3.222656 -6.941406 3.515625 -6.890625 C 3.816406 -6.835938 4.070312 -6.78125 4.28125 -6.71875 L 4.171875 -5.234375 L 3.90625 -5.234375 L 3.90625 -5.359375 C 3.90625 -5.484375 3.890625 -5.617188 3.859375 -5.765625 C 3.835938 -5.910156 3.78125 -6.046875 3.6875 -6.171875 C 3.601562 -6.296875 3.472656 -6.398438 3.296875 -6.484375 C 3.128906 -6.566406 2.90625 -6.609375 2.625 -6.609375 C 2.457031 -6.609375 2.300781 -6.582031 2.15625 -6.53125 C 2.019531 -6.476562 1.898438 -6.410156 1.796875 -6.328125 C 1.703125 -6.242188 1.628906 -6.140625 1.578125 -6.015625 C 1.523438 -5.890625 1.5 -5.75 1.5 -5.59375 C 1.5 -5.394531 1.535156 -5.21875 1.609375 -5.0625 C 1.691406 -4.90625 1.796875 -4.765625 1.921875 -4.640625 C 2.046875 -4.515625 2.1875 -4.398438 2.34375 -4.296875 C 2.5 -4.191406 2.648438 -4.085938 2.796875 -3.984375 C 3.003906 -3.828125 3.207031 -3.671875 3.40625 -3.515625 C 3.601562 -3.359375 3.773438 -3.191406 3.921875 -3.015625 C 4.078125 -2.847656 4.203125 -2.664062 4.296875 -2.46875 C 4.390625 -2.269531 4.4375 -2.050781 4.4375 -1.8125 C 4.4375 -1.539062 4.375 -1.285156 4.25 -1.046875 C 4.125 -0.804688 3.957031 -0.597656 3.75 -0.421875 C 3.539062 -0.242188 3.300781 -0.101562 3.03125 0 C 2.757812 0.09375 2.484375 0.140625 2.203125 0.140625 C 1.859375 0.140625 1.523438 0.109375 1.203125 0.046875 C 0.890625 -0.00390625 0.617188 -0.0625 0.390625 -0.125 L 0.515625 -1.6875 L 0.8125 -1.6875 L 0.8125 -1.515625 C 0.8125 -1.378906 0.828125 -1.234375 0.859375 -1.078125 C 0.890625 -0.929688 0.957031 -0.789062 1.0625 -0.65625 C 1.164062 -0.53125 1.304688 -0.425781 1.484375 -0.34375 C 1.671875 -0.257812 1.914062 -0.21875 2.21875 -0.21875 Z M 2.21875 -0.21875 "/></g></g></g></svg>