<svg xmlns="http://www.w3.org/2000/svg" xmlns:xlink="http://www.w3.org/1999/xlink" width="1366" zoomAndPan="magnify" viewBox="0 0 1024.5 576" height="768" preserveAspectRatio="xMidYMid meet" version="1.0"><defs><g/><clipPath id="eccc94e320"><path d="M 252.9375 63.121094 L 739.714844 63.121094 L 739.714844 77.53125 L 252.9375 77.53125 Z M 252.9375 63.121094 " clip-rule="nonzero"/></clipPath><clipPath id="839b7685fb"><path d="M 249.105469 490.117188 L 735.878906 490.117188 L 735.878906 504.527344 L 249.105469 504.527344 Z M 249.105469 490.117188 " clip-rule="nonzero"/></clipPath><clipPath id="badd9218be"><path d="M 242.75 413.847656 L 742.234375 413.847656 L 742.234375 475.964844 L 242.75 475.964844 Z M 242.75 413.847656 " clip-rule="nonzero"/></clipPath><clipPath id="8a85003484"><path d="M 273.808594 413.847656 L 711.175781 413.847656 C 728.328125 413.847656 742.234375 427.753906 742.234375 444.90625 C 742.234375 462.058594 728.328125 475.964844 711.175781 475.964844 L 273.808594 475.964844 C 256.65625 475.964844 242.75 462.058594 242.75 444.90625 C 242.75 427.753906 256.65625 413.847656 273.808594 413.847656 Z M 273.808594 413.847656 " clip-rule="nonzero"/></clipPath><clipPath id="71e0fdb0db"><path d="M 242.75 413.847656 L 741.6875 413.847656 L 741.6875 476 L 242.75 476 Z M 242.75 413.847656 " clip-rule="nonzero"/></clipPath><clipPath id="2777d8795b"><path d="M 273.808594 413.847656 L 711.15625 413.847656 C 728.308594 413.847656 742.214844 427.753906 742.214844 444.90625 C 742.214844 462.058594 728.308594 475.960938 711.15625 475.960938 L 273.808594 475.960938 C 256.65625 475.960938 242.75 462.058594 242.75 444.90625 C 242.75 427.753906 256.65625 413.847656 273.808594 413.847656 Z M 273.808594 413.847656 " clip-rule="nonzero"/></clipPath></defs><g fill="#003070" fill-opacity="1"><g transform="translate(113.971874, 447.408417)"><g><path d="M 216.78125 -326.375 L 202.84375 -308.59375 C 197.070312 -311.789062 191.625 -314.671875 186.5 -317.234375 C 181.375 -319.804688 176.164062 -321.890625 170.875 -323.484375 C 165.59375 -325.085938 159.984375 -326.289062 154.046875 -327.09375 C 148.117188 -327.894531 141.3125 -328.296875 133.625 -328.296875 C 117.925781 -328.296875 103.90625 -325.734375 91.5625 -320.609375 C 79.226562 -315.484375 68.734375 -308.59375 60.078125 -299.9375 C 51.429688 -291.289062 44.863281 -281.359375 40.375 -270.140625 C 35.882812 -258.921875 33.640625 -247.0625 33.640625 -234.5625 C 33.640625 -217.582031 38.847656 -202.039062 49.265625 -187.9375 C 59.679688 -173.84375 75.945312 -163.109375 98.0625 -155.734375 C 108.632812 -152.210938 117.601562 -149.328125 124.96875 -147.078125 C 132.34375 -144.835938 139.234375 -142.675781 145.640625 -140.59375 C 152.046875 -138.507812 158.535156 -136.265625 165.109375 -133.859375 C 171.679688 -131.460938 179.289062 -128.179688 187.9375 -124.015625 C 198.832031 -118.890625 206.203125 -111.757812 210.046875 -102.625 C 213.898438 -93.488281 215.828125 -84.273438 215.828125 -74.984375 C 215.828125 -63.453125 213.582031 -52.957031 209.09375 -43.5 C 204.601562 -34.050781 198.671875 -26.117188 191.296875 -19.703125 C 183.929688 -13.296875 175.441406 -8.328125 165.828125 -4.796875 C 156.210938 -1.273438 146.441406 0.484375 136.515625 0.484375 C 124.972656 0.484375 113.914062 -1.515625 103.34375 -5.515625 C 92.769531 -9.523438 82.992188 -15.210938 74.015625 -22.578125 C 65.046875 -29.953125 57.273438 -39.085938 50.703125 -49.984375 C 44.140625 -60.878906 39.09375 -73.054688 35.5625 -86.515625 C 34.601562 -90.679688 32.84375 -92.765625 30.28125 -92.765625 C 28.039062 -92.765625 26.921875 -90.523438 26.921875 -86.046875 L 26.921875 0 C 26.921875 4.164062 28.363281 6.25 31.25 6.25 C 33.164062 6.25 35.25 4.644531 37.5 1.4375 L 54.796875 -23.546875 C 58.640625 -20.023438 63.363281 -16.34375 68.96875 -12.5 C 74.582031 -8.65625 80.832031 -5.128906 87.71875 -1.921875 C 94.613281 1.285156 101.984375 3.925781 109.828125 6 C 117.679688 8.082031 125.773438 9.125 134.109375 9.125 C 149.492188 9.125 163.753906 6.320312 176.890625 0.71875 C 190.023438 -4.882812 201.398438 -12.65625 211.015625 -22.59375 C 220.628906 -32.53125 228.238281 -44.304688 233.84375 -57.921875 C 239.457031 -71.535156 242.265625 -86.195312 242.265625 -101.90625 C 242.265625 -123.375 237.210938 -141.554688 227.109375 -156.453125 C 217.015625 -171.359375 201.078125 -182.015625 179.296875 -188.421875 C 171.921875 -190.660156 165.03125 -192.582031 158.625 -194.1875 C 152.21875 -195.789062 145.644531 -197.550781 138.90625 -199.46875 C 132.175781 -201.394531 125.125 -203.5625 117.75 -205.96875 C 110.382812 -208.375 102.21875 -211.335938 93.25 -214.859375 C 83.3125 -218.703125 75.78125 -224.628906 70.65625 -232.640625 C 65.53125 -240.648438 62.96875 -249.945312 62.96875 -260.53125 C 62.96875 -270.457031 65.050781 -279.1875 69.21875 -286.71875 C 73.382812 -294.25 78.75 -300.414062 85.3125 -305.21875 C 91.882812 -310.03125 99.414062 -313.632812 107.90625 -316.03125 C 116.40625 -318.4375 124.976562 -319.640625 133.625 -319.640625 C 146.757812 -319.640625 158.296875 -317.394531 168.234375 -312.90625 C 178.171875 -308.425781 186.503906 -302.5 193.234375 -295.125 C 199.960938 -287.757812 205.328125 -279.269531 209.328125 -269.65625 C 213.335938 -260.039062 215.984375 -250.109375 217.265625 -239.859375 C 217.585938 -236.648438 219.03125 -235.046875 221.59375 -235.046875 C 223.832031 -235.046875 224.953125 -236.648438 224.953125 -239.859375 L 224.953125 -325.421875 C 224.953125 -328.617188 223.992188 -330.21875 222.078125 -330.21875 C 220.472656 -330.21875 218.707031 -328.9375 216.78125 -326.375 Z M 216.78125 -326.375 "/></g></g></g><g fill="#003070" fill-opacity="1"><g transform="translate(349.501373, 447.408417)"><g><path d="M 266.765625 -88.921875 C 264.203125 -76.742188 261.476562 -65.6875 258.59375 -55.75 C 255.71875 -45.820312 251.875 -37.253906 247.0625 -30.046875 C 242.257812 -22.835938 236.171875 -17.304688 228.796875 -13.453125 C 221.429688 -9.609375 212.140625 -7.6875 200.921875 -7.6875 L 102.390625 -7.6875 L 102.390625 -315.328125 L 148.046875 -315.328125 L 148.046875 -323.015625 L 14.421875 -323.015625 L 14.421875 -315.328125 L 55.765625 -315.328125 L 55.765625 -7.6875 L 14.421875 -7.6875 L 14.421875 0 L 261.96875 0 C 271.257812 0 275.90625 -5.125 275.90625 -15.375 L 275.90625 -87.484375 C 275.90625 -95.171875 274.625 -99.015625 272.0625 -99.015625 C 269.820312 -99.015625 268.054688 -95.648438 266.765625 -88.921875 Z M 266.765625 -88.921875 "/></g></g></g><g fill="#003070" fill-opacity="1"><g transform="translate(612.429301, 447.408417)"><g><path d="M 173.515625 -7.6875 L 173.515625 -315.328125 L 214.859375 -315.328125 C 229.597656 -315.328125 242.492188 -307.796875 253.546875 -292.734375 C 264.609375 -277.671875 271.898438 -257.160156 275.421875 -231.203125 L 285.515625 -231.203125 L 278.3125 -314.84375 C 277.988281 -320.289062 274.785156 -323.015625 268.703125 -323.015625 L 31.71875 -323.015625 C 25.632812 -323.015625 22.429688 -320.289062 22.109375 -314.84375 L 14.90625 -231.203125 L 25 -231.203125 C 28.519531 -257.160156 35.804688 -277.671875 46.859375 -292.734375 C 57.921875 -307.796875 70.820312 -315.328125 85.5625 -315.328125 L 126.890625 -315.328125 L 126.890625 -7.6875 L 85.5625 -7.6875 L 85.5625 0 L 214.859375 0 L 214.859375 -7.6875 Z M 173.515625 -7.6875 "/></g></g></g><g clip-path="url(#eccc94e320)"><path fill="#003070" d="M 252.9375 63.121094 L 739.714844 63.121094 L 739.714844 77.53125 L 252.9375 77.53125 Z M 252.9375 63.121094 " fill-opacity="1" fill-rule="nonzero"/></g><g clip-path="url(#839b7685fb)"><path fill="#003070" d="M 249.105469 490.117188 L 735.878906 490.117188 L 735.878906 504.527344 L 249.105469 504.527344 Z M 249.105469 490.117188 " fill-opacity="1" fill-rule="nonzero"/></g><g clip-path="url(#badd9218be)"><g clip-path="url(#8a85003484)"><path fill="#ffffff" d="M 242.75 413.847656 L 742.234375 413.847656 L 742.234375 475.964844 L 242.75 475.964844 Z M 242.75 413.847656 " fill-opacity="1" fill-rule="nonzero"/></g></g><g clip-path="url(#71e0fdb0db)"><g clip-path="url(#2777d8795b)"><path stroke-linecap="butt" transform="matrix(1.458881, 0, 0, 1.458881, 242.751425, 413.847888)" fill="none" stroke-linejoin="miter" d="M 21.288348 -0.000158567 L 321.071275 -0.000158567 C 332.828465 -0.000158567 342.360599 9.531975 342.360599 21.289166 C 342.360599 33.046357 332.828465 42.575813 321.071275 42.575813 L 21.288348 42.575813 C 9.531157 42.575813 -0.000976611 33.046357 -0.000976611 21.289166 C -0.000976611 9.531975 9.531157 -0.000158567 21.288348 -0.000158567 Z M 21.288348 -0.000158567 " stroke="#000000" stroke-width="1.027683" stroke-opacity="1" stroke-miterlimit="4"/></g></g><g fill="#003070" fill-opacity="1"><g transform="translate(381.004365, 458.414631)"><g><path d="M 12.75 -24.671875 L 8.296875 -11.71875 L 16.90625 -11.71875 L 13.359375 -24.671875 Z M 14.609375 -30.4375 L 21.75 -7.34375 C 22.269531 -5.625 22.835938 -4.238281 23.453125 -3.1875 C 24.066406 -2.144531 24.84375 -1.546875 25.78125 -1.390625 L 26.9375 -1.203125 L 26.890625 0 C 26.171875 -0.0820312 25.394531 -0.144531 24.5625 -0.1875 C 23.726562 -0.226562 22.875 -0.25 22 -0.25 C 21.070312 -0.25 20.160156 -0.226562 19.265625 -0.1875 C 18.378906 -0.144531 17.535156 -0.0820312 16.734375 0 L 16.78125 -1.203125 L 19.765625 -1.484375 L 17.328125 -10.234375 L 16.515625 -10.234375 C 16.128906 -10.234375 15.625 -10.226562 15 -10.21875 C 14.382812 -10.21875 13.6875 -10.203125 12.90625 -10.171875 C 12.125 -10.148438 11.28125 -10.109375 10.375 -10.046875 C 9.476562 -9.992188 8.550781 -9.914062 7.59375 -9.8125 L 6.4375 -6.5625 C 6.1875 -5.882812 5.960938 -5.242188 5.765625 -4.640625 C 5.578125 -4.035156 5.484375 -3.507812 5.484375 -3.0625 C 5.484375 -2.613281 5.601562 -2.242188 5.84375 -1.953125 C 6.082031 -1.660156 6.5 -1.472656 7.09375 -1.390625 L 8.34375 -1.203125 L 8.296875 0 C 7.535156 -0.0820312 6.804688 -0.148438 6.109375 -0.203125 C 5.410156 -0.265625 4.679688 -0.296875 3.921875 -0.296875 C 3.160156 -0.296875 2.375 -0.265625 1.5625 -0.203125 C 0.75 -0.148438 -0.15625 -0.0820312 -1.15625 0 L -1.125 -1.203125 C -0.707031 -1.242188 -0.316406 -1.285156 0.046875 -1.328125 C 0.367188 -1.359375 0.691406 -1.382812 1.015625 -1.40625 C 1.335938 -1.4375 1.601562 -1.460938 1.8125 -1.484375 C 2.394531 -2.691406 3 -4.007812 3.625 -5.4375 C 4.25 -6.875 4.882812 -8.378906 5.53125 -9.953125 C 6.1875 -11.535156 6.84375 -13.171875 7.5 -14.859375 C 8.15625 -16.546875 8.800781 -18.238281 9.4375 -19.9375 C 10.070312 -21.644531 10.679688 -23.34375 11.265625 -25.03125 C 11.847656 -26.726562 12.398438 -28.367188 12.921875 -29.953125 Z M 14.609375 -30.4375 "/></g></g></g><g fill="#003070" fill-opacity="1"><g transform="translate(408.159518, 458.414631)"><g><path d="M 9.5625 -0.953125 C 10.40625 -0.953125 11.195312 -1.082031 11.9375 -1.34375 C 12.675781 -1.601562 13.316406 -1.976562 13.859375 -2.46875 C 14.410156 -2.957031 14.84375 -3.554688 15.15625 -4.265625 C 15.476562 -4.984375 15.640625 -5.789062 15.640625 -6.6875 C 15.640625 -7.550781 15.4375 -8.335938 15.03125 -9.046875 C 14.632812 -9.753906 14.128906 -10.410156 13.515625 -11.015625 C 12.910156 -11.617188 12.25 -12.1875 11.53125 -12.71875 C 10.8125 -13.257812 10.128906 -13.789062 9.484375 -14.3125 C 8.859375 -14.789062 8.171875 -15.3125 7.421875 -15.875 C 6.679688 -16.445312 5.984375 -17.078125 5.328125 -17.765625 C 4.671875 -18.460938 4.117188 -19.222656 3.671875 -20.046875 C 3.234375 -20.878906 3.015625 -21.804688 3.015625 -22.828125 C 3.015625 -23.328125 3.0625 -23.851562 3.15625 -24.40625 C 3.257812 -24.96875 3.429688 -25.507812 3.671875 -26.03125 C 3.921875 -26.5625 4.242188 -27.0625 4.640625 -27.53125 C 5.046875 -28.007812 5.550781 -28.425781 6.15625 -28.78125 C 6.769531 -29.144531 7.484375 -29.429688 8.296875 -29.640625 C 9.109375 -29.847656 10.054688 -29.953125 11.140625 -29.953125 C 12.523438 -29.953125 13.859375 -29.84375 15.140625 -29.625 C 16.421875 -29.40625 17.523438 -29.15625 18.453125 -28.875 L 17.984375 -22.53125 L 16.78125 -22.53125 L 16.78125 -23.09375 C 16.78125 -23.625 16.722656 -24.203125 16.609375 -24.828125 C 16.492188 -25.460938 16.25 -26.039062 15.875 -26.5625 C 15.5 -27.09375 14.945312 -27.535156 14.21875 -27.890625 C 13.488281 -28.242188 12.515625 -28.421875 11.296875 -28.421875 C 10.566406 -28.421875 9.898438 -28.316406 9.296875 -28.109375 C 8.703125 -27.898438 8.191406 -27.609375 7.765625 -27.234375 C 7.347656 -26.867188 7.019531 -26.414062 6.78125 -25.875 C 6.550781 -25.34375 6.4375 -24.75 6.4375 -24.09375 C 6.4375 -23.21875 6.609375 -22.441406 6.953125 -21.765625 C 7.296875 -21.097656 7.738281 -20.5 8.28125 -19.96875 C 8.820312 -19.4375 9.421875 -18.941406 10.078125 -18.484375 C 10.742188 -18.023438 11.390625 -17.570312 12.015625 -17.125 C 12.941406 -16.445312 13.828125 -15.773438 14.671875 -15.109375 C 15.523438 -14.441406 16.273438 -13.738281 16.921875 -13 C 17.578125 -12.257812 18.097656 -11.46875 18.484375 -10.625 C 18.867188 -9.78125 19.0625 -8.847656 19.0625 -7.828125 C 19.0625 -6.648438 18.789062 -5.546875 18.25 -4.515625 C 17.71875 -3.492188 17.003906 -2.601562 16.109375 -1.84375 C 15.222656 -1.082031 14.203125 -0.484375 13.046875 -0.046875 C 11.890625 0.390625 10.703125 0.609375 9.484375 0.609375 C 7.984375 0.609375 6.554688 0.488281 5.203125 0.25 C 3.859375 0.0078125 2.6875 -0.257812 1.6875 -0.5625 L 2.203125 -7.265625 L 3.5 -7.265625 L 3.5 -6.515625 C 3.5 -5.929688 3.566406 -5.3125 3.703125 -4.65625 C 3.847656 -4 4.132812 -3.394531 4.5625 -2.84375 C 5 -2.300781 5.613281 -1.847656 6.40625 -1.484375 C 7.195312 -1.128906 8.25 -0.953125 9.5625 -0.953125 Z M 9.5625 -0.953125 "/></g></g></g><g fill="#003070" fill-opacity="1"><g transform="translate(429.86878, 458.414631)"><g><path d="M 17.03125 -13.875 C 16.1875 -13.976562 15.332031 -14.070312 14.46875 -14.15625 C 13.601562 -14.25 12.773438 -14.320312 11.984375 -14.375 C 11.203125 -14.425781 10.484375 -14.46875 9.828125 -14.5 C 9.171875 -14.539062 8.632812 -14.578125 8.21875 -14.609375 C 8.15625 -12.921875 8.097656 -11.378906 8.046875 -9.984375 C 8.015625 -9.390625 7.988281 -8.796875 7.96875 -8.203125 C 7.957031 -7.617188 7.941406 -7.078125 7.921875 -6.578125 C 7.898438 -6.078125 7.882812 -5.648438 7.875 -5.296875 C 7.875 -4.941406 7.875 -4.703125 7.875 -4.578125 C 7.875 -3.847656 7.972656 -3.265625 8.171875 -2.828125 C 8.367188 -2.390625 8.664062 -2.054688 9.0625 -1.828125 C 9.46875 -1.609375 9.960938 -1.460938 10.546875 -1.390625 C 11.140625 -1.316406 11.832031 -1.28125 12.625 -1.28125 C 13.75 -1.28125 14.707031 -1.347656 15.5 -1.484375 C 16.300781 -1.628906 16.976562 -1.890625 17.53125 -2.265625 C 18.082031 -2.648438 18.535156 -3.175781 18.890625 -3.84375 C 19.242188 -4.519531 19.535156 -5.382812 19.765625 -6.4375 L 21.09375 -6.4375 C 21.03125 -6.0625 20.941406 -5.582031 20.828125 -5 C 20.722656 -4.425781 20.585938 -3.816406 20.421875 -3.171875 C 20.265625 -2.535156 20.078125 -1.898438 19.859375 -1.265625 C 19.640625 -0.628906 19.398438 -0.0664062 19.140625 0.421875 C 17.648438 0.378906 16.222656 0.316406 14.859375 0.234375 C 13.503906 0.160156 12.269531 0.0859375 11.15625 0.015625 C 10.039062 -0.046875 9.066406 -0.101562 8.234375 -0.15625 C 7.398438 -0.21875 6.773438 -0.25 6.359375 -0.25 C 5.640625 -0.25 4.878906 -0.234375 4.078125 -0.203125 C 3.273438 -0.179688 2.34375 -0.113281 1.28125 0 L 1.328125 -1.203125 C 1.691406 -1.234375 2.015625 -1.257812 2.296875 -1.28125 C 2.578125 -1.3125 2.835938 -1.34375 3.078125 -1.375 C 3.316406 -1.40625 3.546875 -1.425781 3.765625 -1.4375 C 3.992188 -1.445312 4.238281 -1.460938 4.5 -1.484375 C 4.632812 -5.597656 4.757812 -9.328125 4.875 -12.671875 C 4.914062 -14.085938 4.960938 -15.488281 5.015625 -16.875 C 5.066406 -18.257812 5.113281 -19.515625 5.15625 -20.640625 C 5.195312 -21.765625 5.226562 -22.707031 5.25 -23.46875 C 5.269531 -24.226562 5.28125 -24.695312 5.28125 -24.875 C 5.28125 -25.5 5.238281 -26.003906 5.15625 -26.390625 C 5.082031 -26.785156 4.957031 -27.09375 4.78125 -27.3125 C 4.613281 -27.53125 4.394531 -27.6875 4.125 -27.78125 C 3.863281 -27.875 3.546875 -27.953125 3.171875 -28.015625 L 2.296875 -28.140625 L 2.296875 -29.359375 C 2.691406 -29.304688 3.191406 -29.253906 3.796875 -29.203125 C 4.316406 -29.148438 4.972656 -29.109375 5.765625 -29.078125 C 6.554688 -29.054688 7.519531 -29.046875 8.65625 -29.046875 L 13.75 -29.046875 C 14.3125 -29.046875 14.859375 -29.046875 15.390625 -29.046875 C 15.921875 -29.054688 16.460938 -29.070312 17.015625 -29.09375 C 17.566406 -29.113281 18.132812 -29.144531 18.71875 -29.1875 C 19.3125 -29.238281 19.945312 -29.296875 20.625 -29.359375 L 19.96875 -22.234375 L 18.6875 -22.234375 C 18.695312 -22.515625 18.703125 -22.734375 18.703125 -22.890625 C 18.710938 -23.054688 18.71875 -23.179688 18.71875 -23.265625 C 18.71875 -23.359375 18.71875 -23.421875 18.71875 -23.453125 C 18.71875 -23.492188 18.71875 -23.53125 18.71875 -23.5625 C 18.71875 -24.019531 18.65625 -24.457031 18.53125 -24.875 C 18.414062 -25.300781 18.1875 -25.679688 17.84375 -26.015625 C 17.5 -26.347656 17.019531 -26.625 16.40625 -26.84375 C 15.800781 -27.0625 15.003906 -27.207031 14.015625 -27.28125 L 8.828125 -27.640625 C 8.710938 -26.484375 8.625 -25.304688 8.5625 -24.109375 C 8.5 -22.921875 8.453125 -21.832031 8.421875 -20.84375 L 8.25 -16.09375 L 17.25 -16.546875 Z M 17.03125 -13.875 "/></g></g></g><g fill="#003070" fill-opacity="1"><g transform="translate(452.696775, 458.414631)"><g><path d="M 9.5625 -0.953125 C 10.40625 -0.953125 11.195312 -1.082031 11.9375 -1.34375 C 12.675781 -1.601562 13.316406 -1.976562 13.859375 -2.46875 C 14.410156 -2.957031 14.84375 -3.554688 15.15625 -4.265625 C 15.476562 -4.984375 15.640625 -5.789062 15.640625 -6.6875 C 15.640625 -7.550781 15.4375 -8.335938 15.03125 -9.046875 C 14.632812 -9.753906 14.128906 -10.410156 13.515625 -11.015625 C 12.910156 -11.617188 12.25 -12.1875 11.53125 -12.71875 C 10.8125 -13.257812 10.128906 -13.789062 9.484375 -14.3125 C 8.859375 -14.789062 8.171875 -15.3125 7.421875 -15.875 C 6.679688 -16.445312 5.984375 -17.078125 5.328125 -17.765625 C 4.671875 -18.460938 4.117188 -19.222656 3.671875 -20.046875 C 3.234375 -20.878906 3.015625 -21.804688 3.015625 -22.828125 C 3.015625 -23.328125 3.0625 -23.851562 3.15625 -24.40625 C 3.257812 -24.96875 3.429688 -25.507812 3.671875 -26.03125 C 3.921875 -26.5625 4.242188 -27.0625 4.640625 -27.53125 C 5.046875 -28.007812 5.550781 -28.425781 6.15625 -28.78125 C 6.769531 -29.144531 7.484375 -29.429688 8.296875 -29.640625 C 9.109375 -29.847656 10.054688 -29.953125 11.140625 -29.953125 C 12.523438 -29.953125 13.859375 -29.84375 15.140625 -29.625 C 16.421875 -29.40625 17.523438 -29.15625 18.453125 -28.875 L 17.984375 -22.53125 L 16.78125 -22.53125 L 16.78125 -23.09375 C 16.78125 -23.625 16.722656 -24.203125 16.609375 -24.828125 C 16.492188 -25.460938 16.25 -26.039062 15.875 -26.5625 C 15.5 -27.09375 14.945312 -27.535156 14.21875 -27.890625 C 13.488281 -28.242188 12.515625 -28.421875 11.296875 -28.421875 C 10.566406 -28.421875 9.898438 -28.316406 9.296875 -28.109375 C 8.703125 -27.898438 8.191406 -27.609375 7.765625 -27.234375 C 7.347656 -26.867188 7.019531 -26.414062 6.78125 -25.875 C 6.550781 -25.34375 6.4375 -24.75 6.4375 -24.09375 C 6.4375 -23.21875 6.609375 -22.441406 6.953125 -21.765625 C 7.296875 -21.097656 7.738281 -20.5 8.28125 -19.96875 C 8.820312 -19.4375 9.421875 -18.941406 10.078125 -18.484375 C 10.742188 -18.023438 11.390625 -17.570312 12.015625 -17.125 C 12.941406 -16.445312 13.828125 -15.773438 14.671875 -15.109375 C 15.523438 -14.441406 16.273438 -13.738281 16.921875 -13 C 17.578125 -12.257812 18.097656 -11.46875 18.484375 -10.625 C 18.867188 -9.78125 19.0625 -8.847656 19.0625 -7.828125 C 19.0625 -6.648438 18.789062 -5.546875 18.25 -4.515625 C 17.71875 -3.492188 17.003906 -2.601562 16.109375 -1.84375 C 15.222656 -1.082031 14.203125 -0.484375 13.046875 -0.046875 C 11.890625 0.390625 10.703125 0.609375 9.484375 0.609375 C 7.984375 0.609375 6.554688 0.488281 5.203125 0.25 C 3.859375 0.0078125 2.6875 -0.257812 1.6875 -0.5625 L 2.203125 -7.265625 L 3.5 -7.265625 L 3.5 -6.515625 C 3.5 -5.929688 3.566406 -5.3125 3.703125 -4.65625 C 3.847656 -4 4.132812 -3.394531 4.5625 -2.84375 C 5 -2.300781 5.613281 -1.847656 6.40625 -1.484375 C 7.195312 -1.128906 8.25 -0.953125 9.5625 -0.953125 Z M 9.5625 -0.953125 "/></g></g></g><g fill="#003070" fill-opacity="1"><g transform="translate(474.406034, 458.414631)"><g><path d="M 5.828125 -15.015625 C 5.828125 -13.179688 6.078125 -11.421875 6.578125 -9.734375 C 7.078125 -8.046875 7.800781 -6.550781 8.75 -5.25 C 9.695312 -3.945312 10.859375 -2.90625 12.234375 -2.125 C 13.617188 -1.34375 15.191406 -0.953125 16.953125 -0.953125 C 18.640625 -0.953125 20.125 -1.289062 21.40625 -1.96875 C 22.695312 -2.644531 23.769531 -3.566406 24.625 -4.734375 C 25.488281 -5.910156 26.140625 -7.28125 26.578125 -8.84375 C 27.015625 -10.414062 27.234375 -12.101562 27.234375 -13.90625 C 27.234375 -15.9375 26.972656 -17.832031 26.453125 -19.59375 C 25.941406 -21.363281 25.222656 -22.898438 24.296875 -24.203125 C 23.367188 -25.515625 22.257812 -26.546875 20.96875 -27.296875 C 19.6875 -28.046875 18.273438 -28.421875 16.734375 -28.421875 C 15.929688 -28.421875 15.109375 -28.332031 14.265625 -28.15625 C 13.421875 -27.976562 12.59375 -27.679688 11.78125 -27.265625 C 10.976562 -26.847656 10.210938 -26.300781 9.484375 -25.625 C 8.765625 -24.945312 8.132812 -24.113281 7.59375 -23.125 C 7.050781 -22.132812 6.617188 -20.96875 6.296875 -19.625 C 5.984375 -18.289062 5.828125 -16.753906 5.828125 -15.015625 Z M 1.9375 -14.5625 C 1.9375 -16.769531 2.316406 -18.816406 3.078125 -20.703125 C 3.835938 -22.585938 4.90625 -24.210938 6.28125 -25.578125 C 7.664062 -26.953125 9.328125 -28.023438 11.265625 -28.796875 C 13.203125 -29.566406 15.34375 -29.953125 17.6875 -29.953125 C 19.125 -29.953125 20.453125 -29.757812 21.671875 -29.375 C 22.898438 -28.988281 24.015625 -28.453125 25.015625 -27.765625 C 26.015625 -27.085938 26.898438 -26.28125 27.671875 -25.34375 C 28.453125 -24.414062 29.101562 -23.414062 29.625 -22.34375 C 30.15625 -21.269531 30.550781 -20.132812 30.8125 -18.9375 C 31.082031 -17.738281 31.21875 -16.539062 31.21875 -15.34375 C 31.21875 -13 30.835938 -10.847656 30.078125 -8.890625 C 29.316406 -6.941406 28.28125 -5.257812 26.96875 -3.84375 C 25.664062 -2.4375 24.148438 -1.34375 22.421875 -0.5625 C 20.691406 0.21875 18.851562 0.609375 16.90625 0.609375 C 15.226562 0.609375 13.695312 0.40625 12.3125 0 C 10.925781 -0.394531 9.675781 -0.945312 8.5625 -1.65625 C 7.457031 -2.363281 6.488281 -3.195312 5.65625 -4.15625 C 4.820312 -5.125 4.128906 -6.171875 3.578125 -7.296875 C 3.035156 -8.429688 2.625 -9.613281 2.34375 -10.84375 C 2.070312 -12.070312 1.9375 -13.3125 1.9375 -14.5625 Z M 1.9375 -14.5625 "/></g></g></g><g fill="#003070" fill-opacity="1"><g transform="translate(507.872507, 458.414631)"><g><path d="M 1.28125 -1.203125 C 1.65625 -1.234375 1.984375 -1.257812 2.265625 -1.28125 C 2.546875 -1.3125 2.804688 -1.34375 3.046875 -1.375 C 3.285156 -1.40625 3.515625 -1.425781 3.734375 -1.4375 C 3.960938 -1.445312 4.203125 -1.460938 4.453125 -1.484375 C 4.523438 -3.347656 4.59375 -5.195312 4.65625 -7.03125 C 4.71875 -8.863281 4.773438 -10.613281 4.828125 -12.28125 C 4.890625 -13.957031 4.945312 -15.519531 5 -16.96875 C 5.0625 -18.414062 5.113281 -19.695312 5.15625 -20.8125 C 5.195312 -21.925781 5.226562 -22.84375 5.25 -23.5625 C 5.269531 -24.28125 5.28125 -24.742188 5.28125 -24.953125 C 5.28125 -25.554688 5.238281 -26.046875 5.15625 -26.421875 C 5.070312 -26.804688 4.941406 -27.109375 4.765625 -27.328125 C 4.585938 -27.546875 4.363281 -27.695312 4.09375 -27.78125 C 3.820312 -27.875 3.515625 -27.953125 3.171875 -28.015625 L 2.234375 -28.140625 L 2.234375 -29.359375 C 2.628906 -29.304688 3.050781 -29.253906 3.5 -29.203125 C 3.882812 -29.148438 4.316406 -29.109375 4.796875 -29.078125 C 5.285156 -29.054688 5.789062 -29.046875 6.3125 -29.046875 C 6.789062 -29.046875 7.25 -29.070312 7.6875 -29.125 C 8.125 -29.1875 8.570312 -29.25 9.03125 -29.3125 C 9.5 -29.375 9.992188 -29.429688 10.515625 -29.484375 C 11.035156 -29.546875 11.613281 -29.578125 12.25 -29.578125 C 13.9375 -29.578125 15.375 -29.367188 16.5625 -28.953125 C 17.757812 -28.535156 18.738281 -27.976562 19.5 -27.28125 C 20.257812 -26.582031 20.816406 -25.785156 21.171875 -24.890625 C 21.523438 -24.003906 21.703125 -23.085938 21.703125 -22.140625 C 21.703125 -20.847656 21.460938 -19.738281 20.984375 -18.8125 C 20.515625 -17.882812 19.9375 -17.097656 19.25 -16.453125 C 18.570312 -15.816406 17.847656 -15.300781 17.078125 -14.90625 C 16.316406 -14.519531 15.640625 -14.238281 15.046875 -14.0625 C 16.117188 -12.132812 17.207031 -10.316406 18.3125 -8.609375 C 19.425781 -6.910156 20.519531 -5.421875 21.59375 -4.140625 C 22.675781 -2.859375 23.71875 -1.847656 24.71875 -1.109375 C 25.726562 -0.367188 26.671875 0 27.546875 0 L 27.5 0.734375 C 26.96875 0.816406 26.445312 0.859375 25.9375 0.859375 C 24.789062 0.835938 23.6875 0.5625 22.625 0.03125 C 21.5625 -0.5 20.550781 -1.175781 19.59375 -2 C 18.632812 -2.832031 17.734375 -3.769531 16.890625 -4.8125 C 16.054688 -5.863281 15.289062 -6.914062 14.59375 -7.96875 C 13.894531 -9.03125 13.28125 -10.039062 12.75 -11 C 12.21875 -11.957031 11.773438 -12.773438 11.421875 -13.453125 C 11.054688 -13.421875 10.671875 -13.394531 10.265625 -13.375 C 9.867188 -13.363281 9.445312 -13.359375 9 -13.359375 L 8.125 -13.359375 C 8.113281 -12.941406 8.097656 -12.453125 8.078125 -11.890625 C 8.054688 -11.335938 8.035156 -10.765625 8.015625 -10.171875 C 7.992188 -9.578125 7.972656 -8.976562 7.953125 -8.375 C 7.929688 -7.769531 7.910156 -7.207031 7.890625 -6.6875 C 7.878906 -6.164062 7.863281 -5.703125 7.84375 -5.296875 C 7.832031 -4.898438 7.828125 -4.601562 7.828125 -4.40625 C 7.828125 -3.800781 7.867188 -3.3125 7.953125 -2.9375 C 8.035156 -2.570312 8.160156 -2.273438 8.328125 -2.046875 C 8.503906 -1.816406 8.722656 -1.65625 8.984375 -1.5625 C 9.253906 -1.46875 9.570312 -1.390625 9.9375 -1.328125 L 10.84375 -1.203125 L 10.84375 0 C 10.539062 -0.0390625 10.171875 -0.0859375 9.734375 -0.140625 C 9.367188 -0.171875 8.914062 -0.203125 8.375 -0.234375 C 7.84375 -0.273438 7.222656 -0.296875 6.515625 -0.296875 C 5.804688 -0.296875 5.019531 -0.273438 4.15625 -0.234375 C 3.300781 -0.191406 2.34375 -0.113281 1.28125 0 Z M 8.171875 -14.8125 L 9.375 -14.8125 C 11.132812 -14.8125 12.585938 -15.019531 13.734375 -15.4375 C 14.890625 -15.851562 15.804688 -16.398438 16.484375 -17.078125 C 17.160156 -17.753906 17.632812 -18.523438 17.90625 -19.390625 C 18.1875 -20.265625 18.328125 -21.171875 18.328125 -22.109375 C 18.328125 -22.554688 18.28125 -23.015625 18.1875 -23.484375 C 18.09375 -23.953125 17.9375 -24.410156 17.71875 -24.859375 C 17.5 -25.316406 17.207031 -25.742188 16.84375 -26.140625 C 16.488281 -26.546875 16.054688 -26.898438 15.546875 -27.203125 C 15.035156 -27.503906 14.429688 -27.742188 13.734375 -27.921875 C 13.035156 -28.097656 12.238281 -28.1875 11.34375 -28.1875 C 10.832031 -28.1875 10.375 -28.171875 9.96875 -28.140625 C 9.5625 -28.109375 9.109375 -28.050781 8.609375 -27.96875 Z M 8.171875 -14.8125 "/></g></g></g><g fill="#003070" fill-opacity="1"><g transform="translate(534.457738, 458.414631)"><g><path d="M 17.03125 -13.875 C 16.1875 -13.976562 15.332031 -14.070312 14.46875 -14.15625 C 13.601562 -14.25 12.773438 -14.320312 11.984375 -14.375 C 11.203125 -14.425781 10.484375 -14.46875 9.828125 -14.5 C 9.171875 -14.539062 8.632812 -14.578125 8.21875 -14.609375 C 8.15625 -12.921875 8.097656 -11.378906 8.046875 -9.984375 C 8.015625 -9.390625 7.988281 -8.796875 7.96875 -8.203125 C 7.957031 -7.617188 7.941406 -7.078125 7.921875 -6.578125 C 7.898438 -6.078125 7.882812 -5.648438 7.875 -5.296875 C 7.875 -4.941406 7.875 -4.703125 7.875 -4.578125 C 7.875 -3.847656 7.972656 -3.265625 8.171875 -2.828125 C 8.367188 -2.390625 8.664062 -2.054688 9.0625 -1.828125 C 9.46875 -1.609375 9.960938 -1.460938 10.546875 -1.390625 C 11.140625 -1.316406 11.832031 -1.28125 12.625 -1.28125 C 13.75 -1.28125 14.707031 -1.347656 15.5 -1.484375 C 16.300781 -1.628906 16.976562 -1.890625 17.53125 -2.265625 C 18.082031 -2.648438 18.535156 -3.175781 18.890625 -3.84375 C 19.242188 -4.519531 19.535156 -5.382812 19.765625 -6.4375 L 21.09375 -6.4375 C 21.03125 -6.0625 20.941406 -5.582031 20.828125 -5 C 20.722656 -4.425781 20.585938 -3.816406 20.421875 -3.171875 C 20.265625 -2.535156 20.078125 -1.898438 19.859375 -1.265625 C 19.640625 -0.628906 19.398438 -0.0664062 19.140625 0.421875 C 17.648438 0.378906 16.222656 0.316406 14.859375 0.234375 C 13.503906 0.160156 12.269531 0.0859375 11.15625 0.015625 C 10.039062 -0.046875 9.066406 -0.101562 8.234375 -0.15625 C 7.398438 -0.21875 6.773438 -0.25 6.359375 -0.25 C 5.640625 -0.25 4.878906 -0.234375 4.078125 -0.203125 C 3.273438 -0.179688 2.34375 -0.113281 1.28125 0 L 1.328125 -1.203125 C 1.691406 -1.234375 2.015625 -1.257812 2.296875 -1.28125 C 2.578125 -1.3125 2.835938 -1.34375 3.078125 -1.375 C 3.316406 -1.40625 3.546875 -1.425781 3.765625 -1.4375 C 3.992188 -1.445312 4.238281 -1.460938 4.5 -1.484375 C 4.632812 -5.597656 4.757812 -9.328125 4.875 -12.671875 C 4.914062 -14.085938 4.960938 -15.488281 5.015625 -16.875 C 5.066406 -18.257812 5.113281 -19.515625 5.15625 -20.640625 C 5.195312 -21.765625 5.226562 -22.707031 5.25 -23.46875 C 5.269531 -24.226562 5.28125 -24.695312 5.28125 -24.875 C 5.28125 -25.5 5.238281 -26.003906 5.15625 -26.390625 C 5.082031 -26.785156 4.957031 -27.09375 4.78125 -27.3125 C 4.613281 -27.53125 4.394531 -27.6875 4.125 -27.78125 C 3.863281 -27.875 3.546875 -27.953125 3.171875 -28.015625 L 2.296875 -28.140625 L 2.296875 -29.359375 C 2.691406 -29.304688 3.191406 -29.253906 3.796875 -29.203125 C 4.316406 -29.148438 4.972656 -29.109375 5.765625 -29.078125 C 6.554688 -29.054688 7.519531 -29.046875 8.65625 -29.046875 L 13.75 -29.046875 C 14.3125 -29.046875 14.859375 -29.046875 15.390625 -29.046875 C 15.921875 -29.054688 16.460938 -29.070312 17.015625 -29.09375 C 17.566406 -29.113281 18.132812 -29.144531 18.71875 -29.1875 C 19.3125 -29.238281 19.945312 -29.296875 20.625 -29.359375 L 19.96875 -22.234375 L 18.6875 -22.234375 C 18.695312 -22.515625 18.703125 -22.734375 18.703125 -22.890625 C 18.710938 -23.054688 18.71875 -23.179688 18.71875 -23.265625 C 18.71875 -23.359375 18.71875 -23.421875 18.71875 -23.453125 C 18.71875 -23.492188 18.71875 -23.53125 18.71875 -23.5625 C 18.71875 -24.019531 18.65625 -24.457031 18.53125 -24.875 C 18.414062 -25.300781 18.1875 -25.679688 17.84375 -26.015625 C 17.5 -26.347656 17.019531 -26.625 16.40625 -26.84375 C 15.800781 -27.0625 15.003906 -27.207031 14.015625 -27.28125 L 8.828125 -27.640625 C 8.710938 -26.484375 8.625 -25.304688 8.5625 -24.109375 C 8.5 -22.921875 8.453125 -21.832031 8.421875 -20.84375 L 8.25 -16.09375 L 17.25 -16.546875 Z M 17.03125 -13.875 "/></g></g></g><g fill="#003070" fill-opacity="1"><g transform="translate(557.285726, 458.414631)"><g><path d="M 9.5625 -0.953125 C 10.40625 -0.953125 11.195312 -1.082031 11.9375 -1.34375 C 12.675781 -1.601562 13.316406 -1.976562 13.859375 -2.46875 C 14.410156 -2.957031 14.84375 -3.554688 15.15625 -4.265625 C 15.476562 -4.984375 15.640625 -5.789062 15.640625 -6.6875 C 15.640625 -7.550781 15.4375 -8.335938 15.03125 -9.046875 C 14.632812 -9.753906 14.128906 -10.410156 13.515625 -11.015625 C 12.910156 -11.617188 12.25 -12.1875 11.53125 -12.71875 C 10.8125 -13.257812 10.128906 -13.789062 9.484375 -14.3125 C 8.859375 -14.789062 8.171875 -15.3125 7.421875 -15.875 C 6.679688 -16.445312 5.984375 -17.078125 5.328125 -17.765625 C 4.671875 -18.460938 4.117188 -19.222656 3.671875 -20.046875 C 3.234375 -20.878906 3.015625 -21.804688 3.015625 -22.828125 C 3.015625 -23.328125 3.0625 -23.851562 3.15625 -24.40625 C 3.257812 -24.96875 3.429688 -25.507812 3.671875 -26.03125 C 3.921875 -26.5625 4.242188 -27.0625 4.640625 -27.53125 C 5.046875 -28.007812 5.550781 -28.425781 6.15625 -28.78125 C 6.769531 -29.144531 7.484375 -29.429688 8.296875 -29.640625 C 9.109375 -29.847656 10.054688 -29.953125 11.140625 -29.953125 C 12.523438 -29.953125 13.859375 -29.84375 15.140625 -29.625 C 16.421875 -29.40625 17.523438 -29.15625 18.453125 -28.875 L 17.984375 -22.53125 L 16.78125 -22.53125 L 16.78125 -23.09375 C 16.78125 -23.625 16.722656 -24.203125 16.609375 -24.828125 C 16.492188 -25.460938 16.25 -26.039062 15.875 -26.5625 C 15.5 -27.09375 14.945312 -27.535156 14.21875 -27.890625 C 13.488281 -28.242188 12.515625 -28.421875 11.296875 -28.421875 C 10.566406 -28.421875 9.898438 -28.316406 9.296875 -28.109375 C 8.703125 -27.898438 8.191406 -27.609375 7.765625 -27.234375 C 7.347656 -26.867188 7.019531 -26.414062 6.78125 -25.875 C 6.550781 -25.34375 6.4375 -24.75 6.4375 -24.09375 C 6.4375 -23.21875 6.609375 -22.441406 6.953125 -21.765625 C 7.296875 -21.097656 7.738281 -20.5 8.28125 -19.96875 C 8.820312 -19.4375 9.421875 -18.941406 10.078125 -18.484375 C 10.742188 -18.023438 11.390625 -17.570312 12.015625 -17.125 C 12.941406 -16.445312 13.828125 -15.773438 14.671875 -15.109375 C 15.523438 -14.441406 16.273438 -13.738281 16.921875 -13 C 17.578125 -12.257812 18.097656 -11.46875 18.484375 -10.625 C 18.867188 -9.78125 19.0625 -8.847656 19.0625 -7.828125 C 19.0625 -6.648438 18.789062 -5.546875 18.25 -4.515625 C 17.71875 -3.492188 17.003906 -2.601562 16.109375 -1.84375 C 15.222656 -1.082031 14.203125 -0.484375 13.046875 -0.046875 C 11.890625 0.390625 10.703125 0.609375 9.484375 0.609375 C 7.984375 0.609375 6.554688 0.488281 5.203125 0.25 C 3.859375 0.0078125 2.6875 -0.257812 1.6875 -0.5625 L 2.203125 -7.265625 L 3.5 -7.265625 L 3.5 -6.515625 C 3.5 -5.929688 3.566406 -5.3125 3.703125 -4.65625 C 3.847656 -4 4.132812 -3.394531 4.5625 -2.84375 C 5 -2.300781 5.613281 -1.847656 6.40625 -1.484375 C 7.195312 -1.128906 8.25 -0.953125 9.5625 -0.953125 Z M 9.5625 -0.953125 "/></g></g></g></svg>