<svg xmlns="http://www.w3.org/2000/svg" xmlns:xlink="http://www.w3.org/1999/xlink" width="1366" zoomAndPan="magnify" viewBox="0 0 1024.5 576" height="768" preserveAspectRatio="xMidYMid meet" version="1.0"><defs><g/><clipPath id="faab150fea"><path d="M 258.066406 67.574219 L 735.207031 67.574219 L 735.207031 81.699219 L 258.066406 81.699219 Z M 258.066406 67.574219 " clip-rule="nonzero"/></clipPath><clipPath id="d3ba553ab0"><path d="M 254.308594 486.113281 L 731.449219 486.113281 L 731.449219 500.238281 L 254.308594 500.238281 Z M 254.308594 486.113281 " clip-rule="nonzero"/></clipPath><clipPath id="65adc51fe4"><path d="M 248.082031 411.355469 L 737.675781 411.355469 L 737.675781 472.242188 L 248.082031 472.242188 Z M 248.082031 411.355469 " clip-rule="nonzero"/></clipPath><clipPath id="1da7c141f3"><path d="M 278.523438 411.355469 L 707.230469 411.355469 C 724.046875 411.355469 737.675781 424.984375 737.675781 441.800781 C 737.675781 458.613281 724.046875 472.242188 707.230469 472.242188 L 278.523438 472.242188 C 261.710938 472.242188 248.082031 458.613281 248.082031 441.800781 C 248.082031 424.984375 261.710938 411.355469 278.523438 411.355469 Z M 278.523438 411.355469 " clip-rule="nonzero"/></clipPath><clipPath id="510e21b5cc"><path d="M 248.082031 411.355469 L 737.140625 411.355469 L 737.140625 472.84375 L 248.082031 472.84375 Z M 248.082031 411.355469 " clip-rule="nonzero"/></clipPath><clipPath id="e34f7168b4"><path d="M 278.523438 411.355469 L 707.214844 411.355469 C 724.027344 411.355469 737.65625 424.984375 737.65625 441.800781 C 737.65625 458.613281 724.027344 472.242188 707.214844 472.242188 L 278.523438 472.242188 C 261.710938 472.242188 248.082031 458.613281 248.082031 441.800781 C 248.082031 424.984375 261.710938 411.355469 278.523438 411.355469 Z M 278.523438 411.355469 " clip-rule="nonzero"/></clipPath></defs><g fill="#003070" fill-opacity="1"><g transform="translate(121.85156, 444.252608)"><g><path d="M 212.484375 -319.921875 L 198.828125 -302.484375 C 193.171875 -305.617188 187.828125 -308.441406 182.796875 -310.953125 C 177.773438 -313.472656 172.671875 -315.515625 167.484375 -317.078125 C 162.304688 -318.648438 156.8125 -319.828125 151 -320.609375 C 145.195312 -321.398438 138.523438 -321.796875 130.984375 -321.796875 C 115.585938 -321.796875 101.84375 -319.28125 89.75 -314.25 C 77.65625 -309.226562 67.367188 -302.476562 58.890625 -294 C 50.410156 -285.519531 43.972656 -275.78125 39.578125 -264.78125 C 35.179688 -253.789062 32.984375 -242.171875 32.984375 -229.921875 C 32.984375 -213.273438 38.085938 -198.039062 48.296875 -184.21875 C 58.503906 -170.394531 74.441406 -159.875 96.109375 -152.65625 C 106.472656 -149.195312 115.269531 -146.367188 122.5 -144.171875 C 129.726562 -141.972656 136.484375 -139.851562 142.765625 -137.8125 C 149.046875 -135.769531 155.40625 -133.570312 161.84375 -131.21875 C 168.28125 -128.863281 175.738281 -125.644531 184.21875 -121.5625 C 194.894531 -116.53125 202.117188 -109.535156 205.890625 -100.578125 C 209.660156 -91.628906 211.546875 -82.601562 211.546875 -73.5 C 211.546875 -62.1875 209.347656 -51.894531 204.953125 -42.625 C 200.554688 -33.363281 194.742188 -25.59375 187.515625 -19.3125 C 180.296875 -13.03125 171.972656 -8.160156 162.546875 -4.703125 C 153.128906 -1.253906 143.550781 0.46875 133.8125 0.46875 C 122.5 0.46875 111.660156 -1.492188 101.296875 -5.421875 C 90.929688 -9.347656 81.347656 -14.921875 72.546875 -22.140625 C 63.753906 -29.367188 56.140625 -38.320312 49.703125 -49 C 43.265625 -59.675781 38.316406 -71.613281 34.859375 -84.8125 C 33.921875 -88.894531 32.195312 -90.9375 29.6875 -90.9375 C 27.488281 -90.9375 26.390625 -88.738281 26.390625 -84.34375 L 26.390625 0 C 26.390625 4.082031 27.800781 6.125 30.625 6.125 C 32.507812 6.125 34.550781 4.550781 36.75 1.40625 L 53.71875 -23.09375 C 57.476562 -19.632812 62.109375 -16.019531 67.609375 -12.25 C 73.109375 -8.476562 79.234375 -5.019531 85.984375 -1.875 C 92.734375 1.257812 99.957031 3.847656 107.65625 5.890625 C 115.351562 7.929688 123.285156 8.953125 131.453125 8.953125 C 146.523438 8.953125 160.5 6.203125 173.375 0.703125 C 186.257812 -4.785156 197.410156 -12.398438 206.828125 -22.140625 C 216.253906 -31.878906 223.71875 -43.421875 229.21875 -56.765625 C 234.71875 -70.117188 237.46875 -84.492188 237.46875 -99.890625 C 237.46875 -120.929688 232.519531 -138.753906 222.625 -153.359375 C 212.726562 -167.960938 197.097656 -178.40625 175.734375 -184.6875 C 168.515625 -186.882812 161.765625 -188.769531 155.484375 -190.34375 C 149.203125 -191.914062 142.757812 -193.644531 136.15625 -195.53125 C 129.5625 -197.414062 122.648438 -199.535156 115.421875 -201.890625 C 108.203125 -204.242188 100.195312 -207.148438 91.40625 -210.609375 C 81.664062 -214.378906 74.28125 -220.1875 69.25 -228.03125 C 64.226562 -235.882812 61.71875 -244.992188 61.71875 -255.359375 C 61.71875 -265.097656 63.757812 -273.65625 67.84375 -281.03125 C 71.925781 -288.414062 77.1875 -294.460938 83.625 -299.171875 C 90.0625 -303.890625 97.441406 -307.425781 105.765625 -309.78125 C 114.097656 -312.132812 122.503906 -313.3125 130.984375 -313.3125 C 143.859375 -313.3125 155.164062 -311.113281 164.90625 -306.71875 C 174.644531 -302.320312 182.8125 -296.507812 189.40625 -289.28125 C 196 -282.0625 201.257812 -273.738281 205.1875 -264.3125 C 209.113281 -254.894531 211.707031 -245.160156 212.96875 -235.109375 C 213.28125 -231.960938 214.691406 -230.390625 217.203125 -230.390625 C 219.398438 -230.390625 220.5 -231.960938 220.5 -235.109375 L 220.5 -318.96875 C 220.5 -322.113281 219.554688 -323.6875 217.671875 -323.6875 C 216.097656 -323.6875 214.367188 -322.429688 212.484375 -319.921875 Z M 212.484375 -319.921875 "/></g></g></g><g fill="#003070" fill-opacity="1"><g transform="translate(352.718308, 444.252608)"><g><path d="M 261.484375 -87.15625 C 258.972656 -75.226562 256.300781 -64.394531 253.46875 -54.65625 C 250.644531 -44.914062 246.878906 -36.507812 242.171875 -29.4375 C 237.460938 -22.375 231.492188 -16.957031 224.265625 -13.1875 C 217.046875 -9.414062 207.9375 -7.53125 196.9375 -7.53125 L 100.359375 -7.53125 L 100.359375 -309.078125 L 145.109375 -309.078125 L 145.109375 -316.609375 L 14.140625 -316.609375 L 14.140625 -309.078125 L 54.65625 -309.078125 L 54.65625 -7.53125 L 14.140625 -7.53125 L 14.140625 0 L 256.78125 0 C 265.882812 0 270.4375 -5.023438 270.4375 -15.078125 L 270.4375 -85.75 C 270.4375 -93.289062 269.179688 -97.0625 266.671875 -97.0625 C 264.472656 -97.0625 262.742188 -93.757812 261.484375 -87.15625 Z M 261.484375 -87.15625 "/></g></g></g><g fill="#003070" fill-opacity="1"><g transform="translate(610.441082, 444.252608)"><g><path d="M 170.09375 -7.53125 L 170.09375 -309.078125 L 210.609375 -309.078125 C 225.054688 -309.078125 237.695312 -301.695312 248.53125 -286.9375 C 259.375 -272.175781 266.519531 -252.070312 269.96875 -226.625 L 279.859375 -226.625 L 272.796875 -308.609375 C 272.484375 -313.941406 269.34375 -316.609375 263.375 -316.609375 L 31.09375 -316.609375 C 25.125 -316.609375 21.984375 -313.941406 21.671875 -308.609375 L 14.609375 -226.625 L 24.5 -226.625 C 27.957031 -252.070312 35.101562 -272.175781 45.9375 -286.9375 C 56.769531 -301.695312 69.410156 -309.078125 83.859375 -309.078125 L 124.390625 -309.078125 L 124.390625 -7.53125 L 83.859375 -7.53125 L 83.859375 0 L 210.609375 0 L 210.609375 -7.53125 Z M 170.09375 -7.53125 "/></g></g></g><g clip-path="url(#faab150fea)"><path fill="#003070" d="M 258.066406 67.574219 L 735.207031 67.574219 L 735.207031 81.699219 L 258.066406 81.699219 Z M 258.066406 67.574219 " fill-opacity="1" fill-rule="nonzero"/></g><g clip-path="url(#d3ba553ab0)"><path fill="#003070" d="M 254.308594 486.113281 L 731.449219 486.113281 L 731.449219 500.238281 L 254.308594 500.238281 Z M 254.308594 486.113281 " fill-opacity="1" fill-rule="nonzero"/></g><g clip-path="url(#65adc51fe4)"><g clip-path="url(#1da7c141f3)"><path fill="#ffffff" d="M 248.082031 411.355469 L 737.675781 411.355469 L 737.675781 472.242188 L 248.082031 472.242188 Z M 248.082031 411.355469 " fill-opacity="1" fill-rule="nonzero"/></g></g><g clip-path="url(#510e21b5cc)"><g clip-path="url(#e34f7168b4)"><path stroke-linecap="butt" transform="matrix(1.43, 0, 0, 1.43, 248.081659, 411.356464)" fill="none" stroke-linejoin="miter" d="M 21.287958 -0.000695703 L 321.072173 -0.000695703 C 332.829167 -0.000695703 342.359871 9.530008 342.359871 21.289734 C 342.359871 33.046727 332.829167 42.577431 321.072173 42.577431 L 21.287958 42.577431 C 9.530964 42.577431 0.000260207 33.046727 0.000260207 21.289734 C 0.000260207 9.530008 9.530964 -0.000695703 21.287958 -0.000695703 Z M 21.287958 -0.000695703 " stroke="#000000" stroke-width="1.048439" stroke-opacity="1" stroke-miterlimit="4"/></g></g><g fill="#003070" fill-opacity="1"><g transform="translate(383.597651, 455.040941)"><g><path d="M 12.5 -24.1875 L 8.125 -11.484375 L 16.578125 -11.484375 L 13.09375 -24.1875 Z M 14.3125 -29.84375 L 21.3125 -7.203125 C 21.820312 -5.515625 22.378906 -4.15625 22.984375 -3.125 C 23.585938 -2.101562 24.347656 -1.515625 25.265625 -1.359375 L 26.40625 -1.171875 L 26.359375 0 C 25.660156 -0.0820312 24.898438 -0.144531 24.078125 -0.1875 C 23.253906 -0.226562 22.414062 -0.25 21.5625 -0.25 C 20.644531 -0.25 19.753906 -0.226562 18.890625 -0.1875 C 18.023438 -0.144531 17.195312 -0.0820312 16.40625 0 L 16.453125 -1.171875 L 19.359375 -1.453125 L 16.984375 -10.03125 L 16.1875 -10.03125 C 15.8125 -10.03125 15.316406 -10.023438 14.703125 -10.015625 C 14.097656 -10.015625 13.410156 -10 12.640625 -9.96875 C 11.878906 -9.945312 11.054688 -9.90625 10.171875 -9.84375 C 9.296875 -9.789062 8.390625 -9.71875 7.453125 -9.625 L 6.3125 -6.4375 C 6.0625 -5.769531 5.84375 -5.140625 5.65625 -4.546875 C 5.46875 -3.953125 5.375 -3.4375 5.375 -3 C 5.375 -2.5625 5.488281 -2.195312 5.71875 -1.90625 C 5.957031 -1.625 6.367188 -1.441406 6.953125 -1.359375 L 8.171875 -1.171875 L 8.125 0 C 7.382812 -0.0820312 6.671875 -0.148438 5.984375 -0.203125 C 5.304688 -0.265625 4.59375 -0.296875 3.84375 -0.296875 C 3.101562 -0.296875 2.332031 -0.265625 1.53125 -0.203125 C 0.726562 -0.148438 -0.160156 -0.0820312 -1.140625 0 L -1.09375 -1.171875 C -0.695312 -1.210938 -0.316406 -1.253906 0.046875 -1.296875 C 0.359375 -1.328125 0.671875 -1.351562 0.984375 -1.375 C 1.304688 -1.40625 1.570312 -1.429688 1.78125 -1.453125 C 2.34375 -2.640625 2.929688 -3.9375 3.546875 -5.34375 C 4.160156 -6.75 4.785156 -8.222656 5.421875 -9.765625 C 6.066406 -11.304688 6.707031 -12.90625 7.34375 -14.5625 C 7.988281 -16.21875 8.625 -17.878906 9.25 -19.546875 C 9.875 -21.222656 10.46875 -22.882812 11.03125 -24.53125 C 11.601562 -26.1875 12.144531 -27.796875 12.65625 -29.359375 Z M 14.3125 -29.84375 "/></g></g></g><g fill="#003070" fill-opacity="1"><g transform="translate(410.215216, 455.040941)"><g><path d="M 9.375 -0.9375 C 10.195312 -0.9375 10.96875 -1.0625 11.6875 -1.3125 C 12.414062 -1.570312 13.050781 -1.941406 13.59375 -2.421875 C 14.132812 -2.898438 14.554688 -3.488281 14.859375 -4.1875 C 15.171875 -4.882812 15.328125 -5.675781 15.328125 -6.5625 C 15.328125 -7.40625 15.128906 -8.171875 14.734375 -8.859375 C 14.347656 -9.554688 13.851562 -10.203125 13.25 -10.796875 C 12.65625 -11.390625 12.003906 -11.945312 11.296875 -12.46875 C 10.585938 -13 9.921875 -13.519531 9.296875 -14.03125 C 8.679688 -14.5 8.007812 -15.007812 7.28125 -15.5625 C 6.550781 -16.125 5.863281 -16.742188 5.21875 -17.421875 C 4.582031 -18.097656 4.046875 -18.84375 3.609375 -19.65625 C 3.171875 -20.46875 2.953125 -21.367188 2.953125 -22.359375 C 2.953125 -22.859375 3 -23.378906 3.09375 -23.921875 C 3.195312 -24.472656 3.367188 -25.003906 3.609375 -25.515625 C 3.847656 -26.035156 4.164062 -26.523438 4.5625 -26.984375 C 4.957031 -27.453125 5.453125 -27.859375 6.046875 -28.203125 C 6.640625 -28.554688 7.332031 -28.835938 8.125 -29.046875 C 8.925781 -29.253906 9.859375 -29.359375 10.921875 -29.359375 C 12.273438 -29.359375 13.578125 -29.25 14.828125 -29.03125 C 16.085938 -28.820312 17.171875 -28.582031 18.078125 -28.3125 L 17.625 -22.078125 L 16.453125 -22.078125 L 16.453125 -22.640625 C 16.453125 -23.160156 16.394531 -23.726562 16.28125 -24.34375 C 16.175781 -24.957031 15.9375 -25.519531 15.5625 -26.03125 C 15.1875 -26.550781 14.644531 -26.984375 13.9375 -27.328125 C 13.226562 -27.671875 12.269531 -27.84375 11.0625 -27.84375 C 10.351562 -27.84375 9.703125 -27.742188 9.109375 -27.546875 C 8.523438 -27.347656 8.023438 -27.066406 7.609375 -26.703125 C 7.203125 -26.335938 6.882812 -25.890625 6.65625 -25.359375 C 6.425781 -24.835938 6.3125 -24.253906 6.3125 -23.609375 C 6.3125 -22.753906 6.476562 -22 6.8125 -21.34375 C 7.15625 -20.6875 7.59375 -20.09375 8.125 -19.5625 C 8.65625 -19.039062 9.242188 -18.554688 9.890625 -18.109375 C 10.535156 -17.660156 11.160156 -17.21875 11.765625 -16.78125 C 12.679688 -16.113281 13.554688 -15.453125 14.390625 -14.796875 C 15.222656 -14.148438 15.957031 -13.460938 16.59375 -12.734375 C 17.226562 -12.015625 17.734375 -11.238281 18.109375 -10.40625 C 18.492188 -9.582031 18.6875 -8.671875 18.6875 -7.671875 C 18.6875 -6.515625 18.421875 -5.429688 17.890625 -4.421875 C 17.367188 -3.421875 16.671875 -2.546875 15.796875 -1.796875 C 14.921875 -1.054688 13.914062 -0.472656 12.78125 -0.046875 C 11.65625 0.378906 10.492188 0.59375 9.296875 0.59375 C 7.828125 0.59375 6.429688 0.472656 5.109375 0.234375 C 3.785156 0.00390625 2.632812 -0.257812 1.65625 -0.5625 L 2.15625 -7.125 L 3.4375 -7.125 L 3.4375 -6.390625 C 3.4375 -5.816406 3.503906 -5.207031 3.640625 -4.5625 C 3.773438 -3.914062 4.050781 -3.320312 4.46875 -2.78125 C 4.894531 -2.25 5.5 -1.804688 6.28125 -1.453125 C 7.0625 -1.109375 8.09375 -0.9375 9.375 -0.9375 Z M 9.375 -0.9375 "/></g></g></g><g fill="#003070" fill-opacity="1"><g transform="translate(431.494703, 455.040941)"><g><path d="M 16.703125 -13.59375 C 15.867188 -13.707031 15.023438 -13.800781 14.171875 -13.875 C 13.328125 -13.957031 12.519531 -14.023438 11.75 -14.078125 C 10.976562 -14.140625 10.269531 -14.1875 9.625 -14.21875 C 8.988281 -14.257812 8.460938 -14.289062 8.046875 -14.3125 C 7.992188 -12.65625 7.941406 -11.144531 7.890625 -9.78125 C 7.859375 -9.207031 7.832031 -8.628906 7.8125 -8.046875 C 7.800781 -7.472656 7.785156 -6.9375 7.765625 -6.4375 C 7.742188 -5.945312 7.726562 -5.53125 7.71875 -5.1875 C 7.71875 -4.84375 7.71875 -4.609375 7.71875 -4.484375 C 7.71875 -3.765625 7.8125 -3.191406 8 -2.765625 C 8.195312 -2.335938 8.488281 -2.015625 8.875 -1.796875 C 9.269531 -1.578125 9.757812 -1.429688 10.34375 -1.359375 C 10.925781 -1.296875 11.601562 -1.265625 12.375 -1.265625 C 13.476562 -1.265625 14.414062 -1.332031 15.1875 -1.46875 C 15.96875 -1.601562 16.628906 -1.859375 17.171875 -2.234375 C 17.722656 -2.609375 18.171875 -3.125 18.515625 -3.78125 C 18.859375 -4.4375 19.140625 -5.28125 19.359375 -6.3125 L 20.671875 -6.3125 C 20.617188 -5.9375 20.535156 -5.46875 20.421875 -4.90625 C 20.304688 -4.34375 20.171875 -3.742188 20.015625 -3.109375 C 19.859375 -2.484375 19.671875 -1.859375 19.453125 -1.234375 C 19.242188 -0.617188 19.015625 -0.0703125 18.765625 0.40625 C 17.304688 0.375 15.910156 0.316406 14.578125 0.234375 C 13.242188 0.160156 12.03125 0.0859375 10.9375 0.015625 C 9.84375 -0.046875 8.882812 -0.101562 8.0625 -0.15625 C 7.25 -0.21875 6.640625 -0.25 6.234375 -0.25 C 5.523438 -0.25 4.773438 -0.234375 3.984375 -0.203125 C 3.203125 -0.179688 2.296875 -0.113281 1.265625 0 L 1.296875 -1.171875 C 1.660156 -1.203125 1.976562 -1.226562 2.25 -1.25 C 2.53125 -1.28125 2.785156 -1.3125 3.015625 -1.34375 C 3.253906 -1.375 3.484375 -1.394531 3.703125 -1.40625 C 3.921875 -1.414062 4.15625 -1.429688 4.40625 -1.453125 C 4.539062 -5.492188 4.664062 -9.148438 4.78125 -12.421875 C 4.820312 -13.804688 4.863281 -15.175781 4.90625 -16.53125 C 4.957031 -17.894531 5.003906 -19.128906 5.046875 -20.234375 C 5.085938 -21.335938 5.117188 -22.257812 5.140625 -23 C 5.160156 -23.75 5.171875 -24.207031 5.171875 -24.375 C 5.171875 -25 5.128906 -25.5 5.046875 -25.875 C 4.972656 -26.25 4.851562 -26.539062 4.6875 -26.75 C 4.53125 -26.96875 4.316406 -27.125 4.046875 -27.21875 C 3.785156 -27.320312 3.472656 -27.398438 3.109375 -27.453125 L 2.25 -27.578125 L 2.25 -28.78125 C 2.632812 -28.726562 3.125 -28.671875 3.71875 -28.609375 C 4.226562 -28.566406 4.867188 -28.53125 5.640625 -28.5 C 6.421875 -28.476562 7.367188 -28.46875 8.484375 -28.46875 L 13.46875 -28.46875 C 14.019531 -28.46875 14.554688 -28.46875 15.078125 -28.46875 C 15.609375 -28.476562 16.140625 -28.492188 16.671875 -28.515625 C 17.210938 -28.535156 17.769531 -28.566406 18.34375 -28.609375 C 18.925781 -28.648438 19.550781 -28.707031 20.21875 -28.78125 L 19.578125 -21.78125 L 18.3125 -21.78125 C 18.320312 -22.0625 18.332031 -22.28125 18.34375 -22.4375 C 18.351562 -22.59375 18.359375 -22.71875 18.359375 -22.8125 C 18.359375 -22.90625 18.359375 -22.96875 18.359375 -23 C 18.359375 -23.03125 18.359375 -23.0625 18.359375 -23.09375 C 18.359375 -23.550781 18.296875 -23.984375 18.171875 -24.390625 C 18.054688 -24.804688 17.828125 -25.175781 17.484375 -25.5 C 17.148438 -25.820312 16.679688 -26.085938 16.078125 -26.296875 C 15.484375 -26.515625 14.703125 -26.660156 13.734375 -26.734375 L 8.65625 -27.078125 C 8.539062 -25.953125 8.453125 -24.804688 8.390625 -23.640625 C 8.328125 -22.472656 8.28125 -21.398438 8.25 -20.421875 L 8.09375 -15.765625 L 16.90625 -16.21875 Z M 16.703125 -13.59375 "/></g></g></g><g fill="#003070" fill-opacity="1"><g transform="translate(453.870775, 455.040941)"><g><path d="M 9.375 -0.9375 C 10.195312 -0.9375 10.96875 -1.0625 11.6875 -1.3125 C 12.414062 -1.570312 13.050781 -1.941406 13.59375 -2.421875 C 14.132812 -2.898438 14.554688 -3.488281 14.859375 -4.1875 C 15.171875 -4.882812 15.328125 -5.675781 15.328125 -6.5625 C 15.328125 -7.40625 15.128906 -8.171875 14.734375 -8.859375 C 14.347656 -9.554688 13.851562 -10.203125 13.25 -10.796875 C 12.65625 -11.390625 12.003906 -11.945312 11.296875 -12.46875 C 10.585938 -13 9.921875 -13.519531 9.296875 -14.03125 C 8.679688 -14.5 8.007812 -15.007812 7.28125 -15.5625 C 6.550781 -16.125 5.863281 -16.742188 5.21875 -17.421875 C 4.582031 -18.097656 4.046875 -18.84375 3.609375 -19.65625 C 3.171875 -20.46875 2.953125 -21.367188 2.953125 -22.359375 C 2.953125 -22.859375 3 -23.378906 3.09375 -23.921875 C 3.195312 -24.472656 3.367188 -25.003906 3.609375 -25.515625 C 3.847656 -26.035156 4.164062 -26.523438 4.5625 -26.984375 C 4.957031 -27.453125 5.453125 -27.859375 6.046875 -28.203125 C 6.640625 -28.554688 7.332031 -28.835938 8.125 -29.046875 C 8.925781 -29.253906 9.859375 -29.359375 10.921875 -29.359375 C 12.273438 -29.359375 13.578125 -29.25 14.828125 -29.03125 C 16.085938 -28.820312 17.171875 -28.582031 18.078125 -28.3125 L 17.625 -22.078125 L 16.453125 -22.078125 L 16.453125 -22.640625 C 16.453125 -23.160156 16.394531 -23.726562 16.28125 -24.34375 C 16.175781 -24.957031 15.9375 -25.519531 15.5625 -26.03125 C 15.1875 -26.550781 14.644531 -26.984375 13.9375 -27.328125 C 13.226562 -27.671875 12.269531 -27.84375 11.0625 -27.84375 C 10.351562 -27.84375 9.703125 -27.742188 9.109375 -27.546875 C 8.523438 -27.347656 8.023438 -27.066406 7.609375 -26.703125 C 7.203125 -26.335938 6.882812 -25.890625 6.65625 -25.359375 C 6.425781 -24.835938 6.3125 -24.253906 6.3125 -23.609375 C 6.3125 -22.753906 6.476562 -22 6.8125 -21.34375 C 7.15625 -20.6875 7.59375 -20.09375 8.125 -19.5625 C 8.65625 -19.039062 9.242188 -18.554688 9.890625 -18.109375 C 10.535156 -17.660156 11.160156 -17.21875 11.765625 -16.78125 C 12.679688 -16.113281 13.554688 -15.453125 14.390625 -14.796875 C 15.222656 -14.148438 15.957031 -13.460938 16.59375 -12.734375 C 17.226562 -12.015625 17.734375 -11.238281 18.109375 -10.40625 C 18.492188 -9.582031 18.6875 -8.671875 18.6875 -7.671875 C 18.6875 -6.515625 18.421875 -5.429688 17.890625 -4.421875 C 17.367188 -3.421875 16.671875 -2.546875 15.796875 -1.796875 C 14.921875 -1.054688 13.914062 -0.472656 12.78125 -0.046875 C 11.65625 0.378906 10.492188 0.59375 9.296875 0.59375 C 7.828125 0.59375 6.429688 0.472656 5.109375 0.234375 C 3.785156 0.00390625 2.632812 -0.257812 1.65625 -0.5625 L 2.15625 -7.125 L 3.4375 -7.125 L 3.4375 -6.390625 C 3.4375 -5.816406 3.503906 -5.207031 3.640625 -4.5625 C 3.773438 -3.914062 4.050781 -3.320312 4.46875 -2.78125 C 4.894531 -2.25 5.5 -1.804688 6.28125 -1.453125 C 7.0625 -1.109375 8.09375 -0.9375 9.375 -0.9375 Z M 9.375 -0.9375 "/></g></g></g><g fill="#003070" fill-opacity="1"><g transform="translate(475.150258, 455.040941)"><g><path d="M 5.703125 -14.71875 C 5.703125 -12.914062 5.945312 -11.1875 6.4375 -9.53125 C 6.9375 -7.882812 7.648438 -6.421875 8.578125 -5.140625 C 9.503906 -3.867188 10.644531 -2.847656 12 -2.078125 C 13.351562 -1.316406 14.890625 -0.9375 16.609375 -0.9375 C 18.265625 -0.9375 19.722656 -1.265625 20.984375 -1.921875 C 22.253906 -2.585938 23.304688 -3.492188 24.140625 -4.640625 C 24.984375 -5.796875 25.617188 -7.140625 26.046875 -8.671875 C 26.472656 -10.210938 26.6875 -11.867188 26.6875 -13.640625 C 26.6875 -15.617188 26.4375 -17.472656 25.9375 -19.203125 C 25.4375 -20.941406 24.726562 -22.453125 23.8125 -23.734375 C 22.90625 -25.015625 21.816406 -26.019531 20.546875 -26.75 C 19.285156 -27.476562 17.90625 -27.84375 16.40625 -27.84375 C 15.625 -27.84375 14.816406 -27.753906 13.984375 -27.578125 C 13.160156 -27.410156 12.347656 -27.125 11.546875 -26.71875 C 10.753906 -26.3125 10.003906 -25.773438 9.296875 -25.109375 C 8.585938 -24.453125 7.96875 -23.632812 7.4375 -22.65625 C 6.90625 -21.6875 6.484375 -20.546875 6.171875 -19.234375 C 5.859375 -17.929688 5.703125 -16.425781 5.703125 -14.71875 Z M 1.90625 -14.28125 C 1.90625 -16.445312 2.273438 -18.453125 3.015625 -20.296875 C 3.765625 -22.148438 4.8125 -23.742188 6.15625 -25.078125 C 7.507812 -26.410156 9.132812 -27.457031 11.03125 -28.21875 C 12.9375 -28.976562 15.039062 -29.359375 17.34375 -29.359375 C 18.75 -29.359375 20.050781 -29.164062 21.25 -28.78125 C 22.445312 -28.40625 23.535156 -27.882812 24.515625 -27.21875 C 25.492188 -26.550781 26.363281 -25.757812 27.125 -24.84375 C 27.882812 -23.9375 28.519531 -22.953125 29.03125 -21.890625 C 29.550781 -20.835938 29.941406 -19.722656 30.203125 -18.546875 C 30.472656 -17.378906 30.609375 -16.210938 30.609375 -15.046875 C 30.609375 -12.742188 30.234375 -10.632812 29.484375 -8.71875 C 28.742188 -6.8125 27.726562 -5.164062 26.4375 -3.78125 C 25.15625 -2.394531 23.664062 -1.316406 21.96875 -0.546875 C 20.269531 0.210938 18.472656 0.59375 16.578125 0.59375 C 14.929688 0.59375 13.425781 0.394531 12.0625 0 C 10.707031 -0.382812 9.484375 -0.925781 8.390625 -1.625 C 7.304688 -2.320312 6.359375 -3.140625 5.546875 -4.078125 C 4.734375 -5.023438 4.054688 -6.050781 3.515625 -7.15625 C 2.972656 -8.257812 2.566406 -9.414062 2.296875 -10.625 C 2.035156 -11.832031 1.90625 -13.050781 1.90625 -14.28125 Z M 1.90625 -14.28125 "/></g></g></g><g fill="#003070" fill-opacity="1"><g transform="translate(507.954199, 455.040941)"><g><path d="M 1.265625 -1.171875 C 1.617188 -1.203125 1.929688 -1.226562 2.203125 -1.25 C 2.484375 -1.28125 2.738281 -1.3125 2.96875 -1.34375 C 3.207031 -1.375 3.4375 -1.394531 3.65625 -1.40625 C 3.882812 -1.414062 4.117188 -1.429688 4.359375 -1.453125 C 4.429688 -3.285156 4.5 -5.097656 4.5625 -6.890625 C 4.625 -8.679688 4.679688 -10.394531 4.734375 -12.03125 C 4.796875 -13.675781 4.851562 -15.207031 4.90625 -16.625 C 4.957031 -18.050781 5.003906 -19.304688 5.046875 -20.390625 C 5.085938 -21.484375 5.117188 -22.378906 5.140625 -23.078125 C 5.160156 -23.785156 5.171875 -24.242188 5.171875 -24.453125 C 5.171875 -25.046875 5.128906 -25.53125 5.046875 -25.90625 C 4.960938 -26.28125 4.832031 -26.570312 4.65625 -26.78125 C 4.488281 -27 4.273438 -27.148438 4.015625 -27.234375 C 3.753906 -27.328125 3.453125 -27.398438 3.109375 -27.453125 L 2.1875 -27.578125 L 2.1875 -28.78125 C 2.570312 -28.726562 2.988281 -28.671875 3.4375 -28.609375 C 3.8125 -28.566406 4.234375 -28.53125 4.703125 -28.5 C 5.179688 -28.476562 5.675781 -28.46875 6.1875 -28.46875 C 6.65625 -28.46875 7.101562 -28.492188 7.53125 -28.546875 C 7.957031 -28.609375 8.394531 -28.671875 8.84375 -28.734375 C 9.300781 -28.796875 9.785156 -28.851562 10.296875 -28.90625 C 10.804688 -28.957031 11.375 -28.984375 12 -28.984375 C 13.65625 -28.984375 15.066406 -28.78125 16.234375 -28.375 C 17.410156 -27.96875 18.367188 -27.421875 19.109375 -26.734375 C 19.859375 -26.054688 20.40625 -25.28125 20.75 -24.40625 C 21.09375 -23.53125 21.265625 -22.628906 21.265625 -21.703125 C 21.265625 -20.429688 21.035156 -19.335938 20.578125 -18.421875 C 20.117188 -17.515625 19.550781 -16.75 18.875 -16.125 C 18.207031 -15.5 17.5 -14.992188 16.75 -14.609375 C 16 -14.234375 15.332031 -13.957031 14.75 -13.78125 C 15.800781 -11.894531 16.867188 -10.113281 17.953125 -8.4375 C 19.046875 -6.769531 20.117188 -5.304688 21.171875 -4.046875 C 22.234375 -2.796875 23.253906 -1.804688 24.234375 -1.078125 C 25.222656 -0.359375 26.144531 0 27 0 L 26.953125 0.71875 C 26.429688 0.800781 25.921875 0.84375 25.421875 0.84375 C 24.296875 0.820312 23.210938 0.550781 22.171875 0.03125 C 21.128906 -0.488281 20.140625 -1.15625 19.203125 -1.96875 C 18.265625 -2.78125 17.382812 -3.695312 16.5625 -4.71875 C 15.738281 -5.75 14.984375 -6.78125 14.296875 -7.8125 C 13.617188 -8.851562 13.019531 -9.84375 12.5 -10.78125 C 11.976562 -11.71875 11.539062 -12.519531 11.1875 -13.1875 C 10.832031 -13.15625 10.457031 -13.128906 10.0625 -13.109375 C 9.664062 -13.097656 9.25 -13.09375 8.8125 -13.09375 L 7.96875 -13.09375 C 7.957031 -12.6875 7.941406 -12.207031 7.921875 -11.65625 C 7.898438 -11.113281 7.878906 -10.550781 7.859375 -9.96875 C 7.835938 -9.394531 7.816406 -8.8125 7.796875 -8.21875 C 7.773438 -7.625 7.753906 -7.070312 7.734375 -6.5625 C 7.722656 -6.050781 7.707031 -5.597656 7.6875 -5.203125 C 7.675781 -4.804688 7.671875 -4.515625 7.671875 -4.328125 C 7.671875 -3.734375 7.710938 -3.253906 7.796875 -2.890625 C 7.878906 -2.523438 8.003906 -2.226562 8.171875 -2 C 8.335938 -1.78125 8.550781 -1.625 8.8125 -1.53125 C 9.070312 -1.4375 9.382812 -1.359375 9.75 -1.296875 L 10.640625 -1.171875 L 10.640625 0 C 10.335938 -0.0390625 9.96875 -0.0859375 9.53125 -0.140625 C 9.175781 -0.171875 8.734375 -0.203125 8.203125 -0.234375 C 7.679688 -0.273438 7.078125 -0.296875 6.390625 -0.296875 C 5.691406 -0.296875 4.921875 -0.273438 4.078125 -0.234375 C 3.234375 -0.191406 2.296875 -0.113281 1.265625 0 Z M 8 -14.53125 L 9.1875 -14.53125 C 10.90625 -14.53125 12.332031 -14.734375 13.46875 -15.140625 C 14.601562 -15.546875 15.5 -16.078125 16.15625 -16.734375 C 16.820312 -17.398438 17.285156 -18.160156 17.546875 -19.015625 C 17.816406 -19.867188 17.953125 -20.75 17.953125 -21.65625 C 17.953125 -22.101562 17.90625 -22.554688 17.8125 -23.015625 C 17.726562 -23.484375 17.578125 -23.9375 17.359375 -24.375 C 17.148438 -24.8125 16.867188 -25.226562 16.515625 -25.625 C 16.171875 -26.019531 15.742188 -26.363281 15.234375 -26.65625 C 14.734375 -26.957031 14.140625 -27.191406 13.453125 -27.359375 C 12.773438 -27.535156 11.992188 -27.625 11.109375 -27.625 C 10.609375 -27.625 10.160156 -27.609375 9.765625 -27.578125 C 9.367188 -27.554688 8.925781 -27.503906 8.4375 -27.421875 Z M 8 -14.53125 "/></g></g></g><g fill="#003070" fill-opacity="1"><g transform="translate(534.013125, 455.040941)"><g><path d="M 16.703125 -13.59375 C 15.867188 -13.707031 15.023438 -13.800781 14.171875 -13.875 C 13.328125 -13.957031 12.519531 -14.023438 11.75 -14.078125 C 10.976562 -14.140625 10.269531 -14.1875 9.625 -14.21875 C 8.988281 -14.257812 8.460938 -14.289062 8.046875 -14.3125 C 7.992188 -12.65625 7.941406 -11.144531 7.890625 -9.78125 C 7.859375 -9.207031 7.832031 -8.628906 7.8125 -8.046875 C 7.800781 -7.472656 7.785156 -6.9375 7.765625 -6.4375 C 7.742188 -5.945312 7.726562 -5.53125 7.71875 -5.1875 C 7.71875 -4.84375 7.71875 -4.609375 7.71875 -4.484375 C 7.71875 -3.765625 7.8125 -3.191406 8 -2.765625 C 8.195312 -2.335938 8.488281 -2.015625 8.875 -1.796875 C 9.269531 -1.578125 9.757812 -1.429688 10.34375 -1.359375 C 10.925781 -1.296875 11.601562 -1.265625 12.375 -1.265625 C 13.476562 -1.265625 14.414062 -1.332031 15.1875 -1.46875 C 15.96875 -1.601562 16.628906 -1.859375 17.171875 -2.234375 C 17.722656 -2.609375 18.171875 -3.125 18.515625 -3.78125 C 18.859375 -4.4375 19.140625 -5.28125 19.359375 -6.3125 L 20.671875 -6.3125 C 20.617188 -5.9375 20.535156 -5.46875 20.421875 -4.90625 C 20.304688 -4.34375 20.171875 -3.742188 20.015625 -3.109375 C 19.859375 -2.484375 19.671875 -1.859375 19.453125 -1.234375 C 19.242188 -0.617188 19.015625 -0.0703125 18.765625 0.40625 C 17.304688 0.375 15.910156 0.316406 14.578125 0.234375 C 13.242188 0.160156 12.03125 0.0859375 10.9375 0.015625 C 9.84375 -0.046875 8.882812 -0.101562 8.0625 -0.15625 C 7.25 -0.21875 6.640625 -0.25 6.234375 -0.25 C 5.523438 -0.25 4.773438 -0.234375 3.984375 -0.203125 C 3.203125 -0.179688 2.296875 -0.113281 1.265625 0 L 1.296875 -1.171875 C 1.660156 -1.203125 1.976562 -1.226562 2.25 -1.25 C 2.53125 -1.28125 2.785156 -1.3125 3.015625 -1.34375 C 3.253906 -1.375 3.484375 -1.394531 3.703125 -1.40625 C 3.921875 -1.414062 4.15625 -1.429688 4.40625 -1.453125 C 4.539062 -5.492188 4.664062 -9.148438 4.78125 -12.421875 C 4.820312 -13.804688 4.863281 -15.175781 4.90625 -16.53125 C 4.957031 -17.894531 5.003906 -19.128906 5.046875 -20.234375 C 5.085938 -21.335938 5.117188 -22.257812 5.140625 -23 C 5.160156 -23.75 5.171875 -24.207031 5.171875 -24.375 C 5.171875 -25 5.128906 -25.5 5.046875 -25.875 C 4.972656 -26.25 4.851562 -26.539062 4.6875 -26.75 C 4.53125 -26.96875 4.316406 -27.125 4.046875 -27.21875 C 3.785156 -27.320312 3.472656 -27.398438 3.109375 -27.453125 L 2.25 -27.578125 L 2.25 -28.78125 C 2.632812 -28.726562 3.125 -28.671875 3.71875 -28.609375 C 4.226562 -28.566406 4.867188 -28.53125 5.640625 -28.5 C 6.421875 -28.476562 7.367188 -28.46875 8.484375 -28.46875 L 13.46875 -28.46875 C 14.019531 -28.46875 14.554688 -28.46875 15.078125 -28.46875 C 15.609375 -28.476562 16.140625 -28.492188 16.671875 -28.515625 C 17.210938 -28.535156 17.769531 -28.566406 18.34375 -28.609375 C 18.925781 -28.648438 19.550781 -28.707031 20.21875 -28.78125 L 19.578125 -21.78125 L 18.3125 -21.78125 C 18.320312 -22.0625 18.332031 -22.28125 18.34375 -22.4375 C 18.351562 -22.59375 18.359375 -22.71875 18.359375 -22.8125 C 18.359375 -22.90625 18.359375 -22.96875 18.359375 -23 C 18.359375 -23.03125 18.359375 -23.0625 18.359375 -23.09375 C 18.359375 -23.550781 18.296875 -23.984375 18.171875 -24.390625 C 18.054688 -24.804688 17.828125 -25.175781 17.484375 -25.5 C 17.148438 -25.820312 16.679688 -26.085938 16.078125 -26.296875 C 15.484375 -26.515625 14.703125 -26.660156 13.734375 -26.734375 L 8.65625 -27.078125 C 8.539062 -25.953125 8.453125 -24.804688 8.390625 -23.640625 C 8.328125 -22.472656 8.28125 -21.398438 8.25 -20.421875 L 8.09375 -15.765625 L 16.90625 -16.21875 Z M 16.703125 -13.59375 "/></g></g></g><g fill="#003070" fill-opacity="1"><g transform="translate(556.38919, 455.040941)"><g><path d="M 9.375 -0.9375 C 10.195312 -0.9375 10.96875 -1.0625 11.6875 -1.3125 C 12.414062 -1.570312 13.050781 -1.941406 13.59375 -2.421875 C 14.132812 -2.898438 14.554688 -3.488281 14.859375 -4.1875 C 15.171875 -4.882812 15.328125 -5.675781 15.328125 -6.5625 C 15.328125 -7.40625 15.128906 -8.171875 14.734375 -8.859375 C 14.347656 -9.554688 13.851562 -10.203125 13.25 -10.796875 C 12.65625 -11.390625 12.003906 -11.945312 11.296875 -12.46875 C 10.585938 -13 9.921875 -13.519531 9.296875 -14.03125 C 8.679688 -14.5 8.007812 -15.007812 7.28125 -15.5625 C 6.550781 -16.125 5.863281 -16.742188 5.21875 -17.421875 C 4.582031 -18.097656 4.046875 -18.84375 3.609375 -19.65625 C 3.171875 -20.46875 2.953125 -21.367188 2.953125 -22.359375 C 2.953125 -22.859375 3 -23.378906 3.09375 -23.921875 C 3.195312 -24.472656 3.367188 -25.003906 3.609375 -25.515625 C 3.847656 -26.035156 4.164062 -26.523438 4.5625 -26.984375 C 4.957031 -27.453125 5.453125 -27.859375 6.046875 -28.203125 C 6.640625 -28.554688 7.332031 -28.835938 8.125 -29.046875 C 8.925781 -29.253906 9.859375 -29.359375 10.921875 -29.359375 C 12.273438 -29.359375 13.578125 -29.25 14.828125 -29.03125 C 16.085938 -28.820312 17.171875 -28.582031 18.078125 -28.3125 L 17.625 -22.078125 L 16.453125 -22.078125 L 16.453125 -22.640625 C 16.453125 -23.160156 16.394531 -23.726562 16.28125 -24.34375 C 16.175781 -24.957031 15.9375 -25.519531 15.5625 -26.03125 C 15.1875 -26.550781 14.644531 -26.984375 13.9375 -27.328125 C 13.226562 -27.671875 12.269531 -27.84375 11.0625 -27.84375 C 10.351562 -27.84375 9.703125 -27.742188 9.109375 -27.546875 C 8.523438 -27.347656 8.023438 -27.066406 7.609375 -26.703125 C 7.203125 -26.335938 6.882812 -25.890625 6.65625 -25.359375 C 6.425781 -24.835938 6.3125 -24.253906 6.3125 -23.609375 C 6.3125 -22.753906 6.476562 -22 6.8125 -21.34375 C 7.15625 -20.6875 7.59375 -20.09375 8.125 -19.5625 C 8.65625 -19.039062 9.242188 -18.554688 9.890625 -18.109375 C 10.535156 -17.660156 11.160156 -17.21875 11.765625 -16.78125 C 12.679688 -16.113281 13.554688 -15.453125 14.390625 -14.796875 C 15.222656 -14.148438 15.957031 -13.460938 16.59375 -12.734375 C 17.226562 -12.015625 17.734375 -11.238281 18.109375 -10.40625 C 18.492188 -9.582031 18.6875 -8.671875 18.6875 -7.671875 C 18.6875 -6.515625 18.421875 -5.429688 17.890625 -4.421875 C 17.367188 -3.421875 16.671875 -2.546875 15.796875 -1.796875 C 14.921875 -1.054688 13.914062 -0.472656 12.78125 -0.046875 C 11.65625 0.378906 10.492188 0.59375 9.296875 0.59375 C 7.828125 0.59375 6.429688 0.472656 5.109375 0.234375 C 3.785156 0.00390625 2.632812 -0.257812 1.65625 -0.5625 L 2.15625 -7.125 L 3.4375 -7.125 L 3.4375 -6.390625 C 3.4375 -5.816406 3.503906 -5.207031 3.640625 -4.5625 C 3.773438 -3.914062 4.050781 -3.320312 4.46875 -2.78125 C 4.894531 -2.25 5.5 -1.804688 6.28125 -1.453125 C 7.0625 -1.109375 8.09375 -0.9375 9.375 -0.9375 Z M 9.375 -0.9375 "/></g></g></g></svg>