<svg xmlns="http://www.w3.org/2000/svg" enable-background="new 0 0 512 512" viewBox="0 0 512 512" id="task-management"><path fill="#80b4fb" fill-rule="evenodd" d="M21.597,367.088h162.645c7.489,0,13.597-6.108,13.597-13.597v-72.628c0-21.123-18.814-33.118-40.22-38.428
				c-35.943-8.916-72.382-9.518-109.399,0C26.865,247.925,8,259.728,8,280.862v72.628C8,360.98,14.108,367.088,21.597,367.088z" clip-rule="evenodd"></path><path fill="#61a2f9" fill-rule="evenodd" d="M171.225,367.088h13.018c7.489,0,13.597-6.108,13.597-13.597v-72.628c0-21.123-18.814-33.118-40.22-38.428
				c-20.398-5.06-40.956-7.441-61.688-6.815c16.328,0.491,32.549,2.816,48.671,6.815c21.406,5.31,40.22,17.305,40.22,38.428v72.628
				C184.822,360.98,178.714,367.088,171.225,367.088z" clip-rule="evenodd"></path><path fill="#ffece3" fill-rule="evenodd" d="M102.92,125.408c23.591,0,42.715,13.444,42.715,44.449c0,31.004-19.124,56.14-42.715,56.14
				c-23.59,0-42.714-25.135-42.714-56.14C60.206,138.853,79.329,125.408,102.92,125.408z" clip-rule="evenodd"></path><path fill="#ffddce" fill-rule="evenodd" d="M102.92,125.408c23.591,0,42.715,13.444,42.715,44.449c0,31.004-19.124,56.14-42.715,56.14
				c-2.169,0-4.3-0.214-6.383-0.624c20.563-4.05,36.332-27.362,36.332-55.515s-15.769-41.827-36.332-44.103
				C98.619,125.523,100.751,125.408,102.92,125.408z" clip-rule="evenodd"></path><g><path fill="#fc5692" fill-rule="evenodd" d="M423.905,37.108h60.222c10.93,0,19.872,8.942,19.872,19.872v60.222c0,10.93-8.942,19.872-19.872,19.872
				h-60.222c-10.929,0-19.872-8.943-19.872-19.872V56.98C404.033,46.05,412.976,37.108,423.905,37.108z" clip-rule="evenodd"></path><path fill="#fb3580" fill-rule="evenodd" d="M464.127,37.108h20.001c10.93,0,19.872,8.942,19.872,19.872v60.222c0,10.93-8.942,19.872-19.872,19.872
				h-20.001c10.93,0,19.872-8.943,19.872-19.872V56.98C483.999,46.05,475.057,37.108,464.127,37.108z" clip-rule="evenodd"></path></g><g><path fill="#b9ea6a" fill-rule="evenodd" d="M423.905,206.017h60.222c10.93,0,19.872,8.943,19.872,19.872v60.222c0,10.93-8.942,19.872-19.872,19.872
				h-60.222c-10.929,0-19.872-8.943-19.872-19.872v-60.222C404.033,214.959,412.976,206.017,423.905,206.017z" clip-rule="evenodd"></path><path fill="#a1e42c" fill-rule="evenodd" d="M464.127,206.017h20.001c10.93,0,19.872,8.943,19.872,19.872v60.222c0,10.93-8.942,19.872-19.872,19.872
				h-20.001c10.93,0,19.872-8.943,19.872-19.872v-60.222C483.999,214.959,475.057,206.017,464.127,206.017z" clip-rule="evenodd"></path></g><g><path fill="#fcdd2e" fill-rule="evenodd" d="M423.905,374.926h60.222c10.93,0,19.872,8.943,19.872,19.872v60.222c0,10.93-8.942,19.872-19.872,19.872
				h-60.222c-10.929,0-19.872-8.943-19.872-19.872v-60.222C404.033,383.868,412.976,374.926,423.905,374.926z" clip-rule="evenodd"></path><path fill="#fbd307" fill-rule="evenodd" d="M464.127,374.926h20.001c10.93,0,19.872,8.943,19.872,19.872v60.222c0,10.93-8.942,19.872-19.872,19.872
				h-20.001c10.93,0,19.872-8.943,19.872-19.872v-60.222C483.999,383.868,475.057,374.926,464.127,374.926z" clip-rule="evenodd"></path></g><path fill-rule="evenodd" d="M189.833,280.863c0-19.31-21.372-27.5-34.157-30.661c-17.833-4.425-35.619-6.638-53.264-6.638
		c-17.598,0-35.053,2.203-52.179,6.619c-15.616,4.01-34.251,12.592-34.251,30.68v72.63c0,3.086,2.548,5.595,5.614,5.595H43.11
		v-58.406c0-4.416,3.585-7.996,8.02-7.996s8.02,3.581,8.02,7.996v58.406h87.562v-58.406c0-4.416,3.586-7.996,8.02-7.996
		c4.388,0,7.973,3.581,7.973,7.996v58.406h21.513c3.114,0,5.614-2.51,5.614-5.595V280.863L189.833,280.863z M102.931,217.998
		c19.154,0,34.723-21.598,34.723-48.14c0-31.713-21.749-36.449-34.723-36.449s-34.723,4.737-34.723,36.449
		C68.208,196.4,83.777,217.998,102.931,217.998L102.931,217.998z M205.826,280.863v72.63c0,11.908-9.671,21.594-21.607,21.594
		H21.597c-11.889,0-21.607-9.686-21.607-21.594v-72.63c0-22.112,16.418-38.511,46.234-46.178
		c11.936-3.067,24.014-5.128,36.138-6.218c-17.739-9.992-30.147-32.496-30.147-58.609c0-32.355,19.437-52.448,50.716-52.448
		s50.716,20.093,50.716,52.448c0,26.165-12.455,48.702-30.288,58.67c12.031,1.099,24.108,3.147,36.186,6.143
		C188.984,241.969,205.826,258.802,205.826,280.863L205.826,280.863z M496.017,394.798c0-6.548-5.331-11.87-11.889-11.87H423.93
		c-6.558,0-11.889,5.322-11.889,11.87v60.222c0,6.544,5.331,11.87,11.889,11.87h60.199c6.558,0,11.889-5.326,11.889-11.87V394.798
		L496.017,394.798z M512.011,394.798v60.222c0,15.371-12.502,27.873-27.882,27.873H423.93c-15.38,0-27.882-12.502-27.882-27.873
		v-60.222c0-15.371,12.502-27.873,27.882-27.873h60.199C499.509,366.925,512.011,379.427,512.011,394.798L512.011,394.798z
		 M496.017,225.886c0-6.544-5.331-11.87-11.889-11.87H423.93c-6.558,0-11.889,5.327-11.889,11.87v60.223
		c0,6.548,5.331,11.875,11.889,11.875h60.199c6.558,0,11.889-5.326,11.889-11.875V225.886L496.017,225.886z M512.011,225.886v60.223
		c0,15.371-12.502,27.873-27.882,27.873H423.93c-15.38,0-27.882-12.502-27.882-27.873v-60.223c0-15.366,12.502-27.868,27.882-27.868
		h60.199C499.509,198.018,512.011,210.521,512.011,225.886L512.011,225.886z M496.017,56.98c0-6.543-5.331-11.87-11.889-11.87
		H423.93c-6.558,0-11.889,5.327-11.889,11.87v60.223c0,6.548,5.331,11.87,11.889,11.87h60.199c6.558,0,11.889-5.321,11.889-11.87
		V56.98L496.017,56.98z M512.011,56.98v60.223c0,15.371-12.502,27.873-27.882,27.873H423.93c-15.38,0-27.882-12.502-27.882-27.873
		V56.98c0-15.371,12.502-27.873,27.882-27.873h60.199C499.509,29.107,512.011,41.61,512.011,56.98L512.011,56.98z M317.26,95.09
		v152.908h47.508c4.435,0,8.02,3.586,8.02,8.001c0,4.421-3.586,8.001-8.02,8.001H317.26V416.91h47.508
		c4.435,0,8.02,3.581,8.02,8.001c0,4.416-3.586,7.997-8.02,7.997H309.24c-4.387,0-7.973-3.581-7.973-7.997v-160.91h-62.652
		c-4.435,0-8.02-3.581-8.02-8.001c0-4.416,3.585-8.001,8.02-8.001h62.652V87.089c0-4.416,3.586-7.997,7.973-7.997h55.528
		c4.435,0,8.02,3.581,8.02,7.997c0,4.42-3.586,8.001-8.02,8.001H317.26z" clip-rule="evenodd"></path></svg>