<svg xmlns="http://www.w3.org/2000/svg" viewBox="0 0 48 48" id="x-ray"><g data-name="x ray"><rect width="35.5" height="16.14" x="6.25" y="29.92" fill="#727176"></rect><g data-name="X ray"><path fill="#e5c4b5" d="M31.52,15.13V21a6.36,6.36,0,0,1-4.85,6.19,5.61,5.61,0,0,1-1.54.2H22.91a5.85,5.85,0,0,1-1.58-.21A6.36,6.36,0,0,1,16.52,21V15.13a6.4,6.4,0,0,1,6.39-6.4h2.22A6.4,6.4,0,0,1,31.52,15.13Z"></path><path fill="#5b5b5f" d="M36.94,40.46V46H11.06V40.46a12.71,12.71,0,0,1,.41-3.23v0a12.93,12.93,0,0,1,25,0v0A12.71,12.71,0,0,1,36.94,40.46Z"></path><path fill="#563319" d="M31.13,12.85a.64.64,0,0,1-.25.68,14.67,14.67,0,0,1-7.76,2.55c-4.48,0-8.12-1.77-8.12-3.95s3.19-4,8.12-4C29.42,8.26,30.82,11.63,31.13,12.85Z"></path><polygon fill="#383838" points="26.81 37.65 24.74 36.2 24.74 30.23 23.25 30.26 23.24 36.19 21.19 37.63 21.39 39.38 23.99 37.5 26.47 39.31 26.81 37.65"></polygon><path fill="#99989d" d="M22.12 37.63c.11-.61.4-2.53-.32-3.24a1 1 0 00-.91-.27c-.16 0-4 .67-4.14 7.69 0 .22-.13 1.34.56 1.83a1.07 1.07 0 00.65.2 1.77 1.77 0 00.81-.21 17.34 17.34 0 011.85-.72 2.34 2.34 0 001.65-2.35A22.2 22.2 0 0122.12 37.63zM31.26 41.86c-.14-7.07-4-7.71-4.12-7.73a1 1 0 00-.94.26c-.72.71-.43 2.63-.32 3.24a23.74 23.74 0 01-.15 3 2.34 2.34 0 001.67 2.31 15.63 15.63 0 011.82.71 1.94 1.94 0 00.82.21 1.07 1.07 0 00.65-.2A2 2 0 0031.26 41.86z"></path><path fill="#ceb0a5" d="M24,23.16c.58,0,1.07.34,1.07.74h1.3a2.22,2.22,0,0,0-2.37-2,2.22,2.22,0,0,0-2.36,2H23C23,23.5,23.44,23.16,24,23.16Z"></path></g><rect width="25.88" height=".67" x="11.06" y="45.33" fill="#4c4c4c"></rect><path fill="#f98a8a" d="M31.76,30.12a12.88,12.88,0,0,0-15.49,0"></path><path fill="#e5c4b5" d="M26.72,27.69a2.72,2.72,0,0,1-5.44,0,3.07,3.07,0,0,1,0-.53,5.85,5.85,0,0,0,1.58.21h2.22a5.61,5.61,0,0,0,1.54-.2A3,3,0,0,1,26.72,27.69Z"></path><path fill="#444242" d="M5.5,29.17V46.81h37V29.17ZM41,45.31H7V30.67H41Z"></path></g></svg>